<svg preserveAspectRatio="none" width="100%" height="100%" overflow="visible" style="display: block;" viewBox="0 0 71 11" fill="none" xmlns="http://www.w3.org/2000/svg">
<path id="Vector" d="M2.3677 2.06719V4.06407H5.5385V5.92027H2.3677V8.08597H5.9538V10.0125H0V0.14062H5.9538V2.06719H2.3677ZM9.8171 0.14062V6.04687C9.8171 6.63747 9.9602 7.09217 10.2464 7.41097C10.5325 7.72967 10.9525 7.88907 11.5064 7.88907C12.0602 7.88907 12.4848 7.72967 12.7802 7.41097C13.0756 7.09217 13.2233 6.63747 13.2233 6.04687V0.14062H15.591V6.03277C15.591 6.91407 15.4064 7.65937 15.0371 8.26877C14.6679 8.87817 14.1695 9.33747 13.5418 9.64687C12.9233 9.95627 12.231 10.111 11.4648 10.111C10.6987 10.111 10.011 9.96097 9.4018 9.66097C8.8018 9.35157 8.3264 8.89217 7.9756 8.28277C7.6248 7.66407 7.4495 6.91407 7.4495 6.03277V0.14062H9.8171ZM22.2105 10.0125L20.189 6.28597H19.6213V10.0125H17.2536V0.14062H21.2275C21.9936 0.14062 22.6444 0.27656 23.1798 0.54844C23.7244 0.820309 24.1305 1.19531 24.3982 1.67344C24.6659 2.14219 24.7998 2.66717 24.7998 3.24847C24.7998 3.90467 24.6151 4.49067 24.2459 5.00627C23.8859 5.52187 23.3505 5.88747 22.6398 6.10317L24.8828 10.0125H22.2105ZM19.6213 4.58437H21.089C21.5228 4.58437 21.8459 4.47657 22.0582 4.26097C22.2798 4.04527 22.3905 3.74067 22.3905 3.34687C22.3905 2.97187 22.2798 2.67657 22.0582 2.46097C21.8459 2.24531 21.5228 2.1375 21.089 2.1375H19.6213V4.58437ZM30.883 10.111C29.9691 10.111 29.1291 9.89527 28.363 9.46407C27.6061 9.03277 27.0015 8.43277 26.5491 7.66407C26.1061 6.88597 25.8845 6.01407 25.8845 5.04847C25.8845 4.08277 26.1061 3.21567 26.5491 2.44687C27.0015 1.67812 27.6061 1.07812 28.363 0.64687C29.1291 0.21562 29.9691 0 30.883 0C31.7968 0 32.6322 0.21562 33.3891 0.64687C34.1553 1.07812 34.7553 1.67812 35.1891 2.44687C35.6322 3.21567 35.8538 4.08277 35.8538 5.04847C35.8538 6.01407 35.6322 6.88597 35.1891 7.66407C34.7461 8.43277 34.1461 9.03277 33.3891 9.46407C32.6322 9.89527 31.7968 10.111 30.883 10.111ZM30.883 7.91717C31.6584 7.91717 32.2768 7.65467 32.7384 7.12967C33.2092 6.60467 33.4445 5.91097 33.4445 5.04847C33.4445 4.17657 33.2092 3.48277 32.7384 2.96717C32.2768 2.44217 31.6584 2.17969 30.883 2.17969C30.0984 2.17969 29.4707 2.43747 28.9999 2.95317C28.5384 3.46877 28.3076 4.16717 28.3076 5.04847C28.3076 5.92027 28.5384 6.61877 28.9999 7.14377C29.4707 7.65937 30.0984 7.91717 30.883 7.91717ZM44.1482 10.0125L41.8498 6.00467H40.3267V10.0125H39.0667V0.21094H42.1821C42.9113 0.21094 43.5252 0.3375 44.0236 0.59062C44.5313 0.84375 44.9098 1.18594 45.159 1.61719C45.4082 2.04844 45.5328 2.54067 45.5328 3.09377C45.5328 3.76877 45.339 4.36407 44.9513 4.87967C44.5728 5.39527 44.0005 5.73747 43.2344 5.90627L45.6575 10.0125H44.1482ZM40.3267 4.97817H42.1821C42.8651 4.97817 43.3775 4.80937 43.719 4.47187C44.0605 4.12497 44.2313 3.66567 44.2313 3.09377C44.2313 2.51247 44.0605 2.0625 43.719 1.74375C43.3867 1.425 42.8744 1.26562 42.1821 1.26562H40.3267V4.97817ZM48.7508 1.25156V4.52817H52.2677V5.58277H48.7508V8.95777H52.6831V10.0125H47.4907V0.19687H52.6831V1.25156H48.7508ZM62.1769 10.0125H60.9169L55.8492 2.20781V10.0125H54.5892V0.19687H55.8492L60.9169 7.98747V0.19687H62.1769V10.0125ZM70.2654 0.21094V1.25156H67.6346V10.0125H66.3746V1.25156H63.73V0.21094H70.2654Z" fill="var(--fill-0, black)"/>
</svg>
