<svg preserveAspectRatio="none" width="100%" height="100%" overflow="visible" style="display: block;" viewBox="0 0 60 25" fill="none" xmlns="http://www.w3.org/2000/svg">
<g id="svg752044281_7724">
<path id="Vector" d="M9.53836 15.1598H1.71338V0.687469H9.52012V2.02151H3.02666V7.2364H8.9182V8.55023H3.02666V13.8258H9.53836V15.1598ZM15.397 15.4024C12.8251 15.4024 11.3112 13.2194 11.3112 10.2885C11.3112 7.33747 12.8251 5.11406 15.4517 5.11406C16.9109 5.11406 18.0782 5.82151 18.6984 7.2364V0.424702H19.957V15.1598H18.8626L18.7349 13.1587C18.1147 14.6747 16.8744 15.4024 15.397 15.4024ZM15.6158 14.129C17.5493 14.129 18.6802 12.5119 18.6802 10.2481C18.6802 8.00449 17.5493 6.36726 15.6158 6.36726C13.7006 6.36726 12.588 8.00449 12.588 10.2481C12.588 12.5119 13.7006 14.129 15.6158 14.129ZM28.7848 5.37683H30.0434V15.1598H28.949L28.7848 13.5024C28.2923 14.6343 27.0703 15.4024 25.684 15.4024C23.6047 15.4024 22.4738 13.8258 22.4738 11.4407V5.35662H23.7506V10.996C23.7506 13.3204 24.6808 14.1492 26.0853 14.1492C27.7816 14.1492 28.7848 12.896 28.7848 10.5715V5.37683ZM33.9784 15.1598H31.5525L36.3678 0.384277H38.7573L43.5726 15.1598H41.1102L40.0341 11.7439H35.0545L33.9784 15.1598ZM37.2616 4.79066L35.7477 9.56087H39.3592L37.827 4.79066C37.7176 4.40662 37.5899 3.96194 37.5534 3.65875C37.4987 3.94172 37.3893 4.3864 37.2616 4.79066ZM43.9776 10.147C43.9776 7.05449 45.8198 4.87151 48.4829 4.87151C50.9453 4.87151 52.6234 6.38747 52.8605 8.79279H50.6352C50.3798 7.66087 49.632 7.0747 48.5741 7.0747C47.1514 7.0747 46.2029 8.26726 46.2029 10.147C46.2029 12.0268 47.0784 13.1992 48.5011 13.1992C49.6138 13.1992 50.3981 12.5928 50.6352 11.5013H52.8787C52.6051 13.8258 50.8541 15.4226 48.5011 15.4226C45.7651 15.4226 43.9776 13.3204 43.9776 10.147ZM57.5995 15.1598H55.3742V7.2364H53.6414V5.1747H55.3742V2.06194H57.5995V5.1747H59.3506V7.2364H57.5995V15.1598Z" fill="var(--fill-0, black)"/>
<path id="Vector_2" d="M2.9638 23.1381H1.58716V18.5232H2.94076C4.18492 18.5232 5.02587 19.4551 5.02587 20.8338C5.02587 22.2061 4.19644 23.1381 2.9638 23.1381ZM2.90044 19.0976H2.15164V22.5572H2.92348C3.85084 22.5572 4.43836 21.8934 4.43836 20.8338C4.43836 19.7615 3.85084 19.0976 2.90044 19.0976ZM5.91685 19.2764C5.72101 19.2764 5.55973 19.0976 5.55973 18.8806C5.55973 18.6572 5.72101 18.4849 5.91685 18.4849C6.11269 18.4849 6.27397 18.6572 6.27397 18.8806C6.27397 19.0976 6.11269 19.2764 5.91685 19.2764ZM5.65189 23.1381V20.0168H6.19333V23.1381H5.65189ZM7.52082 23.1381H6.97938V20.0168H7.46898L7.52658 20.4955C7.70514 20.1381 8.06226 19.9274 8.4597 19.9274C9.20274 19.9274 9.54258 20.4317 9.54258 21.2295V23.1381H9.00114V21.3636C9.00114 20.7317 8.73618 20.4764 8.32146 20.4764C7.81458 20.4764 7.52082 20.8785 7.52082 21.4849V23.1381ZM12.1325 19.2764C11.9366 19.2764 11.7753 19.0976 11.7753 18.8806C11.7753 18.6572 11.9366 18.4849 12.1325 18.4849C12.3283 18.4849 12.4896 18.6572 12.4896 18.8806C12.4896 19.0976 12.3283 19.2764 12.1325 19.2764ZM11.8675 23.1381V20.0168H12.4089V23.1381H11.8675ZM13.7364 23.1381H13.195V20.0168H13.6846L13.7422 20.4955C13.9208 20.1381 14.2779 19.9274 14.6753 19.9274C15.4184 19.9274 15.7582 20.4317 15.7582 21.2295V23.1381H15.2168V21.3636C15.2168 20.7317 14.9518 20.4764 14.5371 20.4764C14.0302 20.4764 13.7364 20.8785 13.7364 21.4849V23.1381ZM16.7731 19.2764C16.5772 19.2764 16.4159 19.0976 16.4159 18.8806C16.4159 18.6572 16.5772 18.4849 16.7731 18.4849C16.9689 18.4849 17.1302 18.6572 17.1302 18.8806C17.1302 19.0976 16.9689 19.2764 16.7731 19.2764ZM16.5081 23.1381V20.0168H17.0495V23.1381H16.5081ZM18.3771 23.1381H17.8356V20.0168H18.3195L18.3713 20.4253C18.5153 20.1317 18.8148 19.9274 19.2123 19.9274C19.65 19.9274 19.9611 20.17 20.1051 20.5593C20.2376 20.17 20.5774 19.9274 21.0152 19.9274C21.6603 19.9274 22.052 20.3742 22.052 21.0955V23.1381H21.522V21.2423C21.522 20.7508 21.2744 20.47 20.8942 20.47C20.4852 20.47 20.2145 20.7891 20.2145 21.287V23.1381H19.6788V21.2359C19.6788 20.7444 19.4369 20.4764 19.0568 20.4764C18.6478 20.4764 18.3771 20.7891 18.3771 21.287V23.1381ZM23.6262 23.2147C23.0214 23.2147 22.6642 22.8381 22.6642 22.27C22.6642 21.6955 23.0502 21.3381 23.7126 21.2806L24.5996 21.204V21.1147C24.5996 20.5912 24.3174 20.4061 23.9372 20.4061C23.4822 20.4061 23.223 20.6295 23.223 21.0061H22.7506C22.7506 20.3551 23.2345 19.9274 23.9602 19.9274C24.6572 19.9274 25.1295 20.3359 25.1295 21.1785V23.1381H24.6687L24.6111 22.6338C24.4671 22.9912 24.0812 23.2147 23.6262 23.2147ZM23.7817 22.7487C24.2943 22.7487 24.6054 22.3785 24.6054 21.7912V21.6253L23.8854 21.6891C23.4073 21.7402 23.2114 21.9444 23.2114 22.2508C23.2114 22.5827 23.4303 22.7487 23.7817 22.7487ZM27.4544 24.5359V20.0168H27.944L27.9843 20.5785C28.1744 20.1508 28.5545 19.9274 29.0038 19.9274C29.8102 19.9274 30.3113 20.5976 30.3113 21.5551C30.3113 22.5061 29.839 23.221 29.0038 23.221C28.5545 23.221 28.1801 23.0104 27.9958 22.6274V24.5359H27.4544ZM28.0016 21.5806C28.0016 22.2189 28.3356 22.6785 28.8886 22.6785C29.4416 22.6785 29.7699 22.2189 29.7699 21.5806C29.7699 20.9359 29.4416 20.4764 28.8886 20.4764C28.3356 20.4764 28.0016 20.9295 28.0016 21.5806ZM32.1235 23.2147C31.294 23.2147 30.7238 22.5508 30.7238 21.5806C30.7238 20.604 31.2825 19.9274 32.1004 19.9274C32.9011 19.9274 33.4252 20.5402 33.4252 21.4657V21.6891L31.2479 21.6955C31.2883 22.3529 31.5993 22.7168 32.135 22.7168C32.5555 22.7168 32.8319 22.5253 32.9241 22.1678H33.431C33.2928 22.8381 32.8204 23.2147 32.1235 23.2147ZM32.1004 20.4317C31.6281 20.4317 31.3286 20.7444 31.2595 21.2934H32.8838C32.8838 20.7764 32.5785 20.4317 32.1004 20.4317ZM34.5715 23.1381H34.03V20.0168H34.5196L34.5772 20.4955C34.7558 20.1381 35.1129 19.9274 35.5103 19.9274C36.2534 19.9274 36.5932 20.4317 36.5932 21.2295V23.1381H36.0518V21.3636C36.0518 20.7317 35.7868 20.4764 35.3721 20.4764C34.8652 20.4764 34.5715 20.8785 34.5715 21.4849V23.1381ZM38.138 23.1381H37.5966V20.521H37.0436V20.0168H37.5966V19.0402H38.138V20.0168H38.691V20.521H38.138V23.1381ZM40.7897 19.9912V20.5402H40.5477C40.0351 20.5402 39.7183 20.8849 39.7183 21.4849V23.1381H39.1769V20.0232H39.6837L39.7183 20.4955C39.8335 20.17 40.1157 19.9529 40.5017 19.9529C40.5996 19.9529 40.6802 19.9657 40.7897 19.9912ZM43.2444 20.0168H43.7801V23.1381H43.2962L43.2386 22.6657C43.0773 22.9912 42.7029 23.2147 42.2882 23.2147C41.6316 23.2147 41.2629 22.7232 41.2629 21.9572V20.0168H41.8044V21.7593C41.8044 22.4295 42.0636 22.6849 42.4783 22.6849C42.9737 22.6849 43.2444 22.3338 43.2444 21.6636V20.0168ZM46.9297 23.1381L45.795 20.0168H46.371L46.9873 21.7593C47.0853 22.0529 47.1659 22.3147 47.212 22.5061C47.2581 22.3019 47.3502 22.0338 47.4481 21.7593L48.0758 20.0168H48.6403L47.4654 23.1381H46.9297ZM49.3363 19.2764C49.1404 19.2764 48.9791 19.0976 48.9791 18.8806C48.9791 18.6572 49.1404 18.4849 49.3363 18.4849C49.5321 18.4849 49.6934 18.6572 49.6934 18.8806C49.6934 19.0976 49.5321 19.2764 49.3363 19.2764ZM49.0713 23.1381V20.0168H49.6127V23.1381H49.0713ZM50.6639 19.2764C50.4681 19.2764 50.3068 19.0976 50.3068 18.8806C50.3068 18.6572 50.4681 18.4849 50.6639 18.4849C50.8598 18.4849 51.0211 18.6572 51.0211 18.8806C51.0211 19.0976 50.8598 19.2764 50.6639 19.2764ZM50.399 23.1381V20.0168H50.9404V23.1381H50.399ZM52.5211 23.1381H51.9796V20.521H51.4267V20.0168H51.9796V19.0402H52.5211V20.0168H53.074V20.521H52.5211V23.1381ZM53.3476 21.5742C53.3476 20.6104 53.9697 19.9338 54.8164 19.9338C55.6574 19.9338 56.2795 20.6104 56.2795 21.5742C56.2795 22.5381 55.6574 23.2147 54.8164 23.2147C53.9697 23.2147 53.3476 22.5381 53.3476 21.5742ZM53.8948 21.5742C53.8948 22.2253 54.2692 22.6785 54.8164 22.6785C55.3579 22.6785 55.738 22.2253 55.738 21.5742C55.738 20.9232 55.3579 20.47 54.8164 20.47C54.2692 20.47 53.8948 20.9232 53.8948 21.5742ZM58.4918 19.9912V20.5402H58.2499C57.7372 20.5402 57.4204 20.8849 57.4204 21.4849V23.1381H56.879V20.0232H57.3859L57.4204 20.4955C57.5356 20.17 57.8179 19.9529 58.2038 19.9529C58.3017 19.9529 58.3823 19.9657 58.4918 19.9912Z" fill="var(--fill-0, black)"/>
</g>
</svg>
