<svg preserveAspectRatio="none" width="100%" height="100%" overflow="visible" style="display: block;" viewBox="0 0 119 28" fill="none" xmlns="http://www.w3.org/2000/svg">
<g id="svg-107370052_4125" clip-path="url(#clip0_851_2262)">
<path id="Vector" fill-rule="evenodd" clip-rule="evenodd" d="M12.7459 0.0426706C3.21756 0.874972 -2.72737 11.0847 1.25502 19.7857C3.9538 26.0079 11.3835 29.3427 17.8613 27.4896C34.2033 22.5082 29.7365 -1.13736 12.7459 0.0426706ZM6.12229 4.0976C5.90198 4.26473 5.19384 4.87382 5.02412 5.09928C6.76948 5.70116 6.8203 6.61576 6.8689 7.49042C6.89966 8.04363 6.92951 8.58088 7.38682 9.01292C7.93002 9.52651 8.7794 9.48402 9.66357 9.43978C10.7645 9.38469 11.9194 9.32687 12.6045 10.3366C13.026 10.9568 13.2598 11.7622 13.0598 12.489C12.4481 14.687 10.0616 14.5906 8.09977 14.5111C6.7808 14.4577 5.6538 14.4121 5.38718 15.0768C4.89374 16.3085 6.02561 17.0084 7.26544 17.0341C9.30216 17.0757 10.1238 20.249 8.45684 21.549C7.7644 22.2186 6.39923 22.1775 5.26502 22.1434C4.86569 22.1314 4.49499 22.1202 4.19235 22.1414C8.99976 28.1626 18.7618 27.8799 23.4142 22.6135C23.476 22.544 23.8064 22.1817 23.8615 22.1414C22.3283 22.3533 20.5929 21.5636 20.4097 19.8856C20.3988 19.7839 20.3933 19.6847 20.3879 19.5882C20.3645 19.1733 20.3441 18.8099 19.9219 18.5159C19.3186 18.1896 18.6259 18.2369 17.9326 18.2842C17.444 18.3175 16.9551 18.3508 16.4969 18.2535C15.256 18.0348 14.3287 16.8345 14.4232 15.5827C14.5216 13.2242 16.463 13.2419 18.3259 13.2588C19.7606 13.2719 21.1488 13.2846 21.6124 12.2109C21.7765 11.5188 21.3606 10.8065 20.6682 10.6237C20.3115 10.5297 19.9261 10.5517 19.543 10.5735C19.2767 10.5887 19.0113 10.6039 18.7574 10.5799C16.1968 10.3365 15.6843 6.60349 18.1054 5.68257C18.889 5.42119 20.3038 5.46666 21.572 5.50743C22.3122 5.53122 23.0024 5.55341 23.4883 5.51207C19.2564 0.601248 11.104 -0.0112025 6.12229 4.0976ZM35.6087 22.1667H38.2603V11.2887L45.4994 22.1667H48.1509V6.81567H45.4994V17.6937L38.2812 6.81567H35.6087V22.1667ZM50.7143 19.2057C50.7143 21.1587 52.0611 22.4397 54.2707 22.4397C55.8911 22.4397 57.301 21.7047 57.7429 20.6337L57.9323 22.1667H60.184V15.8667C60.184 12.9897 58.4585 11.4777 55.6596 11.4777C52.8397 11.4777 50.9879 12.9477 50.9879 15.1947H53.1764C53.1764 14.1027 54.0182 13.4727 55.5333 13.4727C56.838 13.4727 57.6798 14.0397 57.6798 15.4467V15.6777L54.5653 15.9087C52.1032 16.0977 50.7143 17.2947 50.7143 19.2057ZM57.7009 17.9667C57.7009 19.5627 56.6908 20.5077 55.1125 20.5077C53.955 20.5077 53.3237 20.0457 53.3237 19.1007C53.3237 18.2607 53.934 17.7357 55.5333 17.5887L57.7009 17.4207V17.9667ZM61.1168 11.7927L65.2414 22.1667H67.7666L72.1014 11.7927H69.4501L67.5562 16.5597C67.1143 17.6937 66.7355 18.7857 66.5882 19.4367C66.4619 18.8697 66.1041 17.7987 65.6622 16.5597L63.8525 11.7927H61.1168ZM73.283 8.15969C73.283 9.02069 73.9774 9.71369 74.8615 9.71369C75.7029 9.71369 76.3973 9.02069 76.3973 8.15969C76.3973 7.29869 75.7029 6.62667 74.8615 6.62667C73.9774 6.62667 73.283 7.29869 73.283 8.15969ZM73.5777 11.7927V22.1667H76.1446V11.7927H73.5777ZM79.7657 22.1667H82.3326V13.9347H84.3528V11.7927H82.3326V8.55869H79.7657V11.7927H77.7665V13.9347H79.7657V22.1667ZM85.2362 16.9797C85.2362 20.1927 87.4034 22.4397 90.4967 22.4397C93.212 22.4397 95.1055 21.0747 95.5479 18.8067H93.1693C92.8753 19.7937 91.9492 20.3397 90.5394 20.3397C88.8349 20.3397 87.8668 19.4157 87.6771 17.5887L95.5052 17.5677V16.7907C95.5052 13.5567 93.527 11.4777 90.4127 11.4777C87.3614 11.4777 85.2362 13.7247 85.2362 16.9797ZM87.7401 15.9507C87.9928 14.3967 88.9189 13.5777 90.4337 13.5777C91.9702 13.5777 92.9593 14.5227 92.9593 15.9507H87.7401ZM102.148 11.4777C99.0752 11.4777 96.95 13.7457 96.95 16.9587C96.95 20.2557 99.0122 22.4397 102.168 22.4397C104.884 22.4397 106.904 20.7807 107.22 18.3657H104.631C104.357 19.4997 103.452 20.1297 102.168 20.1297C100.528 20.1297 99.5176 18.9117 99.5176 16.9587C99.5176 15.0057 100.612 13.7667 102.253 13.7667C103.474 13.7667 104.336 14.3757 104.631 15.5517H107.199C106.925 13.0527 104.989 11.4777 102.148 11.4777ZM109.13 22.1667H111.698V16.4967C111.698 14.9427 112.645 13.8087 114.265 13.8087C115.57 13.8087 116.432 14.6487 116.432 16.3917V22.1667H119V15.7827C119 13.0947 117.653 11.4777 115.086 11.4777C113.592 11.4777 112.371 12.1287 111.719 13.1367V6.54267H109.13V22.1667Z" fill="var(--fill-0, black)"/>
</g>
<defs>
<clipPath id="clip0_851_2262">
<rect width="119" height="28" fill="white"/>
</clipPath>
</defs>
</svg>
