<svg preserveAspectRatio="none" width="100%" height="100%" overflow="visible" style="display: block;" viewBox="0 0 110 17" fill="none" xmlns="http://www.w3.org/2000/svg">
<g id="Group">
<path id="Vector" d="M19.4206 16.7808V0H23.2824L32.4276 11.1712H30.6033V0H35.1996V16.7808H31.3378L22.1926 5.60959H24.0169V16.7808H19.4206Z" fill="var(--fill-0, black)"/>
<path id="Vector_2" d="M0 16.7808L7.32092 0H11.941L19.2856 16.7808H14.405L8.67138 2.32534H10.5194L4.78584 16.7808H0ZM4.004 13.5205L5.21231 10.0205H13.3151L14.5234 13.5205H4.004Z" fill="var(--fill-0, black)"/>
<path id="Vector_3" d="M40.8561 16.7808V3.7637H35.7622V0H50.6173V3.7637H45.5472V16.7808H40.8561Z" fill="var(--fill-0, black)"/>
<path id="Vector_4" d="M62.2733 0H66.9644V16.7808H62.2733V0ZM55.8764 16.7808H51.1853V0H55.8764V16.7808ZM62.605 10.2363H55.5447V6.30481H62.605V10.2363Z" fill="var(--fill-0, black)"/>
<path id="Vector_5" d="M73.4022 6.49661H81.1022V10.0445H73.4022V6.49661ZM73.7339 13.113H82.4053V16.7808H69.0902V0H82.0973V3.66781H73.7339V13.113Z" fill="var(--fill-0, black)"/>
<path id="Vector_6" d="M83.8129 16.7808V0H87.6747L94.5455 11.4109H92.508L99.1892 0H103.051L103.098 16.7808H98.7864L98.739 6.64041H99.4735L94.4744 15.1267H92.3895L87.2483 6.64041H88.1486V16.7808H83.8129Z" fill="var(--fill-0, black)"/>
<path id="Vector_7" d="M107.103 16.9656C106.453 16.9656 105.905 16.7464 105.458 16.308C105.011 15.8697 104.788 15.3149 104.788 14.6436C104.788 13.945 105.011 13.3902 105.458 12.9793C105.905 12.5546 106.453 12.3423 107.103 12.3423C107.753 12.3423 108.301 12.5546 108.748 12.9793C109.194 13.3902 109.418 13.945 109.418 14.6436C109.418 15.3149 109.194 15.8697 108.748 16.308C108.301 16.7464 107.753 16.9656 107.103 16.9656Z" fill="var(--fill-0, black)"/>
</g>
</svg>
