<svg preserveAspectRatio="none" width="100%" height="100%" overflow="visible" style="display: block;" viewBox="0 0 214 56" fill="none" xmlns="http://www.w3.org/2000/svg">
<g id="image">
<path id="Vector" d="M76.159 40.873H71.891V16.325H76.193L87.814 33.72V16.325H92.082V40.873H87.814L76.159 23.478V40.873ZM101.935 41.309C98.377 41.309 96.209 39.261 96.209 36.138C96.209 33.082 98.445 31.168 102.409 30.866L107.423 30.496V30.127C107.423 27.877 106.068 26.97 103.967 26.97C101.528 26.97 100.173 27.978 100.173 29.724H96.65C96.65 26.131 99.631 23.78 104.171 23.78C108.677 23.78 111.455 26.198 111.455 30.798V40.873H107.83L107.525 38.421C106.813 40.134 104.543 41.309 101.935 41.309ZM103.29 38.22C105.831 38.22 107.457 36.709 107.457 34.157V33.283L103.967 33.552C101.393 33.787 100.41 34.627 100.41 35.97C100.41 37.481 101.427 38.22 103.29 38.22ZM119.596 40.873L112.956 24.284H117.36L120.274 31.907C120.985 33.888 121.561 35.601 121.765 36.507C122.002 35.466 122.611 33.72 123.323 31.907L126.372 24.284H130.641L123.662 40.873H119.596ZM135.083 20.959C133.66 20.959 132.542 19.851 132.542 18.474C132.542 17.097 133.66 16.022 135.083 16.022C136.439 16.022 137.556 17.097 137.556 18.474C137.556 19.851 136.439 20.959 135.083 20.959ZM133.017 40.873V24.284H137.15V40.873H133.017ZM147.112 40.873H142.979V27.709H139.76V24.284H142.979V19.112H147.112V24.284H150.364V27.709H147.112V40.873ZM160.256 41.309C155.276 41.309 151.786 37.716 151.786 32.578C151.786 27.373 155.208 23.78 160.12 23.78C165.134 23.78 168.319 27.104 168.319 32.276V33.519L155.716 33.552C156.021 36.474 157.579 37.951 160.324 37.951C162.593 37.951 164.084 37.078 164.558 35.5H168.387C167.676 39.127 164.625 41.309 160.256 41.309ZM160.154 27.138C157.715 27.138 156.224 28.448 155.818 30.933H164.219C164.219 28.649 162.627 27.138 160.154 27.138ZM170.644 32.545C170.644 27.407 174.066 23.78 179.013 23.78C183.586 23.78 186.702 26.298 187.143 30.295H183.01C182.535 28.414 181.146 27.44 179.182 27.44C176.538 27.44 174.777 29.422 174.777 32.545C174.777 35.668 176.403 37.615 179.046 37.615C181.113 37.615 182.57 36.608 183.01 34.795H187.178C186.669 38.656 183.416 41.309 179.046 41.309C173.964 41.309 170.644 37.817 170.644 32.545ZM194.386 40.873H190.254V15.888H194.421V26.433C195.471 24.821 197.436 23.78 199.841 23.78C203.975 23.78 206.143 26.366 206.143 30.664V40.873H202.009V31.638C202.009 28.851 200.62 27.507 198.52 27.507C195.912 27.507 194.386 29.321 194.386 31.806V40.873Z" fill="var(--fill-0, black)"/>
<path id="Vector_2" d="M2.526 39.565C-5.488 22.172 6.475 1.764 25.649 0.1C59.841 -2.258 68.83 45.007 35.943 54.964C22.908 58.668 7.957 52.002 2.526 39.565ZM13.823 14.987C13.885 16.093 13.945 17.167 14.865 18.03C15.958 19.057 17.667 18.972 19.447 18.883C21.662 18.773 23.986 18.658 25.365 20.676C26.213 21.916 26.684 23.526 26.281 24.979C25.05 29.372 20.248 29.179 16.3 29.021C13.646 28.914 11.378 28.823 10.841 30.151C9.848 32.613 12.126 34.012 14.621 34.064C18.719 34.147 20.373 40.49 17.018 43.089C15.625 44.427 12.878 44.345 10.595 44.277C9.792 44.253 9.046 44.231 8.437 44.273C18.111 56.308 37.756 55.744 47.118 45.217C47.242 45.078 47.908 44.353 48.018 44.273C44.933 44.696 41.441 43.118 41.072 39.764C41.05 39.56 41.039 39.362 41.028 39.169C40.981 38.34 40.94 37.613 40.09 37.026C38.876 36.374 37.482 36.468 36.087 36.563C35.104 36.629 34.12 36.696 33.198 36.501C30.701 36.064 28.835 33.665 29.025 31.163C29.223 26.448 33.13 26.484 36.878 26.517C39.766 26.544 42.559 26.569 43.492 24.423C43.822 23.039 42.986 21.616 41.592 21.25C40.874 21.062 40.099 21.106 39.328 21.15C38.792 21.18 38.258 21.21 37.747 21.162C32.594 20.676 31.563 13.214 36.435 11.373C38.012 10.851 40.859 10.942 43.411 11.023C44.9 11.071 46.29 11.115 47.267 11.032C38.751 1.216 22.345 -0.00800039 12.32 8.205C11.877 8.539 10.452 9.757 10.11 10.207C13.623 11.41 13.725 13.239 13.823 14.987Z" fill="var(--fill-0, black)"/>
</g>
</svg>
