<svg preserveAspectRatio="none" width="100%" height="100%" overflow="visible" style="display: block;" viewBox="0 0 25 25" fill="none" xmlns="http://www.w3.org/2000/svg">
<g id="svg-1196577711_1766">
<path id="Vector" d="M13.765 20.07C13.788 17.775 13.206 15.909 12.466 15.902C11.726 15.8945 11.108 17.749 11.086 20.0435C11.063 22.3385 11.645 24.204 12.385 24.2115C13.125 24.2185 13.743 22.365 13.765 20.07ZM9.4735 19.5485C10.7335 17.6305 11.2525 15.746 10.634 15.34C10.0155 14.9335 8.493 16.1595 7.2335 18.0775C5.9735 19.996 5.454 21.88 6.073 22.2865C6.6915 22.6925 8.214 21.4665 9.4735 19.5485ZM6.14 16.7965C8.2365 15.864 9.692 14.5595 9.3915 13.8835C9.0905 13.2075 7.147 13.415 5.0505 14.348C2.9535 15.2805 1.498 16.5845 1.7985 17.261C2.0995 17.937 4.0435 17.729 6.14 16.7965ZM9.14 11.987C9.2525 11.256 7.505 10.38 5.237 10.0305C2.969 9.6815 1.039 9.9915 0.9265 10.723C0.814 11.4545 2.5615 12.3305 4.829 12.6795C7.0975 13.0285 9.027 12.7185 9.1395 11.987H9.14ZM9.954 10.245C10.444 9.69 9.4475 8.009 7.728 6.489C6.0085 4.9695 4.2175 4.187 3.7275 4.7415C3.2375 5.2965 4.234 6.9775 5.9535 8.4975C7.6725 10.017 9.4635 10.8 9.954 10.245ZM11.5755 9.2265C12.288 9.025 12.3585 7.0715 11.734 4.8635C11.109 2.6555 10.025 1.0285 9.313 1.2305C8.601 1.432 8.53 3.3855 9.155 5.5935C9.78 7.801 10.8635 9.428 11.5755 9.2265ZM15.979 5.662C16.6475 3.467 16.6155 1.512 15.9075 1.297C15.199 1.0815 14.0835 2.686 13.4155 4.8815C12.747 7.0765 12.7795 9.0315 13.4875 9.2465C14.1955 9.462 15.311 7.8575 15.979 5.6615V5.662ZM19.1255 8.628C20.8745 7.1425 21.904 5.481 21.4245 4.917C20.9455 4.353 19.1395 5.1 17.3905 6.586C15.6415 8.0715 14.6125 9.733 15.0915 10.297C15.571 10.861 17.3765 10.114 19.1255 8.628ZM20.166 12.826C22.441 12.5215 24.205 11.6805 24.1065 10.947C24.0085 10.2135 22.085 9.8655 19.8105 10.1695C17.536 10.474 15.772 11.315 15.8705 12.049C15.968 12.782 17.8915 13.1305 20.166 12.826ZM23.1 17.4705C23.414 16.8005 21.9845 15.4675 19.9065 14.494C17.8285 13.52 15.8895 13.274 15.5755 13.944C15.2615 14.614 16.6915 15.947 18.769 16.9205C20.847 17.8945 22.786 18.1405 23.1 17.4705ZM18.7295 22.415C19.356 22.021 18.8735 20.127 17.652 18.184C16.4305 16.2415 14.9325 14.986 14.306 15.38C13.6795 15.774 14.162 17.668 15.3835 19.6105C16.605 21.5535 18.103 22.809 18.7295 22.415Z" fill="var(--fill-0, black)"/>
</g>
</svg>
