<svg preserveAspectRatio="none" width="100%" height="100%" overflow="visible" style="display: block;" viewBox="0 0 80 25" fill="none" xmlns="http://www.w3.org/2000/svg">
<g id="Group">
<path id="Vector" d="M17.2586 22.22L19.0471 17.4374H19.4845L17.2483 23.2396C17.1399 23.498 17.0384 23.7191 16.9435 23.9026C16.8554 24.093 16.7532 24.2319 16.638 24.3203C16.5026 24.4289 16.3403 24.4939 16.1508 24.5143C15.9678 24.5414 15.7236 24.5547 15.4188 24.5547V24.2187C15.6965 24.2187 15.9136 24.195 16.0694 24.1474C16.2252 24.1066 16.3707 24.018 16.5062 23.8821C16.5807 23.8073 16.6586 23.6678 16.7399 23.4638C16.8212 23.2667 16.9228 22.9946 17.0447 22.6479L14.8597 17.4374H15.317L17.2586 22.22ZM2.36809 17.3147C2.73399 17.3147 3.05595 17.383 3.33376 17.519C3.61831 17.655 3.85551 17.842 4.04521 18.0799C4.23485 18.311 4.37749 18.5826 4.47233 18.8952C4.57397 19.2011 4.62474 19.5311 4.62474 19.8846C4.62474 19.9186 4.62127 19.9597 4.6145 20.0073V20.1088H0.396388V20.1699C0.396388 20.4757 0.436815 20.7682 0.518058 21.0468C0.59936 21.3255 0.718282 21.5705 0.874105 21.7812C1.03669 21.9919 1.23641 22.1587 1.47349 22.281C1.71742 22.4034 1.99902 22.4648 2.3175 22.4648C2.8391 22.4647 3.25237 22.3287 3.55725 22.0568C3.86216 21.7781 4.07218 21.3937 4.18737 20.9042H4.57351C4.45832 21.5161 4.20795 21.9856 3.82172 22.3119C3.4423 22.6382 2.93734 22.8008 2.30725 22.8008C1.9211 22.8008 1.58231 22.733 1.29098 22.5972C1.0064 22.4544 0.76579 22.2639 0.569288 22.026C0.379564 21.7812 0.237026 21.4959 0.142162 21.1695C0.0472985 20.8364 0 20.4793 0 20.0986C2.12222e-05 19.7316 0.0473721 19.3817 0.142162 19.0487C0.243765 18.7089 0.39274 18.413 0.58914 18.1615C0.785633 17.9032 1.02973 17.6987 1.32108 17.5492C1.61921 17.3928 1.96832 17.3147 2.36809 17.3147ZM7.55764 17.3147C8.18767 17.3147 8.64472 17.441 8.92931 17.6925C9.22059 17.9372 9.36662 18.2597 9.36669 18.6607V21.9341C9.37344 22.0089 9.38669 22.0772 9.40702 22.1384C9.42734 22.1995 9.46144 22.2505 9.50885 22.2913C9.5562 22.3253 9.62393 22.342 9.7118 22.3421C9.77961 22.3421 9.87482 22.3323 9.99679 22.3119V22.6383C9.89521 22.6655 9.7901 22.6787 9.6817 22.6787C9.52603 22.6787 9.40066 22.6584 9.30584 22.6177C9.21777 22.5769 9.14964 22.5225 9.10223 22.4545C9.05475 22.3866 9.02072 22.3084 9.00039 22.22C8.98682 22.1249 8.98052 22.0229 8.98052 21.9142V21.6385H8.96007C8.89908 21.7949 8.81075 21.9443 8.69554 22.087C8.58039 22.223 8.43843 22.3458 8.26911 22.4545C8.10649 22.5633 7.92007 22.6484 7.71003 22.7096C7.5 22.7708 7.26918 22.8008 7.01843 22.8008C6.46303 22.8008 6.03296 22.682 5.7281 22.4442C5.42318 22.1995 5.27024 21.8255 5.27024 21.3225C5.27024 21.0166 5.33142 20.7682 5.45338 20.5778C5.5753 20.3808 5.72775 20.2278 5.9106 20.1191C6.10033 20.0036 6.30751 19.9219 6.53112 19.8743C6.76138 19.8268 6.98144 19.7926 7.19134 19.7722L7.79134 19.7214C8.06892 19.7011 8.28557 19.6703 8.44131 19.6295C8.60393 19.582 8.72629 19.5212 8.80761 19.4464C8.88892 19.3649 8.93974 19.2624 8.96007 19.14C8.98033 19.0176 8.99075 18.8647 8.99075 18.6812C8.99075 18.5386 8.96367 18.4059 8.90944 18.2836C8.85521 18.1612 8.77043 18.0524 8.65521 17.9572C8.54007 17.862 8.39056 17.7874 8.20761 17.733C8.02472 17.6786 7.80125 17.6514 7.53711 17.6514C7.06957 17.6514 6.6899 17.7672 6.39856 17.9983C6.11407 18.2295 5.9582 18.5797 5.93109 19.0487H5.54495C5.57206 18.4709 5.755 18.0391 6.09375 17.7536C6.43932 17.4612 6.92748 17.3147 7.55764 17.3147ZM12.4667 17.3147C12.7376 17.3147 12.9917 17.3455 13.2287 17.4066C13.4659 17.4678 13.6696 17.5662 13.839 17.7021C14.0151 17.8381 14.1502 18.0118 14.245 18.2225C14.3466 18.4332 14.3974 18.688 14.3974 18.9871H14.0113C14.0113 18.7492 13.9709 18.5453 13.8896 18.3755C13.8151 18.2055 13.7066 18.0694 13.5643 17.9674C13.4288 17.8587 13.266 17.7805 13.0763 17.733C12.8867 17.6786 12.6835 17.6514 12.4667 17.6514C12.2906 17.6514 12.111 17.6682 11.9281 17.7021C11.7521 17.7361 11.5927 17.7941 11.4504 17.8756C11.3082 17.9572 11.1892 18.0626 11.0944 18.1917C11.0064 18.3208 10.9625 18.4772 10.9625 18.6607C10.9625 18.8714 11.0132 19.0416 11.1149 19.1708C11.2165 19.2999 11.3487 19.4053 11.5113 19.4869C11.6807 19.5617 11.8671 19.6231 12.0703 19.6707C12.2803 19.7182 12.4904 19.7657 12.7005 19.8133C12.9579 19.8609 13.1986 19.9188 13.4222 19.9868C13.6523 20.0479 13.8487 20.1361 14.0113 20.2514C14.1807 20.3602 14.3128 20.5033 14.4077 20.68C14.5025 20.8568 14.5505 21.0814 14.5505 21.3533C14.5504 21.6387 14.4858 21.8733 14.357 22.0568C14.2283 22.2403 14.0656 22.3897 13.8691 22.5053C13.6726 22.614 13.4522 22.6887 13.2083 22.7295C12.9711 22.777 12.7374 22.8008 12.507 22.8008C12.209 22.8008 11.9313 22.7603 11.6739 22.6787C11.4232 22.6039 11.2028 22.4882 11.013 22.3318C10.8235 22.1687 10.6745 21.9717 10.5661 21.7407C10.4577 21.5096 10.4 21.2409 10.3932 20.9351H10.7793C10.7929 21.1797 10.8471 21.3975 10.942 21.5878C11.0369 21.7713 11.1586 21.9312 11.3076 22.0671C11.4635 22.1962 11.6435 22.2947 11.8468 22.3626C12.05 22.4305 12.27 22.4648 12.507 22.4648C12.6763 22.4648 12.856 22.4509 13.0456 22.4237C13.2421 22.3897 13.4222 22.3318 13.5848 22.2502C13.754 22.1687 13.8927 22.0567 14.001 21.9142C14.1094 21.7647 14.1637 21.5776 14.1637 21.3533C14.1637 21.0611 14.0759 20.8398 13.8999 20.6903C13.7237 20.5407 13.4998 20.4249 13.2287 20.3434C12.9645 20.2618 12.6765 20.1975 12.3649 20.1499C12.06 20.0956 11.772 20.0174 11.501 19.9155C11.2368 19.8135 11.0163 19.6705 10.8401 19.4869C10.6641 19.2966 10.5763 19.0209 10.5763 18.6607C10.5764 18.4025 10.6334 18.1881 10.7486 18.0182C10.8637 17.8415 11.0098 17.7026 11.186 17.6006C11.3689 17.4987 11.572 17.4268 11.7956 17.3861C12.0192 17.3384 12.2431 17.3147 12.4667 17.3147ZM32.9675 17.3147C33.5975 17.3147 34.0546 17.441 34.3391 17.6925C34.6304 17.9372 34.7765 18.2597 34.7765 18.6607V21.9341C34.7833 22.0089 34.7965 22.0772 34.8169 22.1384C34.8372 22.1995 34.8713 22.2505 34.9187 22.2913C34.966 22.3253 35.0338 22.342 35.1216 22.3421C35.1894 22.3421 35.2847 22.3323 35.4066 22.3119V22.6383C35.305 22.6655 35.1999 22.6787 35.0915 22.6787C34.9359 22.6787 34.8105 22.6584 34.7157 22.6177C34.6276 22.5769 34.5595 22.5225 34.5121 22.4545C34.4646 22.3866 34.4306 22.3084 34.4102 22.22C34.3967 22.1249 34.3904 22.0229 34.3904 21.9142V21.6385H34.3699C34.3089 21.7949 34.2206 21.9443 34.1054 22.087C33.9902 22.223 33.8483 22.3458 33.679 22.4545C33.5163 22.5633 33.3299 22.6484 33.1199 22.7096C32.9098 22.7708 32.679 22.8008 32.4283 22.8008C31.8729 22.8008 31.4428 22.682 31.138 22.4442C30.833 22.1995 30.6801 21.8255 30.6801 21.3225C30.6801 21.0166 30.7412 20.7682 30.8632 20.5778C30.9851 20.3808 31.1376 20.2278 31.3205 20.1191C31.5102 20.0036 31.7174 19.9219 31.941 19.8743C32.1712 19.8268 32.3913 19.7926 32.6012 19.7722L33.2012 19.7214C33.4788 19.7011 33.6954 19.6703 33.8511 19.6295C34.0138 19.582 34.1361 19.5212 34.2174 19.4464C34.2988 19.3649 34.3496 19.2624 34.3699 19.14C34.3902 19.0176 34.4006 18.8647 34.4006 18.6812C34.4006 18.5386 34.3735 18.4059 34.3193 18.2836C34.265 18.1612 34.1803 18.0524 34.065 17.9572C33.9499 17.862 33.8004 17.7874 33.6174 17.733C33.4346 17.6786 33.2111 17.6514 32.9469 17.6514C32.4794 17.6514 32.0997 17.7672 31.8084 17.9983C31.5239 18.2295 31.368 18.5797 31.3409 19.0487H30.9548C30.9819 18.4709 31.1649 18.0391 31.5036 17.7536C31.8492 17.4612 32.3373 17.3147 32.9675 17.3147ZM40.4277 22.6787H40.0416V21.557H40.0211C39.8043 21.9716 39.533 22.2843 39.2079 22.495C38.8826 22.6989 38.4862 22.8008 38.0187 22.8008C37.6257 22.8008 37.287 22.7261 37.0024 22.5766C36.7179 22.427 36.4841 22.2266 36.3012 21.9752C36.1183 21.7237 35.9827 21.4347 35.8946 21.1085C35.8065 20.7755 35.762 20.4286 35.762 20.0684C35.762 19.6809 35.81 19.3202 35.9049 18.9871C35.9997 18.6473 36.1416 18.3547 36.3313 18.1101C36.5278 17.8654 36.772 17.672 37.0633 17.5293C37.3546 17.3865 37.6968 17.3147 38.0898 17.3147C38.2997 17.3147 38.5064 17.3455 38.7096 17.4066C38.9129 17.461 39.0993 17.5426 39.2687 17.6514C39.4449 17.7601 39.5972 17.8962 39.7259 18.0593C39.8547 18.2225 39.9534 18.406 40.0211 18.6099H40.0416V15.3976H40.4277V22.6787ZM43.7782 17.3147C44.1441 17.3147 44.466 17.383 44.7439 17.519C45.0284 17.655 45.2656 17.842 45.4553 18.0799C45.6449 18.311 45.7876 18.5826 45.8824 18.8952C45.9841 19.2011 46.0348 19.5311 46.0348 19.8846C46.0348 19.9186 46.0313 19.9597 46.0246 20.0073V20.1088H41.8065V20.1699C41.8065 20.4757 41.8469 20.7682 41.9281 21.0468C42.0094 21.3255 42.1284 21.5705 42.2842 21.7812C42.4468 21.9919 42.6465 22.1587 42.8836 22.281C43.1275 22.4034 43.4091 22.4648 43.7276 22.4648C44.2492 22.4647 44.6625 22.3287 44.9673 22.0568C45.2723 21.7781 45.4823 21.3937 45.5974 20.9042H45.9836C45.8684 21.5161 45.618 21.9856 45.2318 22.3119C44.8524 22.6382 44.3474 22.8008 43.7173 22.8008C43.3312 22.8008 42.9924 22.733 42.7011 22.5972C42.4165 22.4544 42.1759 22.2639 41.9794 22.026C41.7896 21.7812 41.6471 21.4959 41.5523 21.1695C41.4574 20.8364 41.4101 20.4793 41.4101 20.0986C41.4101 19.7316 41.4574 19.3817 41.5523 19.0487C41.6538 18.7089 41.8028 18.413 41.9992 18.1615C42.1957 17.9032 42.4398 17.6987 42.7311 17.5492C43.0293 17.3928 43.3784 17.3147 43.7782 17.3147ZM54.2482 17.3147C54.8782 17.3147 55.3353 17.441 55.6199 17.6925C55.9111 17.9372 56.0572 18.2597 56.0572 18.6607V21.9341C56.064 22.0089 56.0772 22.0772 56.0976 22.1384C56.1179 22.1995 56.152 22.2505 56.1994 22.2913C56.2468 22.3253 56.3145 22.342 56.4024 22.3421C56.4702 22.3421 56.5654 22.3323 56.6873 22.3119V22.6383C56.5858 22.6655 56.4807 22.6787 56.3723 22.6787C56.2166 22.6787 56.0912 22.6584 55.9964 22.6177C55.9083 22.5769 55.8402 22.5225 55.7928 22.4545C55.7454 22.3866 55.7113 22.3084 55.691 22.22C55.6774 22.1249 55.6711 22.0229 55.6711 21.9142V21.6385H55.6506C55.5896 21.7949 55.5013 21.9443 55.3862 22.087C55.2709 22.223 55.129 22.3458 54.9597 22.4545C54.797 22.5633 54.6106 22.6484 54.4006 22.7096C54.1906 22.7708 53.9597 22.8008 53.709 22.8008C53.1536 22.8008 52.7235 22.682 52.4187 22.4442C52.1138 22.1995 51.9608 21.8255 51.9608 21.3225C51.9608 21.0166 52.022 20.7682 52.1439 20.5778C52.2659 20.3808 52.4183 20.2278 52.6012 20.1191C52.7909 20.0036 52.9981 19.9219 53.2217 19.8743C53.4519 19.8268 53.672 19.7926 53.8819 19.7722L54.482 19.7214C54.7595 19.7011 54.9761 19.6703 55.1319 19.6295C55.2945 19.582 55.4169 19.5212 55.4982 19.4464C55.5795 19.3649 55.6303 19.2624 55.6506 19.14C55.6709 19.0176 55.6814 18.8647 55.6814 18.6812C55.6813 18.5386 55.6542 18.4059 55.6 18.2836C55.5458 18.1612 55.461 18.0524 55.3458 17.9572C55.2306 17.862 55.0811 17.7874 54.8982 17.733C54.7153 17.6786 54.4918 17.6514 54.2277 17.6514C53.7602 17.6514 53.3805 17.7672 53.0891 17.9983C52.8047 18.2295 52.6488 18.5797 52.6216 19.0487H52.2355C52.2626 18.4709 52.4456 18.0391 52.7843 17.7536C53.1299 17.4612 53.618 17.3147 54.2482 17.3147ZM59.1572 17.3147C59.4282 17.3147 59.6822 17.3455 59.9193 17.4066C60.1565 17.4678 60.3602 17.5662 60.5296 17.7021C60.7057 17.8381 60.8407 18.0118 60.9356 18.2225C61.0372 18.4332 61.0879 18.688 61.088 18.9871H60.7018C60.7018 18.7492 60.6614 18.5453 60.5802 18.3755C60.5056 18.2055 60.3972 18.0694 60.2549 17.9674C60.1193 17.8587 59.9566 17.7805 59.7669 17.733C59.5772 17.6786 59.374 17.6514 59.1572 17.6514C58.9812 17.6514 58.8016 17.6682 58.6188 17.7021C58.4427 17.7361 58.2832 17.7941 58.141 17.8756C57.9988 17.9572 57.8798 18.0626 57.785 18.1917C57.6969 18.3208 57.6531 18.4772 57.653 18.6607C57.653 18.8714 57.7038 19.0416 57.8054 19.1708C57.9071 19.2999 58.0392 19.4053 58.2018 19.4869C58.3712 19.5617 58.5576 19.6231 58.7609 19.6707C58.9709 19.7182 59.181 19.7657 59.391 19.8133C59.6485 19.8609 59.8891 19.9188 60.1127 19.9868C60.3429 20.0479 60.5393 20.1361 60.7018 20.2514C60.8712 20.3602 61.0033 20.5033 61.0982 20.68C61.1931 20.8568 61.241 21.0814 61.241 21.3533C61.241 21.6387 61.1763 21.8733 61.0477 22.0568C60.9189 22.2403 60.7561 22.3897 60.5597 22.5053C60.3632 22.614 60.1428 22.6887 59.8988 22.7295C59.6618 22.777 59.4279 22.8008 59.1976 22.8008C58.8996 22.8008 58.6219 22.7603 58.3645 22.6787C58.1138 22.6039 57.8934 22.4882 57.7036 22.3318C57.514 22.1687 57.365 21.9717 57.2567 21.7407C57.1483 21.5096 57.0906 21.2409 57.0837 20.9351H57.4699C57.4835 21.1797 57.5377 21.3975 57.6325 21.5878C57.7274 21.7713 57.8492 21.9312 57.9982 22.0671C58.154 22.1962 58.3341 22.2947 58.5374 22.3626C58.7406 22.4305 58.9606 22.4648 59.1976 22.4648C59.3669 22.4648 59.5466 22.4509 59.7362 22.4237C59.9327 22.3897 60.1127 22.3318 60.2753 22.2502C60.4445 22.1687 60.5833 22.0567 60.6916 21.9142C60.8 21.7647 60.8542 21.5776 60.8542 21.3533C60.8542 21.0611 60.7665 20.8398 60.5904 20.6903C60.4142 20.5407 60.1904 20.4249 59.9193 20.3434C59.6551 20.2618 59.3671 20.1975 59.0555 20.1499C58.7506 20.0956 58.4626 20.0174 58.1916 19.9155C57.9273 19.8135 57.7069 19.6705 57.5308 19.4869C57.3546 19.2966 57.2669 19.0209 57.2669 18.6607C57.267 18.4025 57.324 18.1881 57.4391 18.0182C57.5544 17.8415 57.7004 17.7026 57.8765 17.6006C58.0595 17.4987 58.2626 17.4268 58.4862 17.3861C58.7098 17.3384 58.9336 17.3147 59.1572 17.3147ZM71.3128 17.3147C71.699 17.3147 72.0413 17.39 72.339 17.5396C72.6374 17.6824 72.8885 17.8791 73.0918 18.1307C73.2951 18.3822 73.4472 18.6745 73.5489 19.0076C73.6571 19.3339 73.7115 19.6841 73.7115 20.0581C73.7115 20.432 73.6571 20.7857 73.5489 21.1188C73.4472 21.4518 73.2951 21.7443 73.0918 21.9958C72.8885 22.2405 72.6374 22.4373 72.339 22.5868C72.0413 22.7296 71.699 22.8008 71.3128 22.8008C70.9266 22.8008 70.5843 22.7296 70.2866 22.5868C69.9882 22.4374 69.7377 22.2403 69.5344 21.9958C69.3311 21.7443 69.1751 21.4518 69.0662 21.1188C68.9646 20.7857 68.9141 20.432 68.9141 20.0581C68.9141 19.6842 68.9646 19.3339 69.0662 19.0076C69.1751 18.6745 69.3311 18.3822 69.5344 18.1307C69.7377 17.8793 69.9882 17.6823 70.2866 17.5396C70.5843 17.39 70.9266 17.3147 71.3128 17.3147ZM28.1404 17.3147C28.3775 17.3147 28.5945 17.3524 28.791 17.4272C28.9942 17.4951 29.1668 17.604 29.309 17.7536C29.4581 17.8963 29.5735 18.0798 29.6548 18.3041C29.7361 18.5284 29.7765 18.7936 29.7765 19.0995V22.6787H29.3904V19.0892C29.3904 18.7561 29.3396 18.4945 29.238 18.3041C29.1363 18.1137 29.0146 17.9708 28.8723 17.8756C28.7368 17.7736 28.5977 17.7129 28.4554 17.6925C28.3199 17.6653 28.2149 17.6514 28.1404 17.6514C27.9032 17.6514 27.6828 17.6925 27.4795 17.7741C27.2831 17.8557 27.1104 17.9779 26.9614 18.1409C26.8192 18.3041 26.7072 18.5079 26.6259 18.7526C26.5446 18.9905 26.5042 19.2661 26.5042 19.5788V22.6787H26.1174V19.0892C26.1174 18.763 26.0667 18.5047 25.965 18.3144C25.8702 18.1172 25.7554 17.9708 25.6199 17.8756C25.4911 17.7805 25.3555 17.7197 25.2132 17.6925C25.0777 17.6653 24.9692 17.6514 24.8879 17.6514C24.705 17.6514 24.5151 17.689 24.3186 17.7638C24.1222 17.8386 23.9426 17.9538 23.7801 18.1101C23.6174 18.2664 23.4854 18.4674 23.3837 18.7121C23.2821 18.9568 23.2313 19.2457 23.2313 19.5788V22.6787H22.8452V17.4374H23.2313V18.5078H23.2518C23.2925 18.3447 23.3635 18.1917 23.465 18.0491C23.5666 17.8996 23.6885 17.7704 23.8307 17.6616C23.9797 17.5529 24.1425 17.4678 24.3186 17.4066C24.5016 17.3454 24.6914 17.3147 24.8879 17.3147C25.1386 17.3147 25.3556 17.3489 25.5386 17.4168C25.7214 17.478 25.8773 17.5632 26.006 17.6719C26.1347 17.7738 26.2363 17.8926 26.3108 18.0285C26.3853 18.1576 26.4361 18.2903 26.4632 18.4262H26.4837C26.6395 18.0593 26.8462 17.7841 27.1036 17.6006C27.3679 17.4103 27.7135 17.3147 28.1404 17.3147ZM51.2679 15.316C51.3831 15.316 51.5355 15.3334 51.7252 15.3674V15.704C51.5355 15.6701 51.3831 15.6526 51.2679 15.6526C51.0512 15.6526 50.8682 15.7037 50.7191 15.8055C50.5769 15.9007 50.5052 16.0947 50.5052 16.387V17.4374H51.5932V17.7741H50.5052V22.6787H50.1191V17.7741H49.1842V17.4374H50.1191V16.3561C50.1191 16.1727 50.1497 16.0162 50.2107 15.8871C50.2717 15.7512 50.353 15.6423 50.4547 15.5607C50.5629 15.4793 50.685 15.4184 50.8203 15.3776C50.9626 15.3368 51.1121 15.316 51.2679 15.316ZM62.5666 18.5592H62.5871C62.6548 18.362 62.7494 18.1884 62.8714 18.0387C63.0001 17.8824 63.1462 17.7499 63.3088 17.6411C63.4781 17.5324 63.6612 17.4507 63.8576 17.3963C64.054 17.342 64.2538 17.3147 64.457 17.3147C64.7618 17.3147 65.0192 17.3524 65.2292 17.4272C65.4461 17.5019 65.6229 17.6003 65.758 17.7227C65.8938 17.8451 65.9987 17.9846 66.0734 18.1409C66.1548 18.2905 66.2125 18.4434 66.2459 18.5997C66.28 18.7559 66.3003 18.9089 66.3069 19.0584C66.3134 19.2011 66.3174 19.3274 66.3174 19.4362V22.6787H65.9311V19.3649C65.9311 19.2357 65.9207 19.0724 65.9003 18.8753C65.88 18.6782 65.819 18.4911 65.7174 18.3144C65.6223 18.1309 65.4734 17.9745 65.2702 17.8454C65.0737 17.7162 64.7991 17.6514 64.4467 17.6514C64.1487 17.6514 63.8843 17.7058 63.654 17.8145C63.4237 17.9233 63.2273 18.0762 63.0648 18.2733C62.9022 18.4636 62.7763 18.6952 62.6883 18.9672C62.607 19.2322 62.5666 19.5247 62.5666 19.8441V22.6787H62.1805V15.3976H62.5666V18.5592ZM67.9285 22.6787H67.5423V17.4374H67.9285V22.6787ZM76.8944 17.3147C77.1993 17.3147 77.4564 17.3524 77.6662 17.4272C77.8833 17.5019 78.059 17.6004 78.1948 17.7227C78.3305 17.8451 78.4354 17.9846 78.5102 18.1409C78.5915 18.2905 78.6492 18.4434 78.6826 18.5997C78.7167 18.7559 78.737 18.9089 78.7436 19.0584C78.7502 19.2011 78.7541 19.3274 78.7541 19.4362V22.6787H78.3679V19.3649C78.3679 19.2357 78.3574 19.0724 78.337 18.8753C78.3167 18.6782 78.2557 18.4911 78.1548 18.3144C78.0597 18.1309 77.9102 17.9745 77.7069 17.8454C77.5102 17.7163 77.2361 17.6514 76.8839 17.6514C76.5856 17.6514 76.3213 17.7059 76.0911 17.8145C75.861 17.9233 75.6643 18.0762 75.5016 18.2733C75.339 18.4636 75.2138 18.6952 75.1252 18.9672C75.0439 19.2322 75.0033 19.5247 75.0033 19.8441V22.6787H74.617V17.4374H75.0033V18.5592H75.0236C75.0911 18.362 75.1869 18.1884 75.3089 18.0387C75.4374 17.8825 75.583 17.7498 75.7456 17.6411C75.9148 17.5323 76.0977 17.4507 76.2944 17.3963C76.4905 17.3419 76.6911 17.3147 76.8944 17.3147ZM8.98052 19.7009C8.88564 19.8164 8.73967 19.8946 8.54315 19.9354C8.35344 19.9761 8.13993 20.0068 7.90282 20.0272L7.2522 20.0889C7.06262 20.1093 6.87305 20.1394 6.68354 20.1801C6.4938 20.2141 6.32068 20.2755 6.16483 20.3639C6.01588 20.4522 5.89401 20.5745 5.79918 20.7307C5.70432 20.8803 5.65702 21.0778 5.65702 21.3225C5.65702 21.7099 5.77875 21.9988 6.02267 22.1891C6.26657 22.3727 6.6019 22.4647 7.02872 22.4648C7.46905 22.4648 7.81823 22.3866 8.07567 22.2303C8.33311 22.0672 8.52997 21.8836 8.66544 21.6797C8.80098 21.4689 8.88518 21.268 8.91908 21.0777C8.95974 20.8805 8.98052 20.748 8.98052 20.68V19.7009ZM34.3904 19.7009C34.2955 19.8164 34.1495 19.8946 33.953 19.9354C33.7633 19.9761 33.5498 20.0068 33.3127 20.0272L32.662 20.0889C32.4725 20.1093 32.2829 20.1394 32.0934 20.1801C31.9036 20.2141 31.7305 20.2755 31.5747 20.3639C31.4257 20.4522 31.3039 20.5745 31.209 20.7307C31.1142 20.8803 31.0669 21.0778 31.0669 21.3225C31.0669 21.7099 31.1886 21.9988 31.4325 22.1891C31.6764 22.3727 32.0117 22.4647 32.4386 22.4648C32.8789 22.4648 33.2281 22.3866 33.4855 22.2303C33.7429 22.0672 33.9398 21.8836 34.0753 21.6797C34.2108 21.4689 34.295 21.268 34.3289 21.0777C34.3696 20.8805 34.3904 20.748 34.3904 20.68V19.7009ZM38.0898 17.6514C37.7443 17.6514 37.4494 17.7197 37.2054 17.8557C36.9616 17.9848 36.7584 18.1614 36.5958 18.3857C36.44 18.6101 36.3245 18.8682 36.25 19.1605C36.1822 19.4529 36.1489 19.7557 36.1489 20.0684C36.1489 20.3742 36.1857 20.6736 36.2603 20.9659C36.3416 21.2513 36.4605 21.5062 36.6163 21.7305C36.7789 21.9547 36.982 22.1348 37.2259 22.2708C37.4698 22.3999 37.7612 22.4648 38.1 22.4648C38.432 22.4648 38.7165 22.3964 38.9536 22.2605C39.1976 22.1245 39.3978 21.9445 39.5536 21.7201C39.7162 21.4959 39.8346 21.241 39.909 20.9556C39.9904 20.6634 40.0313 20.3674 40.0314 20.0684C40.0314 19.7624 39.9904 19.4666 39.909 19.1811C39.8346 18.8889 39.7197 18.6305 39.5639 18.4062C39.4081 18.1751 39.2043 17.9916 38.9536 17.8557C38.7097 17.7197 38.4218 17.6514 38.0898 17.6514ZM55.6711 19.7009C55.5763 19.8164 55.4302 19.8946 55.2337 19.9354C55.044 19.9761 54.8305 20.0068 54.5934 20.0272L53.9428 20.0889C53.7532 20.1093 53.5636 20.1394 53.3741 20.1801C53.1844 20.2141 53.0113 20.2755 52.8554 20.3639C52.7064 20.4522 52.5846 20.5745 52.4898 20.7307C52.3949 20.8803 52.3476 21.0778 52.3476 21.3225C52.3476 21.7099 52.4693 21.9988 52.7132 22.1891C52.9571 22.3727 53.2925 22.4647 53.7193 22.4648C54.1596 22.4648 54.5088 22.3866 54.7663 22.2303C55.0237 22.0672 55.2205 21.8836 55.3561 21.6797C55.4915 21.4689 55.5757 21.268 55.6096 21.0777C55.6503 20.8805 55.6711 20.748 55.6711 20.68V19.7009ZM71.3128 17.6514C70.9875 17.6514 70.6997 17.7197 70.4492 17.8557C70.198 17.9848 69.9882 18.1614 69.819 18.3857C69.6492 18.61 69.5207 18.8683 69.4328 19.1605C69.3443 19.4461 69.301 19.7453 69.301 20.0581C69.301 20.3708 69.3443 20.6736 69.4328 20.9659C69.5207 21.2513 69.6492 21.5062 69.819 21.7305C69.9882 21.9547 70.198 22.1348 70.4492 22.2708C70.6997 22.3999 70.9875 22.4648 71.3128 22.4648C71.638 22.4648 71.9259 22.3999 72.1764 22.2708C72.4275 22.1348 72.6374 21.9547 72.8066 21.7305C72.9764 21.5062 73.1056 21.2513 73.1934 20.9659C73.2813 20.6736 73.3252 20.3708 73.3252 20.0581C73.3252 19.7453 73.2813 19.4461 73.1934 19.1605C73.1056 18.8682 72.9764 18.6101 72.8066 18.3857C72.6374 18.1614 72.4275 17.9848 72.1764 17.8557C71.9259 17.7197 71.638 17.6514 71.3128 17.6514ZM2.36809 17.6514C2.05641 17.6514 1.78172 17.7128 1.54457 17.8351C1.30753 17.9507 1.10774 18.107 0.945187 18.3041C0.782643 18.4944 0.657364 18.7186 0.569288 18.9768C0.481235 19.235 0.42698 19.5003 0.406634 19.7722H4.22835C4.21479 19.4868 4.16681 19.2186 4.08555 18.9672C4.00424 18.7088 3.88252 18.4842 3.7199 18.2938C3.56406 18.0967 3.37074 17.9404 3.14037 17.8249C2.9168 17.7093 2.65938 17.6514 2.36809 17.6514ZM43.7782 17.6514C43.4665 17.6514 43.1918 17.7128 42.9547 17.8351C42.7176 17.9507 42.5178 18.107 42.3553 18.3041C42.1927 18.4944 42.0675 18.7186 41.9794 18.9768C41.8913 19.235 41.837 19.5003 41.8167 19.7722H45.6384C45.6249 19.4868 45.5769 19.2186 45.4957 18.9672C45.4144 18.7088 45.2926 18.4842 45.13 18.2938C44.9742 18.0967 44.7809 17.9404 44.5505 17.8249C44.3269 17.7093 44.0694 17.6514 43.7782 17.6514ZM67.9285 16.448H67.5423V15.3976H67.9285V16.448ZM4.69647 2.41185C5.38971 2.41187 5.99216 2.53686 6.50359 2.7877C7.02636 3.02714 7.4581 3.36379 7.79908 3.79703C8.13993 4.21887 8.39574 4.71498 8.56623 5.285C8.73672 5.85513 8.82236 6.46547 8.82236 7.11539C8.82236 7.70835 8.74262 8.28428 8.58348 8.84303C8.43574 9.40178 8.20249 9.89829 7.8842 10.3316C7.57738 10.7534 7.18511 11.0955 6.70787 11.3577C6.23059 11.6084 5.66817 11.7341 5.02049 11.7341C4.73634 11.7341 4.45167 11.7057 4.16752 11.6487C3.88346 11.6031 3.61048 11.5231 3.34913 11.4091C3.08782 11.2951 2.84378 11.1522 2.61654 10.9812C2.40059 10.7987 2.21871 10.5878 2.07095 10.3484H2.03637V14.7615H0.0928538V2.65086H1.93456V3.84843H1.96849C2.24128 3.3353 2.62218 2.97031 3.11091 2.75365C3.59961 2.52563 4.12822 2.41185 4.69647 2.41185ZM14.3174 2.41185C14.7492 2.41185 15.1757 2.45749 15.5962 2.5487C16.0167 2.63991 16.3917 2.78809 16.7213 2.99329C17.0622 3.19851 17.3351 3.46642 17.5397 3.79703C17.7443 4.11629 17.8471 4.50978 17.8471 4.97726V9.52724C17.8471 9.76671 17.8754 9.93796 17.9323 10.0406C18.0004 10.1431 18.1252 10.1947 18.3069 10.1948H18.5118C18.5913 10.1948 18.6823 10.1829 18.7846 10.1601V11.5118C18.7164 11.5347 18.6254 11.5572 18.5118 11.58C18.4095 11.6142 18.3014 11.6426 18.1877 11.6654C18.0742 11.6882 17.9607 11.7054 17.8471 11.7168C17.7334 11.7282 17.6365 11.7341 17.557 11.7341C17.1592 11.7341 16.8296 11.6541 16.5683 11.4945C16.3068 11.3349 16.1362 11.0552 16.0566 10.6561C15.6702 11.0324 15.1929 11.3061 14.6247 11.4772C14.0678 11.6482 13.5275 11.7341 13.0046 11.7341C12.607 11.7341 12.2264 11.6766 11.8628 11.5626C11.4991 11.46 11.1749 11.3066 10.8908 11.1013C10.618 10.8847 10.3965 10.6162 10.226 10.297C10.067 9.96638 9.98721 9.5846 9.98721 9.15145C9.98721 8.60408 10.0841 8.15908 10.2773 7.81697C10.4818 7.475 10.743 7.2071 11.0611 7.01329C11.3907 6.81941 11.7546 6.68257 12.1523 6.6027C12.5614 6.5115 12.9707 6.44274 13.3799 6.39712C13.7322 6.3287 14.0676 6.28309 14.3859 6.26028C14.7041 6.22607 14.9829 6.17451 15.2216 6.10608C15.4715 6.03766 15.6648 5.93512 15.8011 5.79834C15.9488 5.6501 16.0227 5.43315 16.0227 5.14816C16.0226 4.89742 15.96 4.69224 15.835 4.53266C15.7214 4.37306 15.5737 4.25334 15.3919 4.17352C15.2215 4.08234 15.0282 4.02545 14.8124 4.00262C14.5964 3.96841 14.3915 3.95122 14.1982 3.95122C13.6528 3.95123 13.2039 4.06503 12.8515 4.29302C12.4992 4.52109 12.3002 4.8748 12.2548 5.35375H10.3112C10.3453 4.78357 10.4817 4.31019 10.7204 3.93387C10.9591 3.55763 11.2603 3.25538 11.624 3.02734C11.999 2.79932 12.4195 2.63992 12.8855 2.5487C13.3514 2.45749 13.8287 2.41187 14.3174 2.41185ZM35.1294 2.41185C35.8226 2.41187 36.4422 2.55997 36.9877 2.85645C37.5446 3.14153 38.0047 3.5237 38.3683 4.00262C38.732 4.48153 38.9936 5.03436 39.1528 5.66149C39.3233 6.27726 39.3687 6.91599 39.2892 7.57737H32.8106C32.8106 7.91941 32.8561 8.25007 32.9469 8.56934C33.0492 8.88862 33.1969 9.16829 33.3901 9.40776C33.5833 9.64724 33.8278 9.84099 34.1233 9.98921C34.4189 10.1261 34.7714 10.1948 35.1806 10.1948C35.7488 10.1948 36.2036 10.0745 36.5446 9.835C36.8967 9.58414 37.158 9.21368 37.3284 8.72355H39.1701C39.0678 9.2025 38.8912 9.63026 38.6411 10.0066C38.3911 10.3828 38.0898 10.7022 37.7376 10.9645C37.3854 11.2152 36.9877 11.4032 36.5446 11.5286C36.1127 11.6654 35.6579 11.7341 35.1806 11.7341C34.4873 11.7341 33.8731 11.6198 33.3389 11.3917C32.8048 11.1637 32.3499 10.8443 31.9749 10.4338C31.6113 10.0234 31.333 9.53316 31.1399 8.96316C30.958 8.39303 30.8671 7.76559 30.8671 7.08138C30.8671 6.45418 30.9633 5.86111 31.1565 5.30235C31.3611 4.73217 31.6458 4.2363 32.0095 3.81437C32.3845 3.38107 32.8334 3.03857 33.3562 2.7877C33.879 2.53686 34.4702 2.41185 35.1294 2.41185ZM60.6865 2.41185C61.3797 2.41187 61.9993 2.55997 62.5449 2.85645C63.1017 3.14153 63.5618 3.5237 63.9254 4.00262C64.2892 4.48153 64.5508 5.03436 64.7099 5.66149C64.8804 6.27726 64.9258 6.91599 64.8463 7.57737H58.3677C58.3677 7.91941 58.4132 8.25007 58.5041 8.56934C58.6064 8.88862 58.754 9.16829 58.9472 9.40776C59.1405 9.64724 59.385 9.84099 59.6805 9.98921C59.976 10.1261 60.3285 10.1948 60.7377 10.1948C61.3059 10.1948 61.7607 10.0745 62.1017 9.835C62.4538 9.58414 62.7151 9.21368 62.8855 8.72355H64.7272C64.6249 9.2025 64.4483 9.63026 64.1982 10.0066C63.9483 10.3828 63.6469 10.7022 63.2947 10.9645C62.9425 11.2152 62.5448 11.4032 62.1017 11.5286C61.6698 11.6654 61.215 11.7341 60.7377 11.7341C60.0444 11.7341 59.4302 11.6198 58.896 11.3917C58.3619 11.1637 57.907 10.8443 57.532 10.4338C57.1685 10.0234 56.8902 9.53316 56.697 8.96316C56.5151 8.39303 56.4242 7.76559 56.4242 7.08138C56.4242 6.45418 56.5204 5.86111 56.7136 5.30235C56.9182 4.73217 57.2029 4.2363 57.5666 3.81437C57.9416 3.38107 58.3905 3.03857 58.9133 2.7877C59.4361 2.53686 60.0273 2.41185 60.6865 2.41185ZM69.7167 2.41185C70.1718 2.41187 70.6033 2.4628 71.0125 2.5654C71.4328 2.65662 71.8079 2.81072 72.1377 3.02734C72.4787 3.24399 72.7574 3.52901 72.9731 3.88248C73.2007 4.22459 73.3423 4.6411 73.3993 5.13145H71.3705C71.2793 4.66391 71.0636 4.35051 70.7226 4.19087C70.3928 4.03128 70.0125 3.95125 69.5803 3.95122C69.4439 3.95122 69.2793 3.96249 69.0859 3.98528C68.9043 4.00808 68.7279 4.0537 68.5574 4.12212C68.398 4.17914 68.2616 4.2704 68.1482 4.39582C68.0348 4.50985 67.9777 4.66393 67.9777 4.85776C67.9777 5.0972 68.0577 5.29097 68.2164 5.4392C68.3869 5.58737 68.6026 5.71308 68.8643 5.81568C69.137 5.90691 69.4439 5.98691 69.7849 6.05533C70.1259 6.12375 70.4787 6.1978 70.842 6.27762C71.1941 6.35744 71.541 6.45401 71.882 6.56803C72.223 6.68204 72.5239 6.83612 72.7856 7.02993C73.0584 7.22382 73.2748 7.46908 73.4334 7.76559C73.6039 8.06204 73.6892 8.4271 73.6892 8.86039C73.6892 9.38493 73.5698 9.82987 73.3311 10.1948C73.0925 10.5595 72.7797 10.856 72.3934 11.084C72.0184 11.312 71.5974 11.4774 71.1318 11.58C70.6656 11.6826 70.2052 11.7341 69.7508 11.7341C69.1941 11.7341 68.6767 11.6714 68.1993 11.5459C67.7331 11.4205 67.3239 11.232 66.9718 10.9812C66.6308 10.7189 66.358 10.3995 66.1534 10.0233C65.96 9.63559 65.8577 9.17928 65.8466 8.6548H67.7902C67.8472 9.22493 68.0629 9.62428 68.438 9.85237C68.8131 10.0804 69.2623 10.1948 69.7849 10.1948C69.9666 10.1948 70.1718 10.1829 70.3987 10.1601C70.6374 10.1259 70.859 10.069 71.0636 9.98921C71.2682 9.90941 71.4328 9.79559 71.558 9.64743C71.6944 9.48776 71.7567 9.28217 71.7456 9.03125C71.7344 8.78053 71.6433 8.57539 71.4728 8.41579C71.3023 8.25618 71.0807 8.13053 70.8079 8.03928C70.5469 7.93664 70.2452 7.85138 69.9043 7.78296C69.5633 7.71454 69.2164 7.6398 68.8643 7.56C68.5003 7.4802 68.1482 7.38355 67.8072 7.2696C67.478 7.15559 67.1764 7.00151 66.9036 6.8077C66.6426 6.61382 66.4321 6.36851 66.2728 6.07203C66.1141 5.76414 66.0341 5.38794 66.0341 4.9432C66.0341 4.46426 66.1475 4.06493 66.3751 3.74563C66.6138 3.41495 66.9095 3.15309 67.2616 2.95924C67.6256 2.75403 68.0229 2.61118 68.4551 2.53136C68.8984 2.45153 69.3193 2.41185 69.7167 2.41185ZM22.4616 2.65086H24.2174V4.10478H22.4616V8.82632C22.4616 9.03151 22.4669 9.20816 22.4782 9.35638C22.501 9.5046 22.5411 9.6302 22.598 9.73283C22.6661 9.83533 22.7626 9.91487 22.8874 9.97184C23.0125 10.0175 23.1831 10.0406 23.3991 10.0406H23.8083C23.9447 10.0292 24.081 10.0061 24.2174 9.97184V11.4772C24.0015 11.5 23.7913 11.5231 23.5867 11.5459C23.3822 11.5687 23.1719 11.58 22.9559 11.58C22.4445 11.58 22.0293 11.5343 21.7111 11.4432C21.4045 11.3406 21.1603 11.1982 20.9785 11.0159C20.808 10.822 20.6881 10.582 20.6199 10.297C20.5631 10.012 20.5294 9.68704 20.518 9.3223V4.10478H19.0516V2.65086H20.518V0H22.4616V2.65086ZM28.1391 2.65086H29.895V4.10478H28.1391V8.82632C28.1391 9.03151 28.1444 9.20816 28.1557 9.35638C28.1785 9.5046 28.2187 9.6302 28.2755 9.73283C28.3436 9.83533 28.4401 9.91487 28.5649 9.97184C28.69 10.0175 28.8607 10.0406 29.0766 10.0406H29.4858C29.6222 10.0292 29.7586 10.0061 29.895 9.97184V11.4772C29.679 11.5 29.4688 11.5231 29.2642 11.5459C29.0597 11.5687 28.8494 11.58 28.6334 11.58C28.122 11.58 27.7068 11.5343 27.3886 11.4432C27.082 11.3406 26.8378 11.1982 26.656 11.0159C26.4855 10.822 26.3656 10.582 26.2974 10.297C26.2406 10.012 26.207 9.68704 26.1955 9.3223V4.10478H24.7291V2.65086H26.1955V0H28.1391V2.65086ZM77.6885 2.65086H79.4439V4.10478H77.6885V8.82632C77.6885 9.03151 77.6938 9.20816 77.7049 9.35638C77.7279 9.5046 77.7679 9.6302 77.8249 9.73283C77.8931 9.83533 77.9895 9.91487 78.1141 9.97184C78.2393 10.0175 78.4098 10.0406 78.6256 10.0406H79.0348C79.1711 10.0292 79.3075 10.0061 79.4439 9.97184V11.4772C79.2282 11.5 79.0177 11.5231 78.8131 11.5459C78.6085 11.5687 78.3987 11.58 78.1829 11.58C77.6715 11.58 77.2557 11.5343 76.9377 11.4432C76.6315 11.3406 76.3869 11.1982 76.2052 11.0159C76.0348 10.822 75.9148 10.582 75.8466 10.297C75.7895 10.012 75.7561 9.68704 75.7449 9.3223V4.10478H74.278V2.65086H75.7449V0H77.6885V2.65086ZM45.1998 2.41185C45.427 2.41185 45.5807 2.41716 45.6602 2.42856C45.7511 2.43995 45.8422 2.45185 45.933 2.46325V4.34442C45.7967 4.32161 45.6543 4.30442 45.5066 4.29302C45.3702 4.27022 45.2337 4.25897 45.0973 4.25897C44.7677 4.25897 44.4553 4.32774 44.1599 4.46456C43.8757 4.59 43.6253 4.78372 43.4093 5.046C43.1934 5.29685 43.0227 5.61034 42.8976 5.98659C42.7727 6.36281 42.7107 6.79612 42.7107 7.28632V11.4945H40.7665V2.65086H42.591V4.36176H42.6249C42.6817 4.1223 42.7898 3.88825 42.9489 3.66018C43.1193 3.43216 43.3184 3.22712 43.5457 3.04469C43.7844 2.85083 44.046 2.69678 44.3302 2.58275C44.6143 2.46873 44.9043 2.41185 45.1998 2.41185ZM51.681 2.41185C52.6469 2.4119 53.4083 2.66254 53.9652 3.16419C54.522 3.66589 54.8008 4.41849 54.8008 5.42185V11.4945H52.8573V5.93518C52.8346 5.23964 52.6863 4.73774 52.4136 4.42987C52.1408 4.11077 51.7148 3.95128 51.1353 3.95122C50.8058 3.95122 50.5099 4.01403 50.2485 4.13947C49.9871 4.2535 49.7656 4.41883 49.5837 4.63546C49.4019 4.84072 49.2595 5.08601 49.1572 5.37109C49.055 5.6561 49.0042 5.95843 49.0042 6.27762V11.4945H47.0601V2.65086H48.9018V3.95122L48.9357 3.98528C49.2312 3.49493 49.618 3.11278 50.0954 2.8391C50.5727 2.55413 51.1014 2.41185 51.681 2.41185ZM4.44031 3.95122C3.62209 3.95129 3.00247 4.23625 2.58197 4.80635C2.17285 5.37652 1.96849 6.13494 1.96849 7.08138C1.96849 7.52612 2.01989 7.94263 2.12218 8.33033C2.23584 8.70651 2.40066 9.03138 2.61654 9.305C2.83249 9.57862 3.08821 9.79553 3.38371 9.95513C3.69049 10.1147 4.04269 10.1947 4.44031 10.1948C4.88359 10.1948 5.2592 10.1036 5.56609 9.92112C5.87293 9.73868 6.12275 9.5046 6.31596 9.21954C6.52054 8.92303 6.66289 8.59243 6.74243 8.22757C6.83338 7.85125 6.87882 7.46908 6.87882 7.08138C6.87882 6.6823 6.82741 6.29472 6.72518 5.91848C6.62289 5.54216 6.46932 5.21095 6.26473 4.92585C6.06016 4.62947 5.80437 4.39593 5.49757 4.22492C5.19068 4.04246 4.83813 3.95122 4.44031 3.95122ZM15.903 7.06401C15.6075 7.25776 15.2441 7.3775 14.8124 7.42316C14.3805 7.45737 13.9482 7.51487 13.5163 7.59467C13.3117 7.62888 13.1127 7.67987 12.9194 7.74822C12.7263 7.80526 12.5561 7.89125 12.4085 8.00526C12.2607 8.10789 12.1407 8.25006 12.0498 8.4325C11.9703 8.60349 11.9308 8.81454 11.9307 9.06533C11.9307 9.28191 11.9934 9.46447 12.1184 9.6127C12.2433 9.76092 12.3911 9.88066 12.5614 9.97184C12.7433 10.0516 12.9365 10.1092 13.141 10.1434C13.357 10.1776 13.5507 10.1948 13.7212 10.1948C13.937 10.1948 14.1699 10.1657 14.4198 10.1087C14.6699 10.0517 14.9031 9.95513 15.1191 9.81829C15.3464 9.68151 15.5336 9.5102 15.6814 9.305C15.8291 9.08829 15.903 8.82585 15.903 8.51796V7.06401ZM35.1294 3.95122C34.7885 3.95122 34.4759 4.01408 34.1919 4.13947C33.9191 4.25351 33.6799 4.4188 33.4753 4.63546C33.2822 4.84068 33.1232 5.08608 32.9982 5.37109C32.8846 5.65607 32.822 5.96378 32.8106 6.29433H37.3456C37.3229 5.98651 37.2544 5.69017 37.1407 5.40514C37.0513 5.15573 36.9271 4.93685 36.7681 4.74853L36.6271 4.59049C36.4581 4.41093 36.2543 4.26591 36.0156 4.15617C35.7543 4.01942 35.4588 3.95124 35.1294 3.95122ZM60.6865 3.95122C60.3456 3.95122 60.0331 4.01408 59.749 4.13947C59.4762 4.25351 59.237 4.4188 59.0324 4.63546C58.8393 4.84068 58.6803 5.08608 58.5553 5.37109C58.4417 5.65607 58.3791 5.96378 58.3677 6.29433H62.9028C62.8801 5.98651 62.8115 5.69017 62.6979 5.40514C62.6084 5.15573 62.4843 4.93685 62.3252 4.74853L62.1843 4.59049C62.0152 4.41093 61.8114 4.26591 61.5727 4.15617C61.3114 4.01942 61.0159 3.95124 60.6865 3.95122Z" fill="var(--fill-0, black)"/>
</g>
</svg>
