<svg preserveAspectRatio="none" width="100%" height="100%" overflow="visible" style="display: block;" viewBox="0 0 108 25" fill="none" xmlns="http://www.w3.org/2000/svg">
<g id="Group">
<path id="Vector" d="M12.5234 0C5.67841 0 0.106715 5.557 0.103811 12.387C0.103086 14.5703 0.675136 16.7014 1.76189 18.5798L0 25L6.58367 23.2772C8.39783 24.2642 10.4399 24.7842 12.5183 24.785H12.5234C19.3677 24.785 24.9394 19.2272 24.9423 12.3972C24.9438 9.08719 23.653 5.97483 21.3083 3.6337C18.9633 1.29186 15.8455 0.00144844 12.5234 0ZM12.5234 22.6928H12.519C10.6671 22.6928 8.85009 22.1955 7.26534 21.2577L6.88858 21.0347L2.98222 22.0572L4.02469 18.2577L3.77931 17.8681C2.74628 16.2286 2.20036 14.3335 2.20109 12.3885C2.20327 6.71127 6.83412 2.09275 12.5278 2.09275C15.2849 2.09347 17.8766 3.16591 19.8252 5.11237C21.7742 7.05812 22.8464 9.64548 22.8458 12.3965C22.8436 18.0736 18.2127 22.6928 12.5234 22.6928ZM18.1852 14.9816C17.8752 14.8266 16.3492 14.0779 16.0647 13.9744C15.78 13.8708 15.5732 13.8194 15.3663 14.1293C15.1594 14.4393 14.5648 15.1366 14.384 15.343C14.2033 15.5502 14.0217 15.5753 13.7118 15.4205C13.4018 15.2655 12.4014 14.9381 11.2167 13.8838C10.294 13.0634 9.67113 12.0495 9.49034 11.7396C9.30966 11.4297 9.47077 11.2625 9.62689 11.1082C9.76625 10.97 9.93683 10.7468 10.0922 10.5658C10.2476 10.3848 10.2991 10.2559 10.4022 10.0488C10.5052 9.84242 10.4537 9.66137 10.3761 9.50641C10.2984 9.35144 9.6777 7.82789 9.41922 7.20803C9.16733 6.60483 8.9118 6.68592 8.72087 6.67652C8.54011 6.66711 8.33322 6.66566 8.12631 6.66566C7.91942 6.66566 7.58331 6.74312 7.29873 7.05306C7.01416 7.363 6.2127 8.11175 6.2127 9.63528C6.2127 11.1589 7.32486 12.631 7.4795 12.8375C7.63484 13.0439 9.66752 16.1706 12.7804 17.5109C13.5208 17.8295 14.0987 18.02 14.5495 18.1627C15.293 18.3981 15.9695 18.3648 16.5037 18.2852C17.0998 18.1961 18.3398 17.5364 18.5981 16.813C18.8567 16.0903 18.8567 15.4705 18.7789 15.3408C18.7013 15.2119 18.4944 15.1344 18.1844 14.9794L18.1852 14.9816ZM40.1555 14.7926H40.122L38.0631 6.50706H35.5819L33.4891 14.6913H33.4556L31.5484 6.50706H28.8987L32.0886 18.5312H34.7725L36.7805 10.3464H36.8145L38.8567 18.5312H41.4897L44.7303 6.50706H42.1314L40.1555 14.7926ZM52.8138 10.5738C52.5778 10.2653 52.2542 10.0242 51.8439 9.84964C51.433 9.67663 50.9067 9.5897 50.2656 9.5897C49.8156 9.5897 49.3547 9.70416 48.8813 9.93511C48.4088 10.1647 48.0211 10.5325 47.7169 11.038H47.6661V6.50706H45.2697V18.5306H47.6661V13.9671C47.6661 13.08 47.812 12.4435 48.1053 12.0554C48.3978 11.6687 48.8705 11.4746 49.5231 11.4746C50.0966 11.4746 50.4958 11.6514 50.7217 12.0054C50.9467 12.3587 51.0592 12.8947 51.0592 13.613V18.5306H53.4563V13.1756C53.4563 12.6368 53.4077 12.1459 53.3125 11.702C53.2167 11.2596 53.0505 10.883 52.8138 10.5738ZM62.6875 16.5942V12.0648C62.6875 11.5362 62.57 11.1125 62.3325 10.7932C62.0966 10.4731 61.7931 10.2233 61.4222 10.0438C61.0505 9.86417 60.6397 9.74323 60.1895 9.68167C59.7394 9.62012 59.2952 9.58898 58.8567 9.58898C58.3731 9.58898 57.8919 9.63602 57.4142 9.73241C56.9352 9.82798 56.5053 9.988 56.1228 10.2125C55.7402 10.4369 55.4244 10.7346 55.1783 11.1046C54.93 11.4754 54.7892 11.941 54.7558 12.5029H57.1522C57.197 12.0315 57.3555 11.694 57.6255 11.492C57.8955 11.29 58.2664 11.1893 58.7391 11.1893C58.9525 11.1893 59.1522 11.2031 59.338 11.2313C59.5231 11.2596 59.6864 11.3146 59.8272 11.3993C59.9681 11.4833 60.0806 11.6014 60.1648 11.7534C60.2491 11.9048 60.2911 12.1104 60.2911 12.3675C60.302 12.6152 60.2287 12.802 60.0719 12.9316C59.9136 13.0612 59.7002 13.1597 59.4302 13.2263C59.1602 13.2944 58.8509 13.345 58.5017 13.3776C58.1525 13.4125 57.7981 13.458 57.4389 13.5131C57.0781 13.5696 56.7209 13.6449 56.3673 13.7404C56.0131 13.8353 55.6966 13.9794 55.4214 14.1691C55.1456 14.361 54.9206 14.6159 54.7456 14.9359C54.5714 15.2561 54.4842 15.6637 54.4842 16.1569C54.4842 16.6059 54.5605 16.9933 54.7122 17.3184C54.8639 17.645 55.0752 17.9136 55.3452 18.1272C55.6153 18.3409 55.9303 18.498 56.2905 18.5994C56.6497 18.7 57.0389 18.7508 57.4548 18.7508C57.995 18.7508 58.5242 18.6717 59.0411 18.5153C59.5586 18.3567 60.0095 18.083 60.392 17.6892C60.403 17.8353 60.4225 17.9787 60.4509 18.1186C60.4792 18.2583 60.5155 18.3967 60.5605 18.5306H62.9909C62.8784 18.3517 62.7992 18.0823 62.7544 17.7225C62.7086 17.3633 62.6875 16.9881 62.6875 16.5942ZM60.2911 15.1627C60.2911 15.2987 60.2773 15.4783 60.2491 15.702C60.2214 15.9273 60.1452 16.1481 60.0211 16.3677C59.8969 16.5862 59.7053 16.7753 59.4469 16.9317C59.1884 17.0895 58.8225 17.1678 58.3492 17.1678C58.1583 17.1678 57.9725 17.1511 57.7923 17.1164C57.6123 17.083 57.4548 17.0236 57.3198 16.9397C57.1848 16.8556 57.0781 16.7405 56.9989 16.5942C56.9206 16.448 56.8806 16.2691 56.8806 16.0563C56.8806 15.8317 56.9206 15.6456 56.9989 15.5002C57.0781 15.3545 57.1819 15.2336 57.3119 15.138C57.4403 15.0423 57.5928 14.9672 57.767 14.9106C57.9413 14.8548 58.1184 14.81 58.2991 14.776C58.49 14.7426 58.6817 14.7137 58.8727 14.692C59.065 14.6702 59.2472 14.6413 59.4214 14.6079C59.5964 14.5739 59.7591 14.532 59.9114 14.4812C60.0631 14.4305 60.1895 14.3617 60.2911 14.2712V15.1627ZM67.1608 7.21455H64.7637V9.82438H63.3125V11.4239H64.7637V16.5609C64.7637 16.9991 64.8378 17.3525 64.9837 17.6219C65.1303 17.8911 65.33 18.0997 65.5827 18.2453C65.8359 18.3916 66.1286 18.4894 66.4609 18.5392C66.792 18.5892 67.1448 18.6153 67.5159 18.6153C67.7533 18.6153 67.9942 18.6095 68.2425 18.5994C68.4894 18.5878 68.7144 18.5661 68.9177 18.5312V16.6789C68.8044 16.7014 68.6869 16.7195 68.5627 16.7297C68.4392 16.7412 68.31 16.747 68.175 16.747C67.7706 16.747 67.4998 16.6789 67.3648 16.5444C67.2305 16.4095 67.163 16.1403 67.163 15.7355V11.4239H68.9184V9.82438H67.163V7.21455H67.1608ZM77.0672 14.7173C76.9097 14.4421 76.7014 14.2118 76.4428 14.0264C76.1845 13.8418 75.8883 13.6927 75.5572 13.5797C75.2247 13.4681 74.8842 13.3733 74.5358 13.2944C74.1981 13.2154 73.8672 13.1423 73.5405 13.075C73.2137 13.0076 72.9242 12.9316 72.6708 12.8483C72.4183 12.7636 72.2134 12.655 72.0559 12.5196C71.8977 12.3848 71.82 12.2118 71.82 11.9975C71.82 11.8179 71.8636 11.6745 71.9544 11.568C72.0444 11.4615 72.1547 11.3805 72.2839 11.3233C72.4137 11.2675 72.5561 11.2313 72.7136 11.2139C72.8713 11.1973 73.0178 11.1893 73.1522 11.1893C73.5797 11.1893 73.9514 11.2704 74.2672 11.4334C74.5816 11.5963 74.7566 11.9077 74.7892 12.3675H77.068C77.023 11.8287 76.885 11.3827 76.6542 11.0285C76.4241 10.6752 76.1336 10.3921 75.7852 10.1784C75.4367 9.9648 75.0403 9.81345 74.5945 9.72364C74.1503 9.63384 73.6922 9.58898 73.2205 9.58898C72.7484 9.58898 72.2853 9.63095 71.8367 9.71427C71.3859 9.799 70.9808 9.94522 70.6214 10.1531C70.2606 10.3609 69.9717 10.644 69.7519 11.0032C69.5317 11.3624 69.4222 11.8229 69.4222 12.3841C69.4222 12.7658 69.5014 13.0894 69.6595 13.3531C69.8156 13.6173 70.0247 13.8353 70.2823 14.0098C70.5423 14.1836 70.8378 14.3248 71.1695 14.4305C71.5014 14.5385 71.8417 14.6304 72.1903 14.7093C73.0461 14.8889 73.7133 15.0684 74.1909 15.2488C74.6694 15.4284 74.9083 15.6978 74.9083 16.0569C74.9083 16.2706 74.8581 16.4458 74.7566 16.5863C74.6548 16.7275 74.5286 16.8391 74.3769 16.923C74.2244 17.0078 74.0553 17.07 73.8702 17.1084C73.6844 17.1481 73.5064 17.1678 73.338 17.1678C73.1014 17.1678 72.8741 17.1395 72.6548 17.0838C72.435 17.0272 72.2411 16.9405 72.0719 16.8223C71.9036 16.7044 71.7648 16.553 71.6581 16.3677C71.5522 16.1822 71.4977 15.9614 71.4977 15.702H69.2197C69.2428 16.2858 69.3742 16.7717 69.6167 17.1591C69.8578 17.5464 70.167 17.8578 70.5445 18.0939C70.9212 18.3292 71.3525 18.498 71.8367 18.5994C72.3195 18.7 72.8145 18.7508 73.3206 18.7508C73.8266 18.7508 74.3028 18.7028 74.7811 18.608C75.2595 18.5125 75.6844 18.3467 76.0553 18.1106C76.4277 17.8753 76.7267 17.5639 76.9583 17.1764C77.1884 16.7883 77.3039 16.3089 77.3039 15.7363C77.3039 15.3314 77.2247 14.9918 77.0672 14.7173ZM81.8266 6.50706L77.2697 18.5312H79.9362L80.8806 15.8534H85.3873L86.2978 18.5312H89.0498L84.5438 6.50706H81.8266ZM81.5739 13.8838L83.1434 9.47166H83.1769L84.6963 13.8838H81.5739ZM97.3375 11.004C97.0117 10.5774 96.6002 10.2349 96.1056 9.97708C95.6102 9.71859 95.0198 9.5897 94.3339 9.5897C93.7933 9.5897 93.2988 9.69613 92.8484 9.90903C92.3972 10.1227 92.027 10.4652 91.7347 10.9365H91.7013V9.82438H89.4214V21.5798H91.8205V17.4537H91.8528C92.1453 17.8811 92.5198 18.2033 92.9766 18.4213C93.4305 18.6398 93.9295 18.75 94.4694 18.75C95.1119 18.75 95.6714 18.6255 96.1489 18.3792C96.6272 18.1323 97.0261 17.8006 97.3475 17.385C97.6678 16.9694 97.9061 16.4928 98.065 15.9542C98.2211 15.4147 98.3014 14.8534 98.3014 14.2698C98.3014 13.6521 98.2211 13.0605 98.065 12.4928C97.9061 11.9264 97.6652 11.429 97.3384 11.0025L97.3375 11.004ZM95.8014 15.2306C95.7338 15.5681 95.6183 15.8622 95.4558 16.1148C95.2923 16.3677 95.0786 16.5733 94.8131 16.7297C94.5497 16.8869 94.2202 16.9664 93.8267 16.9664C93.4333 16.9664 93.1191 16.8875 92.8484 16.7297C92.5786 16.5733 92.3619 16.3677 92.1986 16.1148C92.0352 15.8622 91.917 15.5681 91.8439 15.2306C91.7708 14.8939 91.7347 14.5514 91.7347 14.2046C91.7347 13.8578 91.7681 13.4964 91.8348 13.1604C91.9034 12.8236 92.0181 12.5261 92.1823 12.2668C92.3439 12.009 92.5586 11.799 92.8241 11.6361C93.0884 11.4732 93.4161 11.3906 93.8105 11.3906C94.2048 11.3906 94.5181 11.4732 94.7816 11.6361C95.0452 11.7983 95.2627 12.0112 95.4305 12.2755C95.5992 12.5398 95.7202 12.8403 95.7942 13.1764C95.8683 13.5131 95.9025 13.8563 95.9025 14.2046C95.9025 14.5529 95.8691 14.8947 95.8014 15.2306ZM107.615 12.4942C107.458 11.928 107.216 11.4304 106.889 11.004C106.562 10.5774 106.153 10.2349 105.658 9.97708C105.163 9.71859 104.571 9.5897 103.885 9.5897C103.346 9.5897 102.85 9.69613 102.401 9.90903C101.95 10.1227 101.579 10.4652 101.286 10.9365H101.254V9.82438H98.9747V21.5798H101.372V17.4537H101.405C101.698 17.8811 102.073 18.2033 102.528 18.4213C102.983 18.6398 103.482 18.75 104.022 18.75C104.662 18.75 105.222 18.6255 105.701 18.3792C106.179 18.1323 106.578 17.8006 106.899 17.385C107.22 16.9694 107.458 16.4928 107.616 15.9542C107.774 15.4147 107.853 14.8534 107.853 14.2698C107.853 13.6521 107.774 13.0605 107.616 12.4928L107.615 12.4942ZM105.353 15.2306C105.286 15.5681 105.171 15.8622 105.008 16.1148C104.844 16.3677 104.63 16.5733 104.365 16.7297C104.102 16.8869 103.772 16.9664 103.379 16.9664C102.985 16.9664 102.67 16.8875 102.399 16.7297C102.128 16.5733 101.913 16.3677 101.749 16.1148C101.587 15.8622 101.468 15.5681 101.394 15.2306C101.321 14.8939 101.285 14.5514 101.285 14.2046C101.285 13.8578 101.32 13.4964 101.386 13.1604C101.454 12.8236 101.57 12.5261 101.733 12.2668C101.895 12.009 102.11 11.799 102.375 11.6361C102.638 11.4732 102.968 11.3906 103.362 11.3906C103.756 11.3906 104.068 11.4732 104.332 11.6361C104.597 11.7983 104.813 12.0112 104.982 12.2755C105.152 12.5398 105.273 12.8403 105.346 13.1764C105.42 13.5131 105.455 13.8563 105.455 14.2046C105.455 14.5529 105.421 14.8947 105.353 15.2306Z" fill="var(--fill-0, #25D366)"/>
</g>
</svg>
