<svg preserveAspectRatio="none" width="100%" height="100%" overflow="visible" style="display: block;" viewBox="0 0 19 19" fill="none" xmlns="http://www.w3.org/2000/svg">
<g id="c0EZxtMucSR6UOSZk2TBnWsqr4.svg" clip-path="url(#clip0_851_2336)">
<path id="Vector" d="M0 0H19V19H0V0Z" fill="var(--fill-0, white)"/>
<path id="Vector_2" d="M4.75 3.95833C4.95996 3.95833 5.16133 4.04174 5.30979 4.19021C5.45826 4.33867 5.54167 4.54004 5.54167 4.75C5.54167 4.95996 5.45826 5.16133 5.30979 5.30979C5.16133 5.45826 4.95996 5.54167 4.75 5.54167C4.54004 5.54167 4.33867 5.45826 4.19021 5.30979C4.04174 5.16133 3.95833 4.95996 3.95833 4.75C3.95833 4.54004 4.04174 4.33867 4.19021 4.19021C4.33867 4.04174 4.54004 3.95833 4.75 3.95833ZM4.75 13.4583C4.95996 13.4583 5.16133 13.5417 5.30979 13.6902C5.45826 13.8387 5.54167 14.04 5.54167 14.25C5.54167 14.46 5.45826 14.6613 5.30979 14.8098C5.16133 14.9583 4.95996 15.0417 4.75 15.0417C4.54004 15.0417 4.33867 14.9583 4.19021 14.8098C4.04174 14.6613 3.95833 14.46 3.95833 14.25C3.95833 14.04 4.04174 13.8387 4.19021 13.6902C4.33867 13.5417 4.54004 13.4583 4.75 13.4583ZM14.25 13.4583C14.46 13.4583 14.6613 13.5417 14.8098 13.6902C14.9583 13.8387 15.0417 14.04 15.0417 14.25C15.0417 14.46 14.9583 14.6613 14.8098 14.8098C14.6613 14.9583 14.46 15.0417 14.25 15.0417C14.04 15.0417 13.8387 14.9583 13.6902 14.8098C13.5417 14.6613 13.4583 14.46 13.4583 14.25C13.4583 14.04 13.5417 13.8387 13.6902 13.6902C13.8387 13.5417 14.04 13.4583 14.25 13.4583ZM14.25 3.95833C14.46 3.95833 14.6613 4.04174 14.8098 4.19021C14.9583 4.33867 15.0417 4.54004 15.0417 4.75C15.0417 4.95996 14.9583 5.16133 14.8098 5.30979C14.6613 5.45826 14.46 5.54167 14.25 5.54167C14.04 5.54167 13.8387 5.45826 13.6902 5.30979C13.5417 5.16133 13.4583 4.95996 13.4583 4.75C13.4583 4.54004 13.5417 4.33867 13.6902 4.19021C13.8387 4.04174 14.04 3.95833 14.25 3.95833Z" fill="var(--fill-0, black)"/>
</g>
<defs>
<clipPath id="clip0_851_2336">
<rect width="19" height="19" fill="white"/>
</clipPath>
</defs>
</svg>
