<svg preserveAspectRatio="none" width="100%" height="100%" overflow="visible" style="display: block;" viewBox="0 0 114 25" fill="none" xmlns="http://www.w3.org/2000/svg">
<g id="Group">
<path id="Vector" d="M16.1168 0.073242C14.5856 0.345284 13.2432 1.04632 12.121 2.17634C11.2505 3.04478 10.7052 3.90276 10.3382 5.03277C9.95009 6.17326 9.97109 5.88031 9.93959 12.221C9.90813 17.9234 9.90813 17.9339 9.79277 18.2268C9.36279 19.2836 8.45036 19.9114 7.37016 19.9114C5.70262 19.9114 4.46507 18.3105 4.8846 16.6992C5.1048 15.8622 5.776 15.1507 6.61501 14.8786C6.69891 14.8472 7.07649 14.8158 7.45402 14.7949L8.12522 14.7635V12.3675V9.94L7.33866 9.96094C6.90868 9.97138 6.34237 10.0133 6.06968 10.0551C4.56993 10.3271 3.24851 11.0177 2.14731 12.1163C1.02514 13.2464 0.332958 14.5857 0.0707679 16.1656C-0.0445961 16.8352 -0.0131333 18.2268 0.123205 18.8337C0.689535 21.3344 2.44097 23.3538 4.79018 24.2432C5.53481 24.5257 6.17456 24.6408 7.09747 24.6721C8.12522 24.714 8.77549 24.6198 9.65642 24.3373C10.8206 23.9502 11.7015 23.4061 12.5825 22.5377C13.6942 21.4286 14.3654 20.1625 14.6695 18.5721C14.7534 18.1327 14.7639 17.4944 14.7849 12.3988L14.8164 6.70688L15.0156 6.28835C15.7287 4.75723 18.6653 4.30036 19.6302 6.20464C19.8609 6.66505 19.9448 7.09402 19.9133 7.54393C19.8504 8.27638 19.4833 8.94603 18.917 9.38545C18.4031 9.77259 18.078 9.87723 17.2705 9.89817L16.5783 9.91911V12.3151C16.5783 14.5124 16.5783 14.7112 16.6726 14.7426C16.8614 14.8158 18.5394 14.6589 19.1163 14.5124C23.133 13.5289 25.5661 9.41688 24.4964 5.4304C23.8776 3.14942 22.1576 1.26604 19.9343 0.42899C19.1268 0.125558 18.5604 0.0209263 17.5222 0C16.8404 0 16.4209 0.0209263 16.1168 0.073242Z" fill="var(--fill-0, black)"/>
<path id="Vector_2" d="M32.9466 11.3802V2.39055H35.6384V11.3365C35.6384 12.4294 35.449 13.2955 35.0703 13.9349C34.4294 15.0161 33.2729 15.5567 31.6007 15.5567C29.9285 15.5567 28.8069 15.1207 28.2359 14.2488C27.6649 13.3711 27.3794 12.1765 27.3794 10.6652V10.3687H29.9227V10.6652C29.946 11.6592 30.0538 12.3596 30.246 12.7665C30.4441 13.1676 30.8636 13.3682 31.5045 13.3682C32.1396 13.3682 32.5591 13.1473 32.763 12.7055C32.8854 12.4439 32.9466 12.0021 32.9466 11.3802ZM41.9939 10.6216H39.2584V15.2428H36.584V2.39055H42.1949C43.4884 2.39055 44.5196 2.72189 45.2886 3.38455C46.0578 4.04722 46.4422 5.0732 46.4422 6.46249C46.4422 7.97963 46.0578 9.05209 45.2886 9.6799C44.5196 10.3077 43.4214 10.6216 41.9939 10.6216ZM43.2524 7.94476C43.602 7.63668 43.7768 7.14838 43.7768 6.4799C43.7768 5.81141 43.5991 5.33476 43.2436 5.04994C42.8941 4.76512 42.4017 4.62271 41.7666 4.62271H39.2584V8.40686H41.7666C42.4017 8.40686 42.897 8.25284 43.2524 7.94476ZM53.6737 13.3856C54.3091 13.3856 54.8246 13.3158 55.2206 13.1763C55.9724 12.909 56.3483 12.412 56.3483 11.6853C56.3483 11.261 56.1617 10.9326 55.7889 10.7001C55.4162 10.4733 54.8304 10.2728 54.0322 10.0984L52.6687 9.79325C51.329 9.49097 50.4023 9.16253 49.8895 8.80798C49.0214 8.21503 48.5873 7.28789 48.5873 6.0265C48.5873 4.87557 49.0071 3.91934 49.8461 3.15785C50.6851 2.39637 51.9174 2.01562 53.5426 2.01562C54.9003 2.01562 56.057 2.37602 57.0123 3.09682C57.9739 3.8118 58.4778 4.85231 58.5243 6.21833H55.9375C55.891 5.44521 55.5531 4.89588 54.9235 4.57039C54.5042 4.3553 53.9825 4.24777 53.3592 4.24777C52.666 4.24777 52.1125 4.38728 51.6986 4.66628C51.2851 4.9453 51.0784 5.33476 51.0784 5.83467C51.0784 6.29391 51.282 6.63686 51.6901 6.86356C51.9523 7.01467 52.5117 7.192 53.3681 7.39543L55.588 7.92731C56.5608 8.15981 57.2951 8.47083 57.7905 8.8603C58.5592 9.46481 58.944 10.3397 58.944 11.4848C58.944 12.659 58.4925 13.6356 57.5891 14.4145C56.6919 15.1876 55.422 15.5741 53.7789 15.5741C52.1009 15.5741 50.7813 15.1934 49.8197 14.4319C48.8585 13.6646 48.3775 12.6125 48.3775 11.2755H50.9473C51.0287 11.8626 51.1889 12.3015 51.4279 12.5921C51.8646 13.1211 52.6137 13.3856 53.6737 13.3856ZM67.9642 6.94204C68.7678 7.94766 69.1701 9.13637 69.1701 10.5082C69.1701 11.9033 68.7678 13.0978 67.9642 14.0919C67.1601 15.08 65.9394 15.5741 64.3021 15.5741C62.6648 15.5741 61.4441 15.08 60.64 14.0919C59.8359 13.0978 59.434 11.9033 59.434 10.5082C59.434 9.13637 59.8359 7.94766 60.64 6.94204C61.4441 5.93641 62.6648 5.4336 64.3021 5.4336C65.9394 5.4336 67.1601 5.93641 67.9642 6.94204ZM64.2931 7.53494C63.5651 7.53494 63.0026 7.7936 62.6066 8.31097C62.216 8.82249 62.0209 9.5549 62.0209 10.5082C62.0209 11.4615 62.216 12.1969 62.6066 12.7142C63.0026 13.2315 63.5651 13.4903 64.2931 13.4903C65.0216 13.4903 65.5809 13.2315 65.9711 12.7142C66.3618 12.1969 66.5569 11.4615 66.5569 10.5082C66.5569 9.5549 66.3618 8.82249 65.9711 8.31097C65.5809 7.7936 65.0216 7.53494 64.2931 7.53494ZM70.2982 2.39055H72.7888V15.2428H70.2982V2.39055ZM80.6204 13.9C80.5972 13.9291 80.539 14.0163 80.4455 14.1616C80.3524 14.307 80.2419 14.4348 80.1134 14.5453C79.7232 14.894 79.3442 15.1324 78.9773 15.2603C78.6162 15.3882 78.1907 15.4521 77.7011 15.4521C76.2911 15.4521 75.3416 14.9464 74.8521 13.9349C74.5782 13.3769 74.4413 12.5544 74.4413 11.4674V5.73878H76.9932V11.4674C76.9932 12.0079 77.0577 12.4149 77.1856 12.6881C77.413 13.1705 77.8586 13.4118 78.5227 13.4118C79.3733 13.4118 79.9564 13.0688 80.271 12.3829C80.4338 12.0108 80.5157 11.5197 80.5157 10.9093V5.73878H83.0412V15.2428H80.6204V13.9ZM89.0987 13.4728V15.33L87.9187 15.3736C86.7418 15.4143 85.9377 15.2108 85.5064 14.7632C85.2267 14.4784 85.0871 14.0395 85.0871 13.4466V7.59597H83.7585V5.82597H85.0871V3.17529H87.5517V5.82597H89.0987V7.59597H87.5517V12.6183C87.5517 13.0078 87.601 13.2519 87.7003 13.3507C87.7992 13.4437 88.1021 13.4903 88.6091 13.4903C88.6847 13.4903 88.7635 13.4903 88.8449 13.4903C88.9326 13.4844 89.0172 13.4786 89.0987 13.4728ZM92.5428 5.73878V15.2428H90.0169V5.73878H92.5428ZM92.5428 2.31208V4.60525H90.0169V2.31208H92.5428ZM102.192 6.94204C102.996 7.94766 103.398 9.13637 103.398 10.5082C103.398 11.9033 102.996 13.0978 102.192 14.0919C101.388 15.08 100.167 15.5741 98.53 15.5741C96.8927 15.5741 95.672 15.08 94.8683 14.0919C94.0642 13.0978 93.662 11.9033 93.662 10.5082C93.662 9.13637 94.0642 7.94766 94.8683 6.94204C95.672 5.93641 96.8927 5.4336 98.53 5.4336C100.167 5.4336 101.388 5.93641 102.192 6.94204ZM98.5215 7.53494C97.793 7.53494 97.2305 7.7936 96.8345 8.31097C96.4443 8.82249 96.2488 9.5549 96.2488 10.5082C96.2488 11.4615 96.4443 12.1969 96.8345 12.7142C97.2305 13.2315 97.793 13.4903 98.5215 13.4903C99.2495 13.4903 99.8089 13.2315 100.199 12.7142C100.59 12.1969 100.785 11.4615 100.785 10.5082C100.785 9.5549 100.59 8.82249 100.199 8.31097C99.8089 7.7936 99.2495 7.53494 98.5215 7.53494ZM108.957 7.57856C108.112 7.57856 107.533 7.93601 107.218 8.65101C107.055 9.02887 106.973 9.51133 106.973 10.0984V15.2428H104.491V5.75619H106.894V7.14258C107.215 6.65432 107.518 6.30262 107.803 6.08753C108.316 5.70387 108.966 5.51208 109.752 5.51208C110.737 5.51208 111.541 5.77075 112.164 6.28807C112.794 6.79963 113.108 7.65119 113.108 8.84284V15.2428H110.557V9.46191C110.557 8.962 110.489 8.57833 110.355 8.31097C110.111 7.82267 109.645 7.57856 108.957 7.57856Z" fill="var(--fill-0, black)"/>
<path id="Vector_3" d="M27.4851 19.2581H28.1769V23.2781H27.4851V19.2581ZM27.4851 17.7384H28.1769V18.5077H27.4851V17.7384ZM28.8991 19.2393H29.5455V19.8125C29.737 19.5761 29.9399 19.4065 30.1541 19.3034C30.3682 19.2003 30.6064 19.1488 30.8684 19.1488C31.443 19.1488 31.831 19.3486 32.0327 19.7484C32.1435 19.9671 32.199 20.2801 32.199 20.6874V23.2781H31.5073V20.7326C31.5073 20.4862 31.4707 20.2877 31.3976 20.1368C31.2767 19.8854 31.0575 19.7597 30.7399 19.7597C30.5787 19.7597 30.4463 19.776 30.343 19.8087C30.1566 19.864 29.9928 19.9746 29.8517 20.1406C29.7383 20.2738 29.6639 20.4121 29.6286 20.5554C29.5959 20.6962 29.5795 20.8986 29.5795 21.1625V23.2781H28.8991V19.2393ZM32.8986 19.2393H33.5449V19.8125C33.7364 19.5761 33.9393 19.4065 34.1535 19.3034C34.3677 19.2003 34.6058 19.1488 34.8679 19.1488C35.4424 19.1488 35.8305 19.3486 36.0321 19.7484C36.143 19.9671 36.1984 20.2801 36.1984 20.6874V23.2781H35.5067V20.7326C35.5067 20.4862 35.4701 20.2877 35.3971 20.1368C35.2761 19.8854 35.0569 19.7597 34.7394 19.7597C34.5781 19.7597 34.4458 19.776 34.3425 19.8087C34.156 19.864 33.9922 19.9746 33.8511 20.1406C33.7377 20.2738 33.6634 20.4121 33.6281 20.5554C33.5953 20.6962 33.579 20.8986 33.579 21.1625V23.2781H32.8986V19.2393ZM38.5044 22.8407C38.9555 22.8407 39.2642 22.671 39.4305 22.3316C39.5994 21.9897 39.6838 21.61 39.6838 21.1927C39.6838 20.8156 39.6233 20.5089 39.5024 20.2726C39.3108 19.9005 38.9807 19.7144 38.512 19.7144C38.0962 19.7144 37.7938 19.8728 37.6049 20.1896C37.4158 20.5064 37.3213 20.8885 37.3213 21.336C37.3213 21.7659 37.4158 22.1242 37.6049 22.4108C37.7938 22.6974 38.0937 22.8407 38.5044 22.8407ZM38.5309 19.1223C39.0526 19.1223 39.4935 19.2958 39.8539 19.6428C40.2142 19.9897 40.3944 20.5001 40.3944 21.1739C40.3944 21.825 40.2357 22.363 39.9181 22.7879C39.6006 23.2128 39.108 23.4252 38.4402 23.4252C37.8833 23.4252 37.441 23.2379 37.1134 22.8633C36.7858 22.4862 36.6221 21.9809 36.6221 21.3473C36.6221 20.6685 36.7947 20.128 37.1399 19.7257C37.4852 19.3235 37.9488 19.1223 38.5309 19.1223ZM41.2301 19.2393L42.3111 22.5277L43.4413 19.2393H44.1859L42.6589 23.2781H41.9331L40.4401 19.2393H41.2301ZM44.9799 22.2034C44.9799 22.3994 45.0519 22.5541 45.1956 22.6672C45.3392 22.7803 45.5092 22.8369 45.7057 22.8369C45.9451 22.8369 46.1769 22.7816 46.4015 22.671C46.7792 22.4874 46.9684 22.187 46.9684 21.7697V21.2229C46.8852 21.2757 46.7778 21.3197 46.6472 21.3548C46.5161 21.3901 46.3876 21.4152 46.2614 21.4303L45.8493 21.4831C45.6023 21.5157 45.4171 21.5673 45.2936 21.6377C45.0846 21.7559 44.9799 21.9444 44.9799 22.2034ZM46.6279 20.8307C46.7845 20.8106 46.8888 20.7452 46.9416 20.6346C46.972 20.5742 46.9872 20.4875 46.9872 20.3744C46.9872 20.1431 46.904 19.9759 46.7376 19.8728C46.5738 19.7672 46.3384 19.7144 46.031 19.7144C45.6757 19.7144 45.4233 19.81 45.2748 20.0011C45.1915 20.1066 45.1374 20.2638 45.1123 20.4724H44.4773C44.4899 19.9746 44.6512 19.629 44.9611 19.4354C45.2734 19.2393 45.6354 19.1412 46.0458 19.1412C46.5223 19.1412 46.9089 19.2317 47.2065 19.4128C47.5014 19.5938 47.6486 19.8753 47.6486 20.2575V22.5842C47.6486 22.6546 47.6625 22.7112 47.6902 22.754C47.7206 22.7967 47.7824 22.8181 47.8755 22.8181C47.9059 22.8181 47.9399 22.8168 47.9775 22.8143C48.0155 22.8093 48.0558 22.803 48.0983 22.7954V23.297C47.9927 23.3271 47.9122 23.346 47.8567 23.3536C47.8012 23.3611 47.7256 23.3648 47.6298 23.3648C47.3953 23.3648 47.2253 23.2819 47.1192 23.116C47.0642 23.028 47.0248 22.9035 47.0025 22.7426C46.8637 22.9236 46.6646 23.0808 46.4051 23.214C46.1456 23.3473 45.8596 23.4139 45.5468 23.4139C45.1714 23.4139 44.864 23.3007 44.6247 23.0745C44.3878 22.8457 44.2694 22.5603 44.2694 22.2185C44.2694 21.8439 44.3866 21.5535 44.621 21.3473C44.8555 21.1411 45.1629 21.0142 45.5433 20.9665L46.6279 20.8307ZM48.5941 18.1117H49.2819V19.2393H49.928V19.7936H49.2819V22.4296C49.2819 22.5704 49.3298 22.6647 49.4255 22.7124C49.4783 22.7401 49.5665 22.754 49.69 22.754C49.7231 22.754 49.758 22.754 49.796 22.754C49.8336 22.7514 49.8779 22.7477 49.928 22.7426V23.2781C49.8502 23.3007 49.7683 23.3171 49.6824 23.3271C49.5996 23.3372 49.5087 23.3422 49.4103 23.3422C49.093 23.3422 48.8774 23.2618 48.7641 23.1009C48.6505 22.9375 48.5941 22.7263 48.5941 22.4674V19.7936H48.046V19.2393H48.5941V18.1117ZM50.3026 19.2581H50.9943V23.2781H50.3026V19.2581ZM50.3026 17.7384H50.9943V18.5077H50.3026V17.7384ZM53.323 22.8407C53.7745 22.8407 54.0828 22.671 54.2492 22.3316C54.4179 21.9897 54.5025 21.61 54.5025 21.1927C54.5025 20.8156 54.4421 20.5089 54.3213 20.2726C54.1298 19.9005 53.7995 19.7144 53.3306 19.7144C52.9149 19.7144 52.6124 19.8728 52.4236 20.1896C52.2347 20.5064 52.1399 20.8885 52.1399 21.336C52.1399 21.7659 52.2347 22.1242 52.4236 22.4108C52.6124 22.6974 52.9127 22.8407 53.323 22.8407ZM53.3498 19.1223C53.8711 19.1223 54.3123 19.2958 54.6726 19.6428C55.0328 19.9897 55.2131 20.5001 55.2131 21.1739C55.2131 21.825 55.0542 22.363 54.737 22.7879C54.4193 23.2128 53.9266 23.4252 53.259 23.4252C52.7019 23.4252 52.2598 23.2379 51.9322 22.8633C51.6047 22.4862 51.4409 21.9809 51.4409 21.3473C51.4409 20.6685 51.6136 20.128 51.9586 19.7257C52.3041 19.3235 52.7677 19.1223 53.3498 19.1223ZM55.7161 19.2393H56.3627V19.8125C56.5542 19.5761 56.7569 19.4065 56.9712 19.3034C57.1851 19.2003 57.4236 19.1488 57.6854 19.1488C58.2599 19.1488 58.6483 19.3486 58.8497 19.7484C58.9607 19.9671 59.0162 20.2801 59.0162 20.6874V23.2781H58.3244V20.7326C58.3244 20.4862 58.2877 20.2877 58.2147 20.1368C58.0939 19.8854 57.8747 19.7597 57.5569 19.7597C57.3959 19.7597 57.2634 19.776 57.16 19.8087C56.9734 19.864 56.8097 19.9746 56.6687 20.1406C56.5555 20.2738 56.4808 20.4121 56.4459 20.5554C56.4128 20.6962 56.3967 20.8986 56.3967 21.1625V23.2781H55.7161V19.2393ZM61.7305 18.6246C61.7408 18.343 61.79 18.1369 61.8782 18.0061C62.0366 17.7749 62.3431 17.6592 62.7964 17.6592C62.8393 17.6592 62.8836 17.6604 62.9288 17.663C62.974 17.6655 63.0259 17.6692 63.0837 17.6743V18.2927C63.0134 18.2877 62.9615 18.2852 62.9288 18.2852C62.8984 18.2827 62.8698 18.2814 62.842 18.2814C62.6353 18.2814 62.5118 18.3355 62.4715 18.4436C62.4312 18.5492 62.4111 18.8207 62.4111 19.2581H63.0837V19.7936H62.4035V23.2781H61.7305V19.7936H61.1676V19.2581H61.7305V18.6246ZM64.086 19.2393V21.9205C64.086 22.1267 64.1187 22.2951 64.184 22.4259C64.3048 22.6672 64.5308 22.7879 64.8606 22.7879C65.3344 22.7879 65.6571 22.5767 65.8284 22.1543C65.9215 21.9281 65.9681 21.6176 65.9681 21.2229V19.2393H66.6487V23.2781H66.0061L66.0137 22.6823C65.9255 22.8357 65.8159 22.9651 65.6848 23.0707C65.4253 23.2819 65.1103 23.3875 64.7398 23.3875C64.1625 23.3875 63.7696 23.1952 63.5602 22.8105C63.447 22.6044 63.3902 22.329 63.3902 21.9846V19.2393H64.086ZM65.3371 17.8289H66.0437V18.6133H65.3371V17.8289ZM64.0896 17.8289H64.7966V18.6133H64.0896V17.8289ZM67.4237 19.2393H68.0703V19.9369C68.1231 19.8012 68.2528 19.6365 68.4596 19.4429C68.6659 19.2468 68.9044 19.1488 69.1737 19.1488C69.1863 19.1488 69.2077 19.15 69.2382 19.1525C69.2682 19.1551 69.3201 19.1601 69.393 19.1676V19.8841C69.3527 19.8766 69.3151 19.8715 69.2798 19.869C69.2471 19.8665 69.2104 19.8653 69.1702 19.8653C68.8274 19.8653 68.5638 19.9759 68.3799 20.1971C68.196 20.4159 68.1043 20.6685 68.1043 20.9551V23.2781H67.4237V19.2393ZM72.1982 19.2393V21.9205C72.1982 22.1267 72.2313 22.2951 72.2966 22.4259C72.4175 22.6672 72.643 22.7879 72.9732 22.7879C73.4471 22.7879 73.7697 22.5767 73.9411 22.1543C74.0342 21.9281 74.0807 21.6176 74.0807 21.2229V19.2393H74.7613V23.2781H74.1187L74.1263 22.6823C74.0377 22.8357 73.9281 22.9651 73.7975 23.0707C73.5379 23.2819 73.2229 23.3875 72.8524 23.3875C72.2752 23.3875 71.8823 23.1952 71.6729 22.8105C71.5597 22.6044 71.5028 22.329 71.5028 21.9846V19.2393H72.1982ZM75.5175 19.2393H76.1637V19.8125C76.3552 19.5761 76.5583 19.4065 76.7722 19.3034C76.9866 19.2003 77.2246 19.1488 77.4869 19.1488C78.0614 19.1488 78.4494 19.3486 78.6512 19.7484C78.7617 19.9671 78.8172 20.2801 78.8172 20.6874V23.2781H78.1254V20.7326C78.1254 20.4862 78.0891 20.2877 78.0158 20.1368C77.8949 19.8854 77.6757 19.7597 77.3584 19.7597C77.1969 19.7597 77.0649 19.776 76.9615 19.8087C76.7749 19.864 76.6112 19.9746 76.4698 20.1406C76.3565 20.2738 76.2823 20.4121 76.2469 20.5554C76.2142 20.6962 76.1977 20.8986 76.1977 21.1625V23.2781H75.5175V19.2393ZM79.6531 18.1117H80.3408V19.2393H80.9874V19.7936H80.3408V22.4296C80.3408 22.5704 80.3887 22.6647 80.4845 22.7124C80.5373 22.7401 80.6259 22.754 80.7489 22.754C80.782 22.754 80.8174 22.754 80.855 22.754C80.8925 22.7514 80.9369 22.7477 80.9874 22.7426V23.2781C80.9091 23.3007 80.8272 23.3171 80.7418 23.3271C80.6585 23.3372 80.5677 23.3422 80.4692 23.3422C80.152 23.3422 79.9363 23.2618 79.8231 23.1009C79.7094 22.9375 79.6531 22.7263 79.6531 22.4674V19.7936H79.1049V19.2393H79.6531V18.1117ZM83.0476 19.1488C83.3348 19.1488 83.6132 19.2166 83.883 19.3524C84.1528 19.4857 84.3578 19.6591 84.4992 19.8728C84.6352 20.0765 84.726 20.314 84.7712 20.5856C84.8115 20.7716 84.8316 21.0682 84.8316 21.4755H81.8645C81.877 21.8853 81.9741 22.2147 82.1558 22.4636C82.337 22.7099 82.618 22.8332 82.9983 22.8332C83.3536 22.8332 83.6373 22.7162 83.849 22.4824C83.9698 22.3467 84.0557 22.1895 84.1058 22.0111H84.7748C84.7574 22.1594 84.6983 22.3253 84.5972 22.5088C84.4992 22.6898 84.3882 22.8382 84.2647 22.9538C84.058 23.1549 83.8025 23.2907 83.4973 23.3611C83.3335 23.4013 83.1482 23.4214 82.942 23.4214C82.4377 23.4214 82.0108 23.2391 81.6604 22.8746C81.31 22.5076 81.1351 21.9947 81.1351 21.336C81.1351 20.6874 81.3114 20.1607 81.664 19.7559C82.017 19.3511 82.4779 19.1488 83.0476 19.1488ZM84.1322 20.9363C84.1049 20.6421 84.0405 20.407 83.9398 20.2311C83.7532 19.9042 83.4418 19.7408 83.006 19.7408C82.6936 19.7408 82.4314 19.854 82.2197 20.0803C82.0081 20.304 81.8958 20.5893 81.8833 20.9363H84.1322ZM85.3802 19.2393H86.0264V19.9369C86.0792 19.8012 86.2089 19.6365 86.4157 19.4429C86.6224 19.2468 86.8605 19.1488 87.1303 19.1488C87.1428 19.1488 87.1643 19.15 87.1943 19.1525C87.2247 19.1551 87.2762 19.1601 87.3496 19.1676V19.8841C87.3093 19.8766 87.2712 19.8715 87.2359 19.869C87.2032 19.8665 87.1665 19.8653 87.1263 19.8653C86.7835 19.8653 86.5204 19.9759 86.3365 20.1971C86.1526 20.4159 86.0604 20.6685 86.0604 20.9551V23.2781H85.3802V19.2393ZM87.6297 19.2393H88.2758V19.8125C88.4673 19.5761 88.67 19.4065 88.8844 19.3034C89.0987 19.2003 89.3368 19.1488 89.599 19.1488C90.1735 19.1488 90.5615 19.3486 90.7629 19.7484C90.8738 19.9671 90.9293 20.2801 90.9293 20.6874V23.2781H90.2375V20.7326C90.2375 20.4862 90.2008 20.2877 90.1279 20.1368C90.0071 19.8854 89.7878 19.7597 89.4701 19.7597C89.309 19.7597 89.1766 19.776 89.0732 19.8087C88.8871 19.864 88.7233 19.9746 88.5819 20.1406C88.4687 20.2738 88.3944 20.4121 88.359 20.5554C88.3264 20.6962 88.3098 20.8986 88.3098 21.1625V23.2781H87.6297V19.2393ZM93.3148 19.1488C93.6021 19.1488 93.8804 19.2166 94.1502 19.3524C94.4196 19.4857 94.625 19.6591 94.7664 19.8728C94.9024 20.0765 94.9928 20.314 95.0384 20.5856C95.0787 20.7716 95.0989 21.0682 95.0989 21.4755H92.1317C92.1442 21.8853 92.2413 22.2147 92.4225 22.4636C92.6042 22.7099 92.8852 22.8332 93.2656 22.8332C93.6209 22.8332 93.9046 22.7162 94.1162 22.4824C94.237 22.3467 94.3229 22.1895 94.3731 22.0111H95.042C95.0246 22.1594 94.9655 22.3253 94.8644 22.5088C94.7664 22.6898 94.6554 22.8382 94.5319 22.9538C94.3252 23.1549 94.0697 23.2907 93.7645 23.3611C93.6007 23.4013 93.4155 23.4214 93.2087 23.4214C92.7049 23.4214 92.278 23.2391 91.9276 22.8746C91.5773 22.5076 91.4023 21.9947 91.4023 21.336C91.4023 20.6874 91.5786 20.1607 91.9312 19.7559C92.2843 19.3511 92.7452 19.1488 93.3148 19.1488ZM94.3995 20.9363C94.3717 20.6421 94.3077 20.407 94.2066 20.2311C94.0205 19.9042 93.709 19.7408 93.2732 19.7408C92.9608 19.7408 92.6986 19.854 92.487 20.0803C92.2753 20.304 92.163 20.5893 92.1505 20.9363H94.3995ZM95.6282 17.7195H96.3088V19.7861C96.4699 19.5824 96.6149 19.4391 96.7433 19.3562C96.9626 19.2129 97.236 19.1412 97.5635 19.1412C98.1506 19.1412 98.5489 19.3461 98.7583 19.7559C98.8715 19.9797 98.9283 20.2902 98.9283 20.6874V23.2781H98.2289V20.7326C98.2289 20.436 98.1913 20.2185 98.1157 20.0803C97.9922 19.859 97.7604 19.7484 97.4199 19.7484C97.138 19.7484 96.882 19.8452 96.6529 20.0387C96.4234 20.2323 96.3088 20.5981 96.3088 21.1361V23.2781H95.6282V17.7195ZM99.6277 19.2393H100.301V19.8125C100.462 19.6139 100.608 19.4693 100.739 19.3788C100.963 19.2254 101.218 19.1488 101.503 19.1488C101.825 19.1488 102.085 19.228 102.281 19.3864C102.392 19.4769 102.493 19.6101 102.584 19.7861C102.735 19.5699 102.912 19.4103 103.117 19.3072C103.321 19.2015 103.55 19.1488 103.804 19.1488C104.349 19.1488 104.719 19.3448 104.916 19.7371C105.021 19.9482 105.075 20.2323 105.075 20.5893V23.2781H104.368V20.4724C104.368 20.2034 104.3 20.0186 104.164 19.9181C104.03 19.8175 103.866 19.7672 103.672 19.7672C103.405 19.7672 103.175 19.8565 102.981 20.035C102.789 20.2135 102.693 20.5114 102.693 20.9287V23.2781H102.001V20.6421C102.001 20.3681 101.969 20.1682 101.903 20.0425C101.8 19.854 101.607 19.7597 101.325 19.7597C101.068 19.7597 100.834 19.859 100.622 20.0576C100.412 20.2562 100.308 20.6157 100.308 21.1361V23.2781H99.6277V19.2393ZM107.453 19.1488C107.74 19.1488 108.018 19.2166 108.288 19.3524C108.557 19.4857 108.763 19.6591 108.904 19.8728C109.04 20.0765 109.131 20.314 109.176 20.5856C109.216 20.7716 109.237 21.0682 109.237 21.4755H106.269C106.282 21.8853 106.379 22.2147 106.56 22.4636C106.742 22.7099 107.023 22.8332 107.403 22.8332C107.759 22.8332 108.042 22.7162 108.254 22.4824C108.375 22.3467 108.46 22.1895 108.511 22.0111H109.18C109.162 22.1594 109.103 22.3253 109.002 22.5088C108.904 22.6898 108.793 22.8382 108.67 22.9538C108.463 23.1549 108.207 23.2907 107.902 23.3611C107.738 23.4013 107.553 23.4214 107.346 23.4214C106.843 23.4214 106.415 23.2391 106.065 22.8746C105.715 22.5076 105.54 21.9947 105.54 21.336C105.54 20.6874 105.716 20.1607 106.069 19.7559C106.422 19.3511 106.883 19.1488 107.453 19.1488ZM108.537 20.9363C108.509 20.6421 108.445 20.407 108.344 20.2311C108.158 19.9042 107.847 19.7408 107.411 19.7408C107.098 19.7408 106.836 19.854 106.625 20.0803C106.413 20.304 106.301 20.5893 106.288 20.9363H108.537ZM109.766 19.2393H110.413V19.8125C110.604 19.5761 110.807 19.4065 111.021 19.3034C111.235 19.2003 111.473 19.1488 111.735 19.1488C112.31 19.1488 112.698 19.3486 112.9 19.7484C113.011 19.9671 113.066 20.2801 113.066 20.6874V23.2781H112.374V20.7326C112.374 20.4862 112.338 20.2877 112.265 20.1368C112.143 19.8854 111.924 19.7597 111.607 19.7597C111.446 19.7597 111.313 19.776 111.21 19.8087C111.023 19.864 110.86 19.9746 110.719 20.1406C110.605 20.2738 110.531 20.4121 110.495 20.5554C110.463 20.6962 110.447 20.8986 110.447 21.1625V23.2781H109.766V19.2393Z" fill="var(--fill-0, black)"/>
</g>
</svg>
