<svg preserveAspectRatio="none" width="100%" height="100%" overflow="visible" style="display: block;" viewBox="0 0 24 25" fill="none" xmlns="http://www.w3.org/2000/svg">
<g id="Group">
<path id="Vector" fill-rule="evenodd" clip-rule="evenodd" d="M12.3673 21.2806C11.2448 21.2806 10.1713 21.0662 9.18664 20.6739L5.65235 22.9981C7.5854 24.2647 9.89202 24.9998 12.3673 24.9998C16.9442 24.9998 20.9409 22.4867 23.0788 18.7511L19.8927 16.8906C18.3894 19.5155 15.5823 21.2806 12.3673 21.2806Z" fill="var(--fill-0, black)"/>
<path id="Vector_2" fill-rule="evenodd" clip-rule="evenodd" d="M4.1128 3.19141L7.7522 12.5011L4.1128 21.809L9.85935 18.0294L18.2697 12.5011L9.85935 6.97101L4.1128 3.19141Z" fill="var(--fill-0, black)"/>
<path id="Vector_3" fill-rule="evenodd" clip-rule="evenodd" d="M12.3673 3.71912C15.5823 3.71912 18.3894 5.48427 19.8927 8.10906L23.0788 6.24862C20.939 2.51302 16.9442 0 12.3673 0C9.89019 0 7.58539 0.735024 5.65052 2.00161L9.18657 4.32583C10.1713 3.93357 11.243 3.71912 12.3673 3.71912Z" fill="var(--fill-0, black)"/>
<path id="Vector_4" fill-rule="evenodd" clip-rule="evenodd" d="M2.72006 20.3222L4.40649 16.022L5.78827 12.4991L4.40649 8.97789L2.72006 4.67773C1.01912 6.81866 0 9.53883 0 12.5009C0 15.4612 1.01912 18.1813 2.72006 20.3222Z" fill="var(--fill-0, black)"/>
</g>
</svg>
