<svg preserveAspectRatio="none" width="100%" height="100%" overflow="visible" style="display: block;" viewBox="0 0 123 25" fill="none" xmlns="http://www.w3.org/2000/svg">
<g id="0o2JdyCUAxdvVzDDC8Xy5kwJfw.svg" clip-path="url(#clip0_851_2360)">
<path id="Vector" d="M12.49 11.115C12.6812 11.1099 12.8714 11.1431 13.0495 11.2127C13.2277 11.2823 13.39 11.3869 13.5271 11.5203C13.6641 11.6536 13.7731 11.8131 13.8475 11.9893C13.9219 12.1655 13.9603 12.3547 13.9603 12.546C13.9604 12.7372 13.9222 12.9265 13.8479 13.1028C13.7736 13.279 13.6648 13.4385 13.5278 13.572C13.3909 13.7055 13.2285 13.8102 13.0505 13.8799C12.8724 13.9496 12.6822 13.983 12.491 13.978L12.337 13.976C11.137 13.986 10.038 14.22 8.925 14.681C7.785 15.152 6.637 15.826 5.765 16.697C4.88901 17.5731 4.19323 18.6123 3.717 19.756C3.244 20.895 2.927 22.083 2.926 23.316H2.925L2.923 23.576C2.92893 23.7703 2.89545 23.9638 2.82458 24.1448C2.75372 24.3259 2.64693 24.4907 2.51066 24.6293C2.3744 24.7679 2.21147 24.8776 2.03169 24.9515C1.85192 25.0255 1.65903 25.0623 1.46465 25.0598C1.27027 25.0572 1.07842 25.0153 0.900664 24.9366C0.72291 24.8579 0.562932 24.744 0.430374 24.6018C0.297815 24.4596 0.19542 24.2921 0.12936 24.1092C0.0633003 23.9264 0.0349439 23.7321 0.046 23.538L0.051 23.252C0.06 21.652 0.344 20.161 0.958 18.681C1.58 17.181 2.568 15.828 3.717 14.681C4.865 13.533 6.315 12.613 7.815 11.992C9.23 11.407 10.664 11.15 12.185 11.123V11.118L12.49 11.115ZM12.555 7.42V7.413C13.901 7.413 15.192 7.921 16.144 8.886C17.0976 9.85579 17.6314 11.1619 17.63 12.522C17.6313 13.8821 17.0976 15.1881 16.144 16.158C15.2566 17.0522 14.0646 17.579 12.806 17.633L12.555 17.639C11.715 17.639 11.045 17.822 10.269 18.143C9.492 18.463 9.149 18.524 8.555 19.118C7.96 19.712 7.431 20.224 7.109 21C6.79328 21.744 6.63332 22.5448 6.639 23.353H6.637L6.631 23.574C6.62883 23.7655 6.58896 23.9548 6.51366 24.1309C6.43837 24.307 6.32911 24.4666 6.19215 24.6005C6.05518 24.7344 5.89318 24.84 5.7154 24.9113C5.53762 24.9826 5.34753 25.0182 5.156 25.016C4.96447 25.0138 4.77524 24.974 4.59911 24.8987C4.42299 24.8234 4.26342 24.7141 4.12952 24.5771C3.99562 24.4402 3.89 24.2782 3.81871 24.1004C3.74741 23.9226 3.71183 23.7325 3.714 23.541V23.252H3.718C3.737 22.17 4.043 20.949 4.454 19.958C4.878 18.936 5.621 18.018 6.404 17.235C7.186 16.453 8.204 15.807 9.226 15.384C10.248 14.961 11.448 14.748 12.555 14.748L12.771 14.738C13.2777 14.6866 13.7506 14.4599 14.108 14.097C14.5215 13.677 14.7532 13.1113 14.7532 12.522C14.7532 11.9327 14.5215 11.367 14.108 10.947C13.7165 10.5577 13.19 10.3343 12.638 10.323V10.329L1.478 10.343C1.08641 10.3427 0.71096 10.1869 0.43425 9.90984C0.15754 9.63275 0.00223478 9.25709 0.0025 8.8655C0.00276522 8.47391 0.158579 8.09846 0.435664 7.82175C0.712749 7.54504 1.08841 7.38973 1.48 7.39L12.555 7.42ZM11.303 21.629C10.724 22.073 10.485 22.819 10.398 23.253L10.368 23.573H9.76L9.251 23.055C9.28738 22.9963 9.30749 22.9291 9.30928 22.8601C9.31107 22.7911 9.29447 22.7228 9.26119 22.6624C9.2279 22.6019 9.17913 22.5514 9.11987 22.516C9.06062 22.4806 8.99302 22.4616 8.924 22.461C8.82617 22.468 8.73463 22.5119 8.66781 22.5837C8.60099 22.6555 8.56384 22.7499 8.56384 22.848C8.56384 22.9461 8.60099 23.0405 8.66781 23.1123C8.73463 23.1841 8.82617 23.228 8.924 23.235C9.044 23.235 9.151 23.181 9.222 23.095L9.738 23.624H10.362V23.634C10.3468 23.7845 10.309 23.9318 10.25 24.071L9.06 24.09L9.062 24.14L10.227 24.122C10.0827 24.4348 9.83574 24.6889 9.52719 24.8422C9.21863 24.9955 8.86696 25.0387 8.53047 24.9647C8.19398 24.8907 7.89289 24.7039 7.6771 24.4354C7.46131 24.1668 7.34378 23.8325 7.344 23.488V23.253C7.525 21.607 8.218 20.489 9.07 19.751H9.41L11.303 21.629ZM12.799 24.715H15.279C14.5163 24.8821 13.7395 24.9762 12.959 24.996L12.655 25H12.422C11.762 25 11.206 24.558 11.032 23.954L11.328 23.95L12.233 24.863H12.303L11.349 23.899L11.019 23.904C10.99 23.7892 10.9752 23.6714 10.975 23.553C10.975 23.524 10.978 23.496 10.98 23.468H11.587L12.799 24.715ZM13.647 23.797H17.955C17.1464 24.1827 16.298 24.4788 15.425 24.68L15.417 24.672L15.409 24.665H12.82L11.607 23.417H10.981C11.008 23.1307 11.1194 22.859 11.3012 22.6362C11.483 22.4135 11.727 22.2498 12.002 22.166L13.646 23.796L13.647 23.797ZM8.672 23.711C8.56927 23.711 8.47073 23.7517 8.398 23.8243C8.32526 23.8968 8.28427 23.9953 8.284 24.098C8.28905 24.1974 8.33208 24.291 8.40419 24.3595C8.47631 24.4281 8.57201 24.4663 8.6715 24.4663C8.771 24.4663 8.86669 24.4281 8.9388 24.3595C9.01092 24.291 9.05395 24.1974 9.059 24.098C9.059 23.9954 9.01823 23.8969 8.94565 23.8244C8.87307 23.7518 8.77464 23.711 8.672 23.711ZM8.672 23.761C8.76138 23.7613 8.84699 23.797 8.91 23.8604C8.97301 23.9238 9.00827 24.0096 9.008 24.099C9.00774 24.1884 8.97197 24.274 8.90859 24.337C8.8452 24.4 8.75938 24.4353 8.67 24.435C8.58062 24.4347 8.49501 24.399 8.432 24.3356C8.36899 24.2722 8.33373 24.1864 8.334 24.097C8.33426 24.0076 8.37003 23.922 8.43341 23.859C8.4968 23.796 8.58262 23.7607 8.672 23.761ZM8.669 23.918C8.61861 23.918 8.57028 23.938 8.53465 23.9737C8.49902 24.0093 8.479 24.0576 8.479 24.108C8.48249 24.1561 8.50408 24.2012 8.53942 24.234C8.57476 24.2669 8.62123 24.2852 8.6695 24.2852C8.71777 24.2852 8.76424 24.2669 8.79958 24.234C8.83492 24.2012 8.85651 24.1561 8.86 24.108C8.85974 24.0575 8.8395 24.0092 8.80371 23.9736C8.76791 23.938 8.71948 23.918 8.669 23.918ZM8.669 23.968C8.70626 23.968 8.742 23.9828 8.76835 24.0092C8.7947 24.0355 8.8095 24.0712 8.8095 24.1085C8.8095 24.1458 8.7947 24.1815 8.76835 24.2078C8.742 24.2342 8.70626 24.249 8.669 24.249C8.63174 24.249 8.596 24.2342 8.56965 24.2078C8.5433 24.1815 8.5285 24.1458 8.5285 24.1085C8.5285 24.0712 8.5433 24.0355 8.56965 24.0092C8.596 23.9828 8.63174 23.968 8.669 23.968ZM13.815 23.524L13.823 23.532H18.477C18.3392 23.6063 18.1998 23.6777 18.059 23.746H13.667L12.06 22.151C12.17 22.123 12.287 22.106 12.406 22.105L13.816 23.525L13.815 23.524ZM20.026 22.138H20.538C20.338 22.305 20.132 22.464 19.922 22.618H18.176V22.669H19.851C19.44 22.965 19.011 23.238 18.567 23.482H13.844L12.477 22.104H12.655L13.122 22.092C13.3547 22.0792 13.5869 22.0578 13.818 22.028L13.926 22.138C13.8516 22.224 13.8124 22.3349 13.8162 22.4486C13.8201 22.5623 13.8668 22.6703 13.947 22.751C13.9887 22.7937 14.0384 22.8277 14.0934 22.8511C14.1483 22.8744 14.2073 22.8866 14.267 22.887H14.271C14.3913 22.8874 14.5068 22.84 14.5921 22.7552C14.6774 22.6705 14.7256 22.5553 14.726 22.435C14.7264 22.3147 14.679 22.1992 14.5942 22.1139C14.5095 22.0286 14.3943 21.9804 14.274 21.98H14.271C14.1559 21.9796 14.045 22.0233 13.961 22.102L13.883 22.02C14.6016 21.9256 15.3069 21.7488 15.985 21.493H19.355L20.026 22.138ZM8.924 22.512C8.99065 22.512 9.05581 22.5318 9.11123 22.5688C9.16665 22.6058 9.20984 22.6585 9.23535 22.72C9.26085 22.7816 9.26753 22.8494 9.25452 22.9147C9.24152 22.9801 9.20943 23.0402 9.1623 23.0873C9.11517 23.1344 9.05512 23.1665 8.98975 23.1795C8.92437 23.1925 8.85661 23.1859 8.79504 23.1603C8.73346 23.1348 8.68083 23.0916 8.6438 23.0362C8.60677 22.9808 8.587 22.9157 8.587 22.849C8.587 22.663 8.738 22.512 8.924 22.512ZM8.922 22.668C8.87125 22.668 8.82257 22.6881 8.78659 22.7239C8.75061 22.7597 8.73026 22.8083 8.73 22.859C8.73 22.8968 8.7412 22.9337 8.76219 22.9651C8.78318 22.9965 8.81301 23.021 8.84791 23.0355C8.88281 23.0499 8.92121 23.0537 8.95826 23.0463C8.99531 23.039 9.02935 23.0208 9.05606 22.9941C9.08277 22.9673 9.10096 22.9333 9.10833 22.8963C9.1157 22.8592 9.11192 22.8208 9.09746 22.7859C9.083 22.751 9.05852 22.7212 9.02711 22.7002C8.9957 22.6792 8.95878 22.668 8.921 22.668H8.922ZM17.659 22.114C17.5387 22.1143 17.4233 22.1622 17.3383 22.2473C17.2532 22.3323 17.2053 22.4477 17.205 22.568C17.205 22.6578 17.2316 22.7456 17.2815 22.8202C17.3314 22.8949 17.4023 22.9531 17.4853 22.9874C17.5682 23.0218 17.6595 23.0308 17.7476 23.0133C17.8356 22.9958 17.9165 22.9525 17.98 22.889C18.0435 22.8255 18.0868 22.7446 18.1043 22.6566C18.1218 22.5685 18.1128 22.4772 18.0784 22.3943C18.0441 22.3113 17.9859 22.2404 17.9112 22.1905C17.8366 22.1406 17.7488 22.114 17.659 22.114ZM8.922 22.719C8.95913 22.719 8.99474 22.7338 9.021 22.76C9.04725 22.7863 9.062 22.8219 9.062 22.859C9.062 22.8961 9.04725 22.9317 9.021 22.958C8.99474 22.9843 8.95913 22.999 8.922 22.999C8.88487 22.999 8.84926 22.9843 8.823 22.958C8.79675 22.9317 8.782 22.8961 8.782 22.859C8.782 22.8219 8.79675 22.7863 8.823 22.76C8.84926 22.7338 8.88487 22.719 8.922 22.719ZM17.659 22.165C17.712 22.1651 17.7644 22.1757 17.8133 22.1961C17.8622 22.2165 17.9066 22.2463 17.944 22.2839C17.9814 22.3215 18.011 22.366 18.0312 22.415C18.0513 22.464 18.0616 22.5165 18.0615 22.5695C18.0614 22.6225 18.0508 22.6749 18.0304 22.7238C18.01 22.7727 17.9802 22.8171 17.9426 22.8545C17.905 22.8919 17.8605 22.9215 17.8115 22.9417C17.7625 22.9618 17.71 22.9721 17.657 22.972C17.55 22.9717 17.4475 22.929 17.372 22.8531C17.2965 22.7773 17.2542 22.6745 17.2545 22.5675C17.2548 22.4605 17.2975 22.358 17.3734 22.2825C17.4492 22.207 17.552 22.1647 17.659 22.165ZM14.274 22.031C14.3269 22.0313 14.3793 22.0419 14.4281 22.0624C14.4769 22.0829 14.5211 22.1128 14.5584 22.1505C14.5956 22.1881 14.6251 22.2326 14.6451 22.2816C14.6651 22.3306 14.6753 22.3831 14.675 22.436C14.6747 22.4889 14.6641 22.5413 14.6436 22.5901C14.6231 22.6389 14.5932 22.6831 14.5555 22.7204C14.5179 22.7576 14.4734 22.7871 14.4244 22.8071C14.3754 22.8271 14.3229 22.8373 14.27 22.837H14.268C14.1881 22.8369 14.11 22.813 14.0437 22.7683C13.9775 22.7236 13.926 22.6602 13.896 22.5862C13.8659 22.5121 13.8586 22.4308 13.875 22.3525C13.8914 22.2743 13.9307 22.2028 13.988 22.147C14.0632 22.0722 14.1649 22.0301 14.271 22.03L14.274 22.031ZM17.667 22.349C17.6124 22.3493 17.5602 22.3711 17.5216 22.4096C17.4831 22.4482 17.4613 22.5004 17.461 22.555C17.461 22.5957 17.4731 22.6356 17.4957 22.6694C17.5184 22.7033 17.5505 22.7297 17.5882 22.7453C17.6258 22.7609 17.6672 22.765 17.7072 22.757C17.7471 22.7491 17.7839 22.7295 17.8127 22.7007C17.8415 22.6719 17.8611 22.6351 17.869 22.5952C17.877 22.5552 17.8729 22.5138 17.8573 22.4762C17.8417 22.4385 17.8153 22.4064 17.7814 22.3837C17.7476 22.3611 17.7077 22.349 17.667 22.349ZM17.667 22.399C17.7084 22.399 17.7481 22.4154 17.7773 22.4447C17.8066 22.4739 17.823 22.5136 17.823 22.555C17.823 22.5964 17.8066 22.6361 17.7773 22.6653C17.7481 22.6946 17.7084 22.711 17.667 22.711C17.6256 22.711 17.5859 22.6946 17.5567 22.6653C17.5274 22.6361 17.511 22.5964 17.511 22.555C17.511 22.5136 17.5274 22.4739 17.5567 22.4447C17.5859 22.4154 17.6256 22.399 17.667 22.399ZM14.256 22.231C14.2012 22.2307 14.1486 22.2522 14.1097 22.2908C14.0708 22.3293 14.0488 22.3817 14.0485 22.4365C14.0482 22.4913 14.0697 22.5439 14.1083 22.5828C14.1468 22.6217 14.1992 22.6437 14.254 22.644H14.256C14.3106 22.644 14.363 22.6223 14.4017 22.5837C14.4403 22.545 14.462 22.4926 14.462 22.438C14.462 22.3834 14.4403 22.331 14.4017 22.2923C14.363 22.2537 14.3106 22.231 14.256 22.231ZM14.256 22.281C14.2972 22.281 14.3368 22.2974 14.366 22.3265C14.3951 22.3557 14.4115 22.3953 14.4115 22.4365C14.4115 22.4777 14.3951 22.5173 14.366 22.5465C14.3368 22.5756 14.2972 22.592 14.256 22.592H14.254C14.2233 22.5918 14.1933 22.5824 14.1679 22.5651C14.1425 22.5478 14.1228 22.5234 14.1114 22.4949C14.0999 22.4663 14.0972 22.4351 14.1035 22.405C14.1099 22.3749 14.125 22.3474 14.147 22.326C14.176 22.2973 14.2152 22.2812 14.256 22.281ZM20.487 21.847H20.873C20.783 21.928 20.69 22.008 20.597 22.087H20.046L19.375 21.442H16.115C16.173 21.42 16.232 21.398 16.289 21.374C16.424 21.318 16.557 21.258 16.689 21.195H19.834L20.487 21.847ZM19.692 20.223H22.386C21.9502 20.7908 21.4632 21.3174 20.931 21.796H20.508L19.855 21.145H16.793C17.6227 20.7394 18.3888 20.2148 19.067 19.588L19.692 20.223ZM9.818 19.605L11.547 21.395L11.596 21.445C11.5077 21.4885 11.4237 21.54 11.345 21.599L9.437 19.708L9.43 19.701H9.128C9.354 19.511 9.591 19.347 9.832 19.207L9.818 19.605ZM10.775 19.088L12.916 21.266C12.807 21.267 12.698 21.27 12.588 21.27C12.2659 21.2413 11.9418 21.2935 11.645 21.422L11.583 21.36L9.869 19.584L9.883 19.178C10.178 19.01 10.479 18.878 10.774 18.774L10.775 19.088ZM11.977 18.713L13.473 20.23L14.41 21.163C13.943 21.23 13.469 21.258 12.986 21.266L10.826 19.067V18.757C11.1993 18.6309 11.5853 18.5457 11.977 18.503V18.713ZM14.027 19.956L15.089 21.033C14.885 21.083 14.679 21.122 14.472 21.153L13.509 20.194L12.029 18.692V18.5C12.207 18.483 12.374 18.477 12.525 18.48L14.027 19.957V19.956ZM16.58 18.251H16.871V19.51C16.816 19.55 16.586 19.725 16.606 19.916C16.619 20.031 16.719 20.127 16.904 20.2L16.914 20.203L16.922 20.2C16.932 20.196 17.187 20.107 17.227 19.918C17.25 19.805 17.192 19.684 17.055 19.558L17.02 19.595C17.144 19.708 17.196 19.815 17.177 19.908C17.147 20.051 16.957 20.133 16.914 20.149C16.754 20.084 16.667 20.004 16.657 19.91C16.639 19.73 16.901 19.55 16.91 19.544L16.922 19.537V18.2H16.63V16.865H18.01L18.061 18.2H17.851L17.841 19.416L17.857 19.423C17.861 19.425 17.933 19.459 18.017 19.513C17.9756 19.5467 17.934 19.5801 17.892 19.613C17.8755 19.6079 17.8583 19.6052 17.841 19.605C17.738 19.605 17.651 19.69 17.634 19.803C17.58 19.841 17.526 19.881 17.472 19.918C17.46 19.782 17.571 19.617 17.804 19.428L17.772 19.388C17.511 19.601 17.395 19.789 17.425 19.949C16.952 20.266 16.45 20.539 15.924 20.759C15.6716 20.8643 15.4119 20.9512 15.147 21.019L14.062 19.919L12.597 18.479C13.372 18.477 14.055 18.309 14.773 18.009C14.79 18.002 14.806 17.993 14.823 17.985V18.242H15.088L15.07 19.475C15.005 19.517 14.713 19.722 14.741 19.925C14.758 20.045 14.878 20.137 15.098 20.201L15.104 20.203L15.111 20.201C15.121 20.198 15.356 20.126 15.406 19.939C15.44 19.813 15.38 19.666 15.228 19.506L15.191 19.541C15.331 19.688 15.386 19.817 15.357 19.926C15.319 20.069 15.141 20.138 15.104 20.15C14.91 20.093 14.804 20.015 14.791 19.919C14.765 19.731 15.091 19.521 15.108 19.509L15.12 19.502L15.139 18.192H14.874V17.962C15.3742 17.7501 15.8415 17.4679 16.262 17.124V18.13H16.023L16.006 19.475C15.942 19.517 15.657 19.721 15.684 19.925C15.699 20.042 15.81 20.135 16.014 20.2L16.024 20.204L16.034 20.199C16.044 20.193 16.317 20.055 16.333 19.839C16.343 19.715 16.263 19.593 16.099 19.477L16.069 19.517C16.219 19.623 16.29 19.73 16.282 19.836C16.27 20.003 16.065 20.124 16.02 20.149C15.842 20.091 15.746 20.013 15.733 19.919C15.709 19.727 16.034 19.517 16.045 19.509L16.055 19.502L16.073 18.181H16.313V17.081C16.4047 17.0027 16.4937 16.9213 16.58 16.837V18.251ZM19.745 19.881H22.644C22.572 19.9787 22.4987 20.0754 22.424 20.171H19.714L19.104 19.553C19.1668 19.4942 19.2288 19.4345 19.29 19.374L19.745 19.881ZM35.77 4.995C37.313 4.995 38.642 5.297 39.756 5.899C40.8595 6.48149 41.7615 7.38349 42.344 8.487C42.95 9.61 43.253 10.953 43.253 12.517C43.253 14.085 42.95 15.433 42.343 16.561C41.7637 17.6659 40.8645 18.5703 39.763 19.156C38.645 19.754 37.316 20.053 35.778 20.053H30.18V4.994L35.77 4.995ZM49.68 11.295H49.813L53.016 4.995H57.104L51.566 15.024V20.053H47.929V15.023L42.39 4.995H46.478L49.68 11.295ZM66.498 13.671H66.624V4.994H70.276V20.052H67.17L61.144 11.362H61.048V20.052H57.388V4.994H60.538L66.498 13.671ZM85.762 20.053H81.828L80.83 16.892H75.6L74.604 20.052H70.67L75.778 4.995H80.651L85.762 20.053ZM94.52 14.318H94.697L98.542 4.995H103.074V20.053H99.51V10.803H99.384L95.746 19.957H93.47L89.832 10.752H89.707V20.052H86.143V4.995H90.675L94.52 14.318ZM107.768 20.053H104.107V4.994H107.768V20.053ZM112.477 11.363H112.676L117.682 4.995H121.992L116.624 11.715L122.088 20.053H117.711L113.94 14.133L112.477 15.973V20.053H108.816V4.994H112.477V11.361V11.363ZM15.109 19.703C15.001 19.703 14.912 19.779 14.912 19.873C14.912 19.967 15.001 20.043 15.109 20.044C15.219 20.044 15.306 19.967 15.307 19.874C15.307 19.779 15.218 19.703 15.109 19.703ZM15.999 19.703C15.9544 19.7033 15.9117 19.721 15.8801 19.7524C15.8485 19.7839 15.8305 19.8264 15.83 19.871C15.8302 19.9041 15.8402 19.9365 15.8587 19.964C15.8773 19.9914 15.9035 20.0128 15.9342 20.0254C15.9648 20.038 15.9985 20.0412 16.031 20.0347C16.0635 20.0282 16.0934 20.0122 16.1168 19.9888C16.1402 19.9654 16.1562 19.9355 16.1627 19.903C16.1692 19.8705 16.166 19.8368 16.1534 19.8062C16.1408 19.7755 16.1194 19.7493 16.092 19.7307C16.0645 19.7122 16.0321 19.7032 15.999 19.703ZM16.926 19.703C16.8813 19.703 16.8383 19.7206 16.8065 19.7521C16.7747 19.7835 16.7565 19.8263 16.756 19.871C16.7593 19.9137 16.7786 19.9536 16.81 19.9827C16.8414 20.0118 16.8827 20.028 16.9255 20.028C16.9683 20.028 17.0096 20.0118 17.041 19.9827C17.0724 19.9536 17.0917 19.9137 17.095 19.871C17.0947 19.8261 17.0767 19.7831 17.0449 19.7514C17.013 19.7198 16.9699 19.702 16.925 19.702L16.926 19.703ZM15.109 19.753C15.19 19.753 15.257 19.807 15.257 19.873C15.257 19.94 15.19 19.994 15.109 19.994C15.029 19.994 14.963 19.939 14.963 19.874C14.963 19.807 15.029 19.754 15.109 19.753ZM15.999 19.753C16.064 19.753 16.117 19.806 16.117 19.871C16.1165 19.9021 16.1039 19.9319 16.0819 19.9539C16.0598 19.9759 16.0301 19.9885 15.999 19.989C15.9677 19.989 15.9377 19.9766 15.9156 19.9544C15.8934 19.9323 15.881 19.9023 15.881 19.871C15.881 19.8397 15.8934 19.8097 15.9156 19.7876C15.9377 19.7654 15.9677 19.753 15.999 19.753ZM16.926 19.753C16.9573 19.753 16.9873 19.7654 17.0094 19.7876C17.0316 19.8097 17.044 19.8397 17.044 19.871C17.044 19.9023 17.0316 19.9323 17.0094 19.9544C16.9873 19.9766 16.9573 19.989 16.926 19.989C16.8947 19.989 16.8647 19.9766 16.8426 19.9544C16.8204 19.9323 16.808 19.9023 16.808 19.871C16.808 19.8397 16.8204 19.8097 16.8426 19.7876C16.8647 19.7654 16.8947 19.753 16.926 19.753ZM23.15 19.125C23.001 19.366 22.845 19.603 22.68 19.833H19.769L19.329 19.341L19.371 19.3C19.416 19.255 19.458 19.206 19.502 19.16L19.835 19.5H22.795L23.15 19.125ZM21.295 13.598C21.2144 14.2795 21.0561 14.9495 20.823 15.595H20.331V15.61C20.2673 15.5745 20.1955 15.5563 20.1226 15.5573C20.0497 15.5582 19.9783 15.5783 19.9156 15.6154C19.8528 15.6525 19.8009 15.7055 19.7651 15.7689C19.7292 15.8324 19.7105 15.9041 19.711 15.977C19.7112 16.0408 19.7261 16.1038 19.7544 16.161C19.7826 16.2182 19.8236 16.2682 19.8742 16.3072C19.9247 16.3462 19.9835 16.3731 20.046 16.3859C20.1086 16.3987 20.1732 16.397 20.235 16.381L20.331 16.343V16.352H20.511C20.444 16.4938 20.3733 16.6339 20.299 16.772H20.155V17.027C20.067 17.181 19.975 17.332 19.878 17.48L19.861 16.816H18.426V18.223L18.43 18.243H18.655L18.666 18.941C18.472 19.131 18.269 19.312 18.059 19.482C18.0064 19.4457 17.9513 19.4133 17.894 19.385L17.902 18.252H18.115L18.061 16.815H16.606L16.656 16.767C17.033 16.386 17.366 15.97 17.636 15.513H18.452L20.43 13.598H21.295ZM23.906 17.708C23.7199 18.12 23.5116 18.5216 23.282 18.911L22.774 19.449H19.856L19.537 19.123C19.844 18.797 20.127 18.452 20.386 18.087H21.608L21.626 17.707L23.906 17.708ZM19.829 17.548C19.6067 17.8787 19.3625 18.194 19.098 18.492L19.092 18.271H19.041L19.049 18.546C18.9621 18.6426 18.8731 18.7373 18.782 18.83C18.761 18.852 18.738 18.872 18.716 18.894L18.706 18.194H18.475C18.4708 17.7513 18.4708 17.3087 18.475 16.866H19.812L19.829 17.548ZM21.639 17.028H24.189C24.154 17.119 24.121 17.212 24.084 17.303L24.072 17.33H21.699V17.38H24.049C24.011 17.474 23.969 17.565 23.929 17.657H21.579L21.561 18.037H20.421C20.7247 17.6032 20.9919 17.1449 21.22 16.667H21.639V17.028ZM24.985 11.581C25.009 11.897 25.025 12.213 25.025 12.531C25.025 13.657 24.87 14.774 24.573 15.856C24.5536 15.8857 24.5431 15.9205 24.543 15.956V15.964C24.446 16.306 24.334 16.644 24.208 16.978H21.688V16.615H21.244C21.3097 16.4766 21.3717 16.3366 21.43 16.195H22.707L24.161 14.829L24.169 14.822V12.438L24.985 11.581ZM33.841 16.951H35.638C36.485 16.951 37.203 16.808 37.789 16.524C38.381 16.234 38.826 15.766 39.127 15.119C39.433 14.467 39.586 13.599 39.586 12.517C39.586 11.433 39.433 10.571 39.127 9.929C38.821 9.282 38.371 8.816 37.774 8.531C37.183 8.242 36.454 8.098 35.586 8.098H33.84V16.95L33.841 16.951ZM20.206 16.937V16.822H20.271L20.206 16.937ZM20.13 15.608C20.2276 15.608 20.3212 15.6468 20.3902 15.7158C20.4592 15.7848 20.498 15.8784 20.498 15.976C20.498 16.0736 20.4592 16.1672 20.3902 16.2362C20.3212 16.3052 20.2276 16.344 20.13 16.344C20.0327 16.3437 19.9394 16.305 19.8704 16.2363C19.8015 16.1675 19.7625 16.0743 19.762 15.977C19.7623 15.8794 19.8011 15.7858 19.87 15.7167C19.9389 15.6476 20.0324 15.6085 20.13 15.608ZM20.691 15.941C20.641 16.0621 20.5883 16.1822 20.533 16.301H20.393C20.4419 16.2613 20.4811 16.211 20.5079 16.1539C20.5346 16.0969 20.548 16.0346 20.5473 15.9716C20.5465 15.9086 20.5315 15.8466 20.5034 15.7902C20.4753 15.7338 20.4348 15.6845 20.385 15.646H20.804C20.767 15.744 20.731 15.843 20.691 15.941ZM24.772 10.773C24.772 10.909 24.839 11.029 24.94 11.105C24.956 11.241 24.97 11.377 24.98 11.514L24.126 12.41L24.119 12.418V14.8L22.687 16.145H21.448C21.536 15.929 21.613 15.71 21.685 15.489H22.372L23.34 14.485V12.15L24.777 10.7C24.7733 10.7238 24.7716 10.7489 24.772 10.773ZM21.362 12.531C21.362 12.871 21.339 13.211 21.301 13.547H20.409L18.432 15.463H17.664C17.774 15.272 17.874 15.074 17.959 14.868H18.267L20.694 12.433H21.359L21.362 12.531ZM24.522 9.019C24.666 9.511 24.777 10.011 24.859 10.517C24.836 10.547 24.8172 10.58 24.803 10.615L24.797 10.609L23.289 12.129V14.465L22.351 15.438H21.701C21.8654 14.9191 21.9855 14.3872 22.06 13.848C22.085 13.853 22.11 13.858 22.137 13.858C22.2529 13.8585 22.3643 13.813 22.4466 13.7314C22.5289 13.6498 22.5755 13.5389 22.576 13.423C22.5765 13.3071 22.531 13.1957 22.4494 13.1134C22.3678 13.0311 22.2569 12.9845 22.141 12.984C22.146 12.872 22.148 12.759 22.149 12.646C22.2414 12.6302 22.325 12.5816 22.3844 12.5091C22.4438 12.4366 22.475 12.3451 22.4723 12.2514C22.4696 12.1578 22.4332 12.0682 22.3698 11.9992C22.3063 11.9302 22.2201 11.8865 22.127 11.876C22.0959 11.4197 22.0324 10.9663 21.937 10.519L22.134 10.323L22.847 10.338L23.231 10.721C23.1704 10.796 23.1403 10.8912 23.147 10.9875C23.1537 11.0837 23.1965 11.1739 23.2669 11.2399C23.3373 11.3058 23.4301 11.3427 23.5265 11.3431C23.623 11.3435 23.7161 11.3074 23.787 11.242C23.8541 11.1714 23.8917 11.0778 23.8921 10.9803C23.8925 10.8829 23.8557 10.789 23.7891 10.7178C23.7226 10.6467 23.6313 10.6037 23.5341 10.5975C23.4368 10.5914 23.3409 10.6227 23.266 10.685C23.1368 10.5539 23.0064 10.4239 22.875 10.295L22.868 10.288L22.113 10.272L21.925 10.46C21.8643 10.1843 21.7916 9.91135 21.707 9.642L22.336 9.019H24.522ZM21.103 10.397C21.15 10.59 21.19 10.784 21.223 10.979C21.1713 10.9759 21.1195 10.9833 21.0708 11.0008C21.0221 11.0183 20.9774 11.0455 20.9395 11.0808C20.9016 11.116 20.8713 11.1587 20.8504 11.206C20.8295 11.2534 20.8184 11.3045 20.8179 11.3563C20.8174 11.4081 20.8273 11.4594 20.8473 11.5072C20.8672 11.555 20.8966 11.5982 20.9337 11.6343C20.9709 11.6704 21.0149 11.6985 21.0633 11.7171C21.1117 11.7356 21.1633 11.744 21.215 11.742C21.2517 11.7412 21.2881 11.7352 21.323 11.724C21.343 11.942 21.353 12.162 21.357 12.382H20.674L18.246 14.818H17.979C18.0305 14.6892 18.0779 14.5588 18.121 14.427L20.268 12.341V11.23L21.103 10.397ZM21.09 10.342L20.218 11.209V12.32L18.155 14.322C18.335 13.743 18.437 13.133 18.437 12.532C18.437 11.976 18.367 11.432 18.222 10.903H19.971L20.971 9.913C21.014 10.055 21.054 10.198 21.09 10.342ZM76.472 14.127H79.957L78.27 8.788H78.152L76.471 14.126L76.472 14.127ZM22.138 13.035C22.2404 13.0351 22.3385 13.0759 22.4108 13.1484C22.4831 13.2209 22.5236 13.3191 22.5235 13.4215C22.5234 13.5239 22.4826 13.622 22.4101 13.6943C22.3376 13.7666 22.2394 13.8071 22.137 13.807C22.1128 13.8066 22.0887 13.8039 22.065 13.799L22.087 13.622C22.1098 13.6304 22.1337 13.6352 22.158 13.636C22.216 13.6322 22.2703 13.6064 22.3101 13.564C22.3498 13.5216 22.3719 13.4656 22.3719 13.4075C22.3719 13.3494 22.3498 13.2934 22.3101 13.251C22.2703 13.2086 22.216 13.1828 22.158 13.179L22.127 13.182C22.13 13.132 22.135 13.084 22.137 13.035H22.138ZM22.158 13.229C22.2052 13.229 22.2505 13.2478 22.2839 13.2811C22.3172 13.3145 22.336 13.3598 22.336 13.407C22.336 13.4542 22.3172 13.4995 22.2839 13.5329C22.2505 13.5662 22.2052 13.585 22.158 13.585C22.1356 13.5845 22.1136 13.5798 22.093 13.571C22.105 13.46 22.115 13.348 22.123 13.236C22.135 13.234 22.146 13.229 22.158 13.229ZM22.131 11.927C22.299 11.947 22.431 12.089 22.431 12.263C22.4306 12.3425 22.4024 12.4193 22.3512 12.4801C22.3001 12.541 22.2292 12.582 22.151 12.596L22.152 12.53L22.149 12.442C22.1834 12.4319 22.2137 12.411 22.2353 12.3824C22.2569 12.3537 22.2687 12.3189 22.269 12.283C22.2685 12.246 22.2558 12.2103 22.2328 12.1813C22.2098 12.1524 22.1779 12.1319 22.142 12.123C22.139 12.0576 22.1354 11.9923 22.131 11.927ZM22.143 12.173C22.1651 12.1817 22.1842 12.1968 22.1977 12.2164C22.2113 12.236 22.2187 12.2592 22.219 12.283C22.2186 12.3056 22.2118 12.3277 22.1994 12.3466C22.1871 12.3655 22.1696 12.3806 22.149 12.39C22.1478 12.3176 22.1458 12.2453 22.143 12.173ZM21.252 11.146L21.228 11.144C21.1879 11.1446 21.1489 11.1568 21.1158 11.1793C21.0826 11.2018 21.0568 11.2336 21.0414 11.2706C21.0261 11.3076 21.022 11.3483 21.0296 11.3877C21.0371 11.427 21.056 11.4633 21.084 11.492C21.1123 11.5201 21.1482 11.5393 21.1873 11.5473C21.2264 11.5553 21.2669 11.5517 21.304 11.537L21.319 11.672C21.2728 11.6885 21.2234 11.6944 21.1746 11.6894C21.1257 11.6844 21.0786 11.6686 21.0367 11.643C20.9947 11.6175 20.959 11.583 20.9321 11.5419C20.9052 11.5008 20.8879 11.4542 20.8812 11.4056C20.8746 11.3569 20.879 11.3074 20.8939 11.2607C20.9089 11.2139 20.934 11.1711 20.9677 11.1353C21.0013 11.0995 21.0424 11.0716 21.0882 11.0538C21.1339 11.0359 21.183 11.0285 21.232 11.032L21.252 11.146ZM21.261 11.2C21.275 11.294 21.286 11.388 21.297 11.483C21.2646 11.5006 21.2268 11.5058 21.1909 11.4977C21.1549 11.4895 21.1231 11.4686 21.1014 11.4387C21.0797 11.4088 21.0697 11.3721 21.0731 11.3353C21.0765 11.2986 21.0932 11.2644 21.12 11.239C21.1487 11.2104 21.1875 11.1942 21.228 11.194C21.24 11.194 21.25 11.198 21.261 11.2ZM23.283 10.738C23.3462 10.6807 23.4291 10.6499 23.5145 10.6521C23.5998 10.6543 23.681 10.6893 23.7412 10.7497C23.8014 10.8102 23.8361 10.8916 23.8379 10.9769C23.8397 11.0622 23.8086 11.145 23.751 11.208C23.6878 11.2653 23.6049 11.2961 23.5195 11.2939C23.4342 11.2917 23.353 11.2567 23.2928 11.1963C23.2326 11.1358 23.1979 11.0544 23.1961 10.9691C23.1943 10.8838 23.2254 10.801 23.283 10.738ZM23.675 10.816C23.6367 10.7778 23.5848 10.7564 23.5306 10.7565C23.4765 10.7566 23.4247 10.7782 23.3865 10.8165C23.3483 10.8548 23.3269 10.9067 23.327 10.9609C23.3271 11.015 23.3487 11.0668 23.387 11.105C23.4255 11.1432 23.4775 11.1645 23.5317 11.1644C23.5859 11.1642 23.6378 11.1425 23.676 11.104C23.7142 11.0655 23.7355 11.0135 23.7354 10.9593C23.7352 10.9051 23.7135 10.8532 23.675 10.815V10.816ZM23.422 10.852C23.436 10.8365 23.4529 10.8239 23.4719 10.8151C23.4908 10.8064 23.5114 10.8015 23.5323 10.8009C23.5532 10.8004 23.5739 10.804 23.5934 10.8117C23.6128 10.8194 23.6304 10.831 23.6452 10.8457C23.66 10.8605 23.6717 10.8781 23.6795 10.8975C23.6873 10.9168 23.691 10.9376 23.6905 10.9585C23.6901 10.9794 23.6853 10.9999 23.6766 11.0189C23.6679 11.0379 23.6555 11.055 23.64 11.069C23.6107 11.0955 23.5724 11.1098 23.533 11.1088C23.4935 11.1079 23.4559 11.0919 23.4279 11.064C23.4 11.0362 23.3838 10.9987 23.3826 10.9592C23.3815 10.9197 23.3956 10.8814 23.422 10.852ZM24.932 11.033C24.8746 10.9761 24.8376 10.9018 24.8268 10.8217C24.8159 10.7416 24.8318 10.6601 24.872 10.59C24.895 10.737 24.914 10.885 24.932 11.033ZM20.953 9.858L19.949 10.854H18.209C18.1792 10.7494 18.1466 10.6457 18.111 10.543H19.652L20.805 9.421C20.858 9.566 20.907 9.711 20.953 9.858ZM18.238 8.087L18.246 8.095H20.188C20.377 8.426 20.546 8.769 20.691 9.123C20.725 9.204 20.754 9.287 20.785 9.369L19.632 10.493H18.094C18.0646 10.4099 18.0332 10.3276 18 10.246C17.702 9.518 17.24 8.921 16.69 8.363L16.644 8.318V7.776L16.642 7.772C16.637 7.76 16.519 7.495 16.293 7.464C16.158 7.446 16.018 7.517 15.873 7.673C15.5715 7.462 15.2499 7.28113 14.913 7.133H17.337L18.238 8.087ZM24.508 8.969H22.315L21.69 9.589C21.6463 9.45299 21.5996 9.31796 21.55 9.184L21.983 8.756H24.443L24.509 8.969H24.508ZM24.426 8.705H21.96L21.528 9.131C21.495 9.043 21.464 8.954 21.428 8.867C21.408 8.817 21.384 8.769 21.362 8.72L21.84 8.256H24.272C24.326 8.405 24.376 8.555 24.424 8.706L24.426 8.705ZM24.255 8.205H21.82L21.342 8.67C21.2333 8.42141 21.1142 8.17753 20.985 7.939H24.152C24.187 8.027 24.223 8.116 24.255 8.205ZM16.286 7.514C16.469 7.538 16.576 7.753 16.593 7.787V8.27C16.3813 8.06385 16.1543 7.87398 15.914 7.702C16.046 7.562 16.17 7.498 16.286 7.514ZM10.913 6.614H17.555C17.599 6.66 17.829 6.895 18.06 7.127C18.58 7.65 18.606 7.654 18.624 7.654H19.923C20.005 7.782 20.084 7.912 20.16 8.044H18.268L17.365 7.09L17.358 7.082H14.798C14.1017 6.78465 13.354 6.62634 12.597 6.616L10.907 6.62C10.908 6.61 10.912 6.6 10.913 6.589V6.614ZM24.084 7.758C24.102 7.801 24.117 7.845 24.134 7.888H20.958C20.8854 7.75622 20.8097 7.62619 20.731 7.498H23.974L24.084 7.758ZM12.655 3.779C13.137 3.781 13.615 3.799 14.088 3.852C14.0838 3.87711 14.0818 3.90254 14.082 3.928C14.082 4.14 14.238 4.313 14.431 4.314C14.614 4.314 14.763 4.156 14.776 3.957C15.166 4.035 15.55 4.144 15.924 4.301C17.4071 4.92271 18.6916 5.93881 19.638 7.239H18.854L17.654 6.063H12.276C12.2634 5.96755 12.2156 5.88022 12.1421 5.81808C12.0686 5.75594 11.9745 5.72345 11.8783 5.72695C11.7821 5.73045 11.6906 5.76969 11.6218 5.837C11.5529 5.90432 11.5116 5.99488 11.506 6.091C11.5068 6.18442 11.5414 6.27438 11.6035 6.34419C11.6656 6.41401 11.7509 6.45895 11.8435 6.47067C11.9362 6.48239 12.03 6.4601 12.1075 6.40794C12.185 6.35578 12.241 6.27728 12.265 6.187L12.276 6.113H17.633L18.826 7.283L18.834 7.29H19.673C19.747 7.393 19.82 7.497 19.89 7.603H18.628C18.558 7.561 17.968 6.966 17.582 6.57L17.575 6.563H10.915V6.545C10.9138 6.49185 10.9016 6.43952 10.8792 6.39129C10.8569 6.34307 10.8248 6.29998 10.785 6.26474C10.7451 6.2295 10.6985 6.20287 10.6479 6.1865C10.5973 6.17014 10.5439 6.1644 10.491 6.16965C10.4381 6.1749 10.3868 6.19102 10.3404 6.21701C10.2941 6.24299 10.2535 6.27828 10.2214 6.32065C10.1893 6.36303 10.1663 6.41158 10.1539 6.46326C10.1414 6.51495 10.1397 6.56865 10.149 6.621L8.987 6.624C8.98491 6.52736 8.94497 6.43539 8.87578 6.36788C8.80659 6.30038 8.71367 6.26272 8.617 6.263C8.51988 6.26297 8.4266 6.30093 8.35709 6.36876C8.28758 6.43658 8.24735 6.52891 8.245 6.626L7.366 6.628V4.864L7.946 4.329C8.00419 4.39603 8.0814 4.44376 8.16738 4.46582C8.25335 4.48789 8.34401 4.48325 8.42729 4.45252C8.51056 4.4218 8.5825 4.36644 8.63354 4.29382C8.68458 4.2212 8.7123 4.13476 8.713 4.046C8.71272 3.93592 8.67053 3.83008 8.595 3.75L12.655 3.779ZM23.681 6.884C23.774 7.069 23.866 7.256 23.951 7.446H20.698C20.6327 7.34035 20.5654 7.236 20.496 7.133H23.444L23.681 6.884ZM23.295 6.171C23.423 6.388 23.542 6.611 23.656 6.836L23.423 7.083H20.462C20.2439 6.76496 20.0068 6.46041 19.752 6.171H23.295ZM4.937 3.724V5.495L6.054 6.613V6.632L2.479 6.642C2.481 6.627 2.484 6.612 2.484 6.596C2.47896 6.49716 2.43615 6.40402 2.36441 6.33584C2.29267 6.26766 2.19747 6.22964 2.0985 6.22964C1.99953 6.22964 1.90433 6.26766 1.83259 6.33584C1.76085 6.40402 1.71804 6.49716 1.713 6.596C1.713 6.612 1.715 6.628 1.717 6.644H1.492C1.15989 6.6451 0.837251 6.53333 0.577 6.327H0.691L1.868 5.121H2.945C2.975 5.301 3.117 5.436 3.288 5.437C3.48 5.437 3.637 5.263 3.637 5.051C3.637 4.838 3.48 4.665 3.288 4.665C3.096 4.665 2.94 4.838 2.939 5.051V5.071H1.848L0.67 6.276H0.519C0.328575 6.1094 0.184273 5.89657 0.1 5.658H0.385L1.557 4.485H1.556C1.62207 4.5369 1.70568 4.56119 1.78928 4.55278C1.87287 4.54437 1.94997 4.50391 2.00438 4.43989C2.05879 4.37587 2.0863 4.29327 2.08113 4.20941C2.07596 4.12555 2.03851 4.04695 1.97665 3.9901C1.91478 3.93325 1.83331 3.90257 1.74931 3.90449C1.66531 3.90642 1.58532 3.94079 1.52612 4.00041C1.46692 4.06003 1.43311 4.14026 1.43179 4.22427C1.43046 4.30828 1.46171 4.38954 1.519 4.451L0.364 5.607H0.082C0.01405 5.38591 -0.000914624 5.15192 0.0383163 4.92397C0.0775471 4.69602 0.169872 4.48051 0.307826 4.29485C0.445779 4.10919 0.625489 3.9586 0.832422 3.85527C1.03935 3.75193 1.2677 3.69874 1.499 3.7L4.938 3.724H4.937ZM2.1 6.26C2.284 6.26 2.435 6.41 2.435 6.595C2.435 6.61 2.432 6.625 2.43 6.641H2.24C2.24738 6.62392 2.25145 6.6056 2.252 6.587C2.24894 6.54972 2.23197 6.51495 2.20445 6.48961C2.17694 6.46427 2.14091 6.4502 2.1035 6.4502C2.06609 6.4502 2.03006 6.46427 2.00255 6.48961C1.97503 6.51495 1.95806 6.54972 1.955 6.587C1.955 6.607 1.959 6.625 1.965 6.642H1.768C1.76129 6.59452 1.76482 6.54615 1.77836 6.50015C1.7919 6.45415 1.81512 6.41157 1.84648 6.37529C1.87783 6.33901 1.91659 6.30986 1.96015 6.2898C2.0037 6.26975 2.05105 6.25924 2.099 6.259L2.1 6.26ZM2.105 6.49C2.159 6.49 2.203 6.533 2.203 6.587C2.203 6.607 2.194 6.625 2.183 6.641H2.025C2.01374 6.62521 2.00746 6.6064 2.007 6.587C2.007 6.533 2.051 6.491 2.105 6.49ZM6.236 3.732V4.03C6.15407 4.04279 6.07993 4.08586 6.02824 4.1507C5.97655 4.21553 5.95108 4.29741 5.95686 4.38012C5.96264 4.46284 5.99926 4.54037 6.05947 4.59738C6.11968 4.6544 6.19909 4.68673 6.282 4.688C6.36965 4.68866 6.45398 4.65448 6.51643 4.59297C6.57888 4.53145 6.61434 4.44765 6.615 4.36C6.61566 4.27235 6.58148 4.18802 6.51997 4.12557C6.45845 4.06312 6.37465 4.02766 6.287 4.027V3.732L7.962 3.744C7.90073 3.80806 7.86044 3.88928 7.8465 3.97682C7.83257 4.06437 7.84565 4.15408 7.884 4.234L7.915 4.288L7.316 4.841V6.627L6.106 6.63V6.59L4.987 5.475V3.725L6.234 3.735L6.236 3.732ZM8.618 6.312C8.70133 6.31197 8.78139 6.34444 8.84115 6.40252C8.90091 6.4606 8.93566 6.5397 8.938 6.623H8.8C8.79356 6.57979 8.77187 6.54032 8.73885 6.51171C8.70584 6.4831 8.66368 6.46724 8.62 6.467C8.57617 6.46727 8.53389 6.48327 8.50085 6.51209C8.46782 6.5409 8.44623 6.58061 8.44 6.624L8.296 6.625C8.29834 6.54134 8.33316 6.46188 8.39308 6.40346C8.453 6.34503 8.53331 6.31223 8.617 6.312H8.618ZM8.621 6.518C8.685 6.518 8.737 6.563 8.75 6.623L8.491 6.624C8.4972 6.59409 8.51351 6.56723 8.53718 6.54792C8.56086 6.52862 8.59045 6.51805 8.621 6.518ZM10.529 6.209C10.5792 6.20922 10.6288 6.22075 10.674 6.24271C10.7192 6.26468 10.7588 6.29653 10.79 6.3359C10.8212 6.37527 10.8432 6.42116 10.8543 6.47016C10.8653 6.51917 10.8652 6.57003 10.854 6.619H10.654C10.6723 6.59509 10.6828 6.5661 10.684 6.536C10.6837 6.49666 10.6679 6.45901 10.64 6.43129C10.6121 6.40356 10.5743 6.388 10.535 6.388C10.4958 6.38826 10.4583 6.40394 10.4306 6.43164C10.4029 6.45934 10.3873 6.49683 10.387 6.536C10.387 6.566 10.397 6.594 10.414 6.618L10.204 6.619C10.1929 6.56997 10.193 6.51908 10.2042 6.47008C10.2154 6.42108 10.2375 6.37522 10.2688 6.33588C10.3 6.29654 10.3397 6.26472 10.385 6.24276C10.4302 6.2208 10.4787 6.20926 10.529 6.209ZM10.535 6.439C10.589 6.439 10.633 6.482 10.633 6.536C10.633 6.571 10.613 6.601 10.585 6.618H10.485C10.4705 6.60972 10.4583 6.59782 10.4497 6.58345C10.4411 6.56908 10.4364 6.55273 10.436 6.536C10.4365 6.50983 10.4473 6.4849 10.466 6.46658C10.4847 6.44826 10.5098 6.438 10.536 6.438L10.535 6.439ZM11.893 5.755C11.9818 5.75513 12.067 5.79055 12.1297 5.85347C12.1925 5.91639 12.2276 6.00165 12.2275 6.0905C12.2274 6.17935 12.1919 6.2645 12.129 6.32723C12.0661 6.38997 11.9808 6.42513 11.892 6.425C11.8032 6.425 11.7179 6.38971 11.6551 6.32688C11.5923 6.26406 11.557 6.17885 11.557 6.09C11.557 6.00115 11.5923 5.91594 11.6551 5.85312C11.7179 5.79029 11.8042 5.755 11.893 5.755ZM8.877 6.367C8.88914 6.37857 8.9005 6.39093 8.911 6.404L10.429 4.917H14.947V4.867H10.408L8.877 6.367ZM11.897 5.934C11.8579 5.93452 11.8206 5.95028 11.7929 5.97792C11.7653 6.00557 11.7495 6.04291 11.749 6.082C11.7488 6.11151 11.7574 6.14042 11.7736 6.16505C11.7899 6.18968 11.8131 6.20894 11.8403 6.22037C11.8675 6.2318 11.8975 6.23489 11.9265 6.22926C11.9554 6.22362 11.9821 6.20951 12.003 6.18871C12.0239 6.16792 12.0382 6.14137 12.0441 6.11244C12.0499 6.08351 12.047 6.0535 12.0358 6.02621C12.0245 5.99893 12.0054 5.9756 11.9809 5.95918C11.9564 5.94277 11.9265 5.934 11.897 5.934ZM11.897 5.984C11.9232 5.984 11.9483 5.99426 11.967 6.01258C11.9857 6.0309 11.9965 6.05583 11.997 6.082C11.997 6.10799 11.9867 6.13292 11.9683 6.1513C11.9499 6.16968 11.925 6.18 11.899 6.18C11.873 6.18 11.8481 6.16968 11.8297 6.1513C11.8113 6.13292 11.801 6.10799 11.801 6.082C11.8009 6.06926 11.8032 6.05662 11.808 6.0448C11.8128 6.03298 11.8198 6.02222 11.8287 6.01312C11.8376 6.00402 11.8482 5.99676 11.86 5.99177C11.8717 5.98677 11.8843 5.98413 11.897 5.984ZM19.743 5.501H22.871C23.008 5.704 23.142 5.909 23.268 6.121H19.71C19.2263 5.58078 18.6825 5.09764 18.089 4.681L17.115 3.707H16.342L16.289 3.684C15.8394 3.49679 15.3761 3.34467 14.903 3.229H17.472L19.743 5.501ZM2.18 0.002V0.012C2.18508 0.11241 2.22854 0.207031 2.3014 0.276305C2.37427 0.345578 2.47096 0.384207 2.5715 0.384207C2.67204 0.384207 2.76873 0.345578 2.8416 0.276305C2.91446 0.207031 2.95792 0.11241 2.963 0.012L2.962 0.007L3.484 0.009C3.45811 0.0679584 3.4473 0.132434 3.45255 0.196612C3.45779 0.26079 3.47893 0.322654 3.51405 0.376626C3.54917 0.430597 3.59717 0.474979 3.65373 0.505769C3.71028 0.53656 3.77361 0.552791 3.838 0.553C3.90187 0.552427 3.96462 0.536135 4.0207 0.505563C4.07678 0.47499 4.12447 0.431079 4.15956 0.377706C4.19465 0.324333 4.21605 0.263141 4.22188 0.199535C4.22772 0.135928 4.2178 0.0718638 4.193 0.013L7.332 0.028L7.612 0.328L7.604 0.633C7.52455 0.637631 7.44977 0.672071 7.39461 0.729439C7.33945 0.786806 7.30796 0.862875 7.30645 0.942447C7.30493 1.02202 7.3335 1.09923 7.38643 1.15866C7.43937 1.21808 7.51278 1.25535 7.592 1.263H7.6C7.77 1.263 7.91 1.127 7.915 0.956C7.91668 0.890303 7.89784 0.825715 7.8611 0.771227C7.82436 0.716739 7.77154 0.675063 7.71 0.652L7.654 0.638L7.664 0.308L7.4 0.028L7.72 0.03L8.278 0.608L8.264 1.188L7.972 1.491L8.008 1.526L8.314 1.209L8.329 0.589L7.79 0.03L8.092 0.032L8.734 0.725L8.714 1.505C8.6346 1.51378 8.5615 1.5524 8.5095 1.61304C8.4575 1.67368 8.43048 1.75181 8.43391 1.83162C8.43734 1.91143 8.47097 1.98696 8.52798 2.04291C8.58499 2.09887 8.66114 2.13107 8.741 2.133H8.75C8.92 2.133 9.061 1.997 9.065 1.826C9.06693 1.74369 9.03666 1.66388 8.98062 1.60355C8.92459 1.54322 8.84723 1.50715 8.765 1.503L8.786 0.706L8.16 0.034L8.498 0.036L9.054 0.628L9.042 1.119L9.42 1.559C9.37665 1.60287 9.34709 1.65847 9.33496 1.71894C9.32283 1.77941 9.32866 1.8421 9.35173 1.8993C9.3748 1.9565 9.4141 2.00569 9.46479 2.04082C9.51548 2.07595 9.57535 2.09548 9.637 2.097H9.645C9.72571 2.09344 9.802 2.0591 9.85818 2.00104C9.91436 1.94298 9.94616 1.8656 9.94706 1.78481C9.94796 1.70402 9.91787 1.62596 9.863 1.56667C9.80812 1.50737 9.73262 1.47135 9.652 1.466C9.58282 1.46426 9.515 1.48534 9.459 1.526L9.093 1.102L9.105 0.608L8.567 0.036L8.845 0.038L9.395 0.643C9.35943 0.689011 9.33733 0.743999 9.33117 0.801833C9.32502 0.859667 9.33505 0.918074 9.36014 0.970542C9.38523 1.02301 9.42441 1.06748 9.47329 1.09899C9.52218 1.1305 9.57885 1.14781 9.637 1.149H9.645C9.69681 1.14946 9.74793 1.13717 9.79387 1.11322C9.83981 1.08927 9.87916 1.05439 9.90844 1.01165C9.93773 0.968918 9.95606 0.919637 9.96182 0.86815C9.96759 0.816663 9.9606 0.764549 9.94148 0.716398C9.92236 0.668246 9.8917 0.625534 9.85219 0.592023C9.81268 0.558511 9.76553 0.535228 9.71491 0.524223C9.66428 0.513219 9.61172 0.51483 9.56187 0.528916C9.51201 0.543002 9.46638 0.56913 9.429 0.605L8.913 0.038L12.655 0.06H12.665L12.669 0.064H12.987C13.857 0.088 14.721 0.204 15.563 0.41L16.593 1.422L18.24 3.082L20.089 4.942L20.096 4.948H22.472L22.557 5.058C22.5765 5.10216 22.6051 5.1417 22.641 5.174C22.707 5.265 22.771 5.358 22.834 5.451H19.764L17.492 3.18H14.692C14.1755 3.06545 13.6504 2.99453 13.122 2.968L12.655 2.956H10.937C10.8744 2.90636 10.7969 2.87934 10.717 2.87934C10.6371 2.87934 10.5596 2.90636 10.497 2.956L6.287 2.952V2.197L5.864 1.787V1.25C5.92828 1.24533 5.9898 1.22199 6.041 1.18285C6.09221 1.14372 6.13087 1.09048 6.15225 1.02969C6.17363 0.968887 6.1768 0.903169 6.16137 0.840596C6.14593 0.778023 6.11256 0.721318 6.06536 0.677438C6.01816 0.633559 5.95917 0.604414 5.89564 0.593581C5.83211 0.582748 5.76679 0.590697 5.70772 0.616454C5.64864 0.642211 5.59836 0.684654 5.56307 0.738576C5.52777 0.792498 5.50897 0.855552 5.509 0.92C5.50899 1.00303 5.54028 1.083 5.59663 1.14398C5.65297 1.20496 5.73023 1.24246 5.813 1.249V1.807L6.235 2.217V2.951H4.988V2.766C5.0771 2.75953 5.16021 2.71874 5.21985 2.65223C5.2795 2.58572 5.31101 2.49867 5.30777 2.4094C5.30453 2.32012 5.26679 2.23559 5.20249 2.17357C5.13819 2.11156 5.05233 2.07691 4.963 2.07691C4.87367 2.07691 4.78781 2.11156 4.72351 2.17357C4.65921 2.23559 4.62147 2.32012 4.61823 2.4094C4.61499 2.49867 4.64651 2.58572 4.70615 2.65223C4.76579 2.71874 4.8489 2.75953 4.938 2.766V2.951H1.49C1.20833 2.95067 0.932649 2.86969 0.695543 2.71764C0.458437 2.5656 0.269823 2.34884 0.152 2.093L0.297 1.94L2.125 1.913L2.124 1.863L0.274 1.891L0.13 2.044C-0.0183324 1.68919 -0.0219217 1.29042 0.12 0.933H1.29L1.298 0.922C1.305 0.912 1.483 0.678 1.683 0.684C1.782 0.687 1.873 0.751 1.951 0.874C1.957 0.895 1.984 1.01 1.934 1.097C1.91821 1.12172 1.89741 1.14285 1.87296 1.15904C1.8485 1.17523 1.82092 1.18612 1.792 1.191C1.549 1.248 1.37 1.156 1.337 1.033L1.288 1.046C1.318 1.161 1.45 1.26 1.648 1.26C1.70055 1.25963 1.75289 1.25325 1.804 1.241C1.83981 1.23436 1.87382 1.22023 1.9038 1.19956C1.93378 1.17888 1.95906 1.15211 1.978 1.121C2.043 1.007 2.001 0.861 1.999 0.855V0.853L1.997 0.85C1.908 0.71 1.803 0.637 1.686 0.633C1.48 0.626 1.305 0.833 1.266 0.882H0.143C0.373 0.36 0.893 -0.003 1.5 0L2.18 0.002ZM3.288 4.716C3.452 4.716 3.587 4.866 3.587 5.051C3.587 5.235 3.453 5.387 3.288 5.387C3.124 5.387 2.989 5.235 2.989 5.051C2.989 4.866 3.123 4.716 3.288 4.716ZM15.463 4.363C15.3426 4.363 15.2271 4.41083 15.142 4.49597C15.0568 4.58112 15.009 4.69659 15.009 4.817C15.009 4.93741 15.0568 5.05288 15.142 5.13803C15.2271 5.22317 15.3426 5.271 15.463 5.271C15.5834 5.271 15.6989 5.22317 15.784 5.13803C15.8692 5.05288 15.917 4.93741 15.917 4.817C15.917 4.69659 15.8692 4.58112 15.784 4.49597C15.6989 4.41083 15.5834 4.363 15.463 4.363ZM15.463 4.414C15.516 4.41413 15.5684 4.4247 15.6173 4.4451C15.6662 4.4655 15.7106 4.49533 15.748 4.53289C15.7854 4.57045 15.815 4.61501 15.8352 4.66401C15.8553 4.71302 15.8656 4.76551 15.8655 4.8185C15.8654 4.87149 15.8548 4.92393 15.8344 4.97284C15.814 5.02174 15.7842 5.06615 15.7466 5.10352C15.709 5.1409 15.6645 5.17051 15.6155 5.19067C15.5665 5.21082 15.514 5.22113 15.461 5.221C15.354 5.22074 15.2515 5.17797 15.176 5.10211C15.1005 5.02625 15.0582 4.92352 15.0585 4.8165C15.0588 4.70949 15.1015 4.60696 15.1774 4.53148C15.2532 4.45599 15.356 4.41373 15.463 4.414ZM3.288 4.94C3.25485 4.94 3.22305 4.95317 3.19961 4.97661C3.17617 5.00005 3.163 5.03185 3.163 5.065C3.163 5.09815 3.17617 5.12995 3.19961 5.15339C3.22305 5.17683 3.25485 5.19 3.288 5.19C3.32115 5.19 3.35295 5.17683 3.37639 5.15339C3.39983 5.12995 3.413 5.09815 3.413 5.065C3.413 5.03185 3.39983 5.00005 3.37639 4.97661C3.35295 4.95317 3.32115 4.94 3.288 4.94ZM3.288 4.99C3.329 4.99 3.363 5.024 3.363 5.065C3.363 5.08498 3.35513 5.10417 3.34109 5.11839C3.32706 5.13261 3.30798 5.14074 3.288 5.141C3.26802 5.14074 3.24894 5.13261 3.23491 5.11839C3.22087 5.10417 3.213 5.08498 3.213 5.065C3.213 5.025 3.247 4.99 3.288 4.99ZM15.454 4.599C15.3994 4.59926 15.3472 4.62105 15.3086 4.65963C15.2701 4.6982 15.2483 4.75045 15.248 4.805C15.2516 4.85728 15.275 4.90624 15.3133 4.94199C15.3516 4.97774 15.4021 4.99762 15.4545 4.99762C15.5069 4.99762 15.5574 4.97774 15.5957 4.94199C15.634 4.90624 15.6574 4.85728 15.661 4.805C15.6607 4.75027 15.6388 4.69788 15.6 4.65928C15.5612 4.62067 15.5087 4.599 15.454 4.599ZM15.454 4.649C15.4954 4.649 15.5351 4.66544 15.5643 4.69469C15.5936 4.72395 15.61 4.76363 15.61 4.805C15.61 4.84637 15.5936 4.88605 15.5643 4.91531C15.5351 4.94456 15.4954 4.961 15.454 4.961C15.4126 4.961 15.3729 4.94456 15.3437 4.91531C15.3144 4.88605 15.298 4.84637 15.298 4.805C15.298 4.76363 15.3144 4.72395 15.3437 4.69469C15.3729 4.66544 15.4126 4.649 15.454 4.649ZM15.657 0.433C15.984 0.515 16.307 0.612 16.626 0.721L20.276 4.39L20.284 4.397H22.025C22.165 4.561 22.302 4.728 22.434 4.899H20.117L18.277 3.047L16.629 1.387L15.657 0.433ZM6.281 4.078C6.31777 4.07813 6.35415 4.0855 6.38808 4.0997C6.422 4.11389 6.45279 4.13462 6.4787 4.16072C6.5046 4.18681 6.52512 4.21775 6.53907 4.25177C6.55302 4.28579 6.56013 4.32223 6.56 4.359C6.55987 4.39577 6.5525 4.43215 6.5383 4.46608C6.52411 4.5 6.50338 4.53079 6.47728 4.5567C6.45119 4.5826 6.42025 4.60312 6.38623 4.61707C6.35221 4.63102 6.31577 4.63813 6.279 4.638C6.20474 4.63773 6.13363 4.60798 6.0813 4.55528C6.02898 4.50259 5.99973 4.43126 6 4.357C6.00027 4.28274 6.03002 4.21163 6.08272 4.1593C6.13542 4.10698 6.20674 4.07773 6.281 4.078ZM17.859 4.523C17.4134 4.22924 16.9437 3.97366 16.455 3.759H17.095L17.859 4.523ZM1.755 3.953C1.82793 3.953 1.89788 3.98197 1.94945 4.03355C2.00103 4.08512 2.03 4.15507 2.03 4.228C2.03 4.30093 2.00103 4.37088 1.94945 4.42245C1.89788 4.47403 1.82793 4.503 1.755 4.503C1.68207 4.503 1.61212 4.47403 1.56055 4.42245C1.50897 4.37088 1.48 4.30093 1.48 4.228C1.48 4.15507 1.50897 4.08512 1.56055 4.03355C1.61212 3.98197 1.68207 3.953 1.755 3.953ZM8.521 3.749C8.55952 3.78375 8.59059 3.82595 8.61235 3.87304C8.63411 3.92014 8.6461 3.97115 8.6476 4.02301C8.6491 4.07487 8.64007 4.12649 8.62107 4.17476C8.60207 4.22303 8.57348 4.26695 8.53703 4.30387C8.50059 4.34079 8.45704 4.36994 8.40902 4.38957C8.36099 4.40919 8.30949 4.41888 8.25762 4.41805C8.20575 4.41722 8.15458 4.40589 8.10721 4.38474C8.05984 4.36359 8.01725 4.33307 7.982 4.295L7.964 4.272C7.90578 4.19189 7.88068 4.09242 7.8939 3.99427C7.90712 3.89613 7.95766 3.80685 8.035 3.745L8.521 3.749ZM16.734 0.758C16.954 0.835 17.173 0.918 17.389 1.008C17.9042 1.22502 18.4043 1.47624 18.886 1.76C18.8665 1.81929 18.8608 1.88224 18.8694 1.94406C18.8779 2.00588 18.9004 2.06494 18.9352 2.11673C18.9701 2.16853 19.0162 2.21169 19.0703 2.24293C19.1243 2.27417 19.1847 2.29266 19.247 2.297V2.681L20.394 3.824L20.401 3.831H21.514C21.675 3.998 21.832 4.17 21.984 4.346H20.304L16.735 0.758H16.734ZM1.77 4.1C1.73994 4.1 1.71109 4.11187 1.68974 4.13304C1.66839 4.1542 1.65626 4.18294 1.656 4.213C1.656 4.275 1.707 4.327 1.77 4.327C1.80023 4.327 1.82923 4.31499 1.85061 4.29361C1.87199 4.27223 1.884 4.24323 1.884 4.213C1.884 4.18277 1.87199 4.15377 1.85061 4.13239C1.82923 4.11101 1.80023 4.1 1.77 4.1ZM7.982 4.295L7.984 4.292L7.964 4.27C7.96972 4.27821 7.97572 4.28721 7.982 4.295ZM1.77 4.15C1.804 4.15 1.833 4.178 1.833 4.213C1.83274 4.22963 1.82602 4.2455 1.81426 4.25726C1.8025 4.26902 1.78663 4.27574 1.77 4.276C1.75329 4.276 1.73727 4.26936 1.72545 4.25755C1.71364 4.24573 1.707 4.22971 1.707 4.213C1.707 4.19629 1.71364 4.18027 1.72545 4.16845C1.73727 4.15664 1.75329 4.15 1.77 4.15ZM14.324 3.878C14.3126 3.89671 14.3064 3.91811 14.306 3.94C14.3099 3.97043 14.3247 3.99841 14.3477 4.01869C14.3707 4.03897 14.4003 4.05016 14.431 4.05016C14.4617 4.05016 14.4913 4.03897 14.5143 4.01869C14.5373 3.99841 14.5521 3.97043 14.556 3.94C14.556 3.932 14.553 3.923 14.551 3.915C14.61 3.925 14.669 3.933 14.727 3.945C14.719 4.121 14.59 4.263 14.431 4.263C14.267 4.263 14.133 4.111 14.133 3.927C14.1324 3.90352 14.1344 3.88004 14.139 3.857C14.201 3.864 14.263 3.87 14.324 3.878ZM14.496 3.906C14.5018 3.91644 14.5053 3.92806 14.506 3.94C14.506 3.95981 14.4983 3.97885 14.4845 3.99304C14.4706 4.00724 14.4518 4.01548 14.432 4.016C14.4169 4.0161 14.4021 4.0117 14.3895 4.00336C14.3769 3.99502 14.3671 3.98311 14.3613 3.96916C14.3555 3.9552 14.354 3.93984 14.357 3.92503C14.3599 3.91022 14.3673 3.89663 14.378 3.886L14.496 3.906ZM19.556 2.181C20.217 2.629 20.836 3.141 21.401 3.711L21.466 3.779H20.422L19.298 2.659V2.296C19.398 2.29 19.487 2.246 19.556 2.181ZM10.716 2.927C10.7588 2.92705 10.8011 2.93626 10.84 2.954H10.59C10.6299 2.93608 10.6732 2.92687 10.717 2.927H10.716ZM4.963 2.127C5.04124 2.127 5.11627 2.15808 5.1716 2.2134C5.22692 2.26873 5.258 2.34376 5.258 2.422C5.258 2.50024 5.22692 2.57527 5.1716 2.6306C5.11627 2.68592 5.04124 2.717 4.963 2.717C4.88476 2.717 4.80973 2.68592 4.7544 2.6306C4.69908 2.57527 4.668 2.50024 4.668 2.422C4.668 2.34376 4.69908 2.26873 4.7544 2.2134C4.80973 2.15808 4.88476 2.127 4.963 2.127ZM15.815 1.937C15.7631 1.88319 15.6979 1.84399 15.6261 1.82333C15.5542 1.80268 15.4782 1.8013 15.4056 1.81934C15.3331 1.83738 15.2665 1.8742 15.2127 1.9261C15.1589 1.978 15.1197 2.04314 15.099 2.115L15.085 2.189L12.88 2.203L12.87 2.153C12.8485 2.07708 12.8 2.01162 12.7337 1.9689C12.6674 1.92618 12.5877 1.90913 12.5097 1.92095C12.4317 1.93278 12.3607 1.97266 12.31 2.03312C12.2593 2.09358 12.2324 2.17046 12.2344 2.24934C12.2363 2.32822 12.267 2.40367 12.3206 2.46154C12.3743 2.51941 12.4472 2.55572 12.5257 2.56365C12.6042 2.57159 12.6829 2.5506 12.747 2.50464C12.8111 2.45868 12.8563 2.39089 12.874 2.314L12.882 2.254L15.083 2.24C15.0842 2.32265 15.1096 2.40313 15.156 2.47151C15.2024 2.53989 15.2679 2.59317 15.3443 2.62477C15.4206 2.65636 15.5046 2.66488 15.5858 2.64929C15.6669 2.63369 15.7418 2.59465 15.801 2.537C15.882 2.45907 15.929 2.35228 15.9316 2.23988C15.9342 2.12749 15.8923 2.01862 15.815 1.937ZM15.515 1.855C15.5891 1.85652 15.6611 1.88003 15.7218 1.92254C15.7825 1.96505 15.8293 2.02464 15.8561 2.09376C15.8828 2.16287 15.8885 2.23839 15.8723 2.31072C15.8561 2.38305 15.8187 2.44893 15.765 2.5C15.7113 2.55059 15.6438 2.5842 15.5711 2.59662C15.4983 2.60905 15.4235 2.59973 15.356 2.56983C15.2886 2.53994 15.2314 2.4908 15.1917 2.42857C15.1521 2.36634 15.1316 2.29379 15.133 2.22C15.1351 2.12229 15.1755 2.02931 15.2454 1.96106C15.3153 1.8928 15.4093 1.85472 15.507 1.855H15.515ZM4.973 2.254C4.93107 2.25725 4.89191 2.2762 4.86335 2.30707C4.83478 2.33794 4.81891 2.37844 4.81891 2.4205C4.81891 2.46256 4.83478 2.50306 4.86335 2.53393C4.89191 2.5648 4.93107 2.58375 4.973 2.587C5.01721 2.58674 5.05954 2.56906 5.0908 2.5378C5.12206 2.50653 5.13974 2.46421 5.14 2.42C5.13974 2.37588 5.12202 2.33366 5.09073 2.30256C5.05944 2.27146 5.01712 2.254 4.973 2.254ZM4.973 2.304C5.036 2.304 5.089 2.356 5.089 2.42C5.089 2.45077 5.07678 2.48027 5.05502 2.50202C5.03327 2.52378 5.00377 2.536 4.973 2.536C4.94422 2.53332 4.91748 2.51999 4.89802 2.49863C4.87855 2.47726 4.86776 2.4494 4.86776 2.4205C4.86776 2.3916 4.87855 2.36374 4.89802 2.34237C4.91748 2.32101 4.94422 2.30768 4.973 2.305V2.304ZM12.563 1.968C12.6354 1.96866 12.7047 1.99799 12.7556 2.04957C12.8064 2.10115 12.8348 2.17079 12.8345 2.24324C12.8342 2.31569 12.8052 2.38506 12.7538 2.43618C12.7025 2.48729 12.633 2.51599 12.5605 2.51599C12.488 2.51599 12.4185 2.48729 12.3672 2.43618C12.3158 2.38506 12.2868 2.31569 12.2865 2.24324C12.2862 2.17079 12.3146 2.10115 12.3654 2.04957C12.4163 1.99799 12.4855 1.96866 12.558 1.968H12.563ZM15.508 1.993C15.4781 1.99234 15.4483 1.99759 15.4204 2.00844C15.3925 2.01929 15.367 2.03554 15.3453 2.05624C15.3237 2.07695 15.3063 2.10172 15.2943 2.12913C15.2822 2.15654 15.2757 2.18606 15.275 2.216C15.2743 2.24594 15.2796 2.27572 15.2904 2.30363C15.3013 2.33155 15.3175 2.35705 15.3382 2.37868C15.359 2.40032 15.3837 2.41767 15.4111 2.42973C15.4385 2.4418 15.4681 2.44834 15.498 2.449C15.5585 2.45033 15.617 2.42758 15.6607 2.38576C15.7044 2.34394 15.7297 2.28647 15.731 2.226C15.7323 2.16553 15.7096 2.10701 15.6678 2.06332C15.6259 2.01962 15.5685 1.99433 15.508 1.993ZM15.506 2.043C15.553 2.04353 15.5979 2.06265 15.6309 2.09619C15.6639 2.12973 15.6823 2.17495 15.682 2.22199C15.6817 2.26902 15.6629 2.31404 15.6295 2.34721C15.5962 2.38037 15.551 2.39899 15.504 2.39899C15.457 2.39899 15.4118 2.38037 15.3785 2.34721C15.3451 2.31404 15.3263 2.26902 15.326 2.22199C15.3257 2.17495 15.3441 2.12973 15.3771 2.09619C15.4101 2.06265 15.455 2.04353 15.502 2.043H15.506ZM12.664 2.133C12.65 2.11836 12.6333 2.10661 12.6148 2.09844C12.5962 2.09026 12.5763 2.08581 12.556 2.08535C12.5358 2.08489 12.5157 2.08841 12.4968 2.09573C12.4779 2.10305 12.4606 2.11401 12.446 2.128C12.4314 2.14199 12.4196 2.15872 12.4114 2.17724C12.4033 2.19577 12.3988 2.21572 12.3984 2.23596C12.3979 2.25621 12.4014 2.27634 12.4087 2.29522C12.416 2.3141 12.427 2.33136 12.441 2.346C12.4692 2.37557 12.5081 2.39271 12.549 2.39365C12.5898 2.39459 12.6294 2.37925 12.659 2.351C12.6886 2.32275 12.7057 2.28392 12.7066 2.24304C12.7076 2.20215 12.6922 2.16257 12.664 2.133ZM12.553 2.136C12.58 2.136 12.608 2.146 12.628 2.167C12.6423 2.18184 12.6518 2.20057 12.6554 2.22082C12.659 2.24107 12.6565 2.26194 12.6483 2.28078C12.64 2.29963 12.6263 2.3156 12.609 2.32668C12.5917 2.33776 12.5714 2.34345 12.5509 2.34303C12.5303 2.34261 12.5103 2.3361 12.4935 2.32432C12.4766 2.31254 12.4636 2.29603 12.4561 2.27686C12.4486 2.2577 12.447 2.23675 12.4514 2.21666C12.4559 2.19657 12.4662 2.17824 12.481 2.164C12.5006 2.14586 12.5263 2.13584 12.553 2.136ZM2.536 1.49C2.45847 1.49 2.38268 1.51299 2.31822 1.55606C2.25375 1.59914 2.20351 1.66036 2.17384 1.73199C2.14417 1.80362 2.13641 1.88243 2.15153 1.95848C2.16666 2.03452 2.20399 2.10436 2.25881 2.15919C2.31364 2.21401 2.38348 2.25134 2.45952 2.26647C2.53557 2.28159 2.61438 2.27383 2.68601 2.24416C2.75764 2.21449 2.81886 2.16425 2.86194 2.09978C2.90501 2.03532 2.928 1.95953 2.928 1.882C2.928 1.77804 2.8867 1.67833 2.81319 1.60481C2.73967 1.5313 2.63996 1.49 2.536 1.49ZM18.931 1.784C19.128 1.901 19.323 2.024 19.514 2.151C19.4563 2.20399 19.3828 2.23654 19.3048 2.24363C19.2268 2.25071 19.1486 2.23194 19.0823 2.19021C19.016 2.14848 18.9653 2.08611 18.9379 2.0127C18.9106 1.93929 18.9082 1.85893 18.931 1.784ZM2.536 1.542C2.724 1.542 2.878 1.695 2.878 1.882C2.878 1.9728 2.842 2.05989 2.77789 2.12418C2.71378 2.18848 2.6268 2.22474 2.536 2.225C2.44862 2.22027 2.36639 2.18223 2.30621 2.1187C2.24603 2.05518 2.21249 1.971 2.21249 1.8835C2.21249 1.796 2.24603 1.71182 2.30621 1.6483C2.36639 1.58477 2.44862 1.54673 2.536 1.542ZM7.736 1.406C7.68511 1.40462 7.63445 1.41328 7.58691 1.43148C7.53937 1.44968 7.49588 1.47706 7.45892 1.51207C7.42196 1.54708 7.39226 1.58902 7.37151 1.63551C7.35077 1.682 7.33938 1.73211 7.338 1.783C7.33662 1.83389 7.34528 1.88455 7.36348 1.93209C7.38168 1.97963 7.40906 2.02312 7.44407 2.06008C7.47908 2.09704 7.52102 2.12674 7.56751 2.14749C7.614 2.16823 7.66411 2.17962 7.715 2.181H7.725C7.82601 2.18129 7.9231 2.14198 7.99545 2.07149C8.0678 2.00101 8.10965 1.90498 8.112 1.804C8.11469 1.70126 8.0765 1.60164 8.00582 1.52702C7.93514 1.4524 7.83874 1.40888 7.736 1.406ZM7.733 1.457C7.82203 1.45806 7.90702 1.4943 7.96941 1.55781C8.0318 1.62132 8.06652 1.70695 8.06599 1.79598C8.06547 1.88501 8.02973 1.97021 7.96659 2.03298C7.90345 2.09574 7.81803 2.13098 7.729 2.13098C7.63997 2.13098 7.55455 2.09574 7.49141 2.03298C7.42827 1.97021 7.39253 1.88501 7.39201 1.79598C7.39148 1.70695 7.4262 1.62132 7.48859 1.55781C7.55099 1.4943 7.63597 1.45806 7.725 1.457H7.733ZM8.763 1.555C8.82899 1.55825 8.89139 1.58604 8.93796 1.63291C8.98452 1.67978 9.0119 1.74236 9.01472 1.80837C9.01754 1.87438 8.9956 1.93907 8.9532 1.98974C8.9108 2.04041 8.851 2.07342 8.78552 2.08228C8.72005 2.09115 8.65362 2.07524 8.59927 2.03767C8.54492 2.00009 8.50657 1.94358 8.49173 1.87919C8.47689 1.81481 8.48664 1.7472 8.51906 1.68963C8.55149 1.63206 8.60425 1.58868 8.667 1.568L8.713 1.557V1.563H8.763V1.555ZM9.651 1.517C9.71176 1.51844 9.77017 1.54071 9.81646 1.58009C9.86275 1.61947 9.89409 1.67357 9.90524 1.73331C9.91639 1.79305 9.90666 1.85481 9.8777 1.90824C9.84873 1.96166 9.80228 2.00351 9.74613 2.02676C9.68998 2.05001 9.62755 2.05326 9.56929 2.03596C9.51103 2.01866 9.46049 1.98186 9.42614 1.93173C9.39179 1.88159 9.37571 1.82118 9.3806 1.7606C9.38549 1.70003 9.41105 1.64297 9.453 1.599H9.454L9.492 1.565C9.536 1.533 9.592 1.515 9.652 1.517H9.651ZM2.543 1.727C2.50401 1.727 2.46662 1.74249 2.43906 1.77006C2.41149 1.79762 2.396 1.83501 2.396 1.874C2.396 1.91299 2.41149 1.95038 2.43906 1.97794C2.46662 2.00551 2.50401 2.021 2.543 2.021C2.58199 2.021 2.61938 2.00551 2.64694 1.97794C2.67451 1.95038 2.69 1.91299 2.69 1.874C2.69 1.83501 2.67451 1.79762 2.64694 1.77006C2.61938 1.74249 2.58199 1.727 2.543 1.727ZM2.543 1.777C2.596 1.777 2.639 1.821 2.639 1.874C2.6388 1.89294 2.63301 1.9114 2.62234 1.92706C2.61167 1.94271 2.59661 1.95486 2.57905 1.96198C2.56149 1.96909 2.54222 1.97085 2.52367 1.96703C2.50511 1.96322 2.4881 1.95399 2.47477 1.94053C2.46145 1.92706 2.4524 1.90996 2.44878 1.89136C2.44515 1.87277 2.44711 1.85352 2.45441 1.83604C2.4617 1.81855 2.47401 1.80362 2.48977 1.79311C2.50554 1.78261 2.52406 1.777 2.543 1.777ZM7.727 1.653C7.68775 1.65194 7.64968 1.66651 7.62118 1.69352C7.59267 1.72052 7.57606 1.75775 7.575 1.797C7.57394 1.83625 7.58851 1.87432 7.61552 1.90282C7.64253 1.93133 7.67975 1.94794 7.719 1.949H7.723C7.76148 1.94928 7.79853 1.93446 7.8262 1.90772C7.85387 1.88098 7.86995 1.84446 7.871 1.806C7.87208 1.76665 7.85754 1.72847 7.83056 1.6998C7.80358 1.67113 7.76635 1.65431 7.727 1.653ZM8.739 1.697C8.70609 1.69645 8.67427 1.70881 8.65034 1.73142C8.62642 1.75403 8.6123 1.78511 8.611 1.818C8.61019 1.85099 8.62246 1.88295 8.64513 1.90693C8.66779 1.93091 8.69902 1.94495 8.732 1.946H8.736C8.76714 1.94361 8.79627 1.92964 8.81763 1.90686C8.83899 1.88407 8.85105 1.85411 8.85142 1.82287C8.8518 1.79164 8.84047 1.7614 8.81966 1.7381C8.79885 1.7148 8.77008 1.70014 8.739 1.697ZM9.635 1.659C9.61872 1.6586 9.60251 1.66142 9.58731 1.66728C9.57212 1.67315 9.55822 1.68195 9.54643 1.69319C9.53464 1.70442 9.52517 1.71787 9.51858 1.73277C9.51198 1.74767 9.50839 1.76371 9.508 1.78C9.50719 1.81282 9.51932 1.84464 9.54177 1.86859C9.56422 1.89254 9.5952 1.9067 9.628 1.908H9.632C9.6643 1.90803 9.69536 1.89554 9.71867 1.87317C9.74197 1.8508 9.75571 1.82028 9.757 1.788C9.75781 1.75475 9.74544 1.72253 9.72258 1.69836C9.69973 1.67419 9.66825 1.66005 9.635 1.659ZM7.725 1.704C7.751 1.704 7.775 1.716 7.793 1.734C7.80194 1.74322 7.80896 1.75412 7.81365 1.76607C7.81834 1.77802 7.82061 1.79079 7.82033 1.80363C7.82005 1.81646 7.81723 1.82912 7.81202 1.84085C7.80682 1.85259 7.79933 1.86318 7.79 1.872C7.77596 1.88516 7.75836 1.89389 7.7394 1.89711C7.72043 1.90033 7.70093 1.8979 7.68334 1.89011C7.66574 1.88233 7.65083 1.86954 7.64046 1.85334C7.63008 1.83713 7.62471 1.81824 7.625 1.799C7.62578 1.77353 7.63645 1.74937 7.65474 1.73163C7.67304 1.7139 7.69752 1.70399 7.723 1.704H7.725ZM8.737 1.748C8.75672 1.74852 8.77543 1.75679 8.7891 1.77102C8.80276 1.78524 8.81027 1.80428 8.81 1.824C8.80988 1.83376 8.80779 1.8434 8.80388 1.85234C8.79996 1.86128 8.7943 1.86934 8.78721 1.87606C8.78013 1.88277 8.77177 1.88799 8.76263 1.89142C8.75349 1.89484 8.74375 1.8964 8.734 1.896C8.71942 1.89568 8.70526 1.89106 8.6933 1.88272C8.68134 1.87438 8.67211 1.86269 8.66677 1.84913C8.66143 1.83556 8.66021 1.82072 8.66328 1.80646C8.66634 1.7922 8.67355 1.77917 8.684 1.769C8.69109 1.76235 8.69942 1.75716 8.70851 1.75373C8.7176 1.7503 8.72729 1.74769 8.737 1.748ZM9.634 1.71C9.64438 1.70911 9.65484 1.71042 9.66468 1.71384C9.67453 1.71727 9.68353 1.72274 9.69112 1.72989C9.6987 1.73704 9.70469 1.74571 9.70869 1.75534C9.71268 1.76496 9.7146 1.77532 9.71432 1.78574C9.71404 1.79616 9.71156 1.8064 9.70704 1.81579C9.70252 1.82519 9.69607 1.83352 9.68811 1.84025C9.68015 1.84697 9.67086 1.85194 9.66085 1.85483C9.65083 1.85772 9.64032 1.85846 9.63 1.857C9.61046 1.85622 9.592 1.84784 9.57855 1.83364C9.5651 1.81944 9.55772 1.80055 9.558 1.781C9.55826 1.77133 9.56043 1.7618 9.56441 1.75297C9.56838 1.74415 9.57407 1.7362 9.58114 1.72959C9.58821 1.72299 9.59653 1.71785 9.6056 1.71449C9.61468 1.71112 9.62433 1.7096 9.634 1.71ZM14.3 0.979C14.2482 0.92489 14.1831 0.88542 14.1111 0.864587C14.0392 0.843754 13.9631 0.842298 13.8904 0.860365C13.8177 0.878433 13.7511 0.915382 13.6973 0.967473C13.6435 1.01956 13.6044 1.08495 13.584 1.157L13.57 1.231L11.365 1.245C11.3563 1.16734 11.3196 1.09551 11.2618 1.04289C11.2041 0.990269 11.1291 0.960453 11.051 0.959C11.0083 0.958015 10.9659 0.965446 10.9261 0.980869C10.8862 0.996292 10.8499 1.0194 10.819 1.04889C10.7566 1.10843 10.7205 1.1903 10.7185 1.2765C10.7165 1.3627 10.7488 1.44615 10.8084 1.50851C10.8679 1.57086 10.9498 1.60701 11.036 1.609H11.044C11.128 1.60904 11.2086 1.57639 11.2689 1.51796C11.3292 1.45953 11.3644 1.37992 11.367 1.296L13.568 1.281C13.5705 1.36304 13.5967 1.44361 13.6433 1.51114C13.69 1.57867 13.7551 1.63128 13.831 1.66266C13.9068 1.69403 13.9901 1.70283 14.0708 1.68798C14.1516 1.67314 14.2263 1.6353 14.286 1.579C14.3673 1.50121 14.4144 1.39437 14.417 1.28189C14.4196 1.16942 14.3776 1.0605 14.3 0.979ZM14 0.897C14.0615 0.898361 14.1216 0.91485 14.1752 0.945008C14.2288 0.975165 14.2741 1.01806 14.3071 1.0699C14.3401 1.12174 14.3599 1.18092 14.3646 1.24221C14.3693 1.3035 14.3589 1.36501 14.3341 1.4213C14.3094 1.47758 14.2712 1.5269 14.2229 1.5649C14.1746 1.6029 14.1176 1.6284 14.0571 1.63915C13.9966 1.6499 13.9343 1.64556 13.8759 1.62652C13.8174 1.60748 13.7646 1.57433 13.722 1.53C13.6712 1.47709 13.6371 1.41043 13.6239 1.33829C13.6107 1.26615 13.619 1.19172 13.6478 1.12426C13.6766 1.05681 13.7245 0.9993 13.7857 0.958893C13.8469 0.918485 13.9187 0.896962 13.992 0.897H14ZM11.049 1.01C11.0944 1.01072 11.1389 1.02267 11.1786 1.04479C11.2183 1.06691 11.2518 1.09851 11.2763 1.13677C11.3008 1.17503 11.3154 1.21876 11.3189 1.26405C11.3223 1.30933 11.3145 1.35477 11.2961 1.3963C11.2777 1.43783 11.2493 1.47416 11.2135 1.50204C11.1776 1.52993 11.1354 1.5485 11.0907 1.55609C11.0459 1.56369 10.9999 1.56008 10.9569 1.54558C10.9138 1.53108 10.8751 1.50614 10.844 1.473C10.8066 1.43437 10.7814 1.38554 10.7716 1.33263C10.7618 1.27973 10.7679 1.22512 10.789 1.17565C10.8102 1.12618 10.8455 1.08407 10.8905 1.0546C10.9355 1.02513 10.9882 1.00961 11.042 1.01H11.049ZM13.992 1.035C13.9466 1.03337 13.9018 1.0454 13.8633 1.06953C13.8248 1.09367 13.7944 1.12879 13.7761 1.17036C13.7578 1.21193 13.7524 1.25804 13.7606 1.30272C13.7688 1.34741 13.7902 1.38861 13.822 1.421C13.848 1.44798 13.8802 1.46816 13.9158 1.47974C13.9514 1.49133 13.9893 1.49396 14.0261 1.48742C14.063 1.48088 14.0977 1.46536 14.1271 1.44224C14.1566 1.41911 14.1799 1.38909 14.195 1.35483C14.2101 1.32056 14.2165 1.28311 14.2137 1.24577C14.2108 1.20844 14.1989 1.17237 14.1788 1.14076C14.1588 1.10915 14.1312 1.08296 14.0986 1.06452C14.0661 1.04607 14.0294 1.03593 13.992 1.035ZM13.992 1.086C14.0271 1.08682 14.0612 1.09808 14.0899 1.11833C14.1186 1.13859 14.1406 1.16692 14.1532 1.19974C14.1657 1.23255 14.1682 1.26836 14.1604 1.3026C14.1525 1.33683 14.1346 1.36796 14.109 1.392C14.0921 1.40809 14.0722 1.42069 14.0505 1.4291C14.0288 1.4375 14.0056 1.44154 13.9823 1.44098C13.9589 1.44043 13.936 1.43528 13.9147 1.42585C13.8933 1.41642 13.8741 1.40287 13.858 1.386C13.8419 1.36913 13.8293 1.34925 13.8209 1.3275C13.8125 1.30575 13.8085 1.28256 13.809 1.25926C13.8096 1.23595 13.8147 1.21298 13.8242 1.19166C13.8336 1.17034 13.8471 1.15109 13.864 1.135C13.8969 1.10361 13.9406 1.08606 13.986 1.086H13.992ZM11.148 1.175C11.1343 1.1593 11.1176 1.14655 11.0988 1.13751C11.08 1.12847 11.0596 1.12333 11.0388 1.12241C11.018 1.12149 10.9972 1.1248 10.9777 1.13214C10.9582 1.13949 10.9404 1.15071 10.9254 1.16514C10.9103 1.17956 10.8984 1.19689 10.8902 1.21606C10.8821 1.23524 10.8779 1.25587 10.878 1.27671C10.878 1.29754 10.8823 1.31815 10.8906 1.33728C10.8988 1.35641 10.9109 1.37366 10.926 1.388C10.9547 1.41524 10.9928 1.43037 11.0324 1.43026C11.072 1.43014 11.11 1.41479 11.1386 1.38738C11.1672 1.35998 11.1841 1.32262 11.1858 1.28308C11.1876 1.24353 11.174 1.20483 11.148 1.175ZM11.038 1.178C11.0519 1.17791 11.0656 1.1807 11.0784 1.18621C11.0911 1.19172 11.1026 1.19982 11.112 1.21C11.1303 1.23004 11.14 1.25643 11.1391 1.28354C11.1382 1.31065 11.1268 1.33633 11.1072 1.35512C11.0876 1.3739 11.0615 1.3843 11.0344 1.38409C11.0072 1.38388 10.9813 1.37308 10.962 1.354C10.943 1.33381 10.9327 1.30691 10.9335 1.27918C10.9342 1.25144 10.9459 1.22514 10.966 1.206C10.9852 1.18792 11.0106 1.1779 11.037 1.178H11.038ZM7.646 0.688C7.71329 0.699829 7.77342 0.737192 7.81382 0.79229C7.85423 0.847389 7.87179 0.915964 7.86284 0.9837C7.85389 1.05144 7.81913 1.1131 7.7658 1.15582C7.71248 1.19854 7.64472 1.21901 7.57666 1.21296C7.5086 1.20691 7.44551 1.17481 7.40056 1.12335C7.3556 1.0719 7.33226 1.00507 7.3354 0.936817C7.33854 0.868564 7.36793 0.804162 7.41741 0.757054C7.4669 0.709946 7.53268 0.683774 7.601 0.684L7.606 0.683C7.61944 0.683704 7.6328 0.685375 7.646 0.688ZM5.84 0.64C5.91426 0.64 5.98548 0.6695 6.03799 0.72201C6.0905 0.77452 6.12 0.845739 6.12 0.92C6.12 0.994261 6.0905 1.06548 6.03799 1.11799C5.98548 1.1705 5.91426 1.2 5.84 1.2C5.76574 1.2 5.69452 1.1705 5.64201 1.11799C5.5895 1.06548 5.56 0.994261 5.56 0.92C5.56 0.845739 5.5895 0.77452 5.64201 0.72201C5.69452 0.6695 5.76574 0.64 5.84 0.64ZM1.66 0.767C1.60836 0.767263 1.55892 0.787892 1.5224 0.824405C1.48589 0.860917 1.46526 0.910364 1.465 0.962C1.4648 1.00085 1.47615 1.03888 1.49761 1.07127C1.51908 1.10365 1.54968 1.12893 1.58553 1.14389C1.62139 1.15885 1.66088 1.16281 1.69899 1.15528C1.7371 1.14775 1.77212 1.12906 1.79959 1.10159C1.82706 1.07412 1.84575 1.0391 1.85328 1.00099C1.86081 0.962877 1.85684 0.923386 1.84189 0.887531C1.82693 0.851676 1.80165 0.821075 1.76927 0.799615C1.73688 0.778154 1.69885 0.766802 1.66 0.767ZM1.66 0.817C1.69846 0.817 1.73534 0.832277 1.76253 0.85947C1.78972 0.886662 1.805 0.923544 1.805 0.962C1.805 1.00046 1.78972 1.03734 1.76253 1.06453C1.73534 1.09172 1.69846 1.107 1.66 1.107C1.62154 1.107 1.58466 1.09172 1.55747 1.06453C1.53028 1.03734 1.515 1.00046 1.515 0.962C1.515 0.923544 1.53028 0.886662 1.55747 0.85947C1.58466 0.832277 1.62154 0.817 1.66 0.817ZM9.651 0.57C9.71733 0.577174 9.77855 0.609014 9.82251 0.659207C9.86646 0.7094 9.88996 0.77428 9.88832 0.84098C9.88668 0.907681 9.86004 0.971331 9.81367 1.01931C9.76731 1.06729 9.70461 1.09609 9.638 1.1C9.57172 1.09342 9.51032 1.06222 9.46594 1.01255C9.42156 0.962893 9.39742 0.898387 9.3983 0.831788C9.39918 0.765189 9.42501 0.701343 9.47069 0.652871C9.51637 0.604398 9.57857 0.574826 9.645 0.57H9.651ZM7.591 0.827C7.55809 0.826452 7.52627 0.838806 7.50235 0.861419C7.47842 0.884032 7.4643 0.915108 7.463 0.948C7.46219 0.980986 7.47446 1.01295 7.49713 1.03693C7.51979 1.06091 7.55102 1.07495 7.584 1.076H7.588C7.62115 1.07627 7.65305 1.06335 7.67668 1.0401C7.70031 1.01684 7.71374 0.985152 7.714 0.952C7.71427 0.918848 7.70135 0.886948 7.6781 0.863319C7.65484 0.839689 7.62315 0.826265 7.59 0.826L7.591 0.827ZM7.59 0.877C7.63 0.878 7.662 0.912 7.661 0.953C7.66048 0.972452 7.65231 0.990914 7.63827 1.00439C7.62424 1.01787 7.60546 1.02527 7.586 1.025C7.57143 1.02442 7.55735 1.0196 7.54547 1.01113C7.5336 1.00267 7.52445 0.990931 7.51915 0.977349C7.51384 0.963768 7.51261 0.948934 7.5156 0.934664C7.5186 0.920393 7.52568 0.907305 7.536 0.897C7.55068 0.883508 7.57007 0.876325 7.59 0.877ZM9.635 0.713C9.61872 0.712601 9.60251 0.715415 9.58731 0.721281C9.57212 0.727147 9.55822 0.73595 9.54643 0.747187C9.53464 0.758423 9.52517 0.771874 9.51858 0.78677C9.51198 0.801666 9.50839 0.817715 9.508 0.834C9.50719 0.866819 9.51932 0.898641 9.54177 0.922591C9.56422 0.946541 9.5952 0.960697 9.628 0.962H9.632C9.66464 0.962009 9.69599 0.949252 9.71934 0.926455C9.7427 0.903658 9.75622 0.872629 9.757 0.84C9.75754 0.80692 9.74505 0.774954 9.72222 0.751005C9.6994 0.727056 9.66807 0.714046 9.635 0.713ZM9.634 0.763C9.674 0.765 9.707 0.798 9.706 0.839C9.7056 0.858626 9.69742 0.87729 9.68327 0.890887C9.66911 0.904483 9.65013 0.911898 9.6305 0.9115C9.61087 0.911102 9.59221 0.902924 9.57861 0.888765C9.56502 0.874606 9.5576 0.855626 9.558 0.836C9.55813 0.82624 9.56021 0.816605 9.56412 0.807663C9.56804 0.798722 9.5737 0.790656 9.58079 0.783944C9.58787 0.777231 9.59623 0.772007 9.60537 0.768582C9.61451 0.765156 9.62425 0.762598 9.634 0.763ZM7.603 0.688H7.646C7.63276 0.686045 7.62039 0.685042 7.607 0.685H7.604L7.603 0.688ZM3.747 0.01C3.70968 0.0297766 3.68006 0.0614837 3.66287 0.100062C3.64567 0.13864 3.6419 0.181865 3.65214 0.22284C3.66238 0.263815 3.68606 0.300178 3.71938 0.326126C3.75271 0.352074 3.79376 0.366112 3.836 0.366C3.87832 0.366339 3.91953 0.352462 3.95303 0.326594C3.98653 0.300725 4.01037 0.264362 4.02075 0.22333C4.03112 0.182297 4.02742 0.13897 4.01024 0.10029C3.99306 0.0616098 3.9634 0.0298153 3.926 0.01L4.136 0.012C4.16092 0.0588364 4.17429 0.11095 4.175 0.164C4.17551 0.215292 4.1643 0.266023 4.14223 0.312327C4.12016 0.358631 4.08782 0.399286 4.04766 0.431195C4.00749 0.463104 3.96058 0.485424 3.91048 0.496454C3.86039 0.507484 3.80844 0.506933 3.75859 0.494844C3.70874 0.482755 3.66231 0.459445 3.62283 0.426693C3.58336 0.39394 3.55188 0.352608 3.5308 0.305847C3.50971 0.259085 3.49958 0.208128 3.50118 0.156859C3.50277 0.105589 3.51605 0.0553606 3.54 0.01H3.747ZM2.4 0.003C2.408 0.092 2.48 0.162 2.571 0.163C2.661 0.163 2.734 0.093 2.742 0.005L2.913 0.007L2.914 0.012C2.90927 0.0993758 2.87123 0.181615 2.8077 0.241794C2.74418 0.301973 2.66 0.335514 2.5725 0.335514C2.485 0.335514 2.40082 0.301973 2.3373 0.241794C2.27377 0.181615 2.23573 0.0993758 2.231 0.012V0.002H2.401L2.4 0.003ZM3.837 0.036C3.87426 0.036 3.91 0.0508026 3.93635 0.0771515C3.9627 0.1035 3.9775 0.139237 3.9775 0.1765C3.9775 0.213763 3.9627 0.2495 3.93635 0.275848C3.91 0.302197 3.87426 0.317 3.837 0.317C3.79987 0.317 3.76426 0.30225 3.73801 0.275995C3.71175 0.24974 3.697 0.21413 3.697 0.177C3.697 0.13987 3.71175 0.10426 3.73801 0.0780051C3.76426 0.05175 3.79987 0.037 3.837 0.037V0.036ZM2.69 0.005C2.68637 0.0343501 2.67219 0.0613806 2.65012 0.081063C2.62804 0.100745 2.59957 0.111739 2.57 0.112C2.54034 0.111497 2.51185 0.10029 2.4898 0.0804428C2.46775 0.0605959 2.45361 0.0334472 2.45 0.004L2.69 0.005Z" fill="var(--fill-0, black)"/>
</g>
<defs>
<clipPath id="clip0_851_2360">
<rect width="123" height="25" fill="white"/>
</clipPath>
</defs>
</svg>
