<svg preserveAspectRatio="none" width="100%" height="100%" overflow="visible" style="display: block;" viewBox="0 0 55 25" fill="none" xmlns="http://www.w3.org/2000/svg">
<g id="Group">
<path id="Vector" d="M8.065 8.716L7.356 9.285L7.292 9.272C7.069 9.462 6.837 9.652 6.596 9.841C6.356 10.022 6.106 10.177 5.848 10.307L6.042 10.319C5.85564 10.463 5.67484 10.6142 5.5 10.772C5.277 10.962 5.04 11.156 4.791 11.354C4.56358 11.5342 4.32693 11.7024 4.082 11.858C3.859 12.013 3.674 12.1 3.528 12.117L2.445 10.824C2.557 10.746 2.677 10.677 2.806 10.617C2.93842 10.5594 3.06761 10.4946 3.193 10.423C3.31644 10.3571 3.43301 10.279 3.541 10.19C3.65156 10.0969 3.736 9.97662 3.786 9.841C3.915 9.746 4.048 9.651 4.186 9.556C4.323 9.462 4.465 9.371 4.611 9.285L4.869 9.828L4.894 9.039C5.02154 9.01859 5.14152 8.96515 5.242 8.884C5.29341 8.84791 5.33707 8.80189 5.37039 8.74864C5.40371 8.6954 5.42602 8.63601 5.436 8.574L5.886 8.328L5.165 7.966C5.14695 7.9202 5.13387 7.87259 5.126 7.824C5.11946 7.77102 5.10671 7.719 5.088 7.669C5.08187 7.64597 5.07059 7.62464 5.05499 7.60662C5.0394 7.5886 5.01991 7.57437 4.998 7.565C4.963 7.539 4.912 7.539 4.843 7.565C4.81573 7.55128 4.79215 7.53123 4.77423 7.50652C4.75631 7.48182 4.74457 7.45318 4.74 7.423C4.74 7.363 4.761 7.311 4.804 7.268L4.559 7.294L4.276 7.034L4.366 6.931C4.452 6.923 4.555 6.931 4.676 6.957C4.78403 6.96603 4.88699 7.00673 4.972 7.074L5.152 6.984C4.842 6.863 4.594 6.764 4.404 6.686C4.2551 6.62332 4.10896 6.55425 3.966 6.479C3.87204 6.42962 3.78181 6.37347 3.696 6.311C3.626 6.251 3.554 6.186 3.476 6.117C3.39295 6.02389 3.30725 5.93319 3.219 5.845C3.08728 5.70566 2.94948 5.57219 2.806 5.445L3.026 5.147C2.80987 5.12093 2.59767 5.06889 2.394 4.992L1.324 3.789C1.4441 3.69704 1.56858 3.61093 1.697 3.531C1.844 3.436 1.985 3.341 2.123 3.246C2.26 3.151 2.385 3.048 2.497 2.936C2.608 2.824 2.69 2.694 2.742 2.548L2.909 2.406L3.039 2.47C3.08399 2.48604 3.13125 2.49482 3.179 2.496H3.36L3.657 1.888L3.812 1.94C4.009 1.768 4.207 1.604 4.404 1.449C4.611 1.285 4.808 1.104 4.997 0.906H5.255L5.423 0.518L5.565 0.763C5.59 0.651 5.608 0.543 5.616 0.44L5.669 0.104L6.069 0L7.125 1.203L7.074 1.526L6.21 2.212C6.14171 2.25237 6.06795 2.28269 5.991 2.302C5.888 2.337 5.815 2.362 5.771 2.38C5.73418 2.46459 5.69141 2.54646 5.643 2.625C5.5737 2.71256 5.4855 2.78332 5.385 2.832C5.315 2.87149 5.25017 2.91953 5.192 2.975L4.818 2.897C4.72156 2.9758 4.61774 3.04512 4.508 3.104L4.199 3.284L4.56 3.272L3.838 3.815C4.053 3.962 4.212 4.121 4.315 4.294C4.427 4.457 4.535 4.613 4.638 4.759C4.749 4.906 4.882 5.039 5.038 5.159C5.192 5.272 5.424 5.349 5.733 5.393L5.63 5.625C5.673 5.695 5.712 5.772 5.746 5.858C5.789 5.944 5.832 6.026 5.875 6.104C5.918 6.173 5.97 6.234 6.03 6.284C6.10797 6.32915 6.20002 6.34342 6.288 6.324C6.434 6.436 6.571 6.569 6.7 6.724C6.829 6.88 6.954 7.026 7.074 7.164L7.113 7.436L7.28 7.306C7.32261 7.33136 7.35805 7.36715 7.383 7.41C7.426 7.462 7.469 7.522 7.513 7.591C7.563 7.651 7.615 7.716 7.667 7.785C7.71867 7.85408 7.78446 7.91135 7.86 7.953L7.525 8.341L8.015 8.289L8.065 8.716ZM16.418 6.013L15.966 6.853L15.902 6.763L15.876 6.789L15.721 6.595C15.6481 6.9523 15.5224 7.29674 15.348 7.617C15.168 7.944 14.961 8.263 14.728 8.574C14.497 8.884 14.252 9.19 13.994 9.492C13.744 9.785 13.513 10.069 13.298 10.345L13.221 10.319C13.101 10.639 12.924 10.919 12.692 11.159L12.344 11.147L12.241 10.863L12.086 11.121C11.7545 10.6516 11.4238 10.1816 11.094 9.711C10.776 9.246 10.454 8.768 10.127 8.276L10.23 8.199L10.398 8.238L10.41 8.186C10.4118 8.15943 10.4077 8.13279 10.398 8.108C10.3963 8.07642 10.3874 8.04565 10.372 8.018L9.882 7.94C9.82269 7.87236 9.77073 7.79862 9.727 7.72L9.598 7.488C9.52596 7.46046 9.45693 7.42561 9.392 7.384C9.31058 7.3291 9.23306 7.26862 9.16 7.203C9.08499 7.13616 9.01196 7.06713 8.941 6.996C8.89141 6.93301 8.84405 6.86831 8.799 6.802L8.812 6.582L8.799 6.324C8.71362 6.40569 8.60558 6.45971 8.489 6.479L8.219 6.129L8.439 5.884C8.464 5.884 8.473 5.875 8.464 5.858C8.4557 5.84103 8.44197 5.8273 8.425 5.819L9.095 4.966C9.336 4.673 9.615 4.466 9.933 4.346L9.882 4.306L9.792 4.113C10.007 3.837 10.212 3.556 10.41 3.272C10.608 2.979 10.802 2.682 10.99 2.38L11.261 2.328L11.377 1.978C11.5042 1.86902 11.6208 1.74814 11.725 1.617C11.837 1.487 11.953 1.358 12.073 1.229H12.125C12.202 1.229 12.262 1.259 12.305 1.319L12.331 1.229H12.615C12.795 1.427 12.975 1.643 13.156 1.875C13.336 2.1 13.513 2.332 13.685 2.574C13.857 2.815 14.015 3.061 14.162 3.311C14.316 3.561 14.45 3.802 14.562 4.035C14.5121 4.05204 14.4597 4.06082 14.407 4.061C14.3601 4.05277 14.3126 4.04842 14.265 4.048C14.256 4.048 14.252 4.065 14.252 4.1C14.2521 4.14332 14.2564 4.18653 14.265 4.229L14.291 4.345L14.819 4.255C14.8516 4.28158 14.8778 4.31516 14.8956 4.35325C14.9134 4.39133 14.9225 4.43295 14.922 4.475C14.922 4.552 14.944 4.63 14.987 4.707C15.0857 4.72691 15.1758 4.77686 15.245 4.85C15.348 4.927 15.442 5.018 15.528 5.121C15.614 5.225 15.683 5.332 15.734 5.444C15.794 5.556 15.82 5.643 15.812 5.703L16.095 5.884C16.198 5.944 16.305 5.987 16.418 6.013ZM14.574 6.311L14.394 6.324C14.325 6.272 14.312 6.22 14.355 6.169V6.065H14.329C14.2607 5.92772 14.1786 5.79772 14.084 5.677C13.99 5.55677 13.8913 5.44035 13.788 5.328C13.6867 5.20956 13.5833 5.09287 13.478 4.978C13.3846 4.85885 13.2987 4.73393 13.221 4.604C13.1739 4.52626 13.135 4.44381 13.105 4.358C13.0701 4.26185 13.0314 4.16711 12.989 4.074C12.9477 3.98186 12.8957 3.89493 12.834 3.815C12.7861 3.74031 12.713 3.6853 12.628 3.66C12.552 3.56711 12.4786 3.47207 12.408 3.375C12.3414 3.27462 12.2727 3.1756 12.202 3.078C12.0738 3.25969 11.9658 3.45485 11.88 3.66C11.803 3.85 11.67 4.03 11.48 4.203H11.274L11.352 4.333L11.287 4.539L11.248 4.475C11.231 4.475 11.227 4.492 11.236 4.526C11.2422 4.54276 11.2462 4.56023 11.248 4.578C11.248 4.595 11.231 4.604 11.197 4.604C11.1762 4.59627 11.1542 4.59188 11.132 4.591C11.1101 4.59072 11.0886 4.58596 11.0686 4.57701C11.0487 4.56807 11.0308 4.55513 11.016 4.539C10.9948 4.50923 10.9688 4.48321 10.939 4.462L10.991 4.642C11.0082 4.70556 11.0166 4.77117 11.016 4.837C11.0175 4.87605 11.0102 4.91494 10.9946 4.95078C10.9791 4.98661 10.9556 5.01848 10.926 5.044C10.866 5.095 10.797 5.147 10.72 5.199C10.6472 5.25407 10.5783 5.31422 10.514 5.379C10.4475 5.46418 10.4109 5.56893 10.41 5.677L10.01 6.027C10.045 6.052 10.097 6.095 10.166 6.156C10.243 6.216 10.316 6.285 10.385 6.363C10.462 6.431 10.526 6.5 10.578 6.569C10.63 6.639 10.655 6.694 10.655 6.738C10.673 6.893 10.72 7.048 10.797 7.203C10.876 7.34359 11.0048 7.44954 11.158 7.5C11.21 7.578 11.274 7.686 11.352 7.824C11.438 7.953 11.528 8.087 11.622 8.224C11.717 8.363 11.812 8.488 11.906 8.6C12 8.712 12.086 8.776 12.164 8.794L12.151 8.91C12.151 8.979 12.172 9.018 12.215 9.026C12.2677 9.03509 12.3195 9.04847 12.37 9.066C12.533 8.816 12.705 8.582 12.885 8.366C13.066 8.143 13.233 7.901 13.388 7.643L14.226 7.371C14.1848 7.3459 14.1417 7.32416 14.097 7.306C14.0613 7.27966 14.0223 7.25814 13.981 7.242L13.994 7.203C13.994 7.186 13.986 7.181 13.968 7.19C13.9564 7.19688 13.9434 7.20131 13.93 7.203L13.878 7.177C13.8889 7.09323 13.9197 7.01331 13.968 6.944C14.02 6.858 14.08 6.776 14.148 6.699C14.2852 6.56482 14.4269 6.43541 14.573 6.311H14.574ZM23.017 10.681L22.462 10.694C22.3705 10.6926 22.2813 10.666 22.204 10.617L22.088 10.643L21.895 10.553C21.8037 10.5793 21.7227 10.633 21.663 10.707C21.543 10.707 21.423 10.72 21.303 10.747C21.1873 10.763 21.0708 10.7713 20.954 10.772C20.885 10.772 20.842 10.729 20.825 10.642H20.748C20.713 10.642 20.662 10.664 20.593 10.707C20.5319 10.7478 20.4605 10.7704 20.387 10.772C20.1724 10.7547 19.9573 10.7461 19.742 10.746H19.356C19.303 10.7489 19.2501 10.74 19.201 10.72L19.124 10.643C19.1094 10.6222 19.096 10.6005 19.084 10.578C19.076 10.561 19.064 10.552 19.046 10.552C18.9885 10.5554 18.9324 10.5709 18.8813 10.5976C18.8303 10.6244 18.7855 10.6616 18.75 10.707C18.67 10.8194 18.5966 10.9362 18.53 11.057L18.492 10.617L18.363 10.733L18.105 10.785L18.066 10.85L17.963 10.798C17.998 10.746 17.985 10.712 17.925 10.694C17.8492 10.6752 17.7711 10.6668 17.693 10.669C17.607 10.669 17.521 10.673 17.435 10.681H17.267L17.28 10.255L17.538 9.97C17.5159 9.93366 17.4984 9.89469 17.486 9.854C17.4703 9.79763 17.4532 9.74161 17.435 9.686C17.4207 9.64151 17.4033 9.59807 17.383 9.556C17.375 9.513 17.362 9.492 17.345 9.492C17.362 9.216 17.366 8.94 17.357 8.664C17.357 8.388 17.367 8.113 17.383 7.837C17.443 7.759 17.508 7.681 17.577 7.604C17.6147 7.56692 17.6445 7.5225 17.6645 7.47349C17.6844 7.42448 17.6941 7.3719 17.693 7.319C17.693 7.225 17.658 7.156 17.59 7.113C17.5292 7.06034 17.4643 7.01253 17.396 6.97C17.396 6.772 17.409 6.578 17.435 6.388C17.469 6.198 17.486 6.009 17.486 5.819C17.486 5.483 17.474 5.143 17.448 4.798C17.4219 4.44927 17.4089 4.0997 17.409 3.75C17.4091 3.70668 17.4134 3.66347 17.422 3.621C17.4392 3.57523 17.4392 3.52477 17.422 3.479C17.466 3.44406 17.5208 3.42566 17.577 3.427C17.645 3.427 17.68 3.401 17.68 3.35L17.615 3.31L17.396 3.169C17.396 2.979 17.388 2.794 17.37 2.613L17.345 2.069L17.396 2.044C17.4006 1.94867 17.4092 1.85358 17.422 1.759C17.439 1.699 17.461 1.659 17.486 1.643C17.5267 1.62427 17.5712 1.61536 17.616 1.617C17.694 1.60427 17.7711 1.5869 17.847 1.565C17.8759 1.59738 17.902 1.63218 17.925 1.669C17.951 1.69539 17.9726 1.72578 17.989 1.759C18.195 1.604 18.449 1.539 18.749 1.565L18.853 1.707L18.84 1.747C18.857 1.747 18.883 1.794 18.917 1.888L18.995 2.044C18.9573 2.10459 18.9186 2.1646 18.879 2.224C18.8414 2.27694 18.823 2.34117 18.827 2.406C18.827 2.475 18.84 2.556 18.866 2.651C18.8844 2.72856 18.9148 2.80278 18.956 2.871C18.9483 2.94844 18.9439 3.02618 18.943 3.104C18.943 3.164 18.939 3.224 18.93 3.284C18.9287 3.35071 18.9159 3.4167 18.892 3.479C18.8668 3.55643 18.8318 3.63035 18.788 3.699L18.814 3.815L18.827 3.828L18.84 3.841C18.866 3.944 18.883 4.069 18.892 4.216C18.9 4.354 18.904 4.5 18.904 4.656C18.9127 4.80651 18.917 4.95724 18.917 5.108V5.496C18.917 5.651 18.909 5.824 18.892 6.013C18.874 6.194 18.857 6.38 18.84 6.569C18.8227 6.74982 18.8141 6.93136 18.814 7.113C18.814 7.285 18.827 7.444 18.853 7.591H18.698L18.918 7.824C18.8862 8.01643 18.8688 8.21097 18.866 8.406C18.866 8.561 18.853 8.75 18.827 8.975C18.81 9.138 18.831 9.242 18.892 9.285C18.9473 9.31583 19.0088 9.33361 19.072 9.337C19.1246 9.31325 19.1827 9.30426 19.24 9.311C19.2975 9.30766 19.354 9.29446 19.407 9.272L19.627 9.388L19.652 9.414L19.897 9.337L20.103 9.517L20.181 9.363L20.309 9.492C20.4153 9.41861 20.5408 9.37794 20.67 9.375L20.71 9.337C20.7813 9.31945 20.8545 9.31072 20.928 9.311C20.9991 9.30126 21.0714 9.31495 21.134 9.35L21.328 9.156V6.854L21.354 6.363C21.3682 6.20246 21.3896 6.04264 21.418 5.884C21.444 5.738 21.474 5.651 21.508 5.625L21.276 5.341L21.366 5.186L21.302 4.863C21.3447 4.83674 21.3939 4.82289 21.444 4.823C21.4679 4.81973 21.4907 4.81111 21.5108 4.79778C21.5309 4.78445 21.5477 4.76674 21.56 4.746L21.547 4.669V4.681L21.573 4.552H21.393C21.393 4.526 21.379 4.5 21.353 4.475C21.3317 4.45328 21.3104 4.43162 21.289 4.41C21.2804 4.13407 21.2804 3.85793 21.289 3.582C21.2975 3.30628 21.2932 3.03031 21.276 2.755L21.354 2.716L21.328 2.613C21.354 2.587 21.371 2.531 21.38 2.444C21.388 2.35 21.397 2.264 21.405 2.186C21.3617 2.14237 21.3141 2.10318 21.263 2.069C21.2363 2.03966 21.2061 2.01379 21.173 1.992L21.367 1.5C21.513 1.5 21.667 1.505 21.831 1.513L22.295 1.539L22.462 1.953L22.604 1.553L22.874 1.746L22.849 2.768C22.8122 2.8154 22.7819 2.86753 22.759 2.923C22.7416 2.97465 22.7243 3.02632 22.707 3.078C22.767 3.198 22.802 3.298 22.81 3.375C22.828 3.453 22.836 3.552 22.836 3.673C22.836 3.819 22.823 3.962 22.798 4.1C22.781 4.1256 22.7589 4.1474 22.733 4.164L22.707 4.19L22.72 4.203C22.737 4.212 22.759 4.233 22.785 4.268C22.785 4.371 22.776 4.478 22.759 4.591C22.7414 4.69515 22.7197 4.79856 22.694 4.901L22.824 4.721C22.814 5.134 22.814 5.548 22.824 5.961C22.841 6.375 22.849 6.794 22.849 7.216C22.8477 7.25596 22.8389 7.29531 22.823 7.332C22.8142 7.36795 22.8014 7.40283 22.785 7.436H22.695C22.755 7.505 22.789 7.608 22.797 7.746C22.815 7.876 22.823 8.022 22.823 8.186V8.664C22.823 8.819 22.84 8.953 22.875 9.065L22.605 8.845C22.707 8.992 22.763 9.155 22.772 9.337C22.78 9.509 22.785 9.681 22.785 9.854C22.785 9.949 22.802 10.044 22.836 10.138C22.879 10.233 22.931 10.319 22.991 10.397L23.017 10.681ZM21.469 2.29C21.469 2.273 21.46 2.256 21.443 2.239L21.456 2.303L21.469 2.29ZM30.492 1.786L29.847 3.739C29.7666 3.79807 29.7042 3.87842 29.667 3.971C29.6384 4.06767 29.6253 4.16824 29.628 4.269C29.628 4.295 29.607 4.376 29.564 4.514C29.4391 4.91345 29.3057 5.31021 29.164 5.704C29.087 5.937 29.009 6.161 28.932 6.376C28.863 6.592 28.799 6.782 28.739 6.946C28.679 7.109 28.639 7.221 28.623 7.282L28.455 7.333L28.545 7.463L28.391 7.514L28.261 7.954L28.313 8.122L28.12 8.704H28.042C28.0044 8.80459 27.9477 8.89696 27.875 8.976C27.8085 9.05943 27.7398 9.14112 27.669 9.221L28.004 9.118C27.857 9.39663 27.7445 9.69214 27.669 9.998C27.591 10.298 27.519 10.601 27.449 10.902L27.114 10.915C27.0458 10.8658 26.9925 10.7986 26.96 10.721C26.9429 10.6528 26.9298 10.5837 26.921 10.514C26.9129 10.4472 26.8953 10.3819 26.869 10.32C26.8481 10.2539 26.808 10.1954 26.754 10.152C26.7304 10.0792 26.7088 10.0059 26.689 9.932L26.612 9.648C26.5881 9.55386 26.5664 9.45916 26.547 9.364C26.5294 9.29172 26.5294 9.21628 26.547 9.144L26.354 8.95L26.457 8.769L26.341 8.743C26.221 8.148 26.061 7.588 25.864 7.062C25.6709 6.5146 25.4905 5.96278 25.323 5.407L25.452 5.239L25.258 5.122L25.155 4.76L25.194 4.682L25.026 4.592C24.9315 4.34198 24.8497 4.08731 24.781 3.829C24.7197 3.56698 24.6333 3.31147 24.523 3.066L24.588 3.001L24.408 2.743L24.459 2.497L24.214 2.355C24.1568 2.24087 24.1051 2.12407 24.059 2.005C24.0149 1.88169 23.9635 1.76114 23.905 1.644L24.395 1.527L24.691 1.617L24.639 1.463L25.696 1.191L26.083 2.511C26.213 2.95 26.337 3.389 26.457 3.829C26.3765 3.88667 26.2948 3.94268 26.212 3.997C26.1269 4.06453 26.0308 4.11695 25.928 4.152C25.9673 4.14477 26.0063 4.1361 26.045 4.126C26.0832 4.11822 26.122 4.1142 26.161 4.114L26.561 4.139C26.655 4.389 26.723 4.648 26.766 4.915C26.818 5.182 26.878 5.445 26.946 5.704C26.9063 5.72786 26.8679 5.7539 26.831 5.782C26.7958 5.80594 26.7565 5.82322 26.715 5.833L26.985 5.963L27.115 6.493C27.157 6.673 27.213 6.851 27.282 7.023C27.402 6.704 27.488 6.363 27.54 6.001C27.6 5.631 27.677 5.277 27.772 4.941C27.8027 4.93497 27.8328 4.92627 27.862 4.915C27.914 4.898 27.969 4.881 28.03 4.864C28.0795 4.84153 28.131 4.82411 28.184 4.812C28.2132 4.80073 28.2433 4.79203 28.274 4.786L28.094 4.631C28.04 4.57624 27.9923 4.51552 27.952 4.45C27.961 4.424 27.982 4.338 28.017 4.191C28.051 4.036 28.09 3.872 28.133 3.7C28.1716 3.5336 28.219 3.36937 28.275 3.208C28.326 3.053 28.373 2.963 28.416 2.937L28.455 2.782C28.498 2.747 28.541 2.661 28.584 2.523C28.635 2.376 28.683 2.221 28.726 2.057C28.769 1.894 28.807 1.734 28.842 1.579C28.8664 1.46097 28.8964 1.34417 28.932 1.229C29.001 1.239 29.108 1.264 29.254 1.307C29.4 1.342 29.551 1.389 29.705 1.45C29.869 1.51 30.023 1.57 30.17 1.63C30.316 1.691 30.423 1.743 30.492 1.786ZM36.418 10.307C36.4358 10.3525 36.4446 10.4011 36.444 10.45C36.453 10.4969 36.453 10.5451 36.444 10.592C36.4358 10.6422 36.4181 10.6904 36.392 10.734C36.1098 10.7015 35.8261 10.6842 35.542 10.682C35.292 10.674 35.108 10.67 34.987 10.67C34.9252 10.6719 34.8643 10.6848 34.807 10.708C34.7458 10.7259 34.6917 10.7622 34.652 10.812C34.5714 10.8287 34.4893 10.8374 34.407 10.838H34.201C34.1651 10.8151 34.126 10.7976 34.085 10.786C34.0508 10.7605 34.0205 10.7302 33.995 10.696L33.905 10.605C33.8966 10.5922 33.8849 10.5819 33.8712 10.575C33.8575 10.5682 33.8423 10.5651 33.827 10.566C33.724 10.566 33.664 10.575 33.647 10.592C33.5999 10.6263 33.5564 10.6651 33.517 10.708C33.4531 10.7196 33.3887 10.7282 33.324 10.734C33.2637 10.7402 33.2036 10.7489 33.144 10.76L32.964 10.605L32.603 10.708C32.568 10.682 32.56 10.665 32.577 10.657C32.594 10.639 32.585 10.627 32.551 10.617C32.534 10.627 32.534 10.617 32.551 10.592C32.5656 10.5732 32.5746 10.5507 32.577 10.527L32.564 10.45H32.5L32.474 10.398L32.448 10.32L32.371 10.308L32.384 10.67L32.267 10.695L32.177 10.605C32.151 10.57 32.121 10.553 32.087 10.553C32.0651 10.5533 32.0436 10.558 32.0236 10.567C32.0037 10.5759 31.9858 10.5889 31.971 10.605C31.945 10.631 31.915 10.665 31.881 10.708H31.687L31.533 10.721H31.365L31.533 10.541L31.481 10.501L31.507 10.489H31.494C31.494 10.479 31.49 10.476 31.481 10.476C31.472 10.476 31.468 10.471 31.468 10.463C31.486 10.4083 31.499 10.3521 31.507 10.295C31.523 10.2361 31.554 10.1823 31.597 10.139C31.5747 10.0986 31.544 10.0635 31.507 10.036C31.4905 10.0166 31.4785 9.99386 31.4717 9.96933C31.465 9.94479 31.4637 9.91908 31.468 9.894C31.485 9.756 31.498 9.661 31.507 9.609C31.5135 9.56398 31.5266 9.52017 31.546 9.479C31.5553 9.44549 31.5593 9.41075 31.558 9.376C31.558 9.333 31.563 9.247 31.571 9.118C31.6006 9.06542 31.6225 9.00884 31.636 8.95C31.6508 8.89071 31.6595 8.83006 31.662 8.769C31.662 8.709 31.649 8.665 31.622 8.639C31.6104 8.63212 31.5974 8.62769 31.584 8.626H31.764C31.824 8.626 31.855 8.614 31.855 8.588L31.649 8.51L31.675 8.458V8.406H31.623C31.597 8.406 31.58 8.384 31.571 8.341V7.941C31.5786 7.87191 31.5829 7.8025 31.584 7.733C31.5926 7.68178 31.5969 7.62994 31.597 7.578C31.606 7.526 31.61 7.44 31.61 7.319C31.6538 7.18543 31.6584 7.04206 31.623 6.906C31.5912 6.7658 31.5738 6.62273 31.571 6.479C31.5713 6.4082 31.5845 6.33804 31.61 6.272C31.6369 6.19731 31.6501 6.11838 31.649 6.039C31.632 5.849 31.601 5.716 31.559 5.639V5.379C31.601 5.354 31.649 5.319 31.7 5.276C31.752 5.233 31.79 5.203 31.816 5.186C31.8519 5.15294 31.8807 5.11294 31.9006 5.06841C31.9205 5.02389 31.9312 4.97578 31.932 4.927C31.9244 4.82864 31.8887 4.73455 31.829 4.656C31.7781 4.5565 31.7131 4.46488 31.636 4.384H31.61C31.601 4.384 31.593 4.38 31.584 4.371V4.319C31.584 4.061 31.576 3.802 31.558 3.544C31.5496 3.28514 31.537 3.02644 31.52 2.768L31.597 2.716L31.584 2.626C31.5927 2.61269 31.5983 2.59766 31.6006 2.58194C31.6028 2.56622 31.6016 2.5502 31.597 2.535C31.5964 2.496 31.5921 2.45715 31.584 2.419L31.571 2.276V2.199L31.455 1.552L31.971 1.526C31.988 1.509 32.01 1.505 32.035 1.513C32.0595 1.52097 32.0818 1.53468 32.1 1.553C32.108 1.569 32.13 1.603 32.164 1.656L32.177 1.681H32.19L32.229 1.643L32.28 1.617C32.297 1.6 32.302 1.565 32.293 1.513L33.221 1.526C33.204 1.75 33.196 1.966 33.196 2.173C33.196 2.371 33.191 2.569 33.183 2.768L33.17 2.806C33.1394 2.8445 33.1094 2.88351 33.08 2.923C33.0506 2.96912 33.0366 3.0234 33.04 3.078C33.04 3.147 33.08 3.228 33.157 3.324L33.131 3.673L33.08 3.712L33.105 3.776C33.1139 3.83164 33.1139 3.88836 33.105 3.944C33.105 4.022 33.101 4.104 33.092 4.19C33.092 4.268 33.088 4.341 33.08 4.41C33.08 4.479 33.084 4.522 33.092 4.54C33.17 4.729 33.209 4.923 33.209 5.121C33.209 5.311 33.199 5.509 33.183 5.716C33.183 5.733 33.191 5.755 33.209 5.781C33.234 5.798 33.247 5.811 33.247 5.819C33.2323 5.83499 33.215 5.8485 33.196 5.859L33.144 5.884C33.127 5.919 33.088 5.949 33.028 5.974C32.976 5.992 32.942 5.992 32.925 5.974C32.925 5.984 32.938 6 32.963 6.026C32.9785 6.04156 32.996 6.05501 33.015 6.066C33.032 6.082 33.058 6.082 33.092 6.066C33.127 6.039 33.152 6.031 33.17 6.039C33.1577 6.08969 33.1534 6.14197 33.157 6.194V6.828C33.1664 6.88797 33.1664 6.94903 33.157 7.009L33.092 7.319L32.976 7.371L32.899 7.358V7.384C32.899 7.393 32.925 7.414 32.976 7.449L33.016 7.488C33.084 7.522 33.118 7.565 33.118 7.617C33.1265 7.65068 33.1309 7.68526 33.131 7.72C33.14 7.746 33.144 7.78 33.144 7.824C33.144 7.884 33.14 7.97 33.131 8.082V8.432C33.131 8.552 33.127 8.669 33.118 8.781V9.026C33.118 9.113 33.097 9.177 33.054 9.22C33.2764 9.19461 33.5008 9.19026 33.724 9.207C33.93 9.225 34.132 9.225 34.33 9.207C34.3712 9.23208 34.4143 9.25381 34.459 9.272C34.5084 9.28571 34.5601 9.28932 34.611 9.28261C34.6618 9.27591 34.7108 9.25904 34.755 9.233C34.7857 9.22697 34.8158 9.21827 34.845 9.207C34.863 9.207 34.875 9.203 34.885 9.194H36.044C36.19 9.194 36.306 9.19 36.392 9.181C36.41 9.457 36.41 9.664 36.392 9.802C36.3788 9.93198 36.3249 10.0545 36.238 10.152L36.418 10.307ZM43.432 10.54L42.942 10.657L42.646 10.567L42.71 10.721L41.653 10.993L41.318 9.893V9.881C41.326 9.881 41.331 9.876 41.331 9.868V9.855C41.3315 9.80644 41.3227 9.75824 41.305 9.713C41.2879 9.66275 41.2792 9.61006 41.279 9.557C41.2771 9.51291 41.2683 9.46939 41.253 9.428C41.202 9.428 41.168 9.415 41.15 9.389C41.1411 9.35339 41.1284 9.31885 41.112 9.286C40.9759 9.25802 40.8378 9.24064 40.699 9.234C40.5658 9.22576 40.4324 9.22143 40.299 9.221C40.231 9.221 40.166 9.226 40.106 9.234C40.0486 9.24583 39.9955 9.27276 39.952 9.312L39.332 9.338C39.312 9.32879 39.2901 9.32434 39.268 9.325C39.1985 9.32517 39.1293 9.3339 39.062 9.351C38.9974 9.35927 38.9319 9.35486 38.869 9.338L38.83 9.48C38.7448 9.54325 38.6855 9.63529 38.663 9.739C38.6538 9.83773 38.6495 9.93685 38.65 10.036C38.6483 10.1279 38.6213 10.2175 38.572 10.295C38.521 10.381 38.503 10.458 38.521 10.527L38.366 11.032L37.979 10.954C37.936 10.885 37.881 10.851 37.812 10.851C37.7467 10.841 37.6819 10.8276 37.618 10.811C37.601 10.777 37.588 10.764 37.58 10.773L37.528 10.799C37.4919 10.8166 37.4522 10.8256 37.412 10.825C37.3637 10.7817 37.3119 10.7426 37.257 10.708C37.189 10.648 37.133 10.626 37.09 10.644C37.0401 10.6229 36.9925 10.5968 36.948 10.566L36.884 10.527C36.8575 10.5045 36.8269 10.4872 36.794 10.476L37.489 8.51C37.5683 8.444 37.6301 8.35952 37.669 8.264C37.7173 8.17299 37.7355 8.06901 37.721 7.967L38.276 6.648C38.327 6.588 38.383 6.501 38.443 6.389C38.5116 6.26833 38.5718 6.14303 38.623 6.014C38.684 5.876 38.731 5.743 38.766 5.614C38.7968 5.51371 38.8097 5.40877 38.804 5.304L38.907 5.057C38.9364 5.0494 38.9666 5.04537 38.997 5.045C39.0235 5.04495 39.0499 5.04056 39.075 5.032L38.959 4.851C39.053 4.859 39.114 4.851 39.139 4.825C39.1433 4.817 39.1455 4.80807 39.1455 4.799C39.1455 4.78993 39.1433 4.78099 39.139 4.773V4.695C39.1601 4.64513 39.1862 4.59755 39.217 4.553C39.2468 4.50645 39.2643 4.45314 39.268 4.398C39.2389 4.3464 39.2215 4.28906 39.217 4.23C39.311 3.971 39.397 3.717 39.475 3.467L39.72 2.678H39.797L39.835 2.562L39.913 2.484C39.939 2.45763 39.9606 2.42724 39.977 2.394L39.99 2.381C39.99 2.355 39.977 2.329 39.952 2.303C39.9366 2.27194 39.9192 2.24188 39.9 2.213C39.9043 2.17738 39.913 2.14245 39.926 2.109C39.9451 2.07741 39.958 2.04245 39.964 2.006L39.939 1.928C39.964 1.833 39.99 1.743 40.016 1.657C40.0417 1.57173 40.0634 1.4853 40.081 1.398L40.196 1.385V1.372H40.222C40.257 1.364 40.282 1.372 40.3 1.398C40.3263 1.41653 40.3446 1.44444 40.351 1.476C40.3686 1.51212 40.3775 1.55184 40.377 1.592C40.3849 1.62137 40.3893 1.65159 40.39 1.682V2.045C40.39 2.157 40.45 2.26 40.57 2.355C40.579 2.415 40.596 2.493 40.622 2.588C40.648 2.674 40.669 2.768 40.686 2.872C40.712 2.967 40.734 3.057 40.751 3.144C40.7671 3.21616 40.7715 3.29044 40.764 3.364L40.983 3.57C40.9511 3.59367 40.921 3.61975 40.893 3.648H40.88V3.674C40.88 3.708 40.914 3.739 40.983 3.764C41.026 4.006 41.082 4.239 41.15 4.463C41.22 4.687 41.292 4.911 41.37 5.135C41.37 5.213 41.378 5.32 41.395 5.458C41.421 5.588 41.455 5.726 41.498 5.872C41.55 6.01 41.602 6.144 41.653 6.273C41.713 6.393 41.773 6.48 41.833 6.532L41.911 6.764C41.8822 6.83144 41.8477 6.89633 41.808 6.958L41.975 7.062C41.993 7.105 42.014 7.165 42.04 7.242C42.0606 7.29627 42.0733 7.35316 42.078 7.411C42.0766 7.4425 42.068 7.47327 42.053 7.501H42.066L42.207 7.592C42.302 7.851 42.397 8.105 42.491 8.355C42.586 8.605 42.693 8.859 42.813 9.118L42.762 9.182L42.813 9.286L42.839 9.299C42.8584 9.31893 42.8758 9.3407 42.891 9.364C42.916 9.381 42.929 9.411 42.929 9.454V9.519C42.9281 9.54667 42.9191 9.57347 42.903 9.596L42.878 9.7C42.921 9.76 42.994 9.795 43.097 9.803L43.135 9.816C43.161 9.886 43.183 9.946 43.2 9.997C43.217 10.04 43.234 10.087 43.251 10.139C43.277 10.182 43.303 10.239 43.329 10.307L43.432 10.54ZM40.854 7.928L40.634 7.463C40.5856 7.40487 40.5468 7.33938 40.519 7.269C40.5111 7.2177 40.5068 7.1659 40.506 7.114V6.971C40.5044 6.91839 40.4957 6.86625 40.48 6.816C40.4474 6.72655 40.4174 6.63618 40.39 6.545C40.354 6.42747 40.3153 6.31078 40.274 6.195C40.2033 5.9559 40.1259 5.7188 40.042 5.484C39.9719 5.67807 39.9157 5.87691 39.874 6.079C39.831 6.286 39.775 6.489 39.707 6.687C39.664 6.721 39.629 6.795 39.604 6.907L39.539 7.178L39.526 7.23H39.552C39.475 7.428 39.41 7.57 39.359 7.657C39.3003 7.74566 39.2443 7.83603 39.191 7.928C39.251 7.92 39.307 7.915 39.359 7.915H39.539C39.5765 7.92641 39.6159 7.93082 39.655 7.928H39.875C39.9518 7.92015 40.0288 7.91581 40.106 7.915C40.184 7.907 40.236 7.902 40.261 7.902C40.295 7.902 40.325 7.92 40.351 7.954C40.3776 7.98966 40.3995 8.02866 40.416 8.07L40.441 8.122L40.506 7.902H40.648C40.699 7.902 40.742 7.911 40.777 7.928C40.785 7.928 40.794 7.932 40.802 7.941C40.8198 7.93891 40.8373 7.93454 40.854 7.928ZM50.327 9.454L50.263 9.493C50.263 9.501 50.25 9.497 50.224 9.48C50.2079 9.47159 50.1901 9.46714 50.172 9.467L50.262 9.57C50.254 9.63 50.25 9.674 50.25 9.7C50.25 9.726 50.224 9.764 50.172 9.816L50.082 9.984C50.0478 9.97844 50.0135 9.9741 49.979 9.971C49.9554 9.95431 49.9294 9.94117 49.902 9.932C49.893 9.932 49.893 9.937 49.902 9.945C49.91 9.945 49.91 9.95 49.902 9.958L49.786 9.907C49.803 9.889 49.794 9.872 49.76 9.855L49.657 9.803C49.626 9.78754 49.5959 9.77018 49.567 9.751C49.55 9.726 49.532 9.717 49.515 9.726L49.554 9.971L49.786 10.075L49.747 10.191C49.756 10.174 49.764 10.17 49.773 10.178C49.7761 10.1819 49.7801 10.1851 49.7846 10.1873C49.7891 10.1896 49.794 10.1908 49.799 10.191C49.785 10.2149 49.7762 10.2415 49.773 10.269C49.721 10.364 49.678 10.411 49.644 10.411H49.657H49.554C49.502 10.411 49.472 10.415 49.464 10.424C49.454 10.432 49.451 10.48 49.451 10.566C49.4092 10.6075 49.3744 10.6554 49.348 10.708C49.3239 10.7567 49.2979 10.8044 49.27 10.851C49.2395 10.9007 49.2002 10.9444 49.154 10.98C49.0709 10.8709 48.976 10.7713 48.871 10.683C48.7652 10.5853 48.67 10.4767 48.587 10.359C48.554 10.3033 48.5151 10.2514 48.471 10.204C48.4454 10.1699 48.4151 10.1396 48.381 10.114C48.3575 10.0813 48.3267 10.0546 48.291 10.036C48.2591 10.003 48.2291 9.96829 48.201 9.932C48.182 9.86114 48.141 9.79812 48.084 9.752C48.0309 9.69043 47.9581 9.64911 47.878 9.635C47.8036 9.52662 47.7125 9.43076 47.608 9.351C47.5156 9.28022 47.4253 9.20686 47.337 9.131L47.233 9.027C47.1997 8.98316 47.1654 8.94015 47.13 8.898C47.1104 8.84723 47.0934 8.7955 47.079 8.743C47.0723 8.71128 47.0537 8.68334 47.027 8.665C47.0053 8.64536 46.9787 8.63189 46.95 8.626C46.9033 8.60337 46.8559 8.58202 46.808 8.562C46.7437 8.47232 46.67 8.38984 46.588 8.316C46.5087 8.23549 46.4358 8.14889 46.37 8.057C46.3867 7.99296 46.3822 7.92522 46.357 7.864C46.3407 7.80004 46.3277 7.73529 46.318 7.67L46.241 7.89L46.086 7.618L45.996 7.463C45.996 7.549 45.992 7.648 45.983 7.76L45.957 8.07V8.483C45.957 8.518 45.97 8.565 45.996 8.625C46.03 8.685 46.069 8.738 46.112 8.781L46.138 9.298L46.022 9.531C45.9635 9.70454 45.9724 9.89375 46.047 10.061C46.0885 10.1449 46.1406 10.2232 46.202 10.294C46.203 10.3288 46.1986 10.3635 46.189 10.397V10.475C46.1778 10.5434 46.1735 10.6127 46.176 10.682C46.0978 10.6839 46.0198 10.6752 45.944 10.656C45.8722 10.6338 45.7991 10.6164 45.725 10.604H45.661C45.6363 10.5939 45.6096 10.5895 45.583 10.591L45.545 10.552C45.536 10.535 45.553 10.522 45.596 10.513C45.596 10.505 45.601 10.496 45.609 10.488C45.626 10.47 45.639 10.466 45.648 10.475C45.674 10.518 45.674 10.557 45.648 10.591C45.6147 10.6304 45.5694 10.6578 45.519 10.669C45.459 10.677 45.407 10.681 45.364 10.681L45.313 10.669C45.2908 10.6696 45.2689 10.6736 45.248 10.681C45.1881 10.7028 45.1318 10.7335 45.081 10.772L45.274 10.372C45.205 10.388 45.162 10.388 45.145 10.372C45.137 10.354 45.132 10.358 45.132 10.384C45.141 10.41 45.137 10.431 45.119 10.449C45.102 10.475 45.076 10.509 45.042 10.552C45.016 10.595 44.982 10.617 44.939 10.617H44.9C44.892 10.608 44.879 10.604 44.862 10.604H44.655C44.604 10.604 44.539 10.608 44.462 10.617V10.177C44.471 9.987 44.475 9.807 44.475 9.634C44.4829 9.48746 44.4872 9.34075 44.488 9.194L44.501 9C44.5107 8.95036 44.5279 8.90247 44.552 8.858C44.5726 8.8045 44.5814 8.74721 44.578 8.69C44.5748 8.60563 44.5573 8.52243 44.526 8.444C44.526 8.419 44.522 8.401 44.513 8.393C44.513 8.143 44.518 7.901 44.526 7.669L44.552 6.944C44.5948 6.85047 44.5995 6.74392 44.565 6.647C44.5399 6.54996 44.5268 6.45022 44.526 6.35C44.526 6.28 44.548 6.229 44.591 6.194C44.6157 6.17426 44.6347 6.14827 44.6459 6.11873C44.6572 6.08919 44.6603 6.05717 44.655 6.026C44.6567 5.99212 44.6507 5.95829 44.6373 5.9271C44.624 5.89591 44.6037 5.86817 44.578 5.846C44.5326 5.7994 44.4935 5.74694 44.462 5.69V5.173L44.707 5.083C44.664 5.056 44.642 5.035 44.642 5.018C44.642 4.992 44.638 4.948 44.63 4.888H44.552C44.509 4.845 44.466 4.824 44.423 4.824C44.383 4.82525 44.3437 4.83407 44.307 4.85L44.256 4.746L44.41 4.643V4.603C44.419 4.595 44.423 4.583 44.423 4.565V4.552L44.385 4.5C44.4143 4.47334 44.4402 4.44311 44.462 4.41C44.471 4.393 44.471 4.358 44.462 4.306C44.428 4.212 44.453 4.121 44.539 4.035C44.523 3.8066 44.506 3.57826 44.488 3.35C44.4791 3.12112 44.4661 2.89242 44.449 2.664L44.539 2.625L44.513 2.535V2.509L44.643 2.522L44.63 2.561L44.513 2.522C44.5227 2.50518 44.5313 2.48782 44.539 2.47L44.565 2.419L44.578 2.379C44.569 2.389 44.561 2.389 44.552 2.379L44.526 2.367L44.513 2.341C44.488 2.315 44.479 2.281 44.488 2.238L44.63 2.173L44.59 2.134C44.582 2.014 44.522 1.94 44.41 1.914C44.393 1.897 44.385 1.884 44.385 1.875L44.488 1.824L44.501 1.863L44.385 1.888C44.377 1.82543 44.3904 1.76201 44.423 1.708L44.449 1.681C44.4578 1.64283 44.4578 1.60317 44.449 1.565C44.544 1.565 44.629 1.569 44.707 1.578C44.7913 1.57929 44.8745 1.59695 44.952 1.63L45.081 1.681C45.124 1.691 45.205 1.691 45.326 1.681C45.4395 1.61152 45.5668 1.56751 45.699 1.552C45.8535 1.53495 46.0095 1.53495 46.164 1.552C46.1456 1.61639 46.1283 1.68106 46.112 1.746C46.0941 1.80957 46.081 1.87443 46.073 1.94C46.0641 2.01299 46.0598 2.08647 46.06 2.16C46.043 2.177 46.039 2.225 46.047 2.302C46.0502 2.34626 46.0589 2.38993 46.073 2.432V2.444L46.086 2.457C46.043 2.483 46.03 2.522 46.048 2.574C46.073 2.617 46.073 2.656 46.048 2.69V2.703H46.035C46.0117 2.74788 45.9856 2.79129 45.957 2.833C45.9342 2.86758 45.9211 2.90763 45.919 2.949C45.9209 3.04853 45.9573 3.14431 46.022 3.22C46.0382 3.29846 46.0291 3.38005 45.996 3.453C45.962 3.539 45.936 3.617 45.919 3.686C45.936 3.712 45.944 3.755 45.944 3.816C45.953 3.876 45.962 3.923 45.97 3.957L45.957 3.97H45.931L45.996 4.022C45.996 4.039 45.992 4.095 45.983 4.19C45.983 4.276 45.979 4.363 45.97 4.449L46.589 3.789C46.632 3.74313 46.6851 3.70787 46.744 3.686C46.804 3.669 46.868 3.651 46.937 3.634C46.963 3.634 46.98 3.625 46.988 3.608C46.998 3.591 46.993 3.548 46.976 3.478C47.082 3.41586 47.1739 3.33244 47.246 3.233C47.329 3.13513 47.4107 3.03612 47.491 2.936C47.594 2.816 47.711 2.699 47.839 2.586C47.969 2.466 48.106 2.366 48.252 2.289C48.303 2.22 48.346 2.194 48.381 2.212C48.4257 2.22442 48.4689 2.24152 48.51 2.263C48.527 2.272 48.535 2.272 48.535 2.263C48.5469 2.25261 48.5604 2.24417 48.575 2.238H48.561C48.5414 2.18689 48.5244 2.13482 48.51 2.082C48.492 2.013 48.505 1.957 48.548 1.914L49.244 1.216L50.276 2.212C50.216 2.263 50.13 2.341 50.018 2.444L49.696 2.768C49.5963 2.87567 49.5016 2.98778 49.412 3.104C49.3482 3.17577 49.292 3.25384 49.244 3.337C49.2108 3.36825 49.1764 3.39827 49.141 3.427C49.0933 3.47445 49.0418 3.51793 48.987 3.557L48.832 3.686C48.78 3.729 48.742 3.759 48.716 3.776C48.63 3.75 48.604 3.681 48.638 3.569C48.5849 3.66741 48.5336 3.76676 48.484 3.867C48.4312 3.96352 48.3752 4.05824 48.316 4.151V4.164C48.316 4.181 48.303 4.207 48.278 4.242C48.2486 4.28111 48.2186 4.31978 48.188 4.358L48.084 4.462L48.033 4.513C47.9679 4.57901 47.8938 4.63556 47.813 4.681C47.736 4.716 47.676 4.711 47.633 4.669L47.594 4.785C47.5789 4.86425 47.5575 4.94217 47.53 5.018C47.5166 5.0542 47.4992 5.08876 47.478 5.121C47.3804 5.17369 47.2933 5.24385 47.221 5.328L46.988 5.561C46.9087 5.64081 46.8274 5.71851 46.744 5.794C46.6603 5.86975 46.5642 5.93063 46.46 5.974C46.494 6.009 46.542 6.052 46.602 6.104C46.671 6.156 46.735 6.207 46.795 6.259C46.864 6.311 46.92 6.359 46.963 6.401C47.014 6.436 47.049 6.457 47.066 6.466C47.221 6.673 47.311 6.806 47.336 6.866L47.401 6.816L47.607 6.957C47.6261 7.02216 47.6566 7.08343 47.697 7.138C47.749 7.208 47.787 7.263 47.814 7.306C47.848 7.298 47.869 7.306 47.878 7.332C47.887 7.358 47.874 7.384 47.839 7.41C47.822 7.427 47.788 7.436 47.736 7.436C47.7011 7.43355 47.6662 7.43797 47.633 7.449C47.607 7.457 47.594 7.479 47.594 7.513C47.594 7.539 47.599 7.565 47.607 7.591C47.6222 7.61432 47.6396 7.63609 47.659 7.656C47.676 7.673 47.693 7.673 47.71 7.656C47.7207 7.64414 47.7295 7.63063 47.736 7.616L47.814 7.539C47.8288 7.52336 47.846 7.5102 47.865 7.5C47.8969 7.48369 47.9322 7.47513 47.968 7.475C48.011 7.483 48.046 7.505 48.071 7.539L48.174 7.617L48.419 7.656C48.471 7.664 48.531 7.725 48.599 7.836C48.626 7.88 48.656 7.94 48.69 8.018C48.7124 8.08004 48.7528 8.13401 48.806 8.173C48.8323 8.21805 48.8541 8.26562 48.871 8.315C48.905 8.375 48.931 8.419 48.948 8.445C48.9697 8.46445 48.9964 8.47759 49.025 8.483C49.06 8.483 49.125 8.488 49.219 8.496C49.253 8.539 49.287 8.578 49.322 8.613L49.438 8.729C49.438 8.746 49.451 8.763 49.476 8.781C49.5045 8.79383 49.5308 8.81104 49.554 8.832C49.571 8.85 49.584 8.862 49.592 8.872C49.6026 8.88325 49.6113 8.89607 49.618 8.91C49.661 9.065 49.734 9.16 49.838 9.194C49.94 9.229 50.056 9.264 50.185 9.298C50.211 9.332 50.233 9.363 50.25 9.388C50.2777 9.40708 50.3035 9.42985 50.327 9.454ZM53.282 10.695L53.024 10.708H52.65C52.6147 10.7037 52.5801 10.695 52.547 10.682V10.708L52.353 10.695C52.3148 10.7038 52.2752 10.7038 52.237 10.695C52.2039 10.6732 52.1736 10.6474 52.147 10.618C52.139 10.609 52.134 10.601 52.134 10.592C52.134 10.583 52.13 10.575 52.121 10.566C52.053 10.566 51.975 10.618 51.889 10.721H51.799C51.7871 10.7213 51.7753 10.7191 51.7643 10.7146C51.7533 10.7102 51.7433 10.7035 51.735 10.695H51.709C51.7 10.687 51.67 10.683 51.619 10.683L51.67 10.618C51.636 10.635 51.619 10.618 51.619 10.566C51.649 10.5451 51.6751 10.519 51.696 10.489C51.73 10.445 51.743 10.419 51.735 10.411L51.567 10.152C51.584 9.997 51.593 9.885 51.593 9.816C51.6017 9.76034 51.6017 9.70366 51.593 9.648C51.5824 9.59232 51.5737 9.53629 51.567 9.48V9.13L51.709 8.963L51.838 8.562C51.812 8.588 51.791 8.601 51.773 8.601H51.696C51.6695 8.59497 51.6437 8.58626 51.619 8.575C51.6125 8.56036 51.6037 8.54686 51.593 8.535C51.5587 8.35649 51.5457 8.17457 51.554 7.993C51.571 7.812 51.593 7.631 51.619 7.45L51.696 6.907C51.722 6.726 51.735 6.545 51.735 6.364C51.735 6.182 51.718 6.006 51.683 5.834C51.6567 5.64495 51.6396 5.45472 51.632 5.264C51.717 5.221 51.769 5.174 51.786 5.122C51.8063 5.04607 51.815 4.96753 51.812 4.889C51.812 4.795 51.799 4.729 51.773 4.695C51.7379 4.62974 51.6895 4.57252 51.631 4.527C51.631 4.389 51.627 4.264 51.619 4.152C51.619 4.04 51.614 3.932 51.606 3.829C51.606 3.717 51.601 3.605 51.593 3.493C51.593 3.381 51.589 3.26 51.58 3.131C51.563 3.105 51.571 3.066 51.606 3.014L51.632 2.989C51.6653 2.95065 51.6914 2.90661 51.709 2.859C51.6661 2.77053 51.6274 2.68009 51.593 2.588C51.55 2.467 51.541 2.368 51.567 2.29C51.54 2.22387 51.5228 2.15412 51.516 2.083C51.5084 2.01301 51.4951 1.94377 51.476 1.876C51.476 1.833 51.456 1.786 51.412 1.734L51.606 1.527L53.153 1.514C53.144 1.739 53.14 1.95 53.14 2.148C53.148 2.346 53.144 2.536 53.127 2.717C53.1155 2.77238 53.0935 2.82501 53.062 2.872C53.027 2.92326 53.001 2.98006 52.985 3.04C53.002 3.083 53.019 3.122 53.037 3.157C53.054 3.191 53.071 3.23 53.088 3.273C53.114 3.307 53.118 3.359 53.101 3.428C53.084 3.498 53.071 3.566 53.062 3.635C53.0535 3.7047 53.0408 3.77383 53.024 3.842L53.114 3.907L53.037 4.036C53.062 4.053 53.084 4.088 53.101 4.139C53.1327 4.226 53.1459 4.31861 53.14 4.411C53.108 4.40326 53.0775 4.39007 53.05 4.372C53.0278 4.36486 53.006 4.35617 52.985 4.346C52.9692 4.33775 52.9518 4.3333 52.934 4.333L53.153 4.683C53.135 4.743 53.123 4.833 53.114 4.954C53.105 5.074 53.101 5.161 53.101 5.213C53.101 5.376 53.105 5.562 53.114 5.769C53.122 5.976 53.127 6.179 53.127 6.376C53.135 6.583 53.135 6.782 53.127 6.971C53.118 7.161 53.097 7.321 53.062 7.45L53.165 8.148L52.921 7.889C52.9007 7.95202 52.8873 8.01707 52.881 8.083C52.881 8.109 52.891 8.126 52.908 8.135C52.9238 8.14325 52.9412 8.1477 52.959 8.148C52.985 8.139 53.006 8.144 53.024 8.161C53.084 8.204 53.114 8.269 53.114 8.355C53.122 8.424 53.122 8.523 53.114 8.652C53.114 8.773 53.14 8.855 53.191 8.898L53.114 9.338C53.0685 9.41616 53.0459 9.50559 53.049 9.596C53.059 9.7 53.062 9.79 53.062 9.868C53.062 10.048 53.132 10.23 53.269 10.411L53.282 10.695ZM7.774 24.246L7.284 24.376L6.807 24.22L6.897 24.466L5.776 24.75L5.415 23.548C5.42429 23.5276 5.42874 23.5054 5.428 23.483C5.42834 23.4247 5.41498 23.3672 5.389 23.315C5.37084 23.2568 5.36206 23.196 5.363 23.135C5.36306 23.0571 5.34086 22.9807 5.299 22.915C5.222 22.923 5.183 22.901 5.183 22.85C5.183 22.79 5.161 22.75 5.118 22.733C4.95195 22.705 4.78427 22.6876 4.616 22.681C4.44879 22.6652 4.28096 22.6568 4.113 22.656C4.036 22.656 3.958 22.664 3.881 22.682C3.80303 22.6991 3.7286 22.7296 3.661 22.772L2.953 22.798C2.92829 22.7879 2.90164 22.7835 2.875 22.785C2.78437 22.7848 2.69394 22.7936 2.605 22.811C2.51813 22.8187 2.43058 22.8099 2.347 22.785L2.282 22.992C2.17342 23.0683 2.09937 23.1844 2.076 23.315C2.059 23.435 2.05 23.565 2.05 23.703C2.05 23.798 2.02 23.901 1.96 24.013C1.909 24.117 1.891 24.207 1.909 24.285L1.741 24.802L1.367 24.725C1.34593 24.6908 1.31782 24.6616 1.28453 24.6392C1.25125 24.6167 1.21357 24.6017 1.174 24.595C1.10056 24.5872 1.02722 24.5786 0.954 24.569C0.929 24.492 0.89 24.47 0.839 24.505C0.818946 24.5257 0.794833 24.5421 0.768165 24.5531C0.741497 24.5642 0.712847 24.5696 0.684 24.569C0.617389 24.5228 0.548647 24.4798 0.478 24.44C0.375 24.371 0.306 24.341 0.272 24.35C0.222106 24.329 0.17452 24.3028 0.13 24.272C0.0932296 24.2335 0.0489966 24.2029 0 24.182L0.813 21.932C0.908309 21.8491 0.979477 21.742 1.019 21.622C1.07605 21.5054 1.09861 21.375 1.084 21.246L1.741 19.707C1.82928 19.6103 1.90336 19.5016 1.961 19.384C2.03925 19.2358 2.11197 19.0846 2.179 18.931C2.249 18.768 2.304 18.608 2.347 18.453C2.39 18.289 2.407 18.16 2.398 18.065L2.488 17.832C2.57865 17.8356 2.66845 17.8134 2.747 17.768L2.643 17.613C2.66954 17.613 2.69588 17.6086 2.721 17.6C2.74921 17.5868 2.77519 17.5692 2.798 17.548C2.80656 17.5186 2.80656 17.4874 2.798 17.458V17.354C2.82317 17.2955 2.85328 17.2393 2.888 17.186C2.9298 17.1299 2.95257 17.0619 2.953 16.992C2.94365 16.9605 2.93055 16.9303 2.914 16.902C2.89966 16.8645 2.8909 16.8251 2.888 16.785C2.99074 16.4929 3.08975 16.1996 3.185 15.905C3.288 15.604 3.387 15.302 3.481 15.001H3.571L3.611 14.832C3.64275 14.8084 3.67282 14.7827 3.701 14.755C3.73586 14.7282 3.76252 14.6922 3.778 14.651C3.804 14.643 3.816 14.617 3.816 14.574C3.81409 14.5323 3.80096 14.4919 3.778 14.457C3.75974 14.4247 3.73794 14.3945 3.713 14.367C3.72078 14.3268 3.73389 14.2878 3.752 14.251C3.77674 14.2121 3.79024 14.1671 3.791 14.121L3.752 14.044C3.786 13.94 3.816 13.837 3.842 13.734L3.92 13.423C3.937 13.475 3.963 13.488 3.997 13.462C4.04 13.427 4.07 13.427 4.087 13.462C4.12157 13.5572 4.13917 13.6577 4.139 13.759V14.056C4.139 14.151 4.152 14.246 4.177 14.341C4.21977 14.4381 4.28653 14.5228 4.371 14.587C4.379 14.638 4.397 14.725 4.422 14.845C4.457 14.957 4.487 15.074 4.512 15.195C4.547 15.315 4.568 15.431 4.577 15.544C4.593 15.6202 4.59738 15.6985 4.59 15.776L4.822 15.996C4.788 16.022 4.766 16.035 4.757 16.035C4.749 16.035 4.745 16.061 4.745 16.113C4.745 16.19 4.783 16.246 4.861 16.281C4.912 16.557 4.977 16.828 5.054 17.095C5.14 17.354 5.23 17.613 5.324 17.871V17.923C5.324 18.018 5.338 18.147 5.364 18.311C5.398 18.466 5.441 18.63 5.492 18.802C5.552 18.966 5.612 19.122 5.672 19.268C5.742 19.414 5.81 19.518 5.879 19.578L5.969 19.811L5.892 19.941C5.86821 19.9813 5.8321 20.0128 5.789 20.031L6.059 20.211C6.068 20.255 6.085 20.319 6.111 20.406C6.13975 20.4621 6.15741 20.5232 6.163 20.586C6.16474 20.6144 6.15542 20.6423 6.137 20.664C6.12684 20.685 6.11816 20.7068 6.111 20.729L6.201 20.755L6.343 20.832C6.446 21.134 6.553 21.432 6.665 21.725C6.785 22.018 6.91 22.306 7.039 22.591L6.975 22.681L7.052 22.824C7.052 22.867 7.073 22.893 7.116 22.901C7.168 22.91 7.194 22.949 7.194 23.018C7.18982 23.0703 7.18112 23.1222 7.168 23.173L7.129 23.328C7.189 23.423 7.293 23.478 7.439 23.496L7.452 23.509C7.486 23.578 7.512 23.639 7.529 23.69L7.581 23.845C7.606 23.897 7.632 23.953 7.658 24.013C7.684 24.073 7.722 24.151 7.774 24.246ZM4.899 21.272L4.564 20.6C4.51627 20.5365 4.47725 20.4669 4.448 20.393C4.43161 20.3385 4.42286 20.2819 4.422 20.225V20.056C4.4294 19.9817 4.42088 19.9067 4.397 19.836C4.36094 19.7191 4.32227 19.6031 4.281 19.488C4.238 19.341 4.191 19.19 4.139 19.035C4.0882 18.8736 4.03217 18.7138 3.971 18.556C3.92751 18.4185 3.88451 18.2808 3.842 18.143L3.791 18.117C3.69206 18.3643 3.61445 18.6195 3.559 18.88C3.499 19.156 3.425 19.419 3.339 19.669C3.30426 19.7108 3.27809 19.7591 3.262 19.811C3.23375 19.8878 3.20807 19.9655 3.185 20.044C3.1673 20.1224 3.14561 20.1998 3.12 20.276C3.1083 20.3293 3.09121 20.3812 3.069 20.431H3.107C3.06941 20.524 3.02668 20.6148 2.979 20.703C2.94615 20.7686 2.91147 20.8333 2.875 20.897C2.83876 20.9518 2.80441 21.0078 2.772 21.065C2.738 21.125 2.699 21.199 2.656 21.285L2.914 21.259C3.00373 21.2502 3.09384 21.2459 3.184 21.246C3.23467 21.2584 3.28697 21.2628 3.339 21.259H3.61C3.713 21.25 3.808 21.246 3.894 21.246C3.98 21.238 4.036 21.233 4.061 21.233C4.087 21.233 4.109 21.25 4.126 21.285C4.143 21.319 4.16 21.358 4.177 21.401C4.20176 21.4336 4.22351 21.4684 4.242 21.505C4.259 21.539 4.28 21.557 4.306 21.557L4.422 21.233C4.517 21.233 4.577 21.238 4.602 21.246C4.629 21.246 4.646 21.251 4.654 21.259C4.67435 21.2684 4.69661 21.2728 4.719 21.272H4.899ZM14.739 22.384L14.675 22.423C14.675 22.432 14.662 22.427 14.636 22.41C14.6202 22.4017 14.6028 22.3973 14.585 22.397L14.675 22.501C14.668 22.5437 14.6637 22.5868 14.662 22.63C14.662 22.656 14.636 22.694 14.585 22.746L14.495 22.914C14.4608 22.9084 14.4265 22.9041 14.392 22.901C14.368 22.8846 14.3417 22.8718 14.314 22.863C14.306 22.863 14.306 22.867 14.314 22.875C14.323 22.875 14.323 22.88 14.314 22.888L14.198 22.837C14.215 22.819 14.207 22.802 14.172 22.785C14.1376 22.7677 14.1033 22.7504 14.069 22.733C14.038 22.7175 14.0079 22.7002 13.979 22.681C13.962 22.656 13.945 22.647 13.927 22.656L13.967 22.901L14.198 23.005L14.159 23.121C14.169 23.104 14.177 23.1 14.185 23.108C14.194 23.117 14.202 23.121 14.211 23.121C14.197 23.1449 14.1881 23.1715 14.185 23.199C14.134 23.294 14.091 23.341 14.056 23.341H14.069H13.966C13.915 23.341 13.884 23.345 13.876 23.354C13.867 23.363 13.863 23.41 13.863 23.496C13.8212 23.5375 13.7864 23.5854 13.76 23.638C13.7359 23.6867 13.7099 23.7344 13.682 23.781C13.6515 23.8307 13.6122 23.8744 13.566 23.91C13.4829 23.8009 13.388 23.7013 13.283 23.613C13.1773 23.5152 13.0821 23.4066 12.999 23.289C12.966 23.2333 12.9271 23.1813 12.883 23.134C12.8574 23.0999 12.8271 23.0696 12.793 23.044C12.7695 23.0113 12.7387 22.9846 12.703 22.966C12.6712 22.933 12.6411 22.8982 12.613 22.862C12.5942 22.7913 12.5536 22.7283 12.497 22.682C12.4436 22.6202 12.3705 22.5789 12.29 22.565C12.2156 22.4566 12.1245 22.3608 12.02 22.281C11.9276 22.2102 11.8373 22.1368 11.749 22.061L11.646 21.957C11.6127 21.9132 11.5783 21.8702 11.543 21.828C11.523 21.7773 11.5057 21.7255 11.491 21.673C11.4844 21.6412 11.4658 21.6133 11.439 21.595C11.4172 21.5756 11.3906 21.5625 11.362 21.557C11.3153 21.534 11.2679 21.5123 11.22 21.492C11.156 21.4024 11.0826 21.3199 11.001 21.246C10.9213 21.1659 10.8481 21.0796 10.782 20.988C10.7989 20.9236 10.7944 20.8555 10.769 20.794C10.753 20.73 10.7404 20.6653 10.731 20.6L10.653 20.82L10.498 20.548L10.408 20.393C10.408 20.479 10.404 20.578 10.395 20.69L10.37 21V21.415C10.3738 21.4643 10.3867 21.5124 10.408 21.557C10.4395 21.6139 10.4786 21.6664 10.524 21.713L10.55 22.23L10.434 22.463C10.3743 22.6364 10.3836 22.8262 10.46 22.993C10.503 23.079 10.554 23.157 10.615 23.226C10.616 23.2608 10.6116 23.2955 10.602 23.329V23.407C10.5908 23.4754 10.5865 23.5447 10.589 23.614C10.5108 23.6159 10.4328 23.6071 10.357 23.588C10.2849 23.5657 10.2114 23.5484 10.137 23.536H10.073C10.0486 23.5261 10.0223 23.5216 9.996 23.523L9.957 23.484C9.949 23.467 9.966 23.454 10.009 23.445C10.009 23.437 10.013 23.428 10.022 23.42C10.039 23.402 10.052 23.398 10.06 23.407C10.086 23.45 10.086 23.489 10.06 23.523C10.0267 23.5624 9.98137 23.5898 9.931 23.601C9.871 23.609 9.82 23.613 9.777 23.613L9.725 23.601C9.70318 23.6017 9.68159 23.6057 9.661 23.613C9.60075 23.6347 9.54411 23.6654 9.493 23.704L9.686 23.304C9.618 23.32 9.575 23.32 9.558 23.304C9.548 23.286 9.545 23.29 9.545 23.316C9.553 23.342 9.549 23.363 9.532 23.381C9.515 23.407 9.489 23.441 9.454 23.484C9.429 23.527 9.394 23.549 9.351 23.549H9.313C9.304 23.54 9.291 23.536 9.273 23.536H9.069C9.017 23.536 8.953 23.54 8.875 23.549V23.109C8.884 22.919 8.888 22.739 8.888 22.566C8.8961 22.4195 8.90044 22.2728 8.901 22.126L8.914 21.932C8.92403 21.8823 8.94157 21.8344 8.966 21.79C8.9862 21.7364 8.99473 21.6791 8.991 21.622C8.98787 21.5376 8.97028 21.4544 8.939 21.376C8.939 21.351 8.935 21.333 8.927 21.325C8.927 21.075 8.931 20.833 8.94 20.601L8.966 19.876C9.00852 19.7823 9.01282 19.6758 8.978 19.579C8.95328 19.4819 8.94052 19.3822 8.94 19.282C8.94 19.212 8.961 19.161 9.004 19.127C9.02905 19.1073 9.04831 19.0812 9.05975 19.0514C9.07119 19.0217 9.07438 18.9894 9.069 18.958C9.07058 18.924 9.06438 18.8902 9.05086 18.859C9.03734 18.8278 9.01686 18.8001 8.991 18.778C8.94553 18.7314 8.90652 18.679 8.875 18.622V18.105L9.12 18.015C9.077 17.989 9.056 17.967 9.056 17.95C9.056 17.924 9.051 17.88 9.043 17.82H8.966C8.923 17.777 8.88 17.756 8.836 17.756C8.79638 17.7574 8.75736 17.7662 8.721 17.782L8.669 17.678L8.824 17.575V17.535C8.832 17.527 8.837 17.515 8.837 17.497V17.484L8.798 17.432C8.82733 17.4053 8.8532 17.3751 8.875 17.342C8.884 17.325 8.884 17.29 8.875 17.238C8.841 17.144 8.867 17.053 8.953 16.967L8.901 16.282C8.89205 16.0531 8.87905 15.8244 8.862 15.596L8.952 15.557L8.927 15.467V15.441L9.056 15.454L9.043 15.493L8.927 15.454L8.953 15.402L8.978 15.351L8.991 15.311C8.983 15.321 8.974 15.321 8.966 15.311L8.94 15.299L8.927 15.273C8.901 15.247 8.893 15.213 8.901 15.17L9.043 15.105L9.004 15.066C8.996 14.946 8.935 14.872 8.824 14.846C8.807 14.829 8.798 14.816 8.798 14.807L8.901 14.756L8.914 14.795L8.798 14.82C8.79033 14.7573 8.80407 14.6939 8.837 14.64L8.862 14.614C8.87092 14.5755 8.87092 14.5355 8.862 14.497C8.957 14.497 9.042 14.502 9.12 14.51C9.198 14.51 9.28 14.527 9.365 14.562L9.495 14.614C9.537 14.622 9.619 14.622 9.739 14.614C9.85278 14.5441 9.98039 14.4997 10.113 14.484C10.2672 14.4669 10.4228 14.4669 10.577 14.484C10.56 14.544 10.542 14.609 10.525 14.678C10.5074 14.7416 10.4947 14.8065 10.487 14.872C10.4781 14.945 10.4738 15.0185 10.474 15.092C10.457 15.109 10.452 15.157 10.461 15.234C10.4642 15.2783 10.4729 15.3219 10.487 15.364V15.377L10.5 15.389C10.457 15.415 10.444 15.454 10.46 15.506C10.487 15.549 10.487 15.588 10.46 15.622V15.635H10.448C10.425 15.6798 10.3992 15.7232 10.371 15.765C10.3479 15.7995 10.3344 15.8395 10.332 15.881C10.3339 15.9805 10.3703 16.0763 10.435 16.152C10.4512 16.2305 10.4421 16.3121 10.409 16.385C10.375 16.471 10.349 16.549 10.332 16.618C10.3524 16.6581 10.3614 16.7031 10.358 16.748C10.366 16.808 10.375 16.855 10.384 16.889L10.371 16.902H10.345L10.409 16.954C10.409 16.971 10.405 17.027 10.396 17.122C10.396 17.208 10.392 17.295 10.384 17.381L11.002 16.721C11.045 16.6751 11.0981 16.6399 11.157 16.618C11.217 16.601 11.282 16.583 11.35 16.566C11.376 16.566 11.393 16.557 11.402 16.54C11.41 16.523 11.406 16.48 11.389 16.41C11.495 16.3479 11.5869 16.2645 11.659 16.165C11.754 16.053 11.836 15.954 11.905 15.868C12.008 15.748 12.124 15.631 12.253 15.518C12.382 15.398 12.519 15.298 12.665 15.221C12.717 15.152 12.76 15.126 12.795 15.144C12.8393 15.1565 12.8822 15.1736 12.923 15.195C12.94 15.204 12.949 15.204 12.949 15.195C12.9603 15.1848 12.9731 15.1763 12.987 15.17H12.975C12.9551 15.1189 12.9377 15.0668 12.923 15.014C12.906 14.945 12.919 14.889 12.962 14.846L13.658 14.148L14.689 15.144C14.629 15.195 14.543 15.273 14.431 15.376L14.109 15.7C14.0094 15.8077 13.9146 15.9199 13.825 16.036C13.7616 16.1079 13.7057 16.1859 13.658 16.269C13.6248 16.3003 13.5904 16.3303 13.555 16.359C13.507 16.4065 13.4552 16.45 13.4 16.489L13.245 16.618C13.194 16.661 13.155 16.691 13.129 16.708C13.043 16.682 13.018 16.613 13.052 16.501C12.9985 16.5994 12.9469 16.6987 12.897 16.799C12.8445 16.8955 12.7888 16.9902 12.73 17.083V17.096C12.73 17.114 12.717 17.139 12.69 17.174C12.6606 17.2132 12.6306 17.2518 12.6 17.29L12.498 17.394L12.446 17.445C12.381 17.5114 12.3069 17.5683 12.226 17.614C12.15 17.648 12.089 17.644 12.046 17.601L12.008 17.717C11.9926 17.7963 11.9709 17.8742 11.943 17.95C11.9299 17.9861 11.9128 18.0207 11.892 18.053C11.794 18.1055 11.7065 18.1757 11.634 18.26L11.402 18.493C11.3224 18.5728 11.2407 18.6505 11.157 18.726C11.0733 18.8017 10.9772 18.8626 10.873 18.906C10.908 18.941 10.955 18.984 11.015 19.036C11.084 19.088 11.148 19.139 11.209 19.191C11.277 19.243 11.333 19.291 11.376 19.333C11.428 19.368 11.462 19.389 11.479 19.398C11.634 19.605 11.724 19.738 11.749 19.798L11.814 19.748L12.021 19.889C12.0401 19.9542 12.0705 20.0155 12.111 20.07C12.162 20.14 12.201 20.195 12.227 20.239C12.261 20.229 12.283 20.239 12.291 20.264C12.3 20.29 12.287 20.316 12.253 20.342C12.236 20.359 12.201 20.368 12.15 20.368C12.1148 20.3654 12.0795 20.3698 12.046 20.381C12.021 20.389 12.008 20.411 12.008 20.445C12.008 20.471 12.012 20.497 12.021 20.523C12.0358 20.5463 12.0529 20.568 12.072 20.588C12.089 20.605 12.107 20.605 12.124 20.588C12.1347 20.5761 12.1434 20.5626 12.15 20.548L12.227 20.471C12.2419 20.4557 12.2591 20.4429 12.278 20.433C12.3101 20.4162 12.3458 20.4073 12.382 20.407C12.424 20.415 12.459 20.437 12.485 20.471L12.588 20.549L12.833 20.588C12.884 20.596 12.945 20.657 13.013 20.768C13.039 20.812 13.069 20.872 13.103 20.95C13.138 21.027 13.176 21.079 13.22 21.105C13.2459 21.1501 13.2674 21.1977 13.284 21.247C13.318 21.307 13.344 21.351 13.361 21.377C13.378 21.394 13.404 21.407 13.439 21.415C13.473 21.415 13.537 21.42 13.632 21.428C13.666 21.471 13.701 21.51 13.735 21.545L13.851 21.661C13.851 21.678 13.864 21.695 13.89 21.713C13.9181 21.7259 13.9441 21.7431 13.967 21.764L14.006 21.804C14.0166 21.8153 14.0253 21.8281 14.032 21.842C14.074 21.997 14.148 22.092 14.251 22.126C14.354 22.161 14.47 22.196 14.599 22.23C14.625 22.264 14.646 22.295 14.663 22.32C14.6911 22.339 14.7172 22.3608 14.741 22.385L14.739 22.384ZM21.754 23.018C21.772 23.035 21.728 23.108 21.625 23.238C21.5149 23.3839 21.3899 23.518 21.252 23.638C21.1168 23.7665 20.9746 23.8873 20.826 24C20.697 24.095 20.62 24.138 20.594 24.13L20.284 24.078C20.2212 23.9906 20.1568 23.9042 20.091 23.819C20.0628 23.7776 20.0371 23.7345 20.014 23.69C19.9842 23.6515 19.9495 23.6168 19.911 23.587C19.835 23.5074 19.7616 23.4254 19.691 23.341L19.679 23.108L19.499 22.733C19.499 22.785 19.473 22.828 19.421 22.863C19.37 22.906 19.331 22.914 19.305 22.888C19.1782 22.8024 19.0614 22.7028 18.957 22.591C18.8638 22.4893 18.7776 22.3814 18.699 22.268L18.467 21.931C18.3849 21.8129 18.2947 21.7006 18.197 21.595C18.1235 21.513 18.0414 21.4393 17.952 21.375C17.8728 21.4463 17.7954 21.5196 17.72 21.595L17.513 21.776C17.47 21.7638 17.4303 21.7419 17.397 21.712C17.3673 21.6805 17.3414 21.6456 17.32 21.608L17.294 21.544C17.277 21.526 17.268 21.514 17.268 21.504C17.268 21.487 17.26 21.47 17.243 21.453L17.255 22.488C17.2453 22.5579 17.2189 22.6244 17.178 22.682C17.1368 22.7618 17.1149 22.8502 17.114 22.94C17.114 23.01 17.127 23.056 17.152 23.082C17.187 23.108 17.225 23.142 17.268 23.186L17.32 23.238C17.3428 23.2645 17.3605 23.295 17.372 23.328L17.294 23.742C17.1821 23.7473 17.0704 23.756 16.959 23.768H16.779C16.7296 23.757 16.6818 23.7395 16.637 23.716C16.5559 23.6762 16.4742 23.6375 16.392 23.6L16.224 23.729H15.929C15.86 23.798 15.809 23.828 15.774 23.819C15.7143 23.8052 15.6542 23.7925 15.594 23.781C15.594 23.471 15.606 23.169 15.632 22.876C15.658 22.574 15.692 22.272 15.735 21.97C15.778 21.962 15.791 21.949 15.775 21.932C15.7661 21.9069 15.7614 21.8806 15.761 21.854L15.71 21.724C15.7014 21.6815 15.6971 21.6383 15.697 21.595V20.729C15.705 20.444 15.71 20.156 15.71 19.863C15.804 19.819 15.851 19.776 15.851 19.733C15.861 19.69 15.864 19.621 15.864 19.526C15.864 19.466 15.847 19.371 15.813 19.242C15.778 19.112 15.735 19.031 15.683 18.996L15.671 16.255H15.723V16.229C15.748 16.159 15.77 16.082 15.787 15.996C15.8026 15.9127 15.8431 15.836 15.903 15.776L15.993 15.492L15.864 15.246L15.8 14.044L16.006 14.082C16.109 14.169 16.256 14.285 16.444 14.432C16.634 14.578 16.827 14.729 17.024 14.884C17.231 15.039 17.42 15.186 17.592 15.324C17.772 15.453 17.897 15.544 17.965 15.595L17.978 15.582L18.03 15.634C18.047 15.643 18.056 15.656 18.056 15.673L18.404 16.1L18.79 16.255L19.358 16.811C19.461 16.871 19.547 16.944 19.616 17.031C19.693 17.108 19.77 17.191 19.848 17.276C19.916 17.363 19.994 17.444 20.08 17.522C20.174 17.6 20.299 17.664 20.453 17.716L20.26 18.078C20.294 18.069 20.337 18.057 20.389 18.039C20.4465 18.0138 20.507 17.9963 20.569 17.987C20.619 17.9708 20.6721 17.9667 20.724 17.975C20.7471 17.9772 20.7687 17.9874 20.7852 18.0038C20.8016 18.0203 20.8118 18.0419 20.814 18.065C20.884 18.108 20.922 18.143 20.93 18.169C20.948 18.186 21 18.199 21.085 18.207L21.278 18.44L21.098 18.737L20.608 19.138L20.028 19.63C19.9704 19.6413 19.9168 19.6679 19.873 19.707L19.706 19.875L19.422 20.16C19.3222 20.2505 19.2188 20.3369 19.112 20.419L19.319 20.651C19.388 20.721 19.439 20.785 19.474 20.845C19.508 20.905 19.547 20.979 19.59 21.065L20.054 21.415L19.577 21.569C19.62 21.647 19.659 21.699 19.693 21.725C19.727 21.742 19.757 21.746 19.783 21.737C19.8107 21.7183 19.8365 21.6968 19.86 21.673C19.895 21.647 19.933 21.621 19.976 21.595C20.0179 21.5822 20.0624 21.5803 20.1052 21.5894C20.1481 21.5985 20.1879 21.6183 20.221 21.647C20.273 21.69 20.337 21.759 20.415 21.854C20.501 21.949 20.578 21.992 20.647 21.984L20.892 22.345C20.909 22.423 20.952 22.5 21.021 22.578L21.214 22.772C21.2817 22.8402 21.3601 22.897 21.446 22.94C21.54 22.975 21.644 23 21.756 23.018H21.754ZM19.266 18.556C19.1592 18.5048 19.0596 18.4395 18.97 18.362C18.8809 18.2858 18.8214 18.1806 18.802 18.065H18.738C18.5734 17.9087 18.3965 17.7659 18.209 17.638C18.0193 17.5082 17.8535 17.3465 17.719 17.16C17.6226 17.0375 17.5099 16.9289 17.384 16.837C17.2619 16.7407 17.1457 16.6372 17.036 16.527V16.578C17.0815 16.6337 17.1204 16.6944 17.152 16.759C17.1835 16.8115 17.2012 16.8711 17.2035 16.9323C17.2058 16.9935 17.1925 17.0543 17.165 17.109C17.139 17.159 17.092 17.159 17.023 17.109V17.173C17.0241 17.2192 17.0379 17.2642 17.063 17.303C17.088 17.337 17.113 17.375 17.139 17.419C17.174 17.462 17.199 17.509 17.217 17.561C17.2436 17.6082 17.2567 17.6618 17.255 17.716C17.2572 17.7597 17.2532 17.8035 17.243 17.846L17.127 17.832C17.127 17.815 17.105 17.806 17.062 17.806C17.0187 17.8063 16.9755 17.8023 16.933 17.794H16.843C16.8182 17.7855 16.7922 17.7811 16.766 17.781C16.783 17.807 16.813 17.845 16.856 17.897C16.9466 17.9883 17.0286 18.0877 17.101 18.194C17.135 18.238 17.152 18.272 17.152 18.298V19.798C17.161 19.953 17.165 20.121 17.165 20.302L17.23 20.186C17.2658 20.1197 17.3046 20.055 17.346 19.992C17.38 19.932 17.406 19.892 17.423 19.875C17.4411 19.8664 17.4609 19.862 17.481 19.862C17.5011 19.862 17.5209 19.8664 17.539 19.875C17.5847 19.8847 17.6283 19.9023 17.668 19.927C17.72 19.953 17.767 19.975 17.81 19.992C17.8576 20.001 17.9068 19.9965 17.952 19.979C17.9609 19.9321 17.9609 19.8839 17.952 19.837C17.952 19.75 17.947 19.686 17.939 19.643V19.591C17.939 19.582 17.947 19.578 17.965 19.578C17.9784 19.5797 17.9913 19.5841 18.003 19.591V19.565C18.012 19.556 18.016 19.548 18.016 19.539C18.016 19.531 18.02 19.526 18.029 19.526C18.158 19.457 18.283 19.384 18.403 19.306C18.5145 19.2347 18.622 19.1572 18.725 19.074C18.82 18.996 18.897 18.923 18.957 18.854C19.0105 18.7926 19.0422 18.7153 19.047 18.634L19.266 18.556ZM30.352 18.944L29.901 19.784L29.836 19.694L29.81 19.72L29.656 19.526C29.5828 19.8833 29.4567 20.2278 29.282 20.548C29.102 20.876 28.895 21.194 28.663 21.505C28.431 21.815 28.186 22.121 27.929 22.423C27.679 22.716 27.447 23.001 27.232 23.276L27.155 23.25C27.035 23.57 26.859 23.85 26.626 24.091L26.278 24.078L26.175 23.794L26.021 24.052L25.028 22.642C24.71 22.177 24.388 21.699 24.061 21.207L24.164 21.13L24.332 21.169L24.345 21.117C24.3465 21.0904 24.342 21.0637 24.332 21.039C24.3303 21.0074 24.3214 20.9766 24.306 20.949L23.816 20.871C23.757 20.8034 23.7054 20.7296 23.662 20.651L23.532 20.419C23.4603 20.3914 23.3916 20.3565 23.327 20.315C23.2453 20.2604 23.1674 20.2003 23.094 20.135C23.019 20.0678 22.946 19.9984 22.875 19.927C22.8258 19.864 22.7788 19.7993 22.734 19.733L22.746 19.513L22.734 19.255C22.6487 19.3367 22.5406 19.3908 22.424 19.41L22.154 19.06L22.373 18.815C22.398 18.815 22.407 18.806 22.398 18.789C22.39 18.7721 22.3766 18.7584 22.36 18.75C22.575 18.475 22.798 18.19 23.03 17.897C23.27 17.604 23.55 17.397 23.868 17.277L23.816 17.237L23.726 17.044C23.941 16.768 24.147 16.488 24.345 16.203C24.542 15.91 24.735 15.613 24.925 15.311L25.195 15.259L25.312 14.909C25.439 14.7998 25.5555 14.6789 25.66 14.548C25.771 14.418 25.887 14.289 26.008 14.16H26.059C26.137 14.16 26.197 14.19 26.239 14.25L26.266 14.16H26.549C26.729 14.358 26.91 14.574 27.091 14.806C27.271 15.031 27.447 15.263 27.619 15.505C27.791 15.746 27.949 15.992 28.096 16.242C28.251 16.492 28.384 16.733 28.496 16.966C28.4461 16.983 28.3937 16.9918 28.341 16.992C28.2941 16.9838 28.2466 16.9794 28.199 16.979C28.191 16.979 28.186 16.996 28.186 17.031C28.1861 17.0743 28.1904 17.1175 28.199 17.16C28.208 17.194 28.216 17.233 28.225 17.276L28.754 17.186C28.822 17.246 28.857 17.319 28.857 17.406C28.857 17.483 28.878 17.561 28.921 17.638C29.0197 17.6579 29.1098 17.7079 29.179 17.781C29.3861 17.9384 29.5538 18.1418 29.669 18.375C29.729 18.488 29.755 18.574 29.746 18.635L30.03 18.815C30.133 18.875 30.24 18.919 30.352 18.945V18.944ZM28.509 19.242L28.329 19.255C28.259 19.203 28.246 19.151 28.289 19.1V18.996H28.264C28.1957 18.8587 28.1136 18.7287 28.019 18.608C27.9247 18.4878 27.8256 18.3713 27.722 18.259C27.6207 18.1406 27.5173 18.0239 27.412 17.909C27.3186 17.7898 27.2328 17.6649 27.155 17.535C27.1079 17.4572 27.069 17.3748 27.039 17.289C27.004 17.1929 26.9653 17.0981 26.923 17.005C26.8817 16.9129 26.8297 16.8259 26.768 16.746C26.7201 16.6713 26.647 16.6163 26.562 16.591C26.486 16.4981 26.4126 16.4031 26.342 16.306C26.2757 16.2056 26.2074 16.1066 26.137 16.009C26.0084 16.1906 25.9001 16.3858 25.814 16.591C25.737 16.781 25.604 16.961 25.414 17.134H25.208L25.286 17.264L25.221 17.47L25.183 17.406C25.166 17.406 25.161 17.423 25.17 17.457C25.1765 17.4737 25.1809 17.4912 25.183 17.509C25.183 17.526 25.166 17.535 25.131 17.535C25.1105 17.5274 25.0889 17.523 25.067 17.522C25.0451 17.5217 25.0236 17.517 25.0036 17.508C24.9837 17.4991 24.9658 17.4861 24.951 17.47C24.9295 17.4401 24.9031 17.4141 24.873 17.393L24.925 17.573C24.9425 17.6365 24.9513 17.7021 24.951 17.768C24.9525 17.8071 24.9452 17.8459 24.9296 17.8818C24.9141 17.9176 24.8906 17.9495 24.861 17.975C24.801 18.026 24.731 18.078 24.654 18.13C24.5812 18.1851 24.5123 18.2452 24.448 18.31C24.3818 18.3953 24.3456 18.5 24.345 18.608L23.945 18.958C23.98 18.983 24.031 19.026 24.1 19.087C24.177 19.147 24.25 19.216 24.32 19.294C24.396 19.363 24.46 19.431 24.512 19.5C24.564 19.57 24.59 19.625 24.59 19.669C24.607 19.824 24.654 19.979 24.732 20.134C24.8107 20.2745 24.9391 20.3804 25.092 20.431C25.144 20.509 25.208 20.617 25.286 20.755C25.372 20.885 25.462 21.018 25.556 21.155C25.651 21.294 25.746 21.419 25.84 21.531C25.935 21.643 26.02 21.707 26.098 21.725L26.085 21.841C26.085 21.91 26.107 21.949 26.15 21.957C26.2023 21.9661 26.2538 21.9795 26.304 21.997C26.462 21.7536 26.6343 21.5199 26.82 21.297C27.0041 21.0679 27.1722 20.8263 27.323 20.574L28.161 20.302C28.1195 20.2772 28.076 20.2558 28.031 20.238C27.9957 20.2114 27.957 20.1895 27.916 20.173L27.929 20.134C27.929 20.117 27.919 20.113 27.903 20.121C27.8911 20.128 27.8778 20.1325 27.864 20.134L27.812 20.108C27.8228 20.0242 27.8537 19.9443 27.902 19.875C27.9546 19.7879 28.0152 19.7058 28.083 19.63C28.2185 19.4937 28.3607 19.3642 28.509 19.242ZM37.17 18.414L37.003 18.699L36.513 19.099L35.92 19.604C35.82 19.628 35.7242 19.6671 35.636 19.72C35.507 19.79 35.356 19.88 35.185 19.992C35.022 20.104 34.845 20.233 34.656 20.38C34.467 20.518 34.283 20.66 34.102 20.807C33.93 20.944 33.767 21.078 33.612 21.207C33.458 21.337 33.333 21.449 33.239 21.544C33.165 21.5267 33.0873 21.5356 33.019 21.569C32.9469 21.5934 32.8738 21.6151 32.8 21.634C32.809 21.832 32.817 21.979 32.826 22.074C32.843 22.16 32.852 22.229 32.852 22.281C32.8605 22.3329 32.856 22.3862 32.839 22.436C32.8196 22.5114 32.7938 22.585 32.762 22.656C32.7216 22.7315 32.6994 22.8154 32.697 22.901C32.697 22.971 32.71 23.022 32.736 23.056L32.839 23.16C32.8882 23.1927 32.9281 23.2374 32.955 23.29L32.878 23.703C32.7658 23.7083 32.6537 23.7169 32.542 23.729H32.362C32.3126 23.718 32.2648 23.7005 32.22 23.677C32.1389 23.6372 32.0572 23.5985 31.975 23.561L31.808 23.691H31.511C31.442 23.759 31.391 23.789 31.356 23.781C31.2963 23.7665 31.2363 23.7531 31.176 23.741C31.176 23.431 31.189 23.13 31.215 22.837C31.241 22.544 31.275 22.242 31.318 21.932C31.361 21.922 31.374 21.91 31.356 21.892C31.3464 21.8675 31.3423 21.8412 31.344 21.815L31.292 21.685C31.2835 21.6429 31.2792 21.6 31.279 21.557C31.279 21.013 31.288 20.483 31.305 19.966C31.322 19.449 31.326 18.914 31.318 18.362C31.412 18.319 31.464 18.276 31.472 18.233C31.482 18.181 31.485 18.113 31.485 18.026C31.485 17.966 31.468 17.871 31.434 17.742C31.4 17.612 31.356 17.526 31.305 17.483L31.253 16.216H31.305V16.203C31.33 16.1362 31.3471 16.0668 31.356 15.996C31.3735 15.9262 31.404 15.8604 31.446 15.802L31.215 15.672L31.447 15.182L31.382 14.005L31.588 14.044C31.718 14.156 31.868 14.276 32.04 14.406C32.22 14.526 32.38 14.634 32.517 14.729L32.749 14.884L32.787 14.845L33.2 15.363L33.587 15.518L34.94 16.785C35.052 16.854 35.16 16.927 35.262 17.005L35.572 17.238C35.683 17.324 35.799 17.406 35.92 17.483C36.049 17.561 36.19 17.625 36.345 17.677L36.152 18.039C36.1961 18.0371 36.2396 18.0283 36.281 18.013C36.3385 17.9881 36.399 17.971 36.461 17.962C36.5109 17.9454 36.564 17.941 36.616 17.949C36.6391 17.9512 36.6607 17.9614 36.6772 17.9778C36.6936 17.9943 36.7038 18.0159 36.706 18.039C36.75 18.0614 36.7893 18.092 36.822 18.129C36.839 18.147 36.891 18.164 36.977 18.181L37.17 18.414ZM34.85 18.531C34.7428 18.4799 34.6429 18.4146 34.553 18.337C34.4641 18.2604 34.405 18.1549 34.386 18.039H34.321C34.2235 17.9506 34.1203 17.8688 34.012 17.794C33.8992 17.7157 33.7831 17.6423 33.664 17.574L33.329 17.341C33.2321 17.2613 33.1454 17.17 33.071 17.069C33.0004 16.9723 32.927 16.8776 32.851 16.785C32.7792 16.6859 32.7021 16.5907 32.62 16.5C32.603 16.518 32.603 16.535 32.62 16.552C32.6655 16.6077 32.7045 16.6684 32.736 16.733C32.77 16.793 32.787 16.85 32.787 16.901C32.7839 16.9452 32.7756 16.9888 32.762 17.031C32.7538 17.0796 32.7404 17.1272 32.722 17.173C32.7067 17.2137 32.6804 17.2494 32.646 17.276C32.611 17.302 32.576 17.302 32.542 17.276C32.542 17.285 32.555 17.298 32.582 17.316C32.607 17.324 32.62 17.336 32.62 17.354C32.62 17.397 32.628 17.427 32.646 17.444L32.723 17.496C32.757 17.505 32.783 17.522 32.8 17.548C32.826 17.574 32.839 17.617 32.839 17.678C32.842 17.7211 32.8376 17.7644 32.826 17.806L32.762 17.781C32.762 17.789 32.766 17.802 32.775 17.819C32.783 17.828 32.787 17.837 32.787 17.845C32.7372 17.8852 32.6901 17.9286 32.646 17.975C32.601 18.0239 32.5657 18.0809 32.542 18.143C32.5199 18.1725 32.4986 18.2025 32.478 18.233L32.426 18.311C32.4179 18.3492 32.4136 18.388 32.413 18.427V18.453C32.413 18.444 32.426 18.432 32.453 18.414C32.478 18.388 32.491 18.371 32.491 18.362C32.534 18.337 32.551 18.315 32.542 18.298C32.534 18.272 32.551 18.246 32.594 18.22C32.637 18.186 32.671 18.177 32.697 18.194C32.723 18.203 32.736 18.229 32.736 18.272V20.276L32.813 20.147C32.8508 20.0861 32.8894 20.0258 32.929 19.966C32.964 19.906 32.989 19.866 33.007 19.85C33.092 19.798 33.226 19.725 33.407 19.63C33.587 19.526 33.767 19.419 33.947 19.307C34.128 19.186 34.287 19.065 34.424 18.944C34.562 18.815 34.631 18.699 34.631 18.595L34.85 18.531ZM45.773 18.944L45.322 19.784L45.257 19.694L45.232 19.72L45.077 19.526C45.0037 19.8833 44.8777 20.2278 44.703 20.548C44.523 20.876 44.316 21.194 44.084 21.505C43.852 21.815 43.607 22.121 43.349 22.423C43.1 22.716 42.869 23.001 42.653 23.276L42.576 23.25C42.456 23.57 42.28 23.85 42.048 24.091L41.699 24.078L41.596 23.794L41.442 24.052L40.449 22.642C40.131 22.177 39.809 21.699 39.482 21.207L39.586 21.13L39.753 21.169L39.766 21.117C39.7675 21.0904 39.763 21.0637 39.753 21.039C39.7512 21.0074 39.7423 20.9767 39.727 20.949L39.237 20.871C39.178 20.8033 39.1264 20.7296 39.083 20.651C39.0397 20.5736 38.9964 20.4963 38.953 20.419C38.8813 20.3914 38.8126 20.3565 38.748 20.315C38.6663 20.2604 38.5884 20.2003 38.515 20.135C38.44 20.0678 38.367 19.9984 38.296 19.927C38.2468 19.864 38.1997 19.7993 38.155 19.733L38.168 19.513L38.155 19.255C38.0696 19.3367 37.9616 19.3907 37.845 19.41L37.575 19.06L37.794 18.815C37.819 18.815 37.828 18.806 37.819 18.789C37.811 18.7721 37.7976 18.7584 37.781 18.75C37.996 18.475 38.219 18.19 38.451 17.897C38.691 17.604 38.971 17.397 39.289 17.277L39.237 17.237L39.147 17.044C39.362 16.768 39.568 16.488 39.766 16.203C39.964 15.91 40.156 15.613 40.346 15.311L40.616 15.259L40.733 14.909C40.8597 14.7995 40.9762 14.6786 41.081 14.548C41.192 14.418 41.308 14.289 41.429 14.16H41.48C41.558 14.16 41.618 14.19 41.66 14.25L41.687 14.16H41.97C42.15 14.358 42.331 14.574 42.512 14.806C42.692 15.031 42.868 15.263 43.04 15.505C43.212 15.746 43.371 15.992 43.517 16.242C43.672 16.492 43.805 16.733 43.917 16.966C43.8671 16.983 43.8147 16.9918 43.762 16.992C43.7151 16.9838 43.6676 16.9794 43.62 16.979C43.612 16.979 43.607 16.996 43.607 17.031C43.6071 17.0743 43.6114 17.1175 43.62 17.16C43.629 17.194 43.637 17.233 43.646 17.276L44.175 17.186C44.243 17.246 44.278 17.319 44.278 17.406C44.278 17.483 44.299 17.561 44.342 17.638C44.4407 17.6578 44.5308 17.7078 44.6 17.781C44.703 17.858 44.798 17.949 44.884 18.052C44.969 18.156 45.038 18.263 45.09 18.375C45.15 18.488 45.176 18.574 45.167 18.635L45.451 18.815C45.554 18.875 45.661 18.919 45.773 18.945V18.944ZM43.93 19.242L43.75 19.255C43.68 19.203 43.668 19.151 43.71 19.1V18.996H43.685C43.6166 18.8587 43.5345 18.7287 43.44 18.608C43.3457 18.4878 43.2466 18.3714 43.143 18.259C43.0418 18.1405 42.9384 18.0238 42.833 17.909C42.7396 17.7898 42.6538 17.6649 42.576 17.535C42.5288 17.4573 42.4899 17.3748 42.46 17.289C42.425 17.1929 42.3863 17.0981 42.344 17.005C42.3027 16.9129 42.2507 16.8259 42.189 16.746C42.1411 16.6713 42.068 16.6163 41.983 16.591C41.9073 16.4981 41.8343 16.403 41.764 16.306C41.6974 16.2056 41.6287 16.1066 41.558 16.009C41.4297 16.1907 41.3218 16.3858 41.236 16.591C41.158 16.781 41.025 16.961 40.836 17.134H40.63L40.707 17.264L40.642 17.47L40.604 17.406C40.587 17.406 40.582 17.423 40.591 17.457C40.5975 17.4737 40.6019 17.4912 40.604 17.509C40.604 17.526 40.587 17.535 40.552 17.535C40.5315 17.5274 40.5099 17.523 40.488 17.522C40.4661 17.5217 40.4446 17.517 40.4246 17.508C40.4047 17.4991 40.3868 17.4861 40.372 17.47C40.3505 17.4401 40.3241 17.4141 40.294 17.393L40.346 17.573C40.3635 17.6365 40.3723 17.7021 40.372 17.768C40.3735 17.8071 40.3662 17.8459 40.3506 17.8818C40.3351 17.9176 40.3116 17.9495 40.282 17.975C40.222 18.026 40.152 18.078 40.075 18.13C40.0022 18.1851 39.9333 18.2452 39.869 18.31C39.8028 18.3953 39.7666 18.5 39.766 18.608L39.366 18.958C39.401 18.983 39.452 19.026 39.521 19.087C39.598 19.147 39.671 19.216 39.741 19.294C39.818 19.363 39.881 19.431 39.934 19.5C39.985 19.57 40.011 19.625 40.011 19.669C40.028 19.824 40.075 19.979 40.153 20.134C40.2318 20.2744 40.3602 20.3803 40.513 20.431C40.565 20.509 40.63 20.617 40.707 20.755C40.793 20.885 40.883 21.018 40.977 21.155C41.072 21.294 41.167 21.419 41.261 21.531C41.356 21.643 41.441 21.707 41.519 21.725L41.506 21.841C41.506 21.91 41.528 21.949 41.571 21.957C41.6233 21.9661 41.6748 21.9795 41.725 21.997C41.889 21.747 42.061 21.513 42.241 21.297C42.4251 21.0679 42.5932 20.8263 42.744 20.574L43.582 20.302C43.5404 20.2772 43.497 20.2558 43.452 20.238C43.4167 20.2114 43.378 20.1895 43.337 20.173L43.349 20.134C43.349 20.117 43.341 20.113 43.324 20.121C43.3121 20.1281 43.2988 20.1325 43.285 20.134L43.233 20.108C43.2438 20.0242 43.2747 19.9443 43.323 19.875C43.3756 19.7879 43.4362 19.7059 43.504 19.63C43.6391 19.4933 43.7813 19.3638 43.93 19.242ZM51.663 23.237C51.6808 23.2826 51.6896 23.3311 51.689 23.38C51.697 23.427 51.697 23.475 51.689 23.522C51.6808 23.5722 51.6631 23.6204 51.637 23.664C51.3548 23.6316 51.0711 23.6142 50.787 23.612C50.6021 23.6051 50.417 23.6011 50.232 23.6C50.1702 23.6019 50.1093 23.6148 50.052 23.638C49.9908 23.6559 49.9367 23.6922 49.897 23.742C49.8164 23.7588 49.7343 23.7675 49.652 23.768H49.446C49.4101 23.7451 49.371 23.7276 49.33 23.716C49.2958 23.6905 49.2655 23.6602 49.24 23.626C49.21 23.5957 49.18 23.5653 49.15 23.535C49.1416 23.5222 49.1299 23.5119 49.1162 23.505C49.1025 23.4982 49.0873 23.4951 49.072 23.496C48.969 23.496 48.909 23.505 48.892 23.522C48.8449 23.5562 48.8013 23.5951 48.762 23.638C48.6981 23.6495 48.6337 23.6582 48.569 23.664C48.5087 23.6703 48.4486 23.6789 48.389 23.69L48.209 23.535L47.847 23.638C47.813 23.612 47.804 23.595 47.821 23.587C47.839 23.569 47.831 23.557 47.796 23.547C47.779 23.557 47.779 23.547 47.796 23.522C47.8106 23.5032 47.8196 23.4807 47.822 23.457L47.809 23.38H47.744L47.718 23.328L47.693 23.25L47.615 23.238L47.628 23.6L47.512 23.625L47.422 23.535C47.396 23.5 47.366 23.483 47.332 23.483C47.3101 23.4833 47.2886 23.488 47.2686 23.497C47.2487 23.5059 47.2308 23.5189 47.216 23.535C47.19 23.561 47.16 23.595 47.126 23.638H46.932L46.777 23.651H46.61L46.777 23.471L46.726 23.431L46.752 23.419H46.739C46.739 23.409 46.734 23.406 46.726 23.406C46.717 23.406 46.713 23.401 46.713 23.393C46.731 23.3383 46.744 23.2821 46.752 23.225C46.768 23.1661 46.799 23.1123 46.842 23.069C46.8196 23.0287 46.789 22.9936 46.752 22.966C46.7353 22.9467 46.7231 22.924 46.7162 22.8995C46.7093 22.8749 46.7079 22.8492 46.712 22.824C46.7237 22.7288 46.7371 22.6338 46.752 22.539C46.7582 22.494 46.771 22.4502 46.79 22.409C46.7995 22.3759 46.8039 22.3415 46.803 22.307C46.803 22.263 46.807 22.177 46.816 22.047C46.8456 21.9948 46.8675 21.9385 46.881 21.88C46.8955 21.8207 46.9038 21.76 46.906 21.699C46.906 21.639 46.893 21.595 46.868 21.569C46.8557 21.5622 46.842 21.5581 46.828 21.557H47.009C47.069 21.557 47.099 21.544 47.099 21.517L46.893 21.44L46.919 21.388V21.337H46.868C46.842 21.337 46.825 21.315 46.816 21.272V20.872C46.8236 20.8029 46.828 20.7335 46.829 20.664C46.8376 20.6128 46.8419 20.5609 46.842 20.509C46.85 20.457 46.855 20.371 46.855 20.25C46.8988 20.1164 46.9034 19.9731 46.868 19.837C46.8362 19.6968 46.8188 19.5537 46.816 19.41C46.816 19.341 46.829 19.272 46.855 19.203C46.8816 19.1282 46.8944 19.0493 46.893 18.97C46.876 18.78 46.846 18.647 46.803 18.57V18.31C46.853 18.2795 46.9005 18.2451 46.945 18.207C46.997 18.164 47.035 18.134 47.061 18.117C47.0969 18.084 47.1257 18.044 47.1457 17.9994C47.1656 17.9549 47.1763 17.9068 47.177 17.858C47.1694 17.7596 47.1337 17.6656 47.074 17.587C47.0231 17.4875 46.9581 17.3959 46.881 17.315H46.855C46.85 17.3148 46.8451 17.3136 46.8406 17.3113C46.8361 17.3091 46.8321 17.3059 46.829 17.302V17.25C46.8288 16.9915 46.8202 16.733 46.803 16.475C46.7943 16.2161 46.7813 15.9574 46.764 15.699L46.842 15.647L46.829 15.557C46.8377 15.5437 46.8433 15.5287 46.8456 15.5129C46.8478 15.4972 46.8466 15.4812 46.842 15.466C46.8414 15.427 46.8371 15.3882 46.829 15.35L46.816 15.207V15.13L46.7 14.483L47.216 14.457C47.233 14.44 47.254 14.436 47.28 14.444C47.3046 14.4519 47.3269 14.4656 47.345 14.484C47.353 14.501 47.375 14.534 47.409 14.587L47.422 14.613H47.435L47.473 14.573L47.525 14.548C47.542 14.531 47.547 14.496 47.538 14.444L48.466 14.457C48.449 14.681 48.44 14.897 48.44 15.104C48.44 15.302 48.436 15.501 48.427 15.699L48.415 15.738C48.3844 15.7762 48.3544 15.8149 48.325 15.854C48.298 15.888 48.285 15.94 48.285 16.009C48.285 16.078 48.325 16.159 48.402 16.255L48.376 16.604L48.324 16.643L48.35 16.707C48.3589 16.7626 48.3589 16.8194 48.35 16.875C48.35 16.953 48.346 17.035 48.337 17.121C48.337 17.199 48.333 17.272 48.324 17.341C48.3208 17.3848 48.3252 17.4287 48.337 17.471C48.415 17.66 48.453 17.854 48.453 18.052C48.453 18.242 48.445 18.44 48.427 18.647C48.4296 18.6706 48.4386 18.6931 48.453 18.712C48.479 18.729 48.492 18.742 48.492 18.75C48.4769 18.766 48.4594 18.7795 48.44 18.79L48.389 18.815C48.372 18.85 48.333 18.88 48.273 18.905C48.221 18.923 48.187 18.923 48.169 18.905C48.169 18.915 48.182 18.931 48.209 18.957C48.2236 18.9727 48.2405 18.9862 48.259 18.997C48.277 19.013 48.303 19.013 48.337 18.997C48.372 18.97 48.397 18.962 48.415 18.97C48.4027 19.0207 48.3984 19.073 48.402 19.125V19.759C48.4114 19.819 48.4114 19.88 48.402 19.94L48.337 20.25L48.221 20.302L48.144 20.289V20.315C48.144 20.324 48.17 20.345 48.221 20.38L48.26 20.419C48.329 20.453 48.363 20.496 48.363 20.548C48.3715 20.5817 48.3759 20.6163 48.376 20.651C48.384 20.677 48.389 20.711 48.389 20.755C48.389 20.815 48.384 20.901 48.376 21.013V21.363C48.376 21.483 48.371 21.6 48.363 21.712V21.957C48.363 22.044 48.341 22.108 48.298 22.151C48.548 22.125 48.771 22.121 48.968 22.138C49.175 22.156 49.377 22.156 49.575 22.138C49.6159 22.163 49.6587 22.1847 49.703 22.203C49.7526 22.2168 49.8044 22.2205 49.8555 22.2138C49.9065 22.2071 49.9557 22.1902 50 22.164C50.0307 22.158 50.0608 22.1493 50.09 22.138C50.107 22.138 50.12 22.134 50.129 22.125H51.289C51.435 22.125 51.551 22.121 51.637 22.113C51.654 22.388 51.654 22.595 51.637 22.733C51.6235 22.8631 51.5693 22.9856 51.482 23.083L51.662 23.238L51.663 23.237ZM54.603 23.626L54.345 23.638H53.972C53.9367 23.6337 53.9021 23.625 53.869 23.612V23.638L53.675 23.625C53.6368 23.6338 53.5972 23.6338 53.559 23.625C53.5259 23.6032 53.4957 23.5773 53.469 23.548C53.46 23.539 53.456 23.531 53.456 23.522C53.456 23.513 53.452 23.505 53.443 23.496C53.374 23.496 53.297 23.548 53.211 23.651H53.121C53.109 23.6514 53.097 23.6493 53.0858 23.6448C53.0746 23.6404 53.0644 23.6336 53.056 23.625H53.031C53.022 23.617 52.991 23.613 52.941 23.613L52.991 23.548C52.958 23.565 52.941 23.548 52.941 23.496C52.971 23.4751 52.9971 23.449 53.018 23.419C53.052 23.375 53.065 23.349 53.056 23.341L52.889 23.082C52.9031 22.9705 52.9118 22.8584 52.915 22.746C52.9237 22.6903 52.9237 22.6337 52.915 22.578C52.9044 22.5223 52.8957 22.4663 52.889 22.41V22.06L53.031 21.893L53.16 21.492C53.134 21.518 53.112 21.531 53.095 21.531H53.018C52.9912 21.5251 52.965 21.5164 52.94 21.505C52.9337 21.4908 52.9253 21.4776 52.915 21.466C52.8803 21.2872 52.8669 21.1049 52.875 20.923C52.893 20.742 52.915 20.561 52.94 20.38L53.018 19.837C53.044 19.656 53.056 19.475 53.056 19.294C53.0563 19.1161 53.0392 18.9386 53.005 18.764C52.9783 18.575 52.9609 18.3847 52.953 18.194C53.039 18.151 53.091 18.104 53.108 18.052C53.1283 17.9761 53.137 17.8975 53.134 17.819C53.134 17.725 53.121 17.659 53.095 17.625C53.0599 17.5597 53.0115 17.5025 52.953 17.457C52.953 17.319 52.949 17.194 52.94 17.082C52.94 16.97 52.936 16.862 52.927 16.759C52.9273 16.6469 52.9233 16.5348 52.915 16.423C52.915 16.311 52.91 16.19 52.902 16.061C52.885 16.035 52.893 15.996 52.928 15.944L52.953 15.919C52.9866 15.8807 53.013 15.8367 53.031 15.789C52.9881 15.7005 52.9494 15.6101 52.915 15.518C52.872 15.397 52.863 15.298 52.889 15.22C52.8616 15.1539 52.8441 15.0842 52.837 15.013C52.8301 14.9431 52.8174 14.8738 52.799 14.806C52.799 14.763 52.777 14.716 52.734 14.664L52.928 14.457L54.474 14.444C54.466 14.669 54.461 14.88 54.461 15.078C54.4702 15.2677 54.4662 15.4578 54.449 15.647C54.4375 15.7024 54.4154 15.755 54.384 15.802C54.349 15.8532 54.323 15.91 54.307 15.97C54.324 16.013 54.341 16.052 54.358 16.087C54.375 16.121 54.393 16.16 54.41 16.203C54.436 16.238 54.44 16.289 54.423 16.358C54.406 16.428 54.393 16.496 54.384 16.565C54.3752 16.6347 54.3621 16.7038 54.345 16.772L54.435 16.837L54.358 16.966C54.384 16.983 54.406 17.018 54.423 17.069C54.4544 17.156 54.4673 17.2487 54.461 17.341C54.429 17.3333 54.3985 17.3201 54.371 17.302C54.3491 17.2948 54.3277 17.2861 54.307 17.276C54.2909 17.2676 54.2731 17.2631 54.255 17.263L54.475 17.613C54.457 17.673 54.445 17.763 54.435 17.884C54.427 18.004 54.423 18.091 54.423 18.143C54.423 18.306 54.427 18.492 54.436 18.699C54.444 18.906 54.449 19.109 54.449 19.306C54.457 19.513 54.457 19.712 54.449 19.901C54.44 20.091 54.419 20.251 54.384 20.38L54.487 21.078L54.242 20.819C54.2223 20.8821 54.2096 20.9471 54.204 21.013C54.204 21.039 54.212 21.056 54.229 21.065C54.2451 21.0734 54.2629 21.0779 54.281 21.078C54.307 21.069 54.328 21.074 54.345 21.091C54.405 21.134 54.435 21.199 54.435 21.285C54.445 21.354 54.445 21.453 54.435 21.582C54.435 21.703 54.461 21.785 54.513 21.828L54.436 22.268C54.3905 22.3462 54.3679 22.4356 54.371 22.526C54.38 22.63 54.384 22.72 54.384 22.798C54.3908 22.9968 54.4632 23.1877 54.59 23.341L54.603 23.625V23.626Z" fill="var(--fill-0, black)"/>
</g>
</svg>
