<svg preserveAspectRatio="none" width="100%" height="100%" overflow="visible" style="display: block;" viewBox="0 0 25 25" fill="none" xmlns="http://www.w3.org/2000/svg">
<g id="mOMvmtm0XcmfOgKwLByN9WrE.svg">
<path id="Vector" d="M17.7402 13.0527L9.92774 20.8652C9.85515 20.9378 9.76898 20.9954 9.67414 21.0347C9.5793 21.074 9.47765 21.0942 9.375 21.0942C9.27235 21.0942 9.1707 21.074 9.07586 21.0347C8.98102 20.9954 8.89485 20.9378 8.82227 20.8652C8.74968 20.7926 8.6921 20.7065 8.65282 20.6116C8.61353 20.5168 8.59332 20.4152 8.59332 20.3125C8.59332 20.2098 8.61353 20.1082 8.65282 20.0134C8.6921 19.9185 8.74968 19.8324 8.82227 19.7598L16.083 12.5L8.82227 5.24023C8.67567 5.09364 8.59332 4.89482 8.59332 4.6875C8.59332 4.48018 8.67567 4.28136 8.82227 4.13477C8.96886 3.98817 9.16768 3.90582 9.375 3.90582C9.58232 3.90582 9.78114 3.98817 9.92774 4.13477L17.7402 11.9473C17.8129 12.0198 17.8705 12.106 17.9098 12.2008C17.9491 12.2957 17.9694 12.3973 17.9694 12.5C17.9694 12.6027 17.9491 12.7043 17.9098 12.7992C17.8705 12.894 17.8129 12.9802 17.7402 13.0527Z" fill="var(--fill-0, black)"/>
</g>
</svg>
