<svg preserveAspectRatio="none" width="100%" height="100%" overflow="visible" style="display: block;" viewBox="0 0 71 25" fill="none" xmlns="http://www.w3.org/2000/svg">
<g id="svg-147948004_30469" clip-path="url(#clip0_851_2284)">
<path id="Vector" d="M18.2915 13.1577C19.3219 13.5367 20.0725 14.1499 20.3979 14.98C21.4375 17.6239 17.8574 21.4955 12.4067 23.6431C6.94734 25.7724 1.68669 25.3482 0.646973 22.7046C0.32156 21.8744 0.448392 20.9176 0.95459 19.9341C0.728609 20.5748 0.710305 21.1883 0.927246 21.7388C1.85828 24.1029 6.7664 24.3916 11.9097 22.3794C17.0528 20.3672 20.4602 16.8305 19.5386 14.4663C19.3216 13.9159 18.8881 13.4826 18.2915 13.1577ZM10.2651 0.00146484C10.3644 0.0105905 10.4549 0.0641913 10.5181 0.13623C10.5361 0.145257 10.5452 0.164088 10.5542 0.182129C10.4819 0.209199 10.418 0.262754 10.3638 0.316895C10.147 0.542332 9.96681 0.804207 9.8042 1.07471C9.47882 1.62508 9.26159 2.22996 9.07178 2.83447C8.97238 3.18628 8.87309 3.53833 8.78271 3.89014C8.7556 4.01647 8.93601 4.05236 8.97217 3.93506C9.06268 3.56545 9.39673 3.3396 9.73096 3.17725C9.36941 3.70963 9.20684 4.35983 9.12549 5.00049C9.09838 5.21697 9.07202 5.44296 9.06299 5.66846C9.06339 5.77624 9.2072 5.78531 9.25244 5.71338C9.31572 5.61412 9.3974 5.52385 9.48779 5.45166C9.53294 5.4156 9.57815 5.37909 9.63232 5.35205C9.71351 5.30697 9.76787 5.25258 9.84912 5.20752C9.93941 5.16243 10.0205 5.10806 10.1108 5.06299C10.0115 5.07201 9.92113 5.08109 9.82178 5.09912C9.74959 5.11714 9.66841 5.15387 9.59619 5.14502C9.54196 5.14502 9.4783 5.12643 9.43311 5.09033C9.41507 5.0723 9.39743 5.04507 9.37939 5.01807C9.31612 4.90076 9.35228 4.76549 9.37939 4.63916C9.40648 4.51296 9.43313 4.37766 9.46924 4.25146C9.54155 3.99881 9.63175 3.74584 9.7583 3.51123C9.83061 3.36686 9.93061 3.24033 10.021 3.10498C10.057 3.05998 10.0843 3.01521 10.1294 2.97021C10.1927 2.91608 10.2466 2.8615 10.2827 2.79834C10.2467 2.80733 10.2018 2.81669 10.1567 2.82568C10.1478 2.83463 10.1384 2.83447 10.1294 2.83447C10.0753 2.84348 10.0029 2.85263 9.94873 2.87061C9.91257 2.87963 9.88528 2.90725 9.84912 2.92529C9.74971 2.97039 9.63213 2.97871 9.53271 2.95166C9.5056 2.94264 9.47853 2.93357 9.46045 2.91553C9.44242 2.89748 9.43334 2.8703 9.42432 2.84326C9.41539 2.82537 9.41476 2.81631 9.40576 2.79834C9.37867 2.7172 9.35231 2.62654 9.37939 2.54541C9.40645 2.45555 9.44219 2.37454 9.46924 2.28467C9.5325 2.11326 9.60495 1.94142 9.67725 1.77002C9.82187 1.43615 9.99376 1.11979 10.2017 0.812988C10.2829 0.686827 10.3826 0.561005 10.4819 0.443848C10.5181 0.407754 10.5634 0.353496 10.6177 0.335449C10.6267 0.37141 10.6355 0.407887 10.6265 0.443848C10.6177 0.461728 10.6262 0.479766 10.644 0.48877C10.6441 0.560767 10.6538 0.623804 10.6538 0.695801V0.804199C10.7442 1.46285 10.7983 2.13066 10.8345 2.79834C10.8435 2.96979 10.8613 3.14154 10.8794 3.31299C10.8614 3.43012 10.8528 3.5562 10.8618 3.67334C10.8709 3.8177 10.9336 3.93547 10.9517 4.0708C10.9878 4.34149 11.0785 4.60304 11.2231 4.82861C11.196 4.73842 11.1775 4.6483 11.1685 4.55811C11.1504 4.36866 11.1599 4.17919 11.1509 3.98975C11.1418 3.77318 11.1411 3.54736 11.1411 3.32178C11.3129 3.4842 11.4672 3.65592 11.6479 3.80029C11.8286 3.93553 12.0274 4.05266 12.2261 4.15186C12.6419 4.35037 13.0764 4.50365 13.4741 4.72021C13.6999 4.84647 13.9253 5.0004 14.106 5.19873C14.3048 5.40627 14.4496 5.6592 14.5942 5.90283C14.8925 6.40806 15.1732 6.93097 15.5347 7.39111C15.7154 7.63469 15.9323 7.87863 16.1763 8.05908C16.4203 8.23053 16.6917 8.40217 16.981 8.46533C17.008 8.4743 17.0166 8.43822 16.9985 8.4292C16.7638 8.28501 16.5382 8.14063 16.3306 7.96045C16.2764 7.91535 16.2305 7.86103 16.1763 7.81592C16.2485 7.86096 16.3209 7.90564 16.3931 7.95068C16.5828 8.0589 16.791 8.16712 16.9897 8.25732C17.3512 8.42872 17.713 8.56417 18.0835 8.7085C18.0835 8.7085 19.0422 9.04256 19.4761 9.34033C19.9097 9.64703 19.8011 9.85469 19.6294 10.0171C19.522 10.2315 19.2999 10.4818 19.2954 10.4868C19.2412 10.559 19.1951 10.6305 19.1499 10.7026C19.1409 10.7116 19.1412 10.721 19.1323 10.73C19.0691 10.8201 18.9695 10.8922 18.8882 10.9644C18.7979 11.0455 18.7075 11.1358 18.5991 11.1899C18.4998 11.244 18.3823 11.2713 18.2739 11.2983C18.0118 11.3615 17.7402 11.3711 17.478 11.3892C17.1346 11.4072 16.7912 11.416 16.4478 11.3979C16.276 11.3889 16.1039 11.3799 15.9321 11.3618C15.8058 11.3438 15.6884 11.3345 15.562 11.3345C15.4446 11.3345 15.3628 11.3711 15.2544 11.3081C15.2725 11.254 15.2903 11.2079 15.2993 11.1538C15.2993 11.1628 15.209 11.2083 15.1909 11.2173C15.1457 11.2534 15.1004 11.3082 15.0552 11.3442C15.0102 11.3802 14.9738 11.4157 14.9468 11.4517C14.8564 11.5599 14.8293 11.6955 14.7661 11.8218C14.8113 11.7677 14.8659 11.7404 14.9292 11.7134C15.0103 11.6863 15.0734 11.6322 15.1636 11.5962C15.281 11.5511 15.417 11.524 15.5435 11.5239C15.6971 11.5239 15.8602 11.542 16.0229 11.5601C16.1945 11.5781 16.366 11.5872 16.5376 11.5962C16.8811 11.6052 17.2341 11.6054 17.5776 11.5874C17.8577 11.5694 18.1377 11.5513 18.4087 11.4702C18.3908 11.4881 18.3815 11.506 18.3726 11.5239C18.3274 11.6142 18.2642 11.6871 18.1919 11.7593C18.0564 11.8945 17.8935 12.0117 17.731 12.1108C17.4056 12.3093 17.0351 12.4176 16.6646 12.4897C16.2487 12.5619 15.8238 12.5801 15.3989 12.5981C14.9832 12.6072 14.5585 12.6071 14.1519 12.6792C13.6366 12.7694 13.1844 13.0313 13.0308 13.5728C13.0579 13.5006 13.1035 13.446 13.1577 13.4009C13.257 13.3108 13.3561 13.2386 13.4644 13.1665C13.5186 13.1304 13.5732 13.0942 13.6274 13.0581C13.6726 13.0311 13.7808 13.0042 13.8081 12.9683C13.7358 13.0585 13.6726 13.1667 13.6274 13.2749C13.519 13.5185 13.4644 13.7801 13.3921 14.0327C13.3288 14.2583 13.2481 14.4934 13.1216 14.6919C13.0945 14.737 13.0666 14.773 13.0396 14.8091C12.9041 14.9803 12.7414 15.1154 12.606 15.2866C12.5337 15.3768 12.4522 15.4764 12.3979 15.5757C12.2714 15.8193 12.1994 16.1263 12.2446 16.397C12.3802 16.1083 12.4797 15.7836 12.6694 15.522C12.6875 15.4859 12.7146 15.4585 12.7417 15.4224C12.7236 15.4946 12.7051 15.567 12.687 15.6392C12.6599 15.7744 12.6328 15.9101 12.6147 16.0454C12.6057 16.1174 12.5972 16.1804 12.5972 16.2524C12.5881 16.3066 12.5972 16.3519 12.5972 16.397C12.5882 16.4239 12.5788 16.4598 12.5698 16.4868C12.5518 16.55 12.5332 16.6043 12.5151 16.6675C12.5151 16.6765 12.5064 16.6857 12.5063 16.7036V16.7222C12.4883 16.7762 12.4702 16.8303 12.4702 16.8843C12.4702 16.9021 12.4702 16.9201 12.479 16.9292C12.5242 17.0104 12.4429 17.3356 12.4429 17.4438C12.4338 17.6423 12.4434 17.8411 12.4614 18.0396C12.4976 18.3823 12.5517 18.7161 12.5698 19.0679C12.5969 19.4288 12.6153 19.817 12.4526 20.1509C12.3532 20.3584 12.1903 20.5298 12.0728 20.7192C11.9282 20.9628 11.8101 21.2061 11.6655 21.4497C11.5752 21.6121 11.467 21.7746 11.2954 21.8198C11.2592 21.2245 10.9152 20.7195 10.644 20.2144C10.3729 19.7091 10.3006 19.1944 10.147 18.644C10.1379 18.617 10.1655 18.5811 10.2017 18.5991C10.31 18.6622 10.4185 18.7343 10.5269 18.7974C10.4004 18.5719 10.2647 18.3373 10.1382 18.1118C10.0026 17.8593 9.85824 17.6063 9.81299 17.3267C9.80397 17.2997 9.83961 17.2817 9.8667 17.2905C9.92989 17.3266 9.99317 17.3627 10.0474 17.4077C9.92084 17.1461 9.83109 16.8661 9.77686 16.5864C9.76782 16.5503 9.81321 16.5232 9.84033 16.5503L10.147 16.8657C10.0115 16.4148 9.9031 15.9548 9.82178 15.4858C9.81276 15.4588 9.83964 15.4321 9.8667 15.4409C9.95709 15.468 10.0393 15.4851 10.1206 15.5122C10.0031 15.3949 9.87581 15.2867 9.7583 15.1694C9.73176 15.1424 9.75859 15.0886 9.79443 15.0972C10.1108 15.1333 10.4275 15.1249 10.7349 15.0708C10.7619 15.0618 10.7799 15.0975 10.771 15.1245C10.7348 15.1877 10.699 15.2422 10.6538 15.2964C11.0785 15.2692 11.4852 15.0882 11.7925 14.7905C11.7744 14.8086 11.72 14.8088 11.6929 14.8179C11.6568 14.8269 11.6206 14.8265 11.5845 14.8354C11.5393 14.8445 11.4939 14.845 11.4487 14.854C11.4127 14.863 11.3766 14.8716 11.3315 14.8716C11.2412 14.8716 11.1416 14.863 11.0513 14.854C11.0332 14.854 11.0061 14.8445 10.979 14.8354C10.952 14.8265 10.9245 14.7999 10.9243 14.7729C10.9334 14.7459 10.9521 14.7278 10.9702 14.7007C10.9791 14.6917 10.9877 14.6736 10.9966 14.6646C11.0146 14.6375 11.0418 14.6191 11.0688 14.6011C11.0598 14.6372 11.0598 14.6736 11.0688 14.7007C11.096 14.7638 11.1599 14.7639 11.2231 14.7729C11.2954 14.782 11.3589 14.7905 11.4312 14.7905C11.5305 14.7995 11.6299 14.7814 11.7202 14.7544C11.7653 14.7454 11.8108 14.7273 11.856 14.7183C12.0004 14.6911 12.1182 14.5835 12.2085 14.4663C12.2627 14.3942 12.3079 14.3218 12.353 14.2407C12.3801 14.1956 12.3977 14.1591 12.3706 14.105C12.3525 14.06 12.3254 14.024 12.2983 13.979C12.2532 13.9069 12.2175 13.8343 12.1724 13.7622C12.1362 13.7081 12.1089 13.6445 12.0728 13.5903C12.0547 13.5633 12.0459 13.5361 12.0278 13.5181C11.9917 13.491 11.9644 13.4638 11.9282 13.4458C11.9192 13.4369 11.9099 13.4372 11.9009 13.4282C11.937 13.4192 11.9643 13.4194 12.0005 13.4194C12.0817 13.4285 12.1453 13.4828 12.2085 13.5278C12.2716 13.5729 12.3345 13.6269 12.3706 13.6899C12.4429 13.7982 12.47 13.9425 12.4429 14.0688C12.4431 14.0598 12.5239 14.0244 12.5337 14.0151C12.5608 13.9971 12.5791 13.9785 12.5972 13.9604C12.6059 13.9604 12.606 13.9605 12.606 13.9517C12.633 13.8886 12.6421 13.8255 12.6421 13.7534C12.6421 13.6092 12.5971 13.4646 12.5249 13.3384C12.2989 12.9233 11.9366 12.5886 11.8101 12.1284C11.7108 11.7766 11.7198 11.3435 11.521 11.0278C11.5662 11.1631 11.6028 11.2986 11.6118 11.4429C11.6118 11.4789 11.5667 11.497 11.5396 11.4702C11.404 11.2807 11.2586 11.1004 11.105 10.938C10.8339 10.6493 10.518 10.4414 10.1655 10.27C9.9757 10.1798 9.7948 10.0983 9.60498 10.0171C9.50554 9.97196 9.28864 9.83721 9.18018 9.88232C9.16218 9.99951 9.1797 10.1257 9.19775 10.2339C9.20679 10.306 9.21586 10.5138 9.27002 10.5591C9.14351 10.4418 9.07132 10.2877 9.01709 10.1343C8.88167 9.76455 8.86326 9.39485 8.80908 9.01611C8.78197 8.81767 8.76417 8.61885 8.76416 8.42041C8.76416 8.37594 8.79942 7.86671 8.80908 7.85205C8.67358 7.8161 8.53858 7.87929 8.43018 7.96045C8.31271 8.05065 8.21292 8.16741 8.12256 8.28467C7.80621 8.70875 7.60728 9.21419 7.45361 9.71045C7.35423 10.0441 7.2729 10.387 7.12842 10.7026C6.96573 11.0365 6.76652 11.2443 6.43213 11.4067C6.8117 10.9826 6.99224 10.3782 6.90186 9.81885C6.90162 9.84602 6.5945 10.0174 6.54932 10.0444C6.39573 10.1346 6.24196 10.2431 6.08838 10.3423C6.15165 10.3333 6.21553 10.3333 6.27881 10.3423C6.3236 10.3426 6.31464 10.3966 6.2876 10.4146C6.16105 10.4777 6.03401 10.5499 5.9165 10.6401C5.53701 10.9108 5.22981 11.2721 5.02197 11.687C5.1214 11.6148 5.23917 11.5781 5.36572 11.5601C5.41053 11.5602 5.41972 11.6053 5.39307 11.6323C5.2846 11.7316 5.17584 11.8402 5.08545 11.9575C4.7601 12.3635 4.53378 12.8505 4.46143 13.3647C4.45239 13.4098 4.37148 13.4012 4.38037 13.3472C4.38937 13.3292 4.38916 13.32 4.38916 13.311L4.17236 13.7349C4.24464 13.6808 4.32617 13.6362 4.4165 13.6001C4.45264 13.5821 4.48845 13.6355 4.46143 13.6626C4.30776 13.8611 4.1361 14.0512 3.96436 14.2407C3.81075 14.4031 3.64749 14.5559 3.48486 14.7183C3.33122 14.8716 3.18732 15.0349 3.06982 15.2153C2.8801 15.495 2.72587 15.8012 2.59033 16.1079C2.71687 15.9997 2.88006 15.9281 3.03369 15.856C3.06971 15.8381 3.09641 15.8913 3.07861 15.9185C2.84359 16.2704 2.62704 16.614 2.50049 17.02C2.44631 17.1823 2.39186 17.3534 2.36475 17.5337C2.33766 17.6869 2.33762 17.8404 2.32861 17.9937C2.31958 18.165 2.31885 18.3458 2.31885 18.5171C2.26465 18.4272 2.17479 18.3549 2.07568 18.3188C2.02149 18.3008 1.95802 18.2824 1.90381 18.2554C1.75014 18.1651 1.62341 18.0658 1.45166 17.9937C1.27091 17.9215 1.08968 17.8231 0.936035 17.6968C0.628837 17.4623 0.394156 17.1462 0.249512 16.7944C0.077766 16.3523 0.0235789 15.8191 0.177246 15.3589C0.258594 15.1246 0.376208 15.0251 0.529785 14.8628C0.710417 14.6733 0.809795 14.4027 0.927246 14.1772C0.69233 14.2133 0.466627 14.3037 0.276855 14.439C0.575134 13.9878 0.936536 13.5907 1.34326 13.2388C1.73192 12.9049 2.16607 12.6248 2.50049 12.2368C2.86178 11.8218 3.0063 11.3167 3.22314 10.8296C3.34065 10.5679 3.62113 10.2338 3.56689 9.93604C3.31386 10.0804 3.06066 10.2429 2.82568 10.4233C3.14203 9.83686 3.44043 9.27697 3.84717 8.74463C4.10922 8.40188 4.38957 8.08596 4.66064 7.76123C4.85959 7.5266 5.2842 7.14772 5.22998 6.81396C5.03112 6.88615 4.84997 6.97619 4.67822 7.08447C4.79574 6.75069 5.09437 6.41711 5.30225 6.12842C5.51919 5.83064 5.79962 5.54123 6.0708 5.28857C6.50458 4.88269 7.00132 4.55772 7.39893 4.11572C7.5074 3.99842 7.60761 3.86338 7.68896 3.72803C7.70703 3.69198 7.72461 3.66448 7.74268 3.62842C7.70652 3.77279 7.67995 3.90885 7.65283 4.05322C7.60768 4.28774 7.58935 4.54017 7.62549 4.78369C7.66165 5.0183 7.75232 5.2619 7.93311 5.42432C7.98731 5.46903 8.05905 5.40611 8.02295 5.35205C7.92355 5.18967 7.83326 5.01805 7.80615 4.82861C7.77908 4.63929 7.77909 4.441 7.80615 4.24268C7.83326 4.02623 7.88769 3.80949 7.94189 3.60205C8.01421 3.34037 8.09564 3.07834 8.18604 2.82568C8.27642 2.57305 8.36639 2.32027 8.48389 2.07666C8.53812 1.96838 8.59296 1.86904 8.67432 1.77881C8.75564 1.68874 8.86405 1.63413 8.96338 1.56201C9.15303 1.42667 9.28881 1.23744 9.38818 1.021C9.49665 0.795414 9.569 0.560562 9.70459 0.353027C9.82212 0.163614 10.0302 -0.0165752 10.2651 0.00146484ZM27.0503 17.7476L27.9907 15.3647H28.5103L26.686 19.6909H26.1665L26.7632 18.2739L25.5415 15.3647H26.1001L27.0503 17.7476ZM65.3569 17.7476L66.2964 15.3647H66.8169L64.9917 19.6909H64.4722L65.0698 18.2739L63.8481 15.3647H64.4058L65.3569 17.7476ZM30.3599 15.3159C30.6472 15.316 30.9071 15.3792 31.1392 15.5044C31.3711 15.626 31.5534 15.801 31.686 16.0298C31.8224 16.2587 31.8911 16.5256 31.8911 16.8296C31.8911 17.1337 31.8212 17.4027 31.6812 17.6353C31.5448 17.8642 31.3584 18.0413 31.1226 18.1665C30.8867 18.2918 30.6249 18.354 30.3374 18.354C30.0536 18.354 29.7952 18.2918 29.563 18.1665C29.3347 18.0413 29.1546 17.864 29.022 17.6353C28.893 17.4026 28.8276 17.1338 28.8276 16.8296C28.8277 16.5292 28.8943 16.2645 29.0269 16.0356C29.1631 15.8032 29.3476 15.6261 29.5796 15.5044C29.8118 15.3791 30.0724 15.3159 30.3599 15.3159ZM48.2437 15.3159C48.5791 15.3159 48.8507 15.3984 49.0571 15.563C49.2634 15.7276 49.3734 15.9535 49.3882 16.2397H48.8853C48.8742 16.0859 48.8098 15.9617 48.6919 15.8687C48.5777 15.7757 48.4223 15.73 48.2271 15.73C48.0467 15.73 47.9032 15.7672 47.7964 15.8423C47.6896 15.9174 47.6363 16.0157 47.6362 16.1372C47.6362 16.2338 47.6673 16.315 47.73 16.3794C47.7963 16.4401 47.8774 16.4905 47.9731 16.5298C48.0726 16.5656 48.2092 16.6063 48.3823 16.6528C48.5996 16.71 48.7763 16.7675 48.9126 16.8247C49.049 16.8784 49.1654 16.9608 49.2612 17.0718C49.3607 17.1827 49.4128 17.3275 49.4165 17.5063C49.4165 17.6673 49.3699 17.8121 49.2778 17.9409C49.1857 18.0697 49.0548 18.1714 48.8853 18.2466C48.7194 18.3182 48.5275 18.354 48.3101 18.354C48.0781 18.354 47.8702 18.3167 47.686 18.2417C47.5017 18.163 47.3554 18.0554 47.2485 17.9194C47.1418 17.7799 47.0828 17.6207 47.0718 17.4419H47.5913C47.606 17.5884 47.6762 17.7083 47.8013 17.8013C47.9303 17.8943 48.0988 17.9409 48.3052 17.9409C48.4967 17.9409 48.6478 17.9001 48.7583 17.8179C48.8689 17.7356 48.9243 17.6316 48.9243 17.5063C48.9243 17.3777 48.8652 17.283 48.7476 17.2222C48.6296 17.1578 48.4467 17.0945 48.1997 17.0337C47.9749 16.9764 47.7907 16.9191 47.647 16.8618C47.507 16.801 47.3849 16.7136 47.2817 16.5991C47.1823 16.481 47.1323 16.3268 47.1323 16.1372C47.1324 15.987 47.1789 15.8493 47.271 15.7241C47.3631 15.5989 47.4941 15.5008 47.6636 15.4292C47.833 15.3541 48.0264 15.316 48.2437 15.3159ZM53.4507 15.3159C53.738 15.316 53.9923 15.3769 54.2134 15.4985C54.4345 15.6202 54.6042 15.7887 54.7222 16.0034C54.8437 16.2144 54.9047 16.454 54.9048 16.7222C54.9048 16.8152 54.8992 16.9143 54.8882 17.0181H52.4663C52.4848 17.3077 52.5859 17.5351 52.77 17.6997C52.958 17.8607 53.1853 17.9409 53.4507 17.9409C53.668 17.9409 53.849 17.893 53.9927 17.7964C54.14 17.6962 54.2433 17.5635 54.3022 17.3989H54.8433C54.7622 17.6816 54.6002 17.9124 54.3569 18.0913C54.1137 18.2666 53.8117 18.354 53.4507 18.354C53.1632 18.354 52.9048 18.2918 52.6763 18.1665C52.4516 18.0413 52.275 17.8641 52.146 17.6353C52.017 17.4026 51.9526 17.1338 51.9526 16.8296C51.9527 16.5256 52.0149 16.2587 52.1401 16.0298C52.2654 15.8009 52.4408 15.626 52.6655 15.5044C52.894 15.3791 53.1558 15.3159 53.4507 15.3159ZM58.4546 18.3062H57.9458V17.7534C57.8463 17.9287 57.6987 18.0735 57.5034 18.188C57.3081 18.2989 57.0795 18.354 56.8179 18.354C56.5489 18.354 56.3036 18.2904 56.0825 18.1616C55.8651 18.0328 55.6942 17.8513 55.5688 17.6187C55.4436 17.3861 55.3804 17.1216 55.3804 16.8247C55.3804 16.5241 55.4435 16.2611 55.5688 16.0356C55.6941 15.8067 55.8652 15.6296 56.0825 15.5044C56.3037 15.3791 56.551 15.3159 56.8237 15.3159C57.0596 15.3159 57.2793 15.3697 57.4819 15.4771C57.6844 15.5807 57.839 15.7186 57.9458 15.8901V14.3335H58.4546V18.3062ZM62.0894 15.3159C62.3767 15.316 62.631 15.3769 62.8521 15.4985C63.0732 15.6202 63.2429 15.7887 63.3608 16.0034C63.4823 16.2144 63.5424 16.454 63.5425 16.7222C63.5425 16.8152 63.5369 16.9143 63.5259 17.0181H61.105C61.1235 17.3078 61.2245 17.5351 61.4087 17.6997C61.5967 17.8607 61.824 17.9409 62.0894 17.9409C62.3064 17.9409 62.4868 17.8928 62.6304 17.7964C62.7778 17.6962 62.881 17.5635 62.9399 17.3989H63.4819C63.4008 17.6816 63.2388 17.9124 62.9956 18.0913C62.7524 18.2666 62.4504 18.3539 62.0894 18.354C61.8019 18.354 61.5435 18.2918 61.3149 18.1665C61.0901 18.0413 60.9127 17.8643 60.7837 17.6353C60.6547 17.4027 60.5903 17.1337 60.5903 16.8296C60.5904 16.5256 60.6535 16.2587 60.7788 16.0298C60.9041 15.8009 61.0795 15.626 61.3042 15.5044C61.5327 15.3792 61.7946 15.3159 62.0894 15.3159ZM68.6323 15.3159C68.9198 15.3159 69.1749 15.3769 69.396 15.4985C69.617 15.6202 69.7859 15.7888 69.9038 16.0034C70.0254 16.2144 70.0864 16.4539 70.0864 16.7222C70.0864 16.8152 70.0809 16.9143 70.0698 17.0181H67.6489C67.6674 17.3078 67.7684 17.5351 67.9526 17.6997C68.1405 17.8606 68.3671 17.9409 68.6323 17.9409C68.8497 17.9409 69.0306 17.8929 69.1743 17.7964C69.3217 17.6962 69.4249 17.5635 69.4839 17.3989H70.0259C69.9448 17.6816 69.7827 17.9124 69.5396 18.0913C69.2963 18.2667 68.9935 18.354 68.6323 18.354C68.345 18.354 68.0873 18.2916 67.8589 18.1665C67.6341 18.0413 67.4566 17.8643 67.3276 17.6353C67.1986 17.4026 67.1343 17.1338 67.1343 16.8296C67.1343 16.5256 67.1975 16.2587 67.3228 16.0298C67.448 15.8011 67.6227 15.626 67.8472 15.5044C68.0756 15.3792 68.3376 15.316 68.6323 15.3159ZM33.022 17.0229C33.022 17.3128 33.0984 17.5364 33.2495 17.6938C33.4006 17.8477 33.607 17.9253 33.8687 17.9253C34.1375 17.9252 34.3497 17.8441 34.5044 17.6831C34.659 17.5221 34.7358 17.2875 34.7358 16.98V15.3647H35.2397V18.3062H34.7358V17.8716C34.64 18.0217 34.5056 18.1403 34.3325 18.2261C34.1631 18.3082 33.9752 18.3491 33.769 18.3491C33.5333 18.3491 33.3212 18.3024 33.1333 18.2095C32.9453 18.1129 32.7956 17.9695 32.6851 17.7798C32.5783 17.5902 32.5249 17.3593 32.5249 17.0874V15.3647H33.022V17.0229ZM44.1714 17.0229C44.1714 17.3127 44.247 17.5364 44.3979 17.6938C44.549 17.8477 44.7555 17.9253 45.0171 17.9253C45.2861 17.9253 45.498 17.8441 45.6528 17.6831C45.8076 17.5221 45.8853 17.2877 45.8853 16.98V15.3647H46.3882V18.3062H45.8853V17.8716C45.7894 18.0218 45.6551 18.1402 45.4819 18.2261C45.3124 18.3084 45.1239 18.3491 44.9175 18.3491C44.6817 18.3491 44.4696 18.3025 44.2817 18.2095C44.0938 18.1129 43.945 17.9694 43.8345 17.7798C43.7276 17.5901 43.6733 17.3593 43.6733 17.0874V15.3647H44.1714V17.0229ZM37.5708 15.8149H37.438C36.8741 15.8149 36.5923 16.1125 36.5923 16.7065V18.3062H36.0884V15.3647H36.5923V15.8423C36.6807 15.6742 36.8061 15.5437 36.9683 15.4507C37.1341 15.3577 37.335 15.311 37.5708 15.311V15.8149ZM40.2388 15.3647H41.0298V15.7671H40.2388V17.5005C40.2388 17.6436 40.2699 17.7463 40.3325 17.8071C40.3951 17.8643 40.5041 17.893 40.6587 17.8931H41.0298V18.3062H40.5757C40.2959 18.3061 40.0858 18.2437 39.9458 18.1187C39.8057 17.9934 39.7358 17.7868 39.7358 17.5005V15.7671H39.3433V15.3647H39.7358V14.6235H40.2388V15.3647ZM43.1206 15.8149H42.9878C42.424 15.815 42.1421 16.1126 42.1421 16.7065V18.3062H41.6392V15.3647H42.1421V15.8423C42.2305 15.6741 42.356 15.5437 42.5181 15.4507C42.6839 15.3577 42.8848 15.311 43.1206 15.311V15.8149ZM50.7397 15.3647H51.5308V15.7671H50.7397V17.5005C50.7397 17.6435 50.7709 17.7463 50.8335 17.8071C50.8962 17.8644 51.0058 17.8931 51.1606 17.8931H51.5308V18.3062H51.0776C50.7976 18.3062 50.5868 18.2438 50.4468 18.1187C50.3067 17.9934 50.2368 17.7868 50.2368 17.5005V15.7671H49.8442V15.3647H50.2368V14.6235H50.7397V15.3647ZM30.354 15.7407C30.1697 15.7407 30 15.7815 29.8452 15.8638C29.6942 15.9425 29.5721 16.0644 29.48 16.229C29.388 16.3935 29.3423 16.5937 29.3423 16.8296C29.3423 17.0692 29.3867 17.2715 29.4751 17.436C29.5672 17.6006 29.6884 17.7248 29.8394 17.8071C29.9905 17.8859 30.1568 17.9253 30.3374 17.9253C30.518 17.9253 30.6877 17.8836 30.8462 17.8013C31.0045 17.719 31.1313 17.5956 31.2271 17.4312C31.3266 17.2665 31.3765 17.0658 31.3765 16.8296C31.3764 16.5936 31.3286 16.3935 31.2329 16.229C31.1371 16.0644 31.0117 15.9425 30.8569 15.8638C30.7022 15.7815 30.5346 15.7407 30.354 15.7407ZM56.9175 15.7407C56.7297 15.7407 56.5585 15.783 56.4038 15.8687C56.249 15.9545 56.1249 16.08 56.0327 16.2446C55.9406 16.4092 55.895 16.6028 55.895 16.8247C55.895 17.0501 55.9406 17.2474 56.0327 17.4155C56.1248 17.58 56.2491 17.707 56.4038 17.7964C56.5585 17.8821 56.7297 17.9253 56.9175 17.9253C57.1055 17.9253 57.2773 17.8823 57.4321 17.7964C57.5905 17.707 57.716 17.58 57.8081 17.4155C57.9002 17.2473 57.9458 17.0515 57.9458 16.8296C57.9458 16.608 57.9 16.4149 57.8081 16.2505C57.716 16.086 57.5904 15.9604 57.4321 15.8745C57.2773 15.785 57.1055 15.7407 56.9175 15.7407ZM53.4282 15.73C53.174 15.73 52.9564 15.808 52.7759 15.9653C52.599 16.1228 52.498 16.3415 52.4722 16.6206H54.3853C54.3853 16.4345 54.3421 16.2755 54.2573 16.1431C54.1726 16.0071 54.057 15.9044 53.9097 15.8364C53.7659 15.7649 53.6051 15.73 53.4282 15.73ZM62.0669 15.73C61.8127 15.73 61.5951 15.808 61.4146 15.9653C61.2376 16.1228 61.1366 16.3415 61.1108 16.6206H63.0229C63.0229 16.4346 62.9807 16.2755 62.896 16.1431C62.8112 16.0071 62.6948 15.9044 62.5474 15.8364C62.4038 15.765 62.2436 15.73 62.0669 15.73ZM68.6108 15.73C68.3567 15.73 68.139 15.8081 67.9585 15.9653C67.7816 16.1228 67.6796 16.3415 67.6538 16.6206H69.5669C69.5669 16.4346 69.5246 16.2754 69.4399 16.1431C69.3552 16.0071 69.2387 15.9044 69.0913 15.8364C68.9477 15.765 68.7875 15.73 68.6108 15.73ZM9.87646 12.1831C9.889 12.1806 10.236 12.1123 10.644 12.1831C11.0598 12.2553 11.1685 12.6704 11.1685 12.6704C10.275 12.8754 9.88522 12.1985 9.87646 12.1831ZM32.896 7.50537C33.3289 7.50538 33.7136 7.59673 34.0503 7.77881C34.3871 7.96095 34.6493 8.22061 34.8364 8.55811C35.0289 8.8956 35.1255 9.28976 35.1255 9.73975C35.1255 9.86819 35.1171 10.002 35.1011 10.1411H31.9976C32.0189 10.4195 32.1074 10.6337 32.2622 10.7837C32.4226 10.9283 32.6183 11.0005 32.8481 11.0005C33.1901 11.0004 33.4274 10.8561 33.561 10.5669H35.021C34.9462 10.8615 34.8096 11.1271 34.6118 11.3628C34.4194 11.5984 34.1763 11.7836 33.8823 11.9175C33.5883 12.0514 33.2594 12.1177 32.896 12.1177C32.4577 12.1177 32.0672 12.0239 31.7251 11.8364C31.3831 11.6489 31.1157 11.3808 30.9233 11.0327C30.7311 10.6847 30.6353 10.2778 30.6353 9.81201C30.6353 9.34596 30.7285 8.93854 30.9155 8.59033C31.108 8.24212 31.3752 7.97412 31.7173 7.78662C32.0594 7.59913 32.4523 7.50537 32.896 7.50537ZM37.8208 7.50537C38.3821 7.50537 38.8499 7.65311 39.2241 7.94775C39.6035 8.24236 39.8517 8.65736 39.9692 9.19287H38.5103C38.3873 8.85007 38.1492 8.67822 37.7964 8.67822C37.5454 8.67831 37.3454 8.77805 37.1958 8.97607C37.0461 9.16893 36.9712 9.44773 36.9712 9.81201C36.9712 10.1761 37.0462 10.4576 37.1958 10.6558C37.3454 10.8483 37.5455 10.9447 37.7964 10.9448C38.1492 10.9448 38.3873 10.773 38.5103 10.4302H39.9692C39.8517 10.955 39.6035 11.3675 39.2241 11.6675C38.8446 11.9675 38.3767 12.1177 37.8208 12.1177C37.3825 12.1177 36.992 12.0239 36.6499 11.8364C36.3133 11.6489 36.0483 11.3808 35.856 11.0327C35.6691 10.6847 35.5757 10.2777 35.5757 9.81201C35.5757 9.34604 35.6689 8.9385 35.856 8.59033C36.0484 8.24217 36.3132 7.97412 36.6499 7.78662C36.992 7.59912 37.3825 7.50537 37.8208 7.50537ZM42.7554 7.50537C43.1937 7.50537 43.5901 7.59912 43.9429 7.78662C44.2954 7.97406 44.5728 8.24483 44.7759 8.59814C44.979 8.94636 45.0806 9.3513 45.0806 9.81201C45.0805 10.2725 44.9764 10.6793 44.7681 11.0327C44.5649 11.3809 44.2844 11.6489 43.9263 11.8364C43.5735 12.0239 43.178 12.1177 42.7397 12.1177C42.3014 12.1177 41.906 12.0239 41.5532 11.8364C41.2058 11.6489 40.9302 11.3809 40.7271 11.0327C40.5294 10.6847 40.4302 10.2778 40.4302 9.81201C40.4302 9.3513 40.5317 8.94636 40.7349 8.59814C40.938 8.24461 41.2161 7.97412 41.5688 7.78662C41.9216 7.59917 42.3172 7.50542 42.7554 7.50537ZM55.6616 12.0532H54.2905V11.4106C54.1622 11.6249 53.9774 11.7967 53.7368 11.9253C53.5017 12.0538 53.2259 12.1177 52.9106 12.1177C52.542 12.1176 52.2079 12.0239 51.9087 11.8364C51.6094 11.6436 51.3712 11.373 51.1948 11.0249C51.0239 10.6714 50.939 10.2638 50.939 9.80322C50.939 9.34277 51.0239 8.93839 51.1948 8.59033C51.3712 8.24213 51.6094 7.97412 51.9087 7.78662C52.2079 7.59919 52.542 7.50544 52.9106 7.50537C53.2044 7.50537 53.472 7.5669 53.7124 7.68994C53.9582 7.81312 54.1516 7.97914 54.2905 8.18799V6.10693H55.6616V12.0532ZM64.4985 7.50537C64.9314 7.50537 65.3161 7.59677 65.6528 7.77881C65.9896 7.96094 66.2519 8.22063 66.439 8.55811C66.6314 8.89561 66.728 9.28975 66.728 9.73975C66.728 9.86819 66.7196 10.002 66.7036 10.1411H63.6011C63.6225 10.4197 63.7107 10.6337 63.8657 10.7837C64.0261 10.9283 64.2209 11.0005 64.4507 11.0005C64.7927 11.0005 65.0309 10.8561 65.1646 10.5669H66.6235C66.5487 10.8615 66.4121 11.1271 66.2144 11.3628C66.0219 11.5984 65.7788 11.7836 65.4849 11.9175C65.1909 12.0513 64.8619 12.1177 64.4985 12.1177C64.0603 12.1177 63.6697 12.0239 63.3276 11.8364C62.9857 11.6489 62.7182 11.3808 62.5259 11.0327C62.3337 10.6847 62.2378 10.2777 62.2378 9.81201C62.2378 9.34599 62.331 8.93852 62.5181 8.59033C62.7105 8.24216 62.9778 7.97412 63.3198 7.78662C63.6619 7.59914 64.0549 7.50539 64.4985 7.50537ZM27.8823 6.33252C28.5023 6.33252 29.0028 6.48181 29.3823 6.78174C29.7618 7.07638 29.965 7.48966 29.9917 8.02002H28.5083C28.4976 7.83809 28.4308 7.696 28.3081 7.59424C28.1852 7.4871 28.0269 7.43311 27.8345 7.43311C27.6689 7.43314 27.5356 7.47887 27.4341 7.56982C27.3325 7.65554 27.2817 7.78168 27.2817 7.94775C27.2818 8.12967 27.3668 8.27182 27.5376 8.37354C27.7086 8.47528 27.9761 8.58483 28.3394 8.70264C28.7028 8.82585 28.9977 8.94365 29.2222 9.05615C29.4519 9.16862 29.6493 9.33226 29.8149 9.54639C29.9806 9.76067 30.064 10.037 30.064 10.3745C30.0639 10.6958 29.9806 10.9881 29.8149 11.2505C29.6547 11.5127 29.4195 11.7212 29.1099 11.8765C28.7999 12.0318 28.4334 12.1098 28.0112 12.1099C27.5997 12.1099 27.2308 12.0426 26.9048 11.9087C26.5787 11.7748 26.3164 11.5765 26.1187 11.314C25.9264 11.0515 25.8247 10.7352 25.814 10.3657H27.2729C27.2943 10.5746 27.3669 10.7357 27.4897 10.8481C27.6127 10.9553 27.7734 11.0093 27.9712 11.0093C28.174 11.0092 28.3341 10.9634 28.4517 10.8726C28.5692 10.7762 28.6283 10.6449 28.6284 10.479C28.6284 10.3397 28.5801 10.2244 28.4839 10.1333C28.393 10.0422 28.2781 9.96664 28.1392 9.90771C28.0055 9.84882 27.813 9.78246 27.562 9.70752C27.1987 9.59506 26.9022 9.48209 26.6724 9.36963C26.4425 9.25713 26.2443 9.09122 26.0786 8.87158C25.9129 8.65194 25.8306 8.3648 25.8306 8.01123C25.8307 7.48648 26.0196 7.07629 26.3989 6.78174C26.7784 6.48181 27.2731 6.33259 27.8823 6.33252ZM48.5347 7.52197C49.0585 7.522 49.4756 7.69282 49.7856 8.03564C50.101 8.37314 50.2583 8.83948 50.2583 9.43408V12.0532H48.895V9.61865C48.895 9.31874 48.8176 9.08547 48.6626 8.91943C48.5076 8.75358 48.2993 8.67045 48.0376 8.67041C47.7757 8.67041 47.5666 8.75336 47.4116 8.91943C47.2567 9.08547 47.1792 9.31876 47.1792 9.61865V12.0532H45.8081V7.56982H47.1792V8.16455C47.3181 7.96639 47.5056 7.81122 47.7407 7.69873C47.9759 7.58087 48.2407 7.52197 48.5347 7.52197ZM59.0825 10.6714L60.4858 6.4126H61.937L59.9409 12.0532H58.2251L56.228 6.4126H57.688L59.0825 10.6714ZM69.0386 7.56982H69.937V8.71045H69.0386V10.5112C69.0386 10.6449 69.0712 10.7414 69.1353 10.8003C69.1994 10.859 69.3062 10.8882 69.4556 10.8882H69.9448V12.0532H69.2476C68.7504 12.0532 68.3624 11.933 68.0845 11.6919C67.8066 11.4455 67.6675 11.0464 67.6675 10.4946V8.71045H67.1226V7.56982H67.6675V6.47705H69.0386V7.56982ZM42.7554 8.69482C42.4883 8.69491 42.2666 8.7912 42.0903 8.98389C41.9139 9.17139 41.8257 9.44773 41.8257 9.81201C41.8257 10.1708 41.9115 10.4464 42.0825 10.6392C42.2589 10.832 42.4778 10.9282 42.7397 10.9282C43.0016 10.9282 43.2231 10.8319 43.4048 10.6392C43.5918 10.4464 43.686 10.1708 43.686 9.81201C43.686 9.45315 43.5952 9.17674 43.4136 8.98389C43.2372 8.79103 43.0173 8.69482 42.7554 8.69482ZM53.312 8.70264C53.0394 8.70264 52.8072 8.80227 52.6147 9.00049C52.4278 9.19326 52.3336 9.46059 52.3335 9.80322C52.3335 10.1461 52.4277 10.42 52.6147 10.6235C52.8071 10.8215 53.0395 10.9204 53.312 10.9204C53.5845 10.9204 53.8144 10.8216 54.0015 10.6235C54.1938 10.4254 54.2905 10.1547 54.2905 9.81201C54.2905 9.46926 54.1938 9.19869 54.0015 9.00049C53.8144 8.80229 53.5846 8.70265 53.312 8.70264ZM18.1919 9.03369C18.1197 9.05176 18.0473 9.08824 17.9751 9.1333C17.9481 9.14234 17.9209 9.16005 17.9028 9.18701L17.8667 9.25928V9.29541C17.8667 9.3315 17.8672 9.36771 17.8853 9.40381C17.9214 9.4849 17.9841 9.53939 18.0474 9.58447C18.1287 9.64764 18.2197 9.71955 18.3101 9.78271C18.4817 9.918 18.6626 10.0449 18.8433 10.1802C18.9426 10.2523 19.0509 10.3517 19.1772 10.4058C19.2586 10.3246 19.3398 10.2245 19.3579 10.1343C19.4033 9.89975 19.7374 9.64711 19.2134 9.4126C18.9061 9.26826 18.5538 9.10581 18.3188 8.99756C18.2737 9.00658 18.2371 9.01564 18.1919 9.03369ZM9.32471 8.88916C9.19816 9.03354 9.06251 9.11521 9.04443 9.32275C9.03544 9.44898 9.05399 9.59302 9.09912 9.71924H9.1167C9.29748 9.79143 9.46962 9.87314 9.63232 9.96338C9.49677 9.76492 9.4329 9.52117 9.44189 9.28662C9.44189 9.05212 9.50513 8.82634 9.58643 8.60986C9.50518 8.69997 9.41495 8.79906 9.32471 8.88916ZM32.8804 8.60596C32.6505 8.60596 32.4548 8.6732 32.2944 8.80713C32.1395 8.94099 32.0438 9.13122 32.0063 9.37744H33.7222C33.7221 9.14188 33.6412 8.95416 33.481 8.81494C33.3208 8.67594 33.1205 8.60604 32.8804 8.60596ZM64.4829 8.60596C64.2531 8.60596 64.0573 8.6732 63.897 8.80713C63.7421 8.94099 63.6463 9.13126 63.6089 9.37744H65.3247C65.3246 9.14193 65.2447 8.95415 65.0845 8.81494C64.9242 8.67571 64.7233 8.60601 64.4829 8.60596ZM13.6997 7.02197C13.5099 7.02197 13.329 7.05811 13.1392 7.05811H13.0854C13.1123 7.08512 13.1308 7.12103 13.1577 7.14795C13.3112 7.35521 13.4826 7.50847 13.7173 7.6167C13.9974 7.752 14.3141 7.78855 14.6304 7.78857C14.531 7.71644 14.4404 7.64414 14.3501 7.56299C14.2961 7.50892 14.2964 7.41886 14.3413 7.36475C14.2961 7.31061 14.2422 7.2558 14.188 7.20166C14.0524 7.07538 13.8895 7.02198 13.6997 7.02197Z" fill="var(--fill-0, black)"/>
</g>
<defs>
<clipPath id="clip0_851_2284">
<rect width="71" height="25" fill="white"/>
</clipPath>
</defs>
</svg>
