<?xml version="1.0" encoding="UTF-8"?>
<svg xmlns="http://www.w3.org/2000/svg" id="Layer_1" data-name="Layer 1" viewBox="0 0 142.75 43.91">
  <defs>
    <style>.cls-1{fill:#fff;}</style>
  </defs>
  <g id="Layer_1-2" data-name="Layer 1">
    <polygon class="cls-1" points="30.35 10.55 30.5 10.55 30.5 43.91 0 43.91 0 0 31.78 0 19.12 6.18 21.01 15.25 30.35 10.55"></polygon>
    <path class="cls-1" d="M58.6,10A10.73,10.73,0,0,1,58,13.64a8.64,8.64,0,0,1-1.73,2.9,7.87,7.87,0,0,1-2.69,1.91,9.22,9.22,0,0,1-7,0,7.83,7.83,0,0,1-2.68-1.91,8.51,8.51,0,0,1-1.74-2.9A10.73,10.73,0,0,1,41.54,10a10.73,10.73,0,0,1,.61-3.68,8.45,8.45,0,0,1,1.74-2.91,7.83,7.83,0,0,1,2.68-1.91,9.13,9.13,0,0,1,7,0,7.87,7.87,0,0,1,2.69,1.91A8.78,8.78,0,0,1,58,6.28,10.73,10.73,0,0,1,58.6,10m-2.82,0a9,9,0,0,0-.4-2.78,5.87,5.87,0,0,0-1.13-2.1,5,5,0,0,0-1.79-1.32,6.13,6.13,0,0,0-4.72,0A4.78,4.78,0,0,0,46,5.08a5.93,5.93,0,0,0-1.19,2.1,9,9,0,0,0-.4,2.78,8.87,8.87,0,0,0,.4,2.8,5.94,5.94,0,0,0,1.15,2.09,5,5,0,0,0,1.85,1.31,6.41,6.41,0,0,0,4.72,0,5.06,5.06,0,0,0,1.79-1.31,5.9,5.9,0,0,0,1.13-2.09,8.87,8.87,0,0,0,.4-2.8"></path>
    <path class="cls-1" d="M75.76,1V18.91h-1.4a1.16,1.16,0,0,1-.55-.12,1.31,1.31,0,0,1-.42-.39L64,5.75V18.91H61.63V.91h1.74A.88.88,0,0,1,63.6,1a.5.5,0,0,1,.2.15,2.43,2.43,0,0,1,.2.25l9.36,12.77V1Z"></path>
    <polygon class="cls-1" points="90.39 16.59 90.38 18.95 79.76 18.95 79.76 0.97 90.38 0.97 90.38 3.33 82.54 3.33 82.54 8.75 88.81 8.75 88.81 11.03 82.54 11.03 82.54 16.59 90.39 16.59"></polygon>
    <polygon class="cls-1" points="110.26 3.41 104.96 3.41 104.96 18.95 102.2 18.95 102.2 3.41 96.89 3.41 96.89 0.97 110.26 0.97 110.26 3.41"></polygon>
    <path class="cls-1" d="M128,10a10.73,10.73,0,0,1-.61,3.68,8.64,8.64,0,0,1-1.73,2.9,7.83,7.83,0,0,1-2.68,1.91,9.19,9.19,0,0,1-7,0,7.87,7.87,0,0,1-2.69-1.91,8.51,8.51,0,0,1-1.74-2.9,10.73,10.73,0,0,1-.61-3.68,10.73,10.73,0,0,1,.61-3.68,8.45,8.45,0,0,1,1.74-2.91A7.87,7.87,0,0,1,116,1.46a9.1,9.1,0,0,1,7,0,7.83,7.83,0,0,1,2.68,1.91,8.78,8.78,0,0,1,1.73,2.91A10.73,10.73,0,0,1,128,10m-2.82,0a9,9,0,0,0-.4-2.78,5.87,5.87,0,0,0-1.13-2.1,4.78,4.78,0,0,0-1.79-1.32,6.13,6.13,0,0,0-4.72,0,4.78,4.78,0,0,0-1.79,1.32,6,6,0,0,0-1.15,2.1,9,9,0,0,0-.4,2.78,8.87,8.87,0,0,0,.4,2.8,5.94,5.94,0,0,0,1.15,2.09,4.94,4.94,0,0,0,1.79,1.31,6.41,6.41,0,0,0,4.72,0,4.94,4.94,0,0,0,1.79-1.31,6,6,0,0,0,1.16-2.09,8.87,8.87,0,0,0,.4-2.8"></path>
    <path class="cls-1" d="M136.27,1a9.15,9.15,0,0,1,2.89.41,5.44,5.44,0,0,1,2,1.16,4.58,4.58,0,0,1,1.19,1.78,7,7,0,0,1,0,4.66,5.06,5.06,0,0,1-1.23,1.83,5.46,5.46,0,0,1-2,1.2,8.44,8.44,0,0,1-2.82.43h-2.54v6.47H131V.91Zm0,9.16a4.75,4.75,0,0,0,1.63-.25,3,3,0,0,0,1.17-.7,2.76,2.76,0,0,0,.7-1.11,4.48,4.48,0,0,0,0-2.85,2.81,2.81,0,0,0-.7-1.06,2.94,2.94,0,0,0-1.16-.67,5.11,5.11,0,0,0-1.65-.23h-2.5v6.87Z"></path>
    <path class="cls-1" d="M50.11,29.84a.92.92,0,0,1-.23.29.57.57,0,0,1-.31.1.72.72,0,0,1-.44-.18c-.16-.11-.36-.24-.6-.38a5.38,5.38,0,0,0-.84-.4,3.22,3.22,0,0,0-1.15-.18,3.11,3.11,0,0,0-1.09.17,2.39,2.39,0,0,0-.79.45,2.08,2.08,0,0,0-.48.7,2.3,2.3,0,0,0-.16.86,1.62,1.62,0,0,0,.3,1,2.58,2.58,0,0,0,.79.68,6.56,6.56,0,0,0,1.12.49l1.28.45a12,12,0,0,1,1.28.55,4.55,4.55,0,0,1,1.12.77,3.34,3.34,0,0,1,.79,1.14A4.06,4.06,0,0,1,51,38a5.47,5.47,0,0,1-.34,2,4.6,4.6,0,0,1-2.58,2.66,5.61,5.61,0,0,1-2.15.39,6.4,6.4,0,0,1-1.38-.14,7.1,7.1,0,0,1-1.28-.42,5.63,5.63,0,0,1-1.15-.64,6.25,6.25,0,0,1-1-.85l.7-1.22a.69.69,0,0,1,.24-.24.62.62,0,0,1,.32-.09.84.84,0,0,1,.52.24c.19.15.43.32.7.51a6.27,6.27,0,0,0,1,.51,3.61,3.61,0,0,0,1.38.23,2.86,2.86,0,0,0,2-.67,2.47,2.47,0,0,0,.78-1.9,1.82,1.82,0,0,0-.3-1.09,2.75,2.75,0,0,0-.78-.7,5.56,5.56,0,0,0-1.12-.48l-1.28-.42A11.83,11.83,0,0,1,44,35.16a4.33,4.33,0,0,1-1.12-.78,3.41,3.41,0,0,1-.78-1.2,4.51,4.51,0,0,1-.3-1.78,4.38,4.38,0,0,1,.31-1.64A4.15,4.15,0,0,1,43,28.35a4.44,4.44,0,0,1,1.49-1,5.29,5.29,0,0,1,2-.37,6.23,6.23,0,0,1,2.34.43,5.26,5.26,0,0,1,1.84,1.21Z"></path>
    <path class="cls-1" d="M67.54,35A9.25,9.25,0,0,1,67,38.21a7.32,7.32,0,0,1-1.51,2.53,7,7,0,0,1-2.34,1.67,8,8,0,0,1-6.06,0,6.92,6.92,0,0,1-2.33-1.67,7.34,7.34,0,0,1-1.52-2.53,9.94,9.94,0,0,1,0-6.42,7.6,7.6,0,0,1,1.52-2.53,7,7,0,0,1,2.34-1.67,8,8,0,0,1,6.06,0,7,7,0,0,1,2.34,1.67A7.67,7.67,0,0,1,67,31.79,9.25,9.25,0,0,1,67.55,35m-2.47,0a7.94,7.94,0,0,0-.32-2.42,5.36,5.36,0,0,0-1-1.83,4.34,4.34,0,0,0-1.56-1.16,5.51,5.51,0,0,0-4.11,0,4.37,4.37,0,0,0-1.57,1.16,5.36,5.36,0,0,0-1,1.83A7.92,7.92,0,0,0,55.17,35a8,8,0,0,0,.35,2.44,5.36,5.36,0,0,0,1,1.83,4.44,4.44,0,0,0,1.57,1.14,5.51,5.51,0,0,0,4.11,0,4.4,4.4,0,0,0,1.56-1.14,5.36,5.36,0,0,0,1-1.83A8,8,0,0,0,65.1,35"></path>
    <polygon class="cls-1" points="78.75 40.71 78.75 42.84 70.17 42.84 70.17 27.17 72.59 27.17 72.59 40.71 78.75 40.71"></polygon>
    <path class="cls-1" d="M86.19,40.78a3.71,3.71,0,0,0,1.54-.3,3.19,3.19,0,0,0,1.14-.85,3.91,3.91,0,0,0,.72-1.31,5.42,5.42,0,0,0,.24-1.7V27.17h2.4v9.45a7.61,7.61,0,0,1-.41,2.55,5.84,5.84,0,0,1-1.2,2,5.58,5.58,0,0,1-1.86,1.37,6.44,6.44,0,0,1-2.53.49,6.35,6.35,0,0,1-2.51-.49,5.62,5.62,0,0,1-2-1.34,5.84,5.84,0,0,1-1.2-2,7.61,7.61,0,0,1-.41-2.55V27.17h2.41V36.6a5.49,5.49,0,0,0,.25,1.71,3.63,3.63,0,0,0,.71,1.31,3.1,3.1,0,0,0,1.14.86,3.62,3.62,0,0,0,1.52.3"></path>
    <polygon class="cls-1" points="105.79 29.29 101.17 29.29 101.17 42.84 98.77 42.84 98.77 29.29 94.13 29.29 94.13 27.17 105.79 27.17 105.79 29.29"></polygon>
    <rect class="cls-1" x="107.85" y="27.17" width="2.42" height="15.67"></rect>
    <path class="cls-1" d="M127.76,35a9.48,9.48,0,0,1-.53,3.21,7.34,7.34,0,0,1-1.52,2.53,6.66,6.66,0,0,1-2.33,1.67,7.92,7.92,0,0,1-6,0A7.1,7.1,0,0,1,115,40.74a7.32,7.32,0,0,1-1.51-2.53,9.81,9.81,0,0,1,0-6.42A7.67,7.67,0,0,1,115,29.26a7.1,7.1,0,0,1,2.35-1.67,7.38,7.38,0,0,1,3-.6,7.55,7.55,0,0,1,3,.6,6.66,6.66,0,0,1,2.33,1.67,7.6,7.6,0,0,1,1.52,2.53,9.48,9.48,0,0,1,.53,3.21m-2.46,0a7.92,7.92,0,0,0-.35-2.42,5.36,5.36,0,0,0-1-1.83,4.34,4.34,0,0,0-1.56-1.16,5.51,5.51,0,0,0-4.11,0,4.49,4.49,0,0,0-1.57,1.16,5.36,5.36,0,0,0-1,1.83,7.63,7.63,0,0,0-.35,2.42,7.47,7.47,0,0,0,.35,2.44,5.36,5.36,0,0,0,1,1.83,4.53,4.53,0,0,0,1.57,1.14,5.51,5.51,0,0,0,4.11,0A4.4,4.4,0,0,0,124,39.27a5.36,5.36,0,0,0,1-1.83A8,8,0,0,0,125.3,35"></path>
    <path class="cls-1" d="M142.66,27.17V42.84h-1.23a1,1,0,0,1-.47-.1,1.13,1.13,0,0,1-.37-.35l-8.15-11V42.84h-2.12V27.17h1.52a.66.66,0,0,1,.2.06.7.7,0,0,1,.17.13,1.24,1.24,0,0,1,.18.22l8.16,11.07V27.17Z"></path>
  </g>
</svg>
