<svg width="850" height="850" viewBox="0 0 850 850" fill="none" xmlns="http://www.w3.org/2000/svg">
<path d="M520.625 223.125C514.136 229.745 510.501 238.646 510.501 247.916C510.501 257.187 514.136 266.088 520.625 272.708L577.291 329.375C583.912 335.864 592.813 339.499 602.083 339.499C611.354 339.499 620.254 335.864 626.875 329.375L760.396 195.854C778.204 235.209 783.597 279.056 775.854 321.553C768.111 364.05 747.6 403.178 717.056 433.722C686.511 464.267 647.383 484.777 604.886 492.52C562.389 500.263 518.542 494.871 479.187 477.062L234.458 721.791C220.369 735.881 201.259 743.796 181.333 743.796C161.407 743.796 142.298 735.881 128.208 721.791C114.119 707.702 106.203 688.592 106.203 668.666C106.203 648.741 114.119 629.631 128.208 615.541L372.937 370.812C355.129 331.458 349.736 287.61 357.479 245.113C365.223 202.617 385.733 163.489 416.277 132.944C446.822 102.4 485.95 81.8891 528.447 74.146C570.944 66.403 614.791 71.7952 654.146 89.6039L520.979 222.771L520.625 223.125Z" stroke="#ED202B" stroke-width="60" stroke-linecap="round" stroke-linejoin="round"/>
</svg>
